<svg width="47" height="47" viewBox="0 0 47 47" fill="none" xmlns="http://www.w3.org/2000/svg">
<path d="M23.5 47C36.4787 47 47 36.4787 47 23.5C47 10.5213 36.4787 0 23.5 0C10.5213 0 0 10.5213 0 23.5C0 36.4787 10.5213 47 23.5 47Z" fill="#0029DD"/>
<path d="M31.834 16.2085H29.1402L26.3204 13.3887C26.2239 13.2918 26.1091 13.2149 25.9827 13.1625C25.8563 13.1102 25.7208 13.0833 25.584 13.0835H21.4173C21.2805 13.0833 21.145 13.1102 21.0186 13.1625C20.8922 13.2149 20.7774 13.2918 20.6809 13.3887L17.8611 16.2085H15.1673C14.0184 16.2085 13.084 17.1429 13.084 18.2918V29.7502C13.084 30.8991 14.0184 31.8335 15.1673 31.8335H31.834C32.9829 31.8335 33.9173 30.8991 33.9173 29.7502V18.2918C33.9173 17.1429 32.9829 16.2085 31.834 16.2085ZM23.5007 28.7085C20.6777 28.7085 18.2923 26.3231 18.2923 23.5002C18.2923 20.6762 20.6777 18.2918 23.5007 18.2918C26.3236 18.2918 28.709 20.6762 28.709 23.5002C28.709 26.3231 26.3236 28.7085 23.5007 28.7085Z" fill="white"/>
<path d="M24.5417 20.375H22.4583V22.4583H20.375V24.5417H22.4583V26.625H24.5417V24.5417H26.625V22.4583H24.5417V20.375Z" fill="white"/>
</svg>
