<svg width="20" height="20" viewBox="0 0 20 20" fill="none" xmlns="http://www.w3.org/2000/svg">
<path d="M10 0C4.46154 0 0 4.46154 0 10C0 15.5385 4.46154 20 10 20C15.5385 20 20 15.5385 20 10C20 4.46154 15.5385 0 10 0ZM10 18.4615C5.30769 18.4615 1.53846 14.6923 1.53846 10C1.53846 5.30769 5.30769 1.53846 10 1.53846C14.6923 1.53846 18.4615 5.30769 18.4615 10C18.4615 14.6923 14.6923 18.4615 10 18.4615Z" fill="#ED1E2E"/>
<path d="M9.67035 12.967C9.73628 13.033 9.86815 13.0989 10 13.0989C10.1319 13.0989 10.1978 13.033 10.3297 12.967C10.3956 12.9011 10.4616 12.7692 10.4616 12.5714L10.9231 4.39561C10.9231 4.13187 10.8572 3.86814 10.7253 3.73627C10.5275 3.6044 10.3297 3.47253 10.066 3.47253C9.80221 3.47253 9.53848 3.53847 9.40661 3.73627C9.20881 3.86814 9.14287 4.13187 9.20881 4.39561L9.53848 12.6374C9.53848 12.7692 9.60441 12.9011 9.67035 12.967Z" fill="#ED1E2E"/>
<path d="M9.99975 14.4176C9.73602 14.4176 9.47228 14.4835 9.27448 14.6813C9.07668 14.8791 9.01074 15.1429 9.01074 15.4066C9.01074 15.7363 9.07668 15.9341 9.27448 16.1319C9.47228 16.3297 9.73602 16.3956 9.99975 16.3956C10.2635 16.3956 10.5272 16.3297 10.725 16.1319C10.9228 15.9341 10.9888 15.6703 10.9888 15.4066C10.9888 15.0769 10.9228 14.8791 10.725 14.6813C10.5272 14.4835 10.2635 14.4176 9.99975 14.4176Z" fill="#ED1E2E"/>
</svg>
