<svg width="17" height="14" viewBox="0 0 17 14" fill="none" xmlns="http://www.w3.org/2000/svg">
<path d="M11.0069 9.66606L8.33988 6.99902L5.67285 9.66606" stroke="#7D7D7D" stroke-linecap="round" stroke-linejoin="round"/>
<path d="M8.33887 6.99902V12.9998" stroke="#7D7D7D" stroke-linecap="round" stroke-linejoin="round"/>
<path d="M13.932 11.2598C14.5823 10.9052 15.096 10.3442 15.3921 9.6653C15.6882 8.98637 15.7497 8.22817 15.567 7.51038C15.3843 6.79259 14.9678 6.15608 14.3832 5.7013C13.7985 5.24653 13.0791 4.9994 12.3384 4.99891H11.4983C11.2965 4.2183 10.9204 3.49359 10.3981 2.87928C9.87593 2.26497 9.22125 1.77704 8.48331 1.45216C7.74538 1.12729 6.9434 0.973931 6.13767 1.00362C5.33194 1.0333 4.54342 1.24526 3.83139 1.62356C3.11937 2.00185 2.50237 2.53664 2.02678 3.18772C1.55118 3.83879 1.22938 4.58921 1.08555 5.38256C0.941726 6.17591 0.979622 6.99154 1.19639 7.76813C1.41316 8.54472 1.80316 9.26207 2.33707 9.86624" stroke="#7D7D7D" stroke-linecap="round" stroke-linejoin="round"/>
</svg>
