<svg width="20" height="20" viewBox="0 0 20 20" fill="none" xmlns="http://www.w3.org/2000/svg">
<circle cx="10" cy="10" r="9.6" stroke="black" stroke-width="0.8"/>
<path d="M15.8853 8.8249H15.402V8.8H10.002V11.2H13.3929C12.8982 12.5971 11.5689 13.6 10.002 13.6C8.01385 13.6 6.40195 11.9881 6.40195 10C6.40195 8.0119 8.01385 6.4 10.002 6.4C10.9197 6.4 11.7546 6.7462 12.3903 7.3117L14.0874 5.6146C13.0158 4.6159 11.5824 4 10.002 4C6.68845 4 4.00195 6.6865 4.00195 10C4.00195 13.3135 6.68845 16 10.002 16C13.3155 16 16.002 13.3135 16.002 10C16.002 9.5977 15.9606 9.205 15.8853 8.8249Z" fill="#FFC107"/>
<path d="M4.69434 7.2073L6.66564 8.653C7.19904 7.3324 8.49084 6.4 10.0025 6.4C10.9202 6.4 11.7551 6.7462 12.3908 7.3117L14.0879 5.6146C13.0163 4.6159 11.5829 4 10.0025 4C7.69794 4 5.69934 5.3011 4.69434 7.2073Z" fill="#FF3D00"/>
<path d="M10.0026 16C11.5524 16 12.9606 15.4069 14.0253 14.4424L12.1683 12.871C11.5457 13.3445 10.7849 13.6006 10.0026 13.6C8.44203 13.6 7.11693 12.6049 6.61773 11.2162L4.66113 12.7237C5.65413 14.6668 7.67073 16 10.0026 16Z" fill="#4CAF50"/>
<path d="M15.8853 8.8249H15.402V8.8H10.002V11.2H13.3929C13.1562 11.8649 12.73 12.446 12.1668 12.8713L12.1677 12.8707L14.0247 14.4421C13.8933 14.5615 16.002 13 16.002 10C16.002 9.5977 15.9606 9.205 15.8853 8.8249Z" fill="#1976D2"/>
</svg>
