<svg width="195" height="175" viewBox="0 0 195 175" fill="none" xmlns="http://www.w3.org/2000/svg">
<path d="M193.289 66.9235C193.219 66.9236 193.151 66.9022 193.094 66.8623L98.4818 0.989133C98.1938 0.789603 97.8517 0.68297 97.5014 0.683567C97.151 0.684164 96.8093 0.791962 96.522 0.992473L2.59127 66.8616C2.51697 66.9137 2.42502 66.9341 2.33564 66.9185C2.24626 66.9028 2.16676 66.8522 2.11465 66.778C2.06254 66.7037 2.04208 66.6118 2.05776 66.5224C2.07345 66.433 2.124 66.3536 2.1983 66.3015L96.1291 0.432359C96.5313 0.151685 97.0098 0.000809076 97.5003 3.24489e-06C97.9907 -0.000802586 98.4697 0.148499 98.8728 0.42785L193.485 66.3008C193.545 66.3424 193.59 66.4021 193.613 66.471C193.637 66.5399 193.638 66.6145 193.616 66.684C193.594 66.7535 193.551 66.8142 193.492 66.8573C193.433 66.9003 193.362 66.9236 193.289 66.9235L193.289 66.9235Z" fill="#3F3D56"/>
<path d="M7.95874 69.2585L97.5944 2.84521L187.91 73.9841L102.213 124.773L55.6865 114.171L7.95874 69.2585Z" fill="#E6E6E6"/>
<path d="M59.6137 156.143H15.3315C15.0596 156.144 14.7903 156.091 14.539 155.987C14.2877 155.883 14.0593 155.731 13.8669 155.539C13.6745 155.347 13.5219 155.118 13.4178 154.867C13.3136 154.616 13.26 154.347 13.26 154.075C13.26 153.803 13.3136 153.534 13.4178 153.283C13.5219 153.032 13.6745 152.804 13.8669 152.612C14.0593 152.42 14.2877 152.267 14.539 152.164C14.7903 152.06 15.0596 152.007 15.3315 152.007H59.6137C59.8856 152.007 60.1549 152.06 60.4062 152.164C60.6576 152.267 60.8859 152.42 61.0783 152.612C61.2707 152.804 61.4233 153.032 61.5275 153.283C61.6316 153.534 61.6852 153.803 61.6852 154.075C61.6852 154.347 61.6316 154.616 61.5275 154.867C61.4233 155.118 61.2707 155.347 61.0783 155.539C60.8859 155.731 60.6576 155.883 60.4062 155.987C60.1549 156.091 59.8856 156.144 59.6137 156.143Z" fill="#0029DD"/>
<path d="M31.219 147.251H15.3315C15.0596 147.251 14.7903 147.198 14.539 147.094C14.2877 146.991 14.0593 146.838 13.8669 146.646C13.6745 146.454 13.5219 146.226 13.4178 145.975C13.3136 145.724 13.26 145.455 13.26 145.183C13.26 144.911 13.3136 144.642 13.4178 144.391C13.5219 144.14 13.6745 143.912 13.8669 143.719C14.0593 143.527 14.2877 143.375 14.539 143.271C14.7903 143.167 15.0596 143.114 15.3315 143.115H31.219C31.4909 143.114 31.7602 143.167 32.0115 143.271C32.2628 143.375 32.4912 143.527 32.6836 143.719C32.876 143.912 33.0286 144.14 33.1327 144.391C33.2369 144.642 33.2905 144.911 33.2905 145.183C33.2905 145.455 33.2369 145.724 33.1327 145.975C33.0286 146.226 32.876 146.454 32.6836 146.646C32.4912 146.838 32.2628 146.991 32.0115 147.094C31.7602 147.198 31.4909 147.251 31.219 147.251Z" fill="#0029DD"/>
<path d="M98.8548 106.25C98.5182 106.25 98.1848 106.185 97.8732 106.058L42.5922 83.1261V11.3462C42.5929 10.7115 42.8454 10.1029 43.2944 9.65412C43.7433 9.2053 44.352 8.95283 44.9869 8.95209H151.04C151.674 8.95283 152.283 9.2053 152.732 9.65412C153.181 10.1029 153.434 10.7115 153.434 11.3462V83.1761L153.33 83.2206L99.866 106.046C99.5459 106.181 99.2021 106.25 98.8548 106.25Z" fill="white"/>
<path d="M98.8548 106.421C98.4959 106.421 98.1404 106.352 97.8081 106.216L42.4211 83.2403V11.3462C42.4219 10.6661 42.6925 10.0141 43.1735 9.53322C43.6545 9.05234 44.3067 8.78184 44.9869 8.78107H151.04C151.72 8.78184 152.372 9.05234 152.853 9.53322C153.334 10.0141 153.605 10.6661 153.605 11.3462V83.289L99.9332 106.204C99.5919 106.347 99.2252 106.421 98.8548 106.421ZM43.1053 82.7834L98.069 105.584C98.5817 105.792 99.1558 105.788 99.666 105.574L152.921 82.8375V11.3462C152.921 10.8475 152.722 10.3693 152.369 10.0167C152.017 9.66406 151.538 9.46569 151.04 9.4651H44.9869C44.4881 9.46569 44.0099 9.66406 43.6571 10.0167C43.3044 10.3693 43.106 10.8475 43.1054 11.3462L43.1053 82.7834Z" fill="#3F3D56"/>
<path d="M192.605 66.2395H192.537L153.263 83.005L99.5287 105.944C99.3188 106.032 99.0935 106.078 98.8657 106.079C98.6379 106.081 98.4121 106.037 98.2012 105.951L42.7632 82.9572L2.5247 66.2669L2.46322 66.2395H2.39474C1.75983 66.2402 1.15113 66.4927 0.702178 66.9415C0.25323 67.3903 0.000704481 67.9989 0 68.6336V172.606C0.000705384 173.241 0.253231 173.849 0.702178 174.298C1.15113 174.747 1.75983 174.999 2.39474 175H192.605C193.24 174.999 193.849 174.747 194.298 174.298C194.747 173.849 194.999 173.241 195 172.606V68.6336C194.999 67.9989 194.747 67.3903 194.298 66.9415C193.849 66.4927 193.24 66.2402 192.605 66.2395ZM194.316 172.606C194.316 173.059 194.135 173.494 193.815 173.815C193.494 174.136 193.059 174.316 192.605 174.316H2.39474C1.94113 174.316 1.50616 174.136 1.18541 173.815C0.864668 173.494 0.684392 173.059 0.684211 172.606V68.6336C0.684831 68.1914 0.856413 67.7665 1.16308 67.4478C1.46975 67.1291 1.88777 66.9413 2.32976 66.9235L42.7632 83.6959L97.938 106.583C98.5352 106.826 99.2045 106.823 99.799 106.573L153.263 83.7472L192.674 66.9235C193.115 66.9426 193.532 67.131 193.838 67.4495C194.144 67.768 194.315 68.1921 194.316 68.6336V172.606Z" fill="#3F3D56"/>
<path d="M98.3022 85.8958C96.2614 85.8996 94.2747 85.2398 92.6418 84.016L92.5406 83.9401L71.2236 67.6234C70.2364 66.8672 69.4078 65.924 68.7852 64.8476C68.1626 63.7713 67.7582 62.5829 67.595 61.3503C67.4318 60.1176 67.513 58.865 67.834 57.6637C68.1551 56.4625 68.7096 55.3362 69.4661 54.3493C70.2225 53.3623 71.1659 52.534 72.2426 51.9115C73.3192 51.2891 74.5079 50.8847 75.7409 50.7216C76.9738 50.5584 78.2268 50.6396 79.4284 50.9606C80.6299 51.2815 81.7565 51.8359 82.7437 52.5922L96.5512 63.1767L129.181 20.6347C129.937 19.648 130.881 18.82 131.958 18.1979C133.035 17.5758 134.224 17.1719 135.457 17.0092C136.69 16.8464 137.943 16.9281 139.144 17.2495C140.345 17.5709 141.472 18.1258 142.459 18.8824L142.256 19.1578L142.464 18.8864C144.455 20.4161 145.757 22.6728 146.086 25.1614C146.415 27.6501 145.742 30.1674 144.217 32.1612L105.837 82.2008C104.949 83.3539 103.808 84.287 102.501 84.9278C101.194 85.5686 99.7576 85.8998 98.3022 85.8958Z" fill="#0029DD"/>
</svg>
