<svg width="23" height="30" viewBox="0 0 23 30" fill="none" xmlns="http://www.w3.org/2000/svg">
<path fill-rule="evenodd" clip-rule="evenodd" d="M9.88707 23.8476C15.2699 23.8476 17.7603 23.1242 18.0007 20.2205C18.0007 17.3188 16.2646 17.5054 16.2646 13.9451C16.2646 11.1641 13.7484 8 9.88707 8C6.02575 8 3.50956 11.1641 3.50956 13.9451C3.50956 17.5054 1.77344 17.3188 1.77344 20.2205C2.01494 23.1352 4.50516 23.8476 9.88707 23.8476Z" stroke="#130F26" stroke-width="1.5" stroke-linecap="round" stroke-linejoin="round"/>
<path d="M12.1676 26.8572C10.8654 28.3719 8.83413 28.3899 7.51953 26.8572" stroke="#130F26" stroke-width="1.5" stroke-linecap="round" stroke-linejoin="round"/>
<path d="M18.0004 8C19.5819 8 20.864 6.65685 20.864 5C20.864 3.34315 19.5819 2 18.0004 2C16.4188 2 15.1367 3.34315 15.1367 5C15.1367 6.65685 16.4188 8 18.0004 8Z" fill="#ED1E2E"/>
</svg>
