<svg width="18" height="14" viewBox="0 0 18 14" fill="none" xmlns="http://www.w3.org/2000/svg">
<path d="M16.7041 5.96179C17.0986 6.47778 17.0986 7.17436 16.7041 7.68952C15.4616 9.31155 12.4805 12.6513 9.00013 12.6513C5.51971 12.6513 2.53864 9.31155 1.29611 7.68952C1.10419 7.44245 1 7.13851 1 6.82566C1 6.5128 1.10419 6.20886 1.29611 5.96179C2.53864 4.33977 5.51971 1 9.00013 1C12.4805 1 15.4616 4.33977 16.7041 5.96179V5.96179Z" stroke="black" stroke-linecap="round" stroke-linejoin="round"/>
<path d="M9.00062 9.32234C10.3795 9.32234 11.4973 8.20452 11.4973 6.82563C11.4973 5.44673 10.3795 4.32892 9.00062 4.32892C7.62172 4.32892 6.50391 5.44673 6.50391 6.82563C6.50391 8.20452 7.62172 9.32234 9.00062 9.32234Z" fill="black"/>
</svg>
