<svg width="368" height="2" viewBox="0 0 368 2" fill="none" xmlns="http://www.w3.org/2000/svg">
<path d="M4 1.5C4.27614 1.5 4.5 1.27614 4.5 1C4.5 0.723858 4.27614 0.5 4 0.5L4 1.5ZM12 0.500001C11.7239 0.500001 11.5 0.723859 11.5 1C11.5 1.27614 11.7239 1.5 12 1.5L12 0.500001ZM20 1.5C20.2761 1.5 20.5 1.27614 20.5 1C20.5 0.723859 20.2761 0.500002 20 0.500002L20 1.5ZM28 0.500002C27.7239 0.500002 27.5 0.72386 27.5 1C27.5 1.27614 27.7239 1.5 28 1.5L28 0.500002ZM36 1.5C36.2761 1.5 36.5 1.27615 36.5 1C36.5 0.723861 36.2761 0.500003 36 0.500003L36 1.5ZM44 0.500004C43.7239 0.500004 43.5 0.723861 43.5 1C43.5 1.27615 43.7239 1.5 44 1.5L44 0.500004ZM52 1.5C52.2761 1.5 52.5 1.27615 52.5 1C52.5 0.723862 52.2761 0.500005 52 0.500005L52 1.5ZM60 0.500005C59.7239 0.500005 59.5 0.723863 59.5 1.00001C59.5 1.27615 59.7239 1.50001 60 1.50001L60 0.500005ZM68 1.50001C68.2761 1.50001 68.5 1.27615 68.5 1.00001C68.5 0.723864 68.2761 0.500006 68 0.500006L68 1.50001ZM76 0.500007C75.7239 0.500007 75.5 0.723864 75.5 1.00001C75.5 1.27615 75.7239 1.50001 76 1.50001L76 0.500007ZM84 1.50001C84.2761 1.50001 84.5 1.27615 84.5 1.00001C84.5 0.723865 84.2761 0.500007 84 0.500007L84 1.50001ZM92 0.500008C91.7239 0.500008 91.5 0.723866 91.5 1.00001C91.5 1.27615 91.7239 1.50001 92 1.50001L92 0.500008ZM100 1.50001C100.276 1.50001 100.5 1.27615 100.5 1.00001C100.5 0.723866 100.276 0.500009 100 0.500009L100 1.50001ZM108 0.500009C107.724 0.500009 107.5 0.723867 107.5 1.00001C107.5 1.27615 107.724 1.50001 108 1.50001L108 0.500009ZM116 1.50001C116.276 1.50001 116.5 1.27615 116.5 1.00001C116.5 0.723868 116.276 0.50001 116 0.50001L116 1.50001ZM124 0.500011C123.724 0.500011 123.5 0.723868 123.5 1.00001C123.5 1.27615 123.724 1.50001 124 1.50001L124 0.500011ZM132 1.50001C132.276 1.50001 132.5 1.27615 132.5 1.00001C132.5 0.723869 132.276 0.500012 132 0.500012L132 1.50001ZM140 0.500012C139.724 0.500012 139.5 0.72387 139.5 1.00001C139.5 1.27615 139.724 1.50001 140 1.50001L140 0.500012ZM148 1.50001C148.276 1.50001 148.5 1.27616 148.5 1.00001C148.5 0.723871 148.276 0.500013 148 0.500013L148 1.50001ZM156 0.500014C155.724 0.500014 155.5 0.723871 155.5 1.00001C155.5 1.27616 155.724 1.50001 156 1.50001L156 0.500014ZM164 1.50001C164.276 1.50001 164.5 1.27616 164.5 1.00001C164.5 0.723872 164.276 0.500014 164 0.500014L164 1.50001ZM172 0.500015C171.724 0.500015 171.5 0.723873 171.5 1.00001C171.5 1.27616 171.724 1.50002 172 1.50002L172 0.500015ZM180 1.50002C180.276 1.50002 180.5 1.27616 180.5 1.00002C180.5 0.723873 180.276 0.500016 180 0.500016L180 1.50002ZM188 0.500016C187.724 0.500016 187.5 0.723874 187.5 1.00002C187.5 1.27616 187.724 1.50002 188 1.50002L188 0.500016ZM196 1.50002C196.276 1.50002 196.5 1.27616 196.5 1.00002C196.5 0.723875 196.276 0.500017 196 0.500017L196 1.50002ZM204 0.500018C203.724 0.500018 203.5 0.723875 203.5 1.00002C203.5 1.27616 203.724 1.50002 204 1.50002L204 0.500018ZM212 1.50002C212.276 1.50002 212.5 1.27616 212.5 1.00002C212.5 0.723876 212.276 0.500019 212 0.500019L212 1.50002ZM220 0.500019C219.724 0.500019 219.5 0.723877 219.5 1.00002C219.5 1.27616 219.724 1.50002 220 1.50002L220 0.500019ZM228 1.50002C228.276 1.50002 228.5 1.27616 228.5 1.00002C228.5 0.723878 228.276 0.50002 228 0.50002L228 1.50002ZM236 0.500021C235.724 0.500021 235.5 0.723878 235.5 1.00002C235.5 1.27616 235.724 1.50002 236 1.50002L236 0.500021ZM244 1.50002C244.276 1.50002 244.5 1.27616 244.5 1.00002C244.5 0.723879 244.276 0.500021 244 0.500021L244 1.50002ZM252 0.500022C251.724 0.500022 251.5 0.72388 251.5 1.00002C251.5 1.27616 251.724 1.50002 252 1.50002L252 0.500022ZM260 1.50002C260.276 1.50002 260.5 1.27617 260.5 1.00002C260.5 0.72388 260.276 0.500023 260 0.500023L260 1.50002ZM268 0.500023C267.724 0.500023 267.5 0.723881 267.5 1.00002C267.5 1.27617 267.724 1.50002 268 1.50002L268 0.500023ZM276 1.50002C276.276 1.50002 276.5 1.27617 276.5 1.00002C276.5 0.723882 276.276 0.500024 276 0.500024L276 1.50002ZM284 0.500025C283.724 0.500025 283.5 0.723882 283.5 1.00002C283.5 1.27617 283.724 1.50002 284 1.50002L284 0.500025ZM292 1.50003C292.276 1.50003 292.5 1.27617 292.5 1.00003C292.5 0.723883 292.276 0.500026 292 0.500026L292 1.50003ZM300 0.500026C299.724 0.500026 299.5 0.723884 299.5 1.00003C299.5 1.27617 299.724 1.50003 300 1.50003L300 0.500026ZM308 1.50003C308.276 1.50003 308.5 1.27617 308.5 1.00003C308.5 0.723885 308.276 0.500027 308 0.500027L308 1.50003ZM316 0.500028C315.724 0.500028 315.5 0.723885 315.5 1.00003C315.5 1.27617 315.724 1.50003 316 1.50003L316 0.500028ZM324 1.50003C324.276 1.50003 324.5 1.27617 324.5 1.00003C324.5 0.723886 324.276 0.500028 324 0.500028L324 1.50003ZM332 0.500029C331.724 0.500029 331.5 0.723887 331.5 1.00003C331.5 1.27617 331.724 1.50003 332 1.50003L332 0.500029ZM340 1.50003C340.276 1.50003 340.5 1.27617 340.5 1.00003C340.5 0.723887 340.276 0.50003 340 0.50003L340 1.50003ZM348 0.50003C347.724 0.50003 347.5 0.723888 347.5 1.00003C347.5 1.27617 347.724 1.50003 348 1.50003L348 0.50003ZM356 1.50003C356.276 1.50003 356.5 1.27617 356.5 1.00003C356.5 0.723889 356.276 0.500031 356 0.500031L356 1.50003ZM364 0.500032C363.724 0.500032 363.5 0.723889 363.5 1.00003C363.5 1.27617 363.724 1.50003 364 1.50003L364 0.500032ZM-4.37114e-08 1.5L4 1.5L4 0.5L4.37114e-08 0.5L-4.37114e-08 1.5ZM12 1.5L20 1.5L20 0.500002L12 0.500001L12 1.5ZM28 1.5L36 1.5L36 0.500003L28 0.500002L28 1.5ZM44 1.5L52 1.5L52 0.500005L44 0.500004L44 1.5ZM60 1.50001L68 1.50001L68 0.500006L60 0.500005L60 1.50001ZM76 1.50001L84 1.50001L84 0.500007L76 0.500007L76 1.50001ZM92 1.50001L100 1.50001L100 0.500009L92 0.500008L92 1.50001ZM108 1.50001L116 1.50001L116 0.50001L108 0.500009L108 1.50001ZM124 1.50001L132 1.50001L132 0.500012L124 0.500011L124 1.50001ZM140 1.50001L148 1.50001L148 0.500013L140 0.500012L140 1.50001ZM156 1.50001L164 1.50001L164 0.500014L156 0.500014L156 1.50001ZM172 1.50002L180 1.50002L180 0.500016L172 0.500015L172 1.50002ZM188 1.50002L196 1.50002L196 0.500017L188 0.500016L188 1.50002ZM204 1.50002L212 1.50002L212 0.500019L204 0.500018L204 1.50002ZM220 1.50002L228 1.50002L228 0.50002L220 0.500019L220 1.50002ZM236 1.50002L244 1.50002L244 0.500021L236 0.500021L236 1.50002ZM252 1.50002L260 1.50002L260 0.500023L252 0.500022L252 1.50002ZM268 1.50002L276 1.50002L276 0.500024L268 0.500023L268 1.50002ZM284 1.50002L292 1.50003L292 0.500026L284 0.500025L284 1.50002ZM300 1.50003L308 1.50003L308 0.500027L300 0.500026L300 1.50003ZM316 1.50003L324 1.50003L324 0.500028L316 0.500028L316 1.50003ZM332 1.50003L340 1.50003L340 0.50003L332 0.500029L332 1.50003ZM348 1.50003L356 1.50003L356 0.500031L348 0.50003L348 1.50003ZM364 1.50003L368 1.50003L368 0.500032L364 0.500032L364 1.50003Z" fill="#7D7D7D"/>
</svg>
