<svg width="17" height="17" viewBox="0 0 17 17" fill="none" xmlns="http://www.w3.org/2000/svg">
<path fill-rule="evenodd" clip-rule="evenodd" d="M7.4552 16.3999H3.5464C1.5912 16.3999 0 14.8087 0 12.8519V3.9487C0 1.9919 1.5912 0.399902 3.5464 0.399902H7.4464C9.4032 0.399902 10.9952 1.9919 10.9952 3.9487V4.6943C10.9952 5.0255 10.7264 5.2943 10.3952 5.2943C10.064 5.2943 9.7952 5.0255 9.7952 4.6943V3.9487C9.7952 2.6527 8.7416 1.5999 7.4464 1.5999H3.5464C2.2528 1.5999 1.2 2.6527 1.2 3.9487V12.8519C1.2 14.1471 2.2528 15.1999 3.5464 15.1999H7.4552C8.7448 15.1999 9.7952 14.1503 9.7952 12.8607V12.1063C9.7952 11.7751 10.064 11.5063 10.3952 11.5063C10.7264 11.5063 10.9952 11.7751 10.9952 12.1063V12.8607C10.9952 14.8127 9.4064 16.3999 7.4552 16.3999Z" fill="#F42E2B"/>
<mask id="mask0_2670_902" style="mask-type:alpha" maskUnits="userSpaceOnUse" x="5" y="7" width="12" height="2">
<path fill-rule="evenodd" clip-rule="evenodd" d="M5.5957 7.80005H16.4284V9.00005H5.5957V7.80005Z" fill="white"/>
</mask>
<g mask="url(#mask0_2670_902)">
<path fill-rule="evenodd" clip-rule="evenodd" d="M15.8285 9.00005H6.1957C5.8645 9.00005 5.5957 8.73125 5.5957 8.40005C5.5957 8.06885 5.8645 7.80005 6.1957 7.80005H15.8285C16.1597 7.80005 16.4285 8.06885 16.4285 8.40005C16.4285 8.73125 16.1597 9.00005 15.8285 9.00005Z" fill="#F42E2B"/>
</g>
<mask id="mask1_2670_902" style="mask-type:alpha" maskUnits="userSpaceOnUse" x="12" y="5" width="5" height="7">
<path fill-rule="evenodd" clip-rule="evenodd" d="M12.8887 5.46802H16.4306V11.3326H12.8887V5.46802Z" fill="white"/>
</mask>
<g mask="url(#mask1_2670_902)">
<path fill-rule="evenodd" clip-rule="evenodd" d="M13.4885 11.3326C13.3349 11.3326 13.1805 11.2742 13.0637 11.1558C12.8301 10.9206 12.8309 10.5414 13.0653 10.3078L14.9805 8.39982L13.0653 6.49262C12.8309 6.25902 12.8293 5.87982 13.0637 5.64462C13.2973 5.40942 13.6765 5.40942 13.9117 5.64302L16.2541 7.97502C16.3677 8.08702 16.4309 8.24062 16.4309 8.39982C16.4309 8.55902 16.3677 8.71262 16.2541 8.82462L13.9117 11.1574C13.7949 11.2742 13.6413 11.3326 13.4885 11.3326Z" fill="#F42E2B"/>
</g>
</svg>
