<svg width="15" height="20" viewBox="0 0 15 20" fill="none" xmlns="http://www.w3.org/2000/svg">
<path d="M10.8333 17.9167C10.8333 18.0272 10.8772 18.1332 10.9554 18.2113C11.0335 18.2894 11.1395 18.3333 11.25 18.3333H12.9167C13.0272 18.3333 13.1332 18.2894 13.2113 18.2113C13.2894 18.1332 13.3333 18.0272 13.3333 17.9167C13.3333 17.8062 13.2894 17.7002 13.2113 17.622C13.1332 17.5439 13.0272 17.5 12.9167 17.5H11.25C11.1395 17.5 11.0335 17.5439 10.9554 17.622C10.8772 17.7002 10.8333 17.8062 10.8333 17.9167ZM12.0833 1.66667C11.8361 1.66667 11.5944 1.73998 11.3889 1.87733C11.1833 2.01468 11.0231 2.2099 10.9285 2.43831C10.8339 2.66672 10.8091 2.91805 10.8574 3.16053C10.9056 3.40301 11.0246 3.62573 11.1995 3.80055C11.3743 3.97537 11.597 4.09442 11.8395 4.14265C12.0819 4.19088 12.3333 4.16613 12.5617 4.07152C12.7901 3.97691 12.9853 3.81669 13.1227 3.61113C13.26 3.40557 13.3333 3.16389 13.3333 2.91667C13.3333 2.58515 13.2016 2.2672 12.9672 2.03278C12.7328 1.79836 12.4149 1.66667 12.0833 1.66667ZM12.0833 3.33333C12.0009 3.33333 11.9204 3.3089 11.8518 3.26311C11.7833 3.21733 11.7299 3.15225 11.6984 3.07612C11.6668 2.99998 11.6586 2.9162 11.6747 2.83538C11.6908 2.75455 11.7304 2.68031 11.7887 2.62204C11.847 2.56377 11.9212 2.52408 12.002 2.50801C12.0829 2.49193 12.1666 2.50018 12.2428 2.53172C12.3189 2.56325 12.384 2.61666 12.4298 2.68518C12.4756 2.7537 12.5 2.83426 12.5 2.91667C12.5 3.02717 12.4561 3.13315 12.378 3.21129C12.2998 3.28943 12.1938 3.33333 12.0833 3.33333ZM7.5 17.5C8.48891 17.5 9.45561 17.2068 10.2779 16.6573C11.1001 16.1079 11.741 15.327 12.1194 14.4134C12.4978 13.4998 12.5969 12.4945 12.4039 11.5245C12.211 10.5546 11.7348 9.66373 11.0355 8.96447C10.3363 8.2652 9.44536 7.789 8.47545 7.59607C7.50555 7.40315 6.50021 7.50216 5.58658 7.8806C4.67295 8.25904 3.89206 8.8999 3.34265 9.72215C2.79324 10.5444 2.5 11.5111 2.5 12.5C2.5 13.8261 3.02678 15.0979 3.96447 16.0355C4.90215 16.9732 6.17392 17.5 7.5 17.5ZM7.5 8.33333C8.32409 8.33333 9.12967 8.5777 9.81488 9.03554C10.5001 9.49338 11.0341 10.1441 11.3495 10.9055C11.6649 11.6668 11.7474 12.5046 11.5866 13.3129C11.4258 14.1211 11.029 14.8636 10.4463 15.4463C9.86356 16.029 9.12113 16.4258 8.31288 16.5866C7.50462 16.7474 6.66684 16.6649 5.90549 16.3495C5.14413 16.0341 4.49338 15.5001 4.03554 14.8149C3.5777 14.1297 3.33333 13.3241 3.33333 12.5C3.33333 11.3949 3.77232 10.3351 4.55372 9.55372C5.33512 8.77232 6.39493 8.33333 7.5 8.33333ZM12.9167 0H2.08333C1.5308 0 1.0009 0.219493 0.610194 0.610194C0.219493 1.0009 0 1.5308 0 2.08333V17.9167C0 18.1903 0.053887 18.4612 0.158584 18.7139C0.263282 18.9667 0.416739 19.1964 0.610194 19.3898C0.80365 19.5833 1.03331 19.7367 1.28608 19.8414C1.53884 19.9461 1.80975 20 2.08333 20H12.9167C13.1903 20 13.4612 19.9461 13.7139 19.8414C13.9667 19.7367 14.1964 19.5833 14.3898 19.3898C14.5833 19.1964 14.7367 18.9667 14.8414 18.7139C14.9461 18.4612 15 18.1903 15 17.9167V2.08333C15 1.5308 14.7805 1.0009 14.3898 0.610194C13.9991 0.219493 13.4692 0 12.9167 0V0ZM2.5 0.833333H6.66667V2.91667C6.66667 3.02717 6.62277 3.13315 6.54463 3.21129C6.46649 3.28943 6.36051 3.33333 6.25 3.33333H2.91667C2.80616 3.33333 2.70018 3.28943 2.62204 3.21129C2.5439 3.13315 2.5 3.02717 2.5 2.91667V0.833333ZM14.1667 17.9167C14.1667 18.2482 14.035 18.5661 13.8005 18.8005C13.5661 19.035 13.2482 19.1667 12.9167 19.1667H2.08333C1.75181 19.1667 1.43387 19.035 1.19945 18.8005C0.965029 18.5661 0.833333 18.2482 0.833333 17.9167V5.83333H14.1667V17.9167ZM14.1667 5H0.833333V2.08333C0.834058 1.82544 0.914533 1.57408 1.06372 1.36372C1.21292 1.15336 1.42352 0.994297 1.66667 0.908333V2.91667C1.66667 3.24819 1.79836 3.56613 2.03278 3.80055C2.2672 4.03497 2.58515 4.16667 2.91667 4.16667H6.25C6.58152 4.16667 6.89946 4.03497 7.13388 3.80055C7.3683 3.56613 7.5 3.24819 7.5 2.91667V0.833333H12.9167C13.2482 0.833333 13.5661 0.965029 13.8005 1.19945C14.035 1.43387 14.1667 1.75181 14.1667 2.08333V5ZM9.58333 3.33333C9.50092 3.33333 9.42037 3.35777 9.35185 3.40355C9.28333 3.44934 9.22992 3.51441 9.19838 3.59055C9.16685 3.66668 9.1586 3.75046 9.17467 3.83129C9.19075 3.91211 9.23043 3.98636 9.2887 4.04463C9.34698 4.1029 9.42122 4.14258 9.50204 4.15866C9.58287 4.17474 9.66665 4.16649 9.74278 4.13495C9.81892 4.10341 9.884 4.05001 9.92978 3.98149C9.97556 3.91297 10 3.83241 10 3.75C10 3.63949 9.9561 3.53351 9.87796 3.45537C9.79982 3.37723 9.69384 3.33333 9.58333 3.33333ZM7.5 15.8333C8.15927 15.8333 8.80374 15.6378 9.3519 15.2716C9.90006 14.9053 10.3273 14.3847 10.5796 13.7756C10.8319 13.1665 10.8979 12.4963 10.7693 11.8497C10.6407 11.2031 10.3232 10.6092 9.85702 10.143C9.39085 9.6768 8.7969 9.35933 8.1503 9.23071C7.5037 9.1021 6.83348 9.16811 6.22439 9.4204C5.6153 9.67269 5.09471 10.0999 4.72843 10.6481C4.36216 11.1963 4.16667 11.8407 4.16667 12.5C4.16667 13.3841 4.51786 14.2319 5.14298 14.857C5.7681 15.4821 6.61594 15.8333 7.5 15.8333ZM7.5 10C8.08965 10.0016 8.65976 10.2115 9.1096 10.5928C9.55944 10.974 9.86006 11.5019 9.95833 12.0833H9.58333C9.47283 12.0833 9.36685 12.1272 9.2887 12.2054C9.21056 12.2835 9.16667 12.3895 9.16667 12.5C9.16667 12.6105 9.21056 12.7165 9.2887 12.7946C9.36685 12.8728 9.47283 12.9167 9.58333 12.9167H9.95833C9.87884 13.3869 9.6665 13.8246 9.34636 14.1781C9.02622 14.5316 8.61165 14.7862 8.15155 14.9118C7.69145 15.0374 7.20504 15.0287 6.7497 14.8868C6.29436 14.745 5.8891 14.4758 5.58173 14.1112C5.27437 13.7465 5.07773 13.3015 5.01501 12.8287C4.9523 12.356 5.02612 11.8751 5.22779 11.4429C5.42945 11.0107 5.75052 10.6452 6.15313 10.3896C6.55574 10.1339 7.02308 9.99872 7.5 10Z" fill="#0029DD"/>
</svg>
