<svg width="546" height="498" viewBox="0 0 546 498" fill="none" xmlns="http://www.w3.org/2000/svg">
<g clip-path="url(#clip0_835_155)">
<rect width="546" height="498" fill="white"/>
<path d="M333.1 331.972H212.898C212.478 331.972 212.075 331.805 211.777 331.507C211.48 331.209 211.313 330.806 211.312 330.385V198.005C211.313 197.584 211.48 197.181 211.777 196.883C212.075 196.586 212.478 196.418 212.898 196.418H333.1C333.52 196.418 333.923 196.586 334.221 196.883C334.518 197.181 334.685 197.584 334.686 198.005V330.385C334.685 330.806 334.518 331.209 334.221 331.507C333.923 331.805 333.52 331.972 333.1 331.972Z" fill="white"/>
<path d="M333.1 331.972H212.898C212.478 331.972 212.075 331.805 211.777 331.507C211.48 331.209 211.313 330.806 211.312 330.385V198.005C211.313 197.584 211.48 197.181 211.777 196.883C212.075 196.586 212.478 196.418 212.898 196.418H333.1C333.52 196.418 333.923 196.586 334.221 196.883C334.518 197.181 334.685 197.584 334.686 198.005V330.385C334.685 330.806 334.518 331.209 334.221 331.507C333.923 331.805 333.52 331.972 333.1 331.972ZM212.898 197.053C212.646 197.053 212.404 197.154 212.226 197.332C212.047 197.511 211.947 197.753 211.947 198.005V330.385C211.947 330.638 212.047 330.88 212.226 331.058C212.404 331.237 212.646 331.337 212.898 331.338H333.1C333.352 331.337 333.594 331.237 333.772 331.058C333.951 330.88 334.051 330.638 334.051 330.385V198.005C334.051 197.753 333.951 197.511 333.772 197.332C333.594 197.154 333.352 197.053 333.1 197.053H212.898Z" fill="#3F3D56"/>
<path d="M264.754 246.894H234.941C234.521 246.894 234.118 246.726 233.82 246.429C233.523 246.131 233.356 245.728 233.355 245.307V215.466C233.356 215.045 233.523 214.641 233.82 214.344C234.118 214.046 234.521 213.879 234.941 213.878H264.754C265.174 213.879 265.577 214.046 265.875 214.344C266.172 214.641 266.339 215.045 266.34 215.466V245.307C266.339 245.728 266.172 246.131 265.875 246.429C265.577 246.726 265.174 246.894 264.754 246.894ZM234.941 214.513C234.689 214.514 234.447 214.614 234.269 214.793C234.09 214.971 233.99 215.213 233.99 215.466V245.307C233.99 245.559 234.09 245.801 234.269 245.98C234.447 246.158 234.689 246.259 234.941 246.259H264.754C265.006 246.259 265.248 246.158 265.426 245.98C265.605 245.801 265.705 245.559 265.705 245.307V215.466C265.705 215.213 265.605 214.971 265.426 214.793C265.248 214.614 265.006 214.514 264.754 214.513H234.941Z" fill="#F2F2F2"/>
<path d="M256.191 250.545H226.378C226 250.544 225.637 250.394 225.37 250.126C225.102 249.858 224.952 249.495 224.951 249.116V219.275C224.952 218.896 225.102 218.533 225.37 218.266C225.637 217.998 226 217.847 226.378 217.847H256.191C256.569 217.847 256.932 217.998 257.2 218.266C257.467 218.533 257.618 218.896 257.618 219.275V249.116C257.618 249.495 257.467 249.858 257.2 250.126C256.932 250.394 256.569 250.544 256.191 250.545Z" fill="#0029DD"/>
<path d="M319.621 265.148H226.377C226.19 265.148 226.004 265.111 225.83 265.04C225.657 264.968 225.499 264.863 225.366 264.73C225.233 264.598 225.128 264.44 225.056 264.266C224.984 264.093 224.947 263.907 224.947 263.719C224.947 263.531 224.984 263.345 225.056 263.172C225.128 262.998 225.233 262.841 225.366 262.708C225.499 262.575 225.657 262.47 225.83 262.398C226.004 262.327 226.19 262.29 226.377 262.291H319.621C319.999 262.291 320.362 262.441 320.63 262.709C320.898 262.977 321.048 263.34 321.048 263.719C321.048 264.098 320.898 264.461 320.63 264.729C320.362 264.997 319.999 265.148 319.621 265.148V265.148Z" fill="#CCCCCC"/>
<path d="M297.103 274.989H226.377C226.19 274.989 226.004 274.953 225.83 274.881C225.657 274.809 225.499 274.704 225.366 274.572C225.233 274.439 225.128 274.281 225.056 274.108C224.984 273.934 224.947 273.748 224.947 273.56C224.947 273.373 224.984 273.187 225.056 273.013C225.128 272.84 225.233 272.682 225.366 272.549C225.499 272.417 225.657 272.311 225.83 272.24C226.004 272.168 226.19 272.131 226.377 272.132H297.103C297.481 272.132 297.844 272.282 298.112 272.55C298.38 272.818 298.53 273.182 298.53 273.56C298.53 273.939 298.38 274.303 298.112 274.571C297.844 274.838 297.481 274.989 297.103 274.989V274.989Z" fill="#CCCCCC"/>
<path d="M319.304 228.958H278.074C277.695 228.958 277.332 228.807 277.065 228.539C276.797 228.271 276.646 227.908 276.646 227.529C276.646 227.15 276.797 226.787 277.065 226.519C277.332 226.251 277.695 226.101 278.074 226.101H319.304C319.492 226.1 319.677 226.137 319.851 226.208C320.024 226.28 320.182 226.385 320.315 226.518C320.448 226.651 320.553 226.808 320.625 226.982C320.697 227.155 320.734 227.341 320.734 227.529C320.734 227.717 320.697 227.903 320.625 228.076C320.553 228.25 320.448 228.408 320.315 228.54C320.182 228.673 320.024 228.778 319.851 228.85C319.677 228.921 319.492 228.958 319.304 228.958Z" fill="#0029DD"/>
<path d="M309.014 238.799H278.074C277.695 238.799 277.332 238.648 277.065 238.38C276.797 238.112 276.646 237.749 276.646 237.37C276.646 236.991 276.797 236.628 277.065 236.36C277.332 236.092 277.695 235.941 278.074 235.941H309.014C309.393 235.941 309.756 236.092 310.023 236.36C310.291 236.628 310.441 236.991 310.441 237.37C310.441 237.749 310.291 238.112 310.023 238.38C309.756 238.648 309.393 238.799 309.014 238.799Z" fill="#0029DD"/>
<path d="M319.622 284.83H226.378C226 284.83 225.637 284.68 225.369 284.412C225.102 284.144 224.951 283.781 224.951 283.402C224.951 283.023 225.102 282.659 225.369 282.392C225.637 282.124 226 281.973 226.378 281.973H319.622C319.81 281.973 319.995 282.009 320.169 282.081C320.342 282.153 320.5 282.258 320.633 282.391C320.766 282.523 320.871 282.681 320.943 282.854C321.015 283.028 321.052 283.214 321.052 283.402C321.052 283.59 321.015 283.776 320.943 283.949C320.871 284.123 320.766 284.28 320.633 284.413C320.5 284.546 320.342 284.651 320.169 284.722C319.995 284.794 319.81 284.831 319.622 284.83Z" fill="#CCCCCC"/>
<path d="M297.104 294.671H226.378C226 294.671 225.637 294.521 225.369 294.253C225.102 293.985 224.951 293.621 224.951 293.243C224.951 292.864 225.102 292.5 225.369 292.232C225.637 291.964 226 291.814 226.378 291.814H297.104C297.292 291.814 297.477 291.85 297.651 291.922C297.824 291.993 297.982 292.099 298.115 292.231C298.248 292.364 298.353 292.522 298.425 292.695C298.497 292.869 298.534 293.055 298.534 293.243C298.534 293.43 298.497 293.616 298.425 293.79C298.353 293.963 298.248 294.121 298.115 294.254C297.982 294.386 297.824 294.492 297.651 294.563C297.477 294.635 297.292 294.671 297.104 294.671L297.104 294.671Z" fill="#CCCCCC"/>
<path d="M319.621 304.512H226.377C226.19 304.513 226.004 304.476 225.83 304.405C225.657 304.333 225.499 304.228 225.366 304.095C225.233 303.962 225.128 303.805 225.056 303.631C224.984 303.458 224.947 303.272 224.947 303.084C224.947 302.896 224.984 302.71 225.056 302.536C225.128 302.363 225.233 302.205 225.366 302.073C225.499 301.94 225.657 301.835 225.83 301.763C226.004 301.692 226.19 301.655 226.377 301.655H319.621C319.999 301.655 320.362 301.806 320.63 302.074C320.898 302.342 321.048 302.705 321.048 303.084C321.048 303.463 320.898 303.826 320.63 304.094C320.362 304.362 319.999 304.512 319.621 304.512Z" fill="#CCCCCC"/>
<path d="M319.622 314.354H226.378C226 314.354 225.637 314.203 225.369 313.935C225.102 313.667 224.951 313.304 224.951 312.925C224.951 312.546 225.102 312.183 225.369 311.915C225.637 311.647 226 311.497 226.378 311.497H319.622C320 311.497 320.363 311.647 320.631 311.915C320.899 312.183 321.049 312.546 321.049 312.925C321.049 313.304 320.899 313.667 320.631 313.935C320.363 314.203 320 314.354 319.622 314.354Z" fill="#CCCCCC"/>
<path d="M186.25 390.615C186.253 409.264 180.646 427.482 170.158 442.896C159.67 458.31 144.787 470.205 127.449 477.031C126.089 477.577 124.704 478.085 123.312 478.556C121.758 479.089 120.187 479.578 118.599 480.024C117.496 480.331 116.383 480.62 115.259 480.889C98.3393 484.948 80.6234 484.191 64.1104 478.706C62.8131 478.273 61.5282 477.809 60.2559 477.326C58.5449 476.667 56.8527 475.958 55.1919 475.199C55.0665 475.149 54.9474 475.093 54.8284 475.036C54.1765 474.735 53.5435 474.434 52.898 474.114H52.8917C52.008 473.687 51.1327 473.244 50.2657 472.784C48.2726 471.73 46.3235 470.607 44.4182 469.415C43.428 468.8 42.4523 468.163 41.4913 467.502C26.3659 457.28 14.5905 442.818 7.6406 425.926C0.690702 409.035 -1.12462 390.467 2.42208 372.548C5.96879 354.628 14.7198 338.155 27.5786 325.192C40.4374 312.229 56.8322 303.353 74.7086 299.676C76.3444 299.337 77.997 299.044 79.6662 298.797C80.7128 298.634 81.772 298.496 82.8312 298.377C83.5896 298.289 84.348 298.208 85.1188 298.145H85.1251C87.1871 297.957 89.2679 297.84 91.3675 297.794C91.6558 297.787 91.9441 297.781 92.2386 297.775C92.4016 297.775 92.5645 297.769 92.7275 297.775H92.7338C92.9845 297.769 93.2351 297.769 93.4921 297.769C94.545 297.769 95.598 297.787 96.6446 297.825C98.951 297.9 101.232 298.059 103.489 298.302C104.792 298.44 106.077 298.609 107.362 298.797C107.506 298.822 107.656 298.841 107.801 298.866C108.227 298.935 108.659 299.004 109.085 299.08C109.988 299.224 110.884 299.393 111.78 299.575C112.62 299.745 113.454 299.92 114.287 300.109C117.368 300.812 120.41 301.677 123.4 302.699C143.666 309.634 160.92 323.357 172.249 341.551C172.568 342.059 172.882 342.573 173.189 343.094C173.427 343.483 173.652 343.872 173.878 344.267C173.96 344.399 174.035 344.531 174.104 344.662C174.154 344.738 174.191 344.813 174.235 344.888C174.649 345.61 175.05 346.344 175.439 347.078C182.559 360.481 186.273 375.434 186.25 390.615Z" fill="white"/>
<path d="M93.5015 484.091C83.446 484.091 73.4558 482.474 63.9127 479.302C62.6822 478.891 61.4136 478.436 60.0334 477.912C58.2921 477.242 56.5763 476.522 54.9312 475.77C54.8216 475.726 54.6916 475.666 54.5615 475.604C53.9377 475.316 53.3277 475.026 52.7074 474.719L52.6192 474.679C51.7392 474.254 50.8485 473.803 49.972 473.338C47.9757 472.283 45.995 471.141 44.0856 469.947C43.092 469.33 42.099 468.681 41.136 468.019C25.9093 457.727 14.0553 443.166 7.05935 426.161C0.0633801 409.156 -1.7635 390.463 1.80759 372.423C5.37868 354.383 14.1889 337.799 27.1345 324.749C40.0801 311.699 56.5853 302.763 74.5821 299.061C76.223 298.721 77.9029 298.424 79.5742 298.176C80.5642 298.022 81.638 297.88 82.7608 297.753C83.5242 297.665 84.2896 297.583 85.0677 297.519C87.1329 297.332 89.2477 297.212 91.3533 297.166L92.3933 297.146C92.5125 297.144 92.6316 297.143 92.7507 297.148C92.9738 297.141 93.2295 297.141 93.4917 297.141C94.5521 297.141 95.6204 297.16 96.6668 297.198C98.9784 297.273 101.297 297.435 103.555 297.678C104.751 297.804 106.026 297.968 107.452 298.176L108.055 298.272C108.434 298.333 108.816 298.395 109.194 298.462C110.007 298.592 110.871 298.751 111.905 298.96C112.748 299.131 113.587 299.307 114.425 299.496C117.527 300.206 120.591 301.076 123.602 302.106C143.994 309.107 161.359 322.917 172.78 341.219C173.101 341.729 173.417 342.248 173.728 342.775C173.964 343.16 174.193 343.555 174.422 343.956C174.495 344.073 174.572 344.208 174.644 344.344C174.679 344.399 174.71 344.454 174.741 344.509L174.776 344.572C175.17 345.259 175.567 345.981 175.992 346.783C182.158 358.416 185.799 371.22 186.678 384.358C187.557 397.497 185.654 410.673 181.093 423.024C176.532 435.375 169.416 446.623 160.211 456.03C151.006 465.438 139.92 472.793 127.678 477.615C126.351 478.147 124.948 478.664 123.513 479.15C121.958 479.683 120.361 480.18 118.768 480.627C117.665 480.935 116.534 481.228 115.405 481.499C108.231 483.221 100.879 484.091 93.5015 484.091ZM53.0348 473.486H53.0381L53.1759 473.552C53.8161 473.869 54.4441 474.168 55.0906 474.466C55.2046 474.52 55.3117 474.571 55.4245 474.617C57.0738 475.37 58.7657 476.08 60.4805 476.74C61.8421 477.257 63.0951 477.706 64.3084 478.111C80.7094 483.563 98.3073 484.314 115.112 480.279C116.227 480.012 117.343 479.722 118.431 479.419C120 478.979 121.574 478.488 123.109 477.962C124.525 477.483 125.906 476.974 127.215 476.448C144.479 469.729 159.302 457.93 169.73 442.606C180.157 427.283 185.698 409.155 185.623 390.615V390.614C185.632 375.537 181.945 360.689 174.885 347.372C174.466 346.581 174.076 345.871 173.691 345.2L173.645 345.118C173.625 345.082 173.606 345.046 173.582 345.011L173.548 344.953C173.486 344.835 173.418 344.716 173.345 344.597C173.111 344.189 172.889 343.805 172.654 343.422C172.345 342.897 172.034 342.388 171.718 341.885C160.45 323.827 143.317 310.201 123.197 303.293C120.228 302.278 117.207 301.419 114.148 300.72C113.32 300.533 112.491 300.358 111.656 300.19C110.64 299.984 109.791 299.828 108.986 299.699C108.604 299.631 108.228 299.571 107.855 299.51L107.254 299.415C105.861 299.212 104.602 299.05 103.422 298.925C101.194 298.686 98.9066 298.526 96.6238 298.452C95.5902 298.414 94.5371 298.396 93.4917 298.396C93.2367 298.397 92.9943 298.396 92.7487 298.402C92.6055 298.398 92.5072 298.399 92.4091 298.4L91.3804 298.421C89.3039 298.466 87.2182 298.584 85.1816 298.77L85.1185 298.772C84.4056 298.832 83.6543 298.913 82.9029 299C81.7955 299.125 80.7396 299.265 79.7622 299.417C78.1096 299.661 76.4536 299.955 74.8352 300.29C57.0794 303.942 40.7954 312.758 28.0233 325.634C15.2513 338.509 6.55937 354.871 3.03656 372.669C-0.48625 390.467 1.31676 408.91 8.21968 425.687C15.1226 442.464 26.8184 456.829 41.8417 466.982C42.7929 467.636 43.7694 468.274 44.7482 468.882C46.6338 470.061 48.5879 471.187 50.5582 472.229C51.3786 472.665 52.2109 473.087 53.0348 473.486Z" fill="#CBCBCB"/>
<path d="M172.866 370.454C171.854 371.777 170.563 372.862 169.087 373.631C167.61 374.401 165.983 374.838 164.319 374.91C162.656 374.982 160.997 374.688 159.459 374.049C157.921 373.41 156.542 372.442 155.419 371.212L130.947 380.076L121.938 366.504L156.673 354.471C158.863 352.719 161.618 351.832 164.418 351.978C167.217 352.124 169.866 353.293 171.862 355.263C173.858 357.233 175.063 359.868 175.248 362.668C175.433 365.467 174.585 368.238 172.866 370.454Z" fill="#9F616A"/>
<path d="M96.3965 371.718L146.814 355.037L155.31 373.6L108.305 388.028L96.3965 371.718Z" fill="#CCCCCC"/>
<path d="M115.26 480.889C98.3402 484.947 80.6243 484.191 64.1113 478.706L65.2395 468.029L66.2861 458.054L81.986 433.757L87.0187 425.972L107.758 433.519L109.87 446.85L113.235 468.11L115.26 480.889Z" fill="#2F2E41"/>
<path d="M127.449 477.031C126.089 477.577 124.704 478.085 123.312 478.555C121.758 479.089 120.187 479.578 118.599 480.023C117.496 480.331 116.382 480.619 115.259 480.889C98.339 484.947 80.623 484.191 64.1101 478.706C62.8127 478.273 61.5279 477.809 60.2556 477.326C60.4293 481.041 60.3161 484.764 59.9172 488.461C58.1067 484.128 56.5293 479.701 55.1916 475.199C55.0976 474.898 55.0098 474.597 54.9221 474.296C54.4833 472.778 54.0948 471.329 53.7438 469.967C53.3427 468.393 52.998 466.931 52.7097 465.595C51.5627 460.35 51.1992 457.107 51.1992 457.107L63.452 431.637L65.9026 431.919L66.9179 432.032L73.06 432.735L81.9848 433.757L96.4437 435.407L109.869 446.85L121.896 457.107C121.896 457.107 122.899 460.519 124.472 466.172C125.324 469.208 126.333 472.891 127.449 477.031Z" fill="#2F2E41"/>
<path d="M88.6032 307.606C100.576 307.606 110.283 297.89 110.283 285.906C110.283 273.921 100.576 264.206 88.6032 264.206C76.63 264.206 66.9238 273.921 66.9238 285.906C66.9238 297.89 76.63 307.606 88.6032 307.606Z" fill="#9F616A"/>
<path d="M103.694 331.619C103.694 331.619 98.4839 315.498 86.2303 315.498C83.1669 315.498 78.2233 315.752 74.2044 318.377C58.0246 328.945 48.1816 346.909 47.4275 366.232L43.6602 462.768C43.6602 462.768 64.397 470.316 71.9376 467.486C79.4783 464.655 87.0189 445.786 87.0189 445.786C87.0189 445.786 85.1338 471.26 92.6744 470.316C100.215 469.373 128.493 467.486 129.435 463.712C130.378 459.938 115.005 378.793 115.005 378.793L103.694 331.619Z" fill="#CCCCCC"/>
<path d="M78.0644 292.267C80.0092 292.151 81.9083 292.809 83.8397 293.066C90.7496 293.984 97.9381 288.965 99.4638 282.157C99.5861 281.25 99.856 280.37 100.263 279.551C101.326 277.813 103.748 277.481 105.745 277.881C107.742 278.281 109.634 279.216 111.667 279.323C114.807 279.488 117.821 277.553 119.494 274.889C121.167 272.225 121.641 268.947 121.415 265.808L119.91 267.389C119.299 266.094 119.062 264.653 119.229 263.23C118.431 263.018 117.592 263.014 116.793 263.218C115.993 263.423 115.26 263.83 114.662 264.4C113.335 264.541 114.336 261.936 113.351 261.036C112.871 260.741 112.3 260.634 111.746 260.735C108.923 260.762 106.639 258.601 104.414 256.861C100.559 253.853 96.0516 251.795 91.2553 250.853C88.0672 250.231 84.6772 250.131 81.6539 251.319C79.1709 252.295 77.0927 254.072 75.1699 255.923C70.4365 260.479 66.2451 265.831 64.2759 272.102C62.675 277.238 62.6297 282.733 64.1456 287.895C64.939 290.576 67.3304 299.756 70.8312 299.97C75.2301 300.239 72.5891 292.594 78.0644 292.267Z" fill="#2F2E41"/>
<path opacity="0.1" d="M87.2195 360.189L65.0197 392.78L57.9199 468.482L87.2195 360.189Z" fill="black"/>
<path d="M181.307 340.268C181.838 339.522 182.043 338.757 181.763 338.557C181.484 338.358 180.827 338.8 180.296 339.546C179.765 340.291 179.56 341.057 179.84 341.256C180.119 341.455 180.776 341.013 181.307 340.268Z" fill="#3F3D56"/>
<path d="M151.701 375.379C151.076 374.932 150.653 374.255 150.526 373.496C150.399 372.737 150.579 371.959 151.025 371.333L176.274 335.91C176.721 335.284 177.398 334.861 178.156 334.734C178.914 334.607 179.691 334.787 180.317 335.234L151.701 375.379L151.701 375.379Z" fill="#0029DD"/>
<path d="M152.737 378.92L151.276 377.877C151.025 377.697 150.812 377.471 150.649 377.209C150.486 376.948 150.376 376.657 150.325 376.353C150.274 376.048 150.284 375.737 150.353 375.437C150.422 375.136 150.55 374.853 150.729 374.602L179.477 334.27C179.782 333.842 180.245 333.553 180.763 333.467C181.281 333.38 181.812 333.503 182.24 333.808L183.998 335.064L152.737 378.92H152.737Z" fill="#2F2E41"/>
<path d="M178.609 338.342L176.686 341.041L177.36 341.522L179.283 338.824L178.609 338.342Z" fill="#D0CDE1"/>
<path d="M175.965 342.053L174.041 344.752L174.715 345.233L176.639 342.535L175.965 342.053Z" fill="#D0CDE1"/>
<path d="M62.9594 493.175C63.932 491.822 64.5965 490.273 64.9061 488.635C65.2156 486.998 65.1627 485.312 64.7511 483.697C64.3394 482.082 63.5791 480.578 62.5235 479.289C61.468 478 60.143 476.958 58.6418 476.237L60.048 450.225L44.4638 445.514L42.9935 482.277C41.9508 484.881 41.8988 487.778 42.8474 490.419C43.796 493.059 45.6793 495.259 48.1404 496.603C50.6014 497.946 53.4693 498.339 56.2005 497.707C58.9318 497.076 61.3366 495.463 62.9594 493.175H62.9594Z" fill="#9F616A"/>
<path d="M62.8761 471.778H40.3306L34.127 402.266L34.1482 402.203L55.2501 340.17C55.9931 337.985 57.1824 335.98 58.7422 334.281C60.302 332.582 62.1982 331.227 64.31 330.302C66.4218 329.377 68.7029 328.902 71.0081 328.908C73.3133 328.914 75.592 329.4 77.6991 330.335C79.8062 331.271 81.6956 332.636 83.2469 334.342C84.7983 336.049 85.9775 338.06 86.7096 340.248C87.4417 342.436 87.7106 344.753 87.4991 347.05C87.2876 349.348 86.6005 351.577 85.4814 353.594L60.6513 398.352L62.8761 471.778Z" fill="#CCCCCC"/>
<path d="M545.373 170.32C545.39 188.617 540.011 206.512 529.91 221.761C519.809 237.011 505.435 248.936 488.591 256.043C471.746 263.149 453.181 265.121 435.222 261.71C417.263 258.299 400.71 249.657 387.637 236.869C374.564 224.08 365.554 207.713 361.736 189.82C357.917 171.927 359.461 153.303 366.173 136.284C372.885 119.266 384.467 104.609 399.466 94.1512C414.466 83.6936 432.215 77.9007 450.49 77.4987C450.779 77.4925 451.067 77.4862 451.361 77.4799C451.775 77.4736 452.195 77.4736 452.615 77.4736C453.668 77.4736 454.721 77.4925 455.767 77.5301C458.074 77.6054 460.355 77.7643 462.612 78.0069C463.915 78.1449 465.2 78.3143 466.485 78.5025C466.629 78.5276 466.779 78.5464 466.923 78.5715C472.225 79.3896 477.445 80.6722 482.523 82.4045C500.854 88.6621 516.77 100.503 528.04 116.269C539.311 132.034 545.371 150.934 545.373 170.32Z" fill="white"/>
<path d="M452.528 263.966C401.028 263.969 359.109 222.056 359.061 170.496C359.038 146.023 368.595 122.516 385.684 105.014C402.773 87.5119 426.033 77.409 450.476 76.8712L451.348 76.8522C452.824 76.8311 454.326 76.8501 455.79 76.9028C458.099 76.9784 460.417 77.1399 462.678 77.3831C463.875 77.5096 465.15 77.6728 466.575 77.8818L467.031 77.9531C489.044 81.3744 509.107 92.5681 523.591 109.51C538.075 126.451 546.024 148.022 545.999 170.32V170.319C546.048 221.908 504.157 263.917 452.618 263.966L452.528 263.966ZM452.605 78.1008C452.191 78.1008 451.778 78.1008 451.371 78.1069L450.504 78.1259C400.726 79.2207 360.267 120.657 360.314 170.494C360.362 221.36 401.723 262.709 452.528 262.711H452.617C503.465 262.663 544.794 221.217 544.746 170.321V170.32C544.77 148.319 536.927 127.037 522.635 110.322C508.344 93.6072 488.547 82.5644 466.828 79.1913L466.377 79.1205C464.985 78.9165 463.727 78.7554 462.545 78.6307C460.314 78.3906 458.027 78.2313 455.747 78.1568C454.713 78.1195 453.66 78.1008 452.615 78.1008H452.605Z" fill="#CBCBCB"/>
<path d="M381.64 175.332C381.824 175.042 381.346 174.41 380.573 173.92C379.801 173.43 379.026 173.268 378.842 173.558C378.659 173.848 379.136 174.481 379.909 174.97C380.682 175.46 381.457 175.622 381.64 175.332Z" fill="#3F3D56"/>
<path d="M378.928 169.934C379.131 169.613 379.396 169.334 379.707 169.115C380.019 168.895 380.37 168.739 380.741 168.656C381.113 168.572 381.497 168.563 381.872 168.628C382.247 168.693 382.605 168.832 382.927 169.036L419.655 192.316C419.976 192.519 420.254 192.785 420.474 193.096C420.693 193.408 420.848 193.759 420.932 194.131C421.015 194.503 421.025 194.887 420.96 195.262C420.895 195.638 420.756 195.997 420.553 196.318L378.928 169.934V169.934Z" fill="#0029DD"/>
<path d="M375.453 171.166L376.609 169.34C376.89 168.896 377.335 168.581 377.848 168.466C378.36 168.351 378.898 168.444 379.341 168.726L421.159 195.232C421.419 195.397 421.645 195.611 421.822 195.864C421.999 196.116 422.125 196.4 422.193 196.701C422.26 197.002 422.268 197.313 422.215 197.617C422.163 197.921 422.051 198.211 421.886 198.472L420.926 199.989L375.453 171.166H375.453Z" fill="#2F2E41"/>
<path d="M381.679 172.169L381.236 172.87L384.035 174.643L384.478 173.943L381.679 172.169Z" fill="#D0CDE1"/>
<path d="M385.527 174.608L385.084 175.309L387.882 177.082L388.325 176.382L385.527 174.608Z" fill="#D0CDE1"/>
<path d="M452.863 87.0313C467.28 87.0313 478.968 75.3326 478.968 60.9014C478.968 46.4703 467.28 34.7715 452.863 34.7715C438.445 34.7715 426.758 46.4703 426.758 60.9014C426.758 75.3326 438.445 87.0313 452.863 87.0313Z" fill="#FFB8B8"/>
<path d="M477.722 259.729C456.543 265.649 433.955 263.883 413.951 254.741L415.957 201.104L416.107 196.932L416.164 195.577L416.233 193.582L416.283 192.308C416.283 192.308 416.364 192.302 416.521 192.296C416.947 192.265 417.931 192.196 419.341 192.114C420.977 192.02 423.177 191.901 425.74 191.794C426.348 191.769 426.975 191.744 427.62 191.713C441.12 191.211 462.204 191.104 464.993 195.175L465.344 197.572L465.908 201.443L467.061 209.353C467.061 209.353 480.173 235.451 477.722 259.729Z" fill="#2F2E41"/>
<path d="M484.35 124.447L479.208 171.987L469.415 193.669L465.786 201.708L413.258 201.071L418.67 164.425C411.029 144.669 429.175 136.702 429.175 136.702L447.998 98.099C447.998 98.099 453.012 95.5897 466.104 94.9581C478.275 94.3709 468.681 96.217 468.681 96.217C484.599 94.6237 484.35 124.447 484.35 124.447Z" fill="#CCCCCC"/>
<path opacity="0.2" d="M468.554 174.496L458.762 196.178C455.617 190.289 453.223 183.619 453.223 179.681C453.223 168.847 464.047 174.582 464.047 174.582C464.047 174.582 455.292 126.624 455.292 112.285C455.292 102.76 463.225 145.03 468.554 174.496Z" fill="black"/>
<path d="M482.949 44.9822C481.25 40.8338 478.623 37.1311 475.27 34.1593C476.645 33.6978 477.793 32.7295 478.481 31.4512C479.486 29.4604 478.953 26.9639 477.587 25.182C476.342 23.6766 474.732 22.5165 472.91 21.8128C474.245 22.4204 475.704 22.7015 477.169 22.6329C478.944 22.4481 480.72 21.0533 480.614 19.3228C480.514 17.6742 478.893 16.5594 477.439 15.6991C476.496 15.141 475.553 14.5829 474.609 14.0248C474.889 13.4827 475.136 12.9236 475.346 12.3509C476.16 10.2689 476.357 7.99596 475.912 5.80503C475.466 3.6141 474.399 1.59838 472.837 0C475.926 3.14777 475.137 8.01939 472.085 11.9728C471.987 12.1002 471.881 12.2244 471.779 12.3502C471.174 11.9924 470.57 11.6346 469.965 11.2769C468.457 10.3846 466.889 9.4714 465.137 9.26096C463.385 9.05052 461.39 9.74464 460.674 11.3088C459.909 12.9831 460.779 15.1198 459.782 16.6743C458.909 18.0346 457.003 18.3242 455.351 18.2598C453.7 18.1954 451.944 17.9343 450.474 18.6655C448.431 19.682 447.761 22.4311 448.67 24.4813C449.074 25.3545 449.676 26.1212 450.428 26.7203C446.056 27.3314 441.75 28.631 437.518 29.9526C432.528 31.5111 427.445 33.1665 423.275 36.3211C419.104 39.4757 415.945 44.4553 416.342 49.6724C416.74 54.8895 421.918 63.1064 427.078 62.2724L427.864 59.8105C430.984 58.3258 434.49 57.8531 437.892 58.4585C441.294 59.064 444.422 60.7172 446.84 63.1877C446.9 59.903 451.895 58.8117 454.384 60.9532C456.872 63.0948 457.353 66.7155 457.546 69.9951C457.739 73.2746 457.921 76.8455 460.08 79.3205C462.151 81.6959 465.68 82.4324 468.749 81.7248C471.819 81.0171 474.473 79.068 476.671 76.8096C484.646 68.6162 487.214 55.5946 482.949 44.9822Z" fill="#2F2E41"/>
<path d="M399.685 197.932C401.037 198.905 402.585 199.571 404.221 199.88C405.857 200.19 407.541 200.137 409.154 199.725C410.767 199.313 412.271 198.552 413.558 197.496C414.846 196.439 415.886 195.113 416.607 193.61L487.72 195.018L492.426 179.419L410.573 177.947C407.971 176.903 405.077 176.851 402.439 177.801C399.801 178.75 397.603 180.635 396.261 183.099C394.919 185.562 394.526 188.433 395.157 191.167C395.788 193.9 397.399 196.308 399.685 197.932V197.932Z" fill="#FFB8B8"/>
<path d="M468.822 93.6434C468.822 93.6434 452.268 94.918 452.268 109.258C452.268 123.597 467.23 174.582 467.23 174.582C467.23 174.582 456.406 168.847 456.406 179.681C456.406 190.515 474.552 222.062 476.462 201.031C476.462 201.031 503.841 214.415 502.249 189.241C500.657 164.067 483.466 110.851 483.466 110.851C483.466 110.851 481.556 92.6874 468.822 93.6434Z" fill="#CCCCCC"/>
</g>
<defs>
<clipPath id="clip0_835_155">
<rect width="546" height="498" fill="white"/>
</clipPath>
</defs>
</svg>
