<svg width="420" height="300" viewBox="0 0 420 300" fill="none" xmlns="http://www.w3.org/2000/svg">
<g clip-path="url(#clip0_1913_139)">
<path d="M53.5403 47.7583C66.7225 47.7583 77.4088 37.0672 77.4088 23.8792C77.4088 10.6911 66.7225 0 53.5403 0C40.3581 0 29.6719 10.6911 29.6719 23.8792C29.6719 37.0672 40.3581 47.7583 53.5403 47.7583Z" fill="#FF6584"/>
<path d="M333.888 244.372C325.567 244.371 317.516 241.418 311.167 236.038C304.817 230.658 300.58 223.2 299.21 214.989L299.181 214.815L299.293 214.681C301.159 212.442 302.727 209.971 303.958 207.329C302.598 208.814 301.057 210.122 299.371 211.223L298.808 211.597L298.776 210.922C298.748 210.34 298.733 209.761 298.733 209.202C298.731 205.918 299.184 202.65 300.079 199.49C304.161 185.139 304.859 169.727 302.154 153.684C301.692 150.934 301.46 148.149 301.46 145.36C301.464 133.572 305.662 122.17 313.303 113.196C320.943 104.223 331.528 98.2631 343.16 96.3847C354.792 94.5063 366.713 96.8318 376.787 102.945C386.862 109.058 394.433 118.559 398.144 129.747L398.257 130.088L397.924 130.223C395.425 131.281 392.774 131.939 390.07 132.172C392.928 132.83 395.859 133.112 398.79 133.01L399.099 132.999L399.174 133.3C400.157 137.245 400.653 141.295 400.653 145.36L400.651 145.8C400.642 148.913 401.288 151.993 402.549 154.839C403.809 157.685 405.655 160.234 407.966 162.319C411.721 165.737 414.692 169.929 416.673 174.605C418.655 179.282 419.6 184.333 419.444 189.41C419.289 194.487 418.035 199.47 415.77 204.016C413.506 208.562 410.284 212.564 406.326 215.745L406.142 215.893L405.928 215.795C401.401 213.74 398.103 211.502 395.691 208.829C397.299 212.259 399.463 215.397 402.097 218.118L402.438 218.47L402.015 218.716C396.64 221.852 390.529 223.503 384.307 223.5L384.129 223.5C384.067 223.499 384.004 223.499 383.941 223.499C374.423 223.499 365.402 227.181 359.163 233.619C355.878 237.004 351.95 239.699 347.61 241.546C343.27 243.393 338.604 244.353 333.888 244.372V244.372Z" fill="#F2F2F2"/>
<path d="M321.447 299.787C321.294 299.787 321.147 299.732 321.032 299.632C320.916 299.532 320.841 299.393 320.82 299.242C320.793 299.053 318.152 280.002 320.524 254.683C322.714 231.3 329.746 197.62 350.813 169.96C350.864 169.894 350.927 169.838 350.999 169.796C351.071 169.754 351.15 169.727 351.233 169.716C351.316 169.705 351.4 169.71 351.48 169.731C351.561 169.752 351.636 169.789 351.703 169.84C351.769 169.89 351.824 169.953 351.866 170.026C351.908 170.098 351.936 170.177 351.947 170.26C351.958 170.342 351.953 170.426 351.931 170.507C351.91 170.588 351.873 170.663 351.823 170.729C330.938 198.151 323.962 231.583 321.787 254.801C319.43 279.973 322.049 298.875 322.076 299.063C322.089 299.153 322.082 299.245 322.056 299.332C322.03 299.419 321.986 299.5 321.927 299.569C321.867 299.637 321.793 299.692 321.711 299.73C321.628 299.768 321.538 299.787 321.447 299.787V299.787Z" fill="#3F3D56"/>
<path d="M331.979 206.535C331.845 206.535 331.714 206.492 331.606 206.414C331.497 206.335 331.416 206.224 331.375 206.096C331.333 205.969 331.333 205.831 331.375 205.704C331.416 205.576 331.497 205.465 331.605 205.386C337.608 201.321 344.093 198.019 350.91 195.555C361.561 191.653 377.758 188.117 394.432 193.426C394.511 193.451 394.585 193.492 394.648 193.546C394.712 193.599 394.764 193.665 394.803 193.739C394.841 193.813 394.864 193.894 394.871 193.977C394.878 194.06 394.869 194.144 394.844 194.223C394.819 194.303 394.778 194.376 394.724 194.44C394.67 194.504 394.605 194.556 394.531 194.594C394.457 194.633 394.376 194.656 394.293 194.663C394.21 194.67 394.126 194.661 394.047 194.635C377.714 189.435 361.812 192.914 351.347 196.747C344.639 199.169 338.258 202.416 332.351 206.413C332.243 206.492 332.113 206.535 331.979 206.535V206.535Z" fill="#3F3D56"/>
<path d="M74.2068 252.647C68.2879 252.636 58.9693 253.114 53.8934 255.795C49.9929 257.856 46.4407 260.518 43.367 263.683C42.1823 264.908 41.0602 266.192 40.005 267.53C37.086 257.54 36.7462 246.972 39.0175 236.814C39.1772 236.13 39.1247 235.414 38.867 234.76C38.6094 234.107 38.1588 233.548 37.5753 233.158C36.9919 232.768 36.3033 232.564 35.6015 232.576C34.8997 232.587 34.218 232.812 33.6474 233.221C25.4014 239.237 20.1295 249.432 18.8474 259.747C17.2138 272.888 21.0604 286.131 26.4065 298.25L26.4048 298.256C26.3949 298.311 26.38 298.37 26.3652 298.43C26.3454 298.519 26.3208 298.608 26.301 298.697C26.2662 298.85 26.2268 299.008 26.192 299.162L27.0577 299.122C27.1072 299.147 27.1567 299.167 27.206 299.192H48.8873C49.1746 298.879 49.4423 298.548 49.6887 298.202C52.0879 294.911 53.0821 290.452 54.2941 286.428C55.1719 283.515 56.2699 280.673 57.5788 277.926C60.8742 271.027 65.4214 264.8 70.9891 259.561C71.1671 259.393 71.3502 259.224 71.5333 259.061C72.4658 258.203 73.9113 257.056 75.3238 255.978C75.6325 255.744 75.8598 255.418 75.9739 255.047C76.088 254.677 76.083 254.279 75.9597 253.912C75.8364 253.544 75.601 253.224 75.2865 252.997C74.9721 252.77 74.5945 252.648 74.2068 252.647V252.647Z" fill="#F2F2F2"/>
<path d="M220.595 48.1258C221.105 49.5524 221.034 51.1225 220.398 52.4974C219.761 53.8723 218.61 54.9419 217.193 55.4755C216.879 55.5927 216.556 55.6819 216.226 55.742L212.95 75.8136L205.264 68.7136L209.554 50.7418C209.395 49.2274 209.838 47.7113 210.788 46.5213C211.737 45.3313 213.117 44.5629 214.628 44.3824C215.9 44.2366 217.183 44.5277 218.267 45.208C219.351 45.8882 220.172 46.9171 220.595 48.1257L220.595 48.1258Z" fill="#9E616A"/>
<path d="M163.871 93.6059C163.871 93.6059 169.836 85.7205 191.484 85.9365L203.771 81.4703L206.579 55.7183L216.407 58.0594L215.003 89.8982L193.942 102.072L166.33 107.691L163.871 93.6059Z" fill="#0029DD"/>
<path d="M130.608 287.742L136.279 290.159L148.299 269.427L139.93 265.859L130.608 287.742Z" fill="#9E616A"/>
<path d="M177.469 293.11L183.633 293.11L186.565 269.323L177.468 269.324L177.469 293.11Z" fill="#9E616A"/>
<path d="M177.252 299.543L196.207 299.542V299.302C196.207 297.345 195.43 295.468 194.046 294.083C192.663 292.699 190.786 291.921 188.83 291.921H188.829L185.367 289.293L178.907 291.922L177.252 291.922L177.252 299.543Z" fill="#2F2E41"/>
<path d="M127.16 291.86L144.598 299.294L144.692 299.074C145.459 297.273 145.48 295.241 144.749 293.425C144.019 291.609 142.597 290.157 140.797 289.389L140.797 289.389L138.642 285.614L131.669 285.498L130.147 284.849L127.16 291.86Z" fill="#2F2E41"/>
<path d="M183.515 152.334L192.883 209.402L190.334 217.906L193.679 223.929L188.766 276.824L190.761 281.217L185.189 284.654H173.851L173.249 236.768L170.448 229.738V225.863L164.747 196.663L163.697 230.064L162.039 237.106L163.432 242.12L161.612 245.632L146.012 279.143H133.299L134.282 271.564C132.004 270.411 137.702 267.039 138.25 264.544L136.377 260.33L138.25 252.37L139.966 236.816L138.156 203.986L139.008 159.775L153.88 148.397L183.515 152.334Z" fill="#2F2E41"/>
<path d="M160.702 77.1783C167.797 77.1783 173.55 71.4235 173.55 64.3245C173.55 57.2255 167.797 51.4707 160.702 51.4707C153.606 51.4707 147.854 57.2255 147.854 64.3245C147.854 71.4235 153.606 77.1783 160.702 77.1783Z" fill="#9E616A"/>
<path d="M138.377 176.006C138.737 175.36 138.951 174.643 139.005 173.906C139.058 173.168 138.949 172.428 138.685 171.737C138.421 171.046 138.009 170.422 137.478 169.907C136.947 169.393 136.31 169.002 135.611 168.76L135.581 150.785L127.795 155.941L129.017 172.22C128.69 173.421 128.815 174.7 129.367 175.816C129.92 176.931 130.863 177.805 132.016 178.272C133.17 178.739 134.455 178.766 135.627 178.348C136.799 177.931 137.778 177.097 138.377 176.006Z" fill="#9E616A"/>
<path d="M137.657 96.4718L134.179 93.1177L131.624 94.9627C131.624 94.9627 129.11 97.9808 127.099 107.035C125.088 116.089 127.099 165.888 127.099 165.888L138.16 164.379L136.652 138.222L141.177 116.089L137.657 96.4718Z" fill="#0029DD"/>
<path d="M132.521 93.9359L144.24 88.3357L152.196 80.9529L166.705 80.8442L171.385 86.9311L183.74 91.13L181.681 133.753L183.085 137.03C183.085 137.03 182.107 137.915 181.66 138.409C181.213 138.903 182.277 143.043 182.277 143.043L182.877 147.546L181.213 148.736L183.377 151.293L183.914 155.325C183.914 155.325 146.139 145.931 139.001 161.492C138.624 162.314 139.553 154.279 139.553 154.279L140.481 148.397L139.56 143.117L138.156 141.713L140.511 139.357L139.001 128.179L132.521 93.9359Z" fill="#0029DD"/>
<path d="M254.839 287.489H247.884L244.575 260.654H254.839V287.489Z" fill="#FFB6B6"/>
<path d="M258.509 299.543H253.522L252.632 294.832L250.352 299.543H237.125C236.491 299.543 235.873 299.34 235.363 298.964C234.852 298.588 234.475 298.059 234.286 297.453C234.097 296.848 234.107 296.198 234.314 295.598C234.521 294.999 234.914 294.481 235.435 294.12L245.998 286.822V282.06L257.108 282.723L258.509 299.543Z" fill="#2F2E41"/>
<path d="M322.469 273.685L316.488 277.234L299.959 255.841L308.787 250.604L322.469 273.685Z" fill="#FFB6B6"/>
<path d="M331.772 282.18L327.483 284.725L324.316 281.128L324.756 286.343L313.38 293.093C312.834 293.416 312.2 293.557 311.569 293.494C310.938 293.432 310.344 293.169 309.873 292.744C309.402 292.32 309.079 291.756 308.951 291.134C308.823 290.513 308.897 289.867 309.162 289.291L314.526 277.623L312.098 273.527L321.992 268.428L331.772 282.18Z" fill="#2F2E41"/>
<path d="M251.734 115.908L248.355 137.461L280.459 137.883L276.235 117.176L251.734 115.908Z" fill="#FFB6B6"/>
<path d="M248.232 137.188L239.062 159.436L238.395 218.933L246.219 275.741H254.879L258.427 219.86L267.153 181.623L275.76 221.614L302.521 260.758H315.671L291.495 217.623L288.697 170.636C288.697 170.636 290.441 150.702 281.516 138.94L279.343 132.661L248.232 137.188Z" fill="#2F2E41"/>
<path d="M293.147 153.432C292.253 153.188 291.423 152.751 290.716 152.152C290.009 151.553 289.442 150.806 289.055 149.964C288.668 149.122 288.47 148.205 288.476 147.278C288.481 146.351 288.689 145.437 289.086 144.599L275.429 100.052L285.474 98.0601L297.966 141.725C299.328 142.485 300.364 143.719 300.878 145.193C301.392 146.666 301.347 148.277 300.753 149.72C300.159 151.163 299.057 152.338 297.655 153.022C296.253 153.706 294.649 153.852 293.147 153.432V153.432Z" fill="#FFB6B6"/>
<path d="M276.944 131.556L252.942 120.36C252.309 120.346 251.698 120.126 251.203 119.732C250.708 119.338 250.355 118.793 250.199 118.179C249.013 113.48 246.403 108.256 247.787 96.0586C248.06 93.6956 248.805 91.4115 249.976 89.3413C251.147 87.2711 252.721 85.4569 254.605 84.0061C256.49 82.5553 258.646 81.4973 260.946 80.8947C263.246 80.2921 265.643 80.1572 267.996 80.4979C270.479 80.8534 272.858 81.73 274.978 83.0702C277.098 84.4103 278.91 86.1837 280.297 88.2741C281.684 90.3644 282.613 92.7244 283.024 95.1993C283.434 97.6742 283.317 100.208 282.681 102.634C279.895 113.218 280.193 124.535 279.876 128.885C279.829 129.514 279.577 130.11 279.16 130.583C278.742 131.055 278.182 131.378 277.563 131.502C277.38 131.538 277.193 131.557 277.005 131.557C276.985 131.557 276.964 131.556 276.944 131.556Z" fill="#0029DD"/>
<path d="M225.265 56.7403C225.132 57.0384 224.975 57.3256 224.797 57.599L236.274 84.5221L243.328 85.3879L243.414 96.2099L230.776 95.8914C229.755 95.8657 228.77 95.5093 227.969 94.8758C227.168 94.2423 226.593 93.3659 226.332 92.3781L217.826 60.1848C216.621 59.8252 215.554 59.107 214.766 58.1259C213.979 57.1448 213.509 55.9471 213.419 54.6923C213.329 53.4375 213.623 52.1849 214.262 51.1012C214.9 50.0175 215.854 49.154 216.995 48.6256C218.136 48.0973 219.411 47.929 220.65 48.1432C221.889 48.3575 223.034 48.9441 223.932 49.825C224.83 50.7059 225.438 51.8394 225.676 53.0747C225.914 54.31 225.771 55.5886 225.265 56.7404V56.7403Z" fill="#FFB6B6"/>
<path d="M237.43 83.5624C237.716 83.3093 238.053 83.1208 238.418 83.0098C238.782 82.8987 239.167 82.8678 239.545 82.9191L252.748 84.7073C254.7 84.6819 256.582 85.4319 257.982 86.7927C259.382 88.1536 260.185 90.0143 260.216 91.9668C260.246 93.9193 259.502 95.8043 258.145 97.2084C256.789 98.6125 254.931 99.4212 252.98 99.4571L239.783 101.585C239.407 101.646 239.021 101.625 238.654 101.523C238.286 101.422 237.944 101.242 237.652 100.996C237.36 100.751 237.125 100.445 236.962 100.1C236.798 99.755 236.711 99.3789 236.706 98.9973L236.535 85.5849C236.53 85.2032 236.608 84.8249 236.762 84.4759C236.917 84.1268 237.144 83.8152 237.43 83.5624V83.5624Z" fill="#0029DD"/>
<path d="M274.816 111.336C274.478 111.159 274.183 110.91 273.95 110.608C273.717 110.306 273.552 109.957 273.467 109.585L270.468 96.5971C269.754 94.7799 269.79 92.7536 270.567 90.9626C271.344 89.1715 272.799 87.7619 274.614 87.0426C276.428 86.3234 278.454 86.3532 280.246 87.1256C282.038 87.8979 283.452 89.3498 284.176 91.163L290.834 102.759C291.024 103.09 291.14 103.458 291.175 103.838C291.21 104.218 291.163 104.601 291.037 104.961C290.91 105.321 290.708 105.65 290.443 105.925C290.178 106.199 289.858 106.414 289.503 106.553L277.024 111.458C276.668 111.598 276.287 111.659 275.907 111.638C275.526 111.617 275.154 111.514 274.816 111.336V111.336Z" fill="#0029DD"/>
<path d="M274.284 75.9177C280.862 72.3202 283.28 64.0689 279.684 57.4879C276.088 50.9068 267.84 48.4882 261.262 52.0857C254.684 55.6832 252.267 63.9346 255.863 70.5156C259.458 77.0966 267.706 79.5152 274.284 75.9177Z" fill="#FFB6B6"/>
<path d="M258.435 58.5428C255.523 58.5264 252.61 58.51 249.698 58.4936C249.491 56.5078 250.374 54.5322 251.661 53.0065C252.949 51.4808 254.615 50.332 256.261 49.2023C257.931 48.0554 259.662 46.8824 261.648 46.4816C263.313 46.1456 265.033 46.3787 266.715 46.6127C268.945 46.9229 271.175 47.2332 273.405 47.5434C275.853 47.884 278.415 48.2692 280.403 49.738C283.092 51.7243 282.404 56.3092 284.984 58.435C292.776 64.8553 289.622 70.4623 289.767 76.3144C280.351 77.3025 270.934 78.2907 261.518 79.2788C260.496 79.4549 259.45 79.4245 258.44 79.1893C257.451 78.8869 256.544 78.0679 256.471 77.0359C256.39 75.8833 257.304 74.9399 258.046 74.0547C259.816 71.8599 260.879 69.1791 261.093 66.3669C261.308 63.5547 260.664 60.7437 259.246 58.3057L258.435 58.5428Z" fill="#2F2E41"/>
<path d="M157.415 76.5485C157.36 76.4276 157.306 76.3063 157.251 76.1846C157.272 76.1852 157.293 76.1883 157.314 76.1888L157.415 76.5485Z" fill="#2F2E41"/>
<path d="M147.496 52.0549C148.106 51.4791 148.899 51.1361 149.736 51.0859C150.567 51.1127 151.409 51.8634 151.237 52.677C152.763 49.9738 155.192 47.8948 158.098 46.8048C161.003 45.7148 164.2 45.6835 167.126 46.7164C169.191 47.4452 171.216 48.9034 171.69 51.042C171.737 51.6034 171.904 52.1482 172.181 52.6387C172.421 52.9009 172.733 53.0872 173.077 53.1745C173.422 53.2618 173.784 53.2464 174.12 53.1302L174.14 53.1242C174.255 53.0849 174.38 53.0811 174.497 53.1131C174.614 53.1452 174.719 53.2117 174.798 53.304C174.877 53.3963 174.926 53.5103 174.94 53.631C174.953 53.7518 174.93 53.8739 174.874 53.9815L174.29 55.0716C175.026 55.2359 175.791 55.2196 176.52 55.0242C176.641 54.9924 176.769 54.9989 176.887 55.0428C177.004 55.0866 177.105 55.1657 177.175 55.2691C177.246 55.3725 177.283 55.4953 177.281 55.6205C177.279 55.7457 177.238 55.8673 177.164 55.9685C176.193 57.2975 174.926 58.3814 173.462 59.134C171.999 59.8865 170.38 60.287 168.735 60.3034C166.4 60.2891 164.042 59.4842 161.77 60.0213C160.891 60.2291 160.07 60.6311 159.366 61.1978C158.663 61.7645 158.095 62.4816 157.705 63.2964C157.315 64.1113 157.112 65.0032 157.111 65.9067C157.11 66.8102 157.312 67.7025 157.701 68.5179C157.003 67.7542 155.654 67.935 154.94 68.6838C154.611 69.0847 154.368 69.5488 154.226 70.0475C154.083 70.5461 154.045 71.0686 154.113 71.5827C154.303 73.1573 154.771 74.6857 155.493 76.0975C152.733 76.0125 150.065 75.082 147.85 73.4315C145.635 71.7811 143.979 69.4903 143.107 66.8685C142.235 64.2468 142.188 61.4205 142.973 58.7713C143.758 56.1221 145.337 53.7777 147.496 52.0549V52.0549Z" fill="#2F2E41"/>
<path d="M402.767 300H0.610327C0.462814 299.999 0.321493 299.94 0.217337 299.836C0.11318 299.731 0.0546875 299.59 0.0546875 299.442C0.0546875 299.295 0.11318 299.153 0.217337 299.049C0.321493 298.944 0.462814 298.885 0.610327 298.885H402.767C402.841 298.885 402.913 298.899 402.981 298.927C403.049 298.955 403.111 298.996 403.163 299.047C403.214 299.099 403.256 299.161 403.284 299.229C403.312 299.296 403.326 299.369 403.326 299.442C403.326 299.516 403.312 299.588 403.284 299.656C403.256 299.724 403.214 299.785 403.163 299.837C403.111 299.889 403.049 299.93 402.981 299.958C402.913 299.986 402.841 300 402.767 300V300Z" fill="#CCCCCC"/>
<path d="M96.6138 5.55788C85.0461 3.99359 71.8396 10.2488 68.8415 21.5352C68.0859 19.5284 66.7123 17.814 64.919 16.6395C63.1256 15.465 61.0056 14.8912 58.865 15.0011C56.7244 15.111 54.6741 15.8988 53.0104 17.2508C51.3467 18.6028 50.1557 20.4489 49.6094 22.5225L50.9337 23.4714C75.7229 28.8345 101.384 28.7185 126.123 23.1313C118.077 14.6711 108.181 7.12215 96.6138 5.55788Z" fill="#F0F0F0"/>
<path d="M47.0044 37.3967C35.4367 35.8325 22.2303 42.0877 19.2321 53.374C18.4765 51.3673 17.1029 49.6529 15.3096 48.4783C13.5163 47.3038 11.3962 46.7301 9.2556 46.84C7.11501 46.9499 5.06476 47.7377 3.40104 49.0897C1.73732 50.4417 0.54629 52.2878 0 54.3614L1.32433 55.3103C26.1136 60.6734 51.7743 60.5573 76.5141 54.9702C68.4676 46.51 58.5721 38.961 47.0044 37.3967Z" fill="#F0F0F0"/>
</g>
<defs>
<clipPath id="clip0_1913_139">
<rect width="419.461" height="300" fill="white"/>
</clipPath>
</defs>
</svg>
