<svg width="291" height="106" viewBox="0 0 291 106" fill="none" xmlns="http://www.w3.org/2000/svg">
<path d="M40.1071 14.594C40.1071 14.0625 39.5756 13.531 39.0441 13.7082H37.9812C35.1465 13.8854 32.8433 11.9365 32.3118 9.27906L32.1347 8.21607C31.9575 7.68457 31.426 7.33024 30.8945 7.33024C30.363 7.33024 29.8315 7.86173 30.0087 8.39323V9.45623C30.1859 12.2909 28.2371 14.594 25.5796 15.1255L24.5166 15.3027C23.9851 15.4799 23.6307 16.0114 23.6307 16.5429C23.6307 17.0744 24.1622 17.6058 24.6937 17.4287H25.7567C28.5913 17.2515 30.8945 19.2003 31.426 21.8578L31.6032 22.9208C31.7804 23.4523 32.3118 23.8066 32.8433 23.8066C33.3748 23.8066 33.9063 23.2751 33.7291 22.7437V21.6806C33.552 18.846 35.5008 16.5429 38.1583 16.0114L39.2213 15.8342C39.7528 15.657 40.2843 15.1255 40.1071 14.594ZM31.6032 12.8224C32.489 13.8854 33.552 14.7712 34.7921 15.3027C33.7292 16.1885 32.8433 17.2515 32.3118 18.4917C31.426 17.4287 30.363 16.5429 29.1229 16.0114C30.1859 15.1255 31.0717 14.0625 31.6032 12.8224Z" fill="#ED1E2E"/>
<path d="M13.8865 73.2358C13.355 69.3382 9.98887 66.6807 6.09123 67.2122C2.19359 67.7437 -0.463886 71.1099 0.0676105 75.0075C0.599107 78.9051 3.96524 81.5626 7.86288 81.0311C11.5834 80.4996 14.2409 77.1335 13.8865 73.2358ZM2.19359 74.6532C1.83926 71.9957 3.78807 69.6925 6.44555 69.3382C9.10304 68.9839 11.4062 70.9327 11.7605 73.5902C12.1149 76.2476 10.166 78.5508 7.50856 78.9051C4.85107 79.2595 2.54792 77.3106 2.19359 74.6532Z" fill="#ED1E2E"/>
<path d="M66.3276 98.2162C66.3276 97.6847 65.7961 97.1532 65.0874 97.3304L61.5441 97.6847C61.0126 97.6847 60.4811 98.2162 60.6583 98.9248C60.6583 99.4563 61.1898 99.9878 61.8985 99.8107L65.4418 99.4563C65.9733 99.4563 66.5048 98.9249 66.3276 98.2162Z" fill="#ED1E2E"/>
<path d="M68.2765 95.913L67.9222 92.3697C67.9222 91.8382 67.3907 91.3067 66.682 91.4839C66.1505 91.4839 65.619 92.0154 65.7962 92.724L66.1505 96.2673C66.1505 96.7988 66.682 97.3303 67.3906 97.1532C67.9221 96.976 68.4536 96.4445 68.2765 95.913Z" fill="#ED1E2E"/>
<path d="M74.4771 97.3304C74.4771 96.7989 73.9457 96.2674 73.237 96.4446L69.6937 96.7989C69.1622 96.7989 68.6307 97.3304 68.8079 98.039C68.8079 98.5705 69.3393 99.102 70.048 98.9249L73.5913 98.5705C74.1228 98.3934 74.6543 97.8619 74.4771 97.3304Z" fill="#ED1E2E"/>
<path d="M69.3393 104.063L68.985 100.519C68.985 99.9879 68.4535 99.4564 67.7449 99.6335C67.2134 99.6335 66.6819 100.165 66.859 100.874L67.2134 104.417C67.2134 104.949 67.7448 105.48 68.4535 105.303C68.985 105.126 69.3393 104.594 69.3393 104.063Z" fill="#ED1E2E"/>
<path d="M254.831 15.4798C255.363 15.3027 255.717 14.594 255.54 14.0625L255.186 12.9995C254.3 10.342 255.363 7.50738 257.843 6.26722L258.729 5.73572C259.261 5.55855 259.438 4.8499 259.261 4.3184C259.083 3.78691 258.375 3.60974 257.843 3.7869L256.78 4.14124C254.123 5.02707 251.288 3.96408 250.048 1.48376L249.517 0.597931C249.339 0.0664339 248.631 -0.110737 248.099 0.0664291C247.568 0.243594 247.391 0.952261 247.568 1.48376L247.922 2.54675C248.808 5.20423 247.745 8.03887 245.265 9.27903L244.379 9.81053C243.847 9.9877 243.67 10.6964 243.847 11.2279C244.024 11.7594 244.733 11.9365 245.265 11.7594L246.328 11.405C248.985 10.5192 251.82 11.5822 253.06 14.0625L253.591 14.9483C253.591 15.4798 254.3 15.657 254.831 15.4798ZM254.123 6.79872C253.237 7.86172 252.883 9.10187 252.705 10.5192C251.642 9.63337 250.402 9.27903 248.985 9.10187C249.871 8.03888 250.225 6.79872 250.402 5.38139C251.465 6.09006 252.706 6.62156 254.123 6.79872Z" fill="#ED1E2E"/>
<path d="M230.029 82.8028C231.269 82.2713 232.509 81.3854 233.395 80.1453C235.521 76.9563 234.635 72.5272 231.269 70.4012C228.08 68.2752 223.651 69.161 221.525 72.5272C219.399 75.7162 220.284 80.1453 223.651 82.2713C225.599 83.3343 228.08 83.5114 230.029 82.8028ZM225.777 71.8185C225.954 71.6413 226.308 71.6413 226.485 71.6413C227.725 71.287 228.966 71.6413 230.029 72.35C231.092 73.0587 231.8 74.1217 232.154 75.3618C232.509 76.602 232.155 77.8421 231.446 78.9051C230.029 81.2083 227.017 81.7398 224.714 80.3225C222.41 78.9051 221.879 75.8933 223.296 73.5902C224.005 72.7043 224.891 72.1728 225.777 71.8185Z" fill="#ED1E2E"/>
<path d="M286.544 62.7831C286.721 62.7831 286.721 62.7831 286.544 62.7831L289.91 61.3658C290.442 61.1886 290.796 60.48 290.442 59.9485C290.265 59.417 289.556 59.0627 289.025 59.417L285.658 60.8343C285.127 61.0115 284.773 61.7201 285.127 62.2516C285.481 62.606 286.013 62.9603 286.544 62.7831Z" fill="#ED1E2E"/>
<path d="M286.899 68.9839C287.43 68.8067 287.784 68.0981 287.43 67.5666L286.013 64.2004C285.836 63.6689 285.127 63.3146 284.595 63.6689C284.064 63.8461 283.71 64.5548 284.064 65.0863L285.481 68.4524C285.658 68.8067 286.19 69.1611 286.899 68.9839Z" fill="#ED1E2E"/>
<path d="M279.104 65.795L282.47 64.3777C283.001 64.2005 283.356 63.4918 283.001 62.9603C282.824 62.4288 282.115 62.2517 281.584 62.4288L278.218 63.8462C277.686 64.0233 277.332 64.732 277.686 65.2635C277.863 65.795 278.572 65.9721 279.104 65.795Z" fill="#ED1E2E"/>
<path d="M283.71 61.3658C284.241 61.1886 284.596 60.48 284.241 59.9485L282.824 56.5823C282.647 56.0509 281.938 55.6965 281.407 56.0508C280.875 56.228 280.521 56.9367 280.875 57.4682L282.292 60.8343C282.47 61.3658 283.178 61.543 283.71 61.3658Z" fill="#ED1E2E"/>
</svg>
