<svg width="589" height="214" viewBox="0 0 589 214" fill="none" xmlns="http://www.w3.org/2000/svg">
<path d="M81.1776 183.667C81.1776 184.743 80.1018 185.819 79.026 185.46H76.8746C71.1372 185.102 66.4755 189.046 65.3997 194.425L65.0411 196.576C64.6826 197.652 63.6069 198.369 62.5311 198.369C61.4553 198.369 60.3796 197.294 60.7382 196.218V194.066C61.0967 188.329 57.1523 183.667 51.7735 182.591L49.6219 182.233C48.5462 181.874 47.829 180.798 47.829 179.723C47.829 178.647 48.9048 177.571 49.9805 177.93H52.132C57.8694 178.288 62.531 174.344 63.6068 168.965L63.9654 166.814C64.324 165.738 65.3997 165.021 66.4755 165.021C67.5512 165.021 68.627 166.096 68.2684 167.172V169.324C67.9098 175.061 71.8543 179.723 77.2331 180.799L79.3846 181.157C80.4604 181.516 81.5362 182.591 81.1776 183.667ZM63.9654 187.253C65.7584 185.102 67.9098 183.309 70.42 182.233C68.2684 180.44 66.4755 178.288 65.3997 175.778C63.6068 177.93 61.4553 179.723 58.9452 180.799C61.0967 182.591 62.8897 184.743 63.9654 187.253Z" fill="#ED1E2E"/>
<path d="M28.1067 64.9747C27.0309 72.8636 20.2177 78.2424 12.3288 77.1667C4.43987 76.0909 -0.938917 69.2777 0.136845 61.3888C1.21261 53.4999 8.02575 48.1211 15.9147 49.1968C23.445 50.2726 28.8239 57.0857 28.1067 64.9747ZM4.43989 62.106C3.72271 67.4848 7.66715 72.1464 13.046 72.8636C18.4248 73.5808 23.0864 69.6363 23.8036 64.2575C24.5208 58.8787 20.5763 54.2171 15.1975 53.4999C9.8187 52.7827 5.15706 56.7272 4.43989 62.106Z" fill="#ED1E2E"/>
<path d="M134.249 14.4138C134.249 15.4896 133.173 16.5654 131.738 16.2068L124.567 15.4896C123.491 15.4896 122.415 14.4138 122.774 12.9795C122.774 11.9037 123.85 10.828 125.284 11.1865L132.456 11.9037C133.531 11.9037 134.607 12.9795 134.249 14.4138Z" fill="#ED1E2E"/>
<path d="M138.193 19.0755L137.476 26.2472C137.476 27.323 136.4 28.3988 134.966 28.0402C133.89 28.0402 132.814 26.9644 133.173 25.53L133.89 18.3583C133.89 17.2825 134.966 16.2068 136.4 16.5654C137.476 16.924 138.552 17.9997 138.193 19.0755Z" fill="#ED1E2E"/>
<path d="M150.744 16.2068C150.744 17.2825 149.668 18.3583 148.234 17.9997L141.062 17.2826C139.986 17.2826 138.91 16.2068 139.269 14.7724C139.269 13.6967 140.345 12.6209 141.779 12.9795L148.951 13.6967C150.026 14.0553 151.102 15.131 150.744 16.2068Z" fill="#ED1E2E"/>
<path d="M140.345 2.58044L139.627 9.75219C139.627 10.828 138.552 11.9037 137.117 11.5451C136.042 11.5451 134.966 10.4694 135.324 9.03501L136.042 1.86326C136.042 0.787498 137.117 -0.288265 138.552 0.0703226C139.627 0.42891 140.345 1.50468 140.345 2.58044Z" fill="#ED1E2E"/>
<path d="M515.786 181.874C516.862 182.233 517.579 183.667 517.22 184.743L516.503 186.894C514.71 192.273 516.861 198.011 521.882 200.521L523.675 201.597C524.75 201.955 525.109 203.39 524.75 204.465C524.392 205.541 522.957 205.9 521.882 205.541L519.73 204.824C514.351 203.031 508.614 205.182 506.104 210.203L505.028 211.996C504.67 213.071 503.235 213.43 502.159 213.071C501.084 212.713 500.725 211.278 501.084 210.203L501.801 208.051C503.594 202.672 501.442 196.935 496.422 194.425L494.629 193.349C493.553 192.99 493.195 191.556 493.553 190.48C493.912 189.405 495.346 189.046 496.422 189.405L498.574 190.122C503.952 191.915 509.69 189.763 512.2 184.743L513.276 182.95C513.276 181.874 514.71 181.516 515.786 181.874ZM514.351 199.445C512.559 197.294 511.841 194.783 511.483 191.915C509.331 193.708 506.821 194.425 503.952 194.783C505.745 196.935 506.463 199.445 506.821 202.314C508.973 200.879 511.483 199.804 514.351 199.445Z" fill="#ED1E2E"/>
<path d="M465.584 45.611C468.094 46.6867 470.604 48.4797 472.397 50.9898C476.7 57.4443 474.907 66.409 468.094 70.7121C461.639 75.0151 452.674 73.2222 448.371 66.409C444.068 59.9544 445.861 50.9897 452.674 46.6867C456.619 44.5352 461.639 44.1766 465.584 45.611ZM456.977 67.8434C457.336 68.202 458.053 68.202 458.412 68.202C460.922 68.9191 463.432 68.2019 465.584 66.7676C467.735 65.3332 469.169 63.1817 469.887 60.6716C470.604 58.1615 469.887 55.6514 468.452 53.4999C465.584 48.8382 459.488 47.7625 454.826 50.6312C450.164 53.4999 449.088 59.5959 451.957 64.2575C453.392 66.0504 455.185 67.1262 456.977 67.8434Z" fill="#ED1E2E"/>
<path d="M579.973 86.1314C580.332 86.1314 580.332 86.1314 579.973 86.1314L586.786 89.0001C587.862 89.3587 588.579 90.793 587.862 91.8688C587.503 92.9445 586.069 93.6617 584.993 92.9445L578.18 90.0758C577.104 89.7172 576.387 88.2829 577.104 87.2071C577.821 86.49 578.897 85.7728 579.973 86.1314Z" fill="#ED1E2E"/>
<path d="M580.69 73.5808C581.766 73.9394 582.483 75.3738 581.766 76.4495L578.897 83.2627C578.539 84.3385 577.104 85.0556 576.029 84.3384C574.953 83.9798 574.236 82.5455 574.953 81.4698L577.821 74.6566C578.18 73.9394 579.256 73.2222 580.69 73.5808Z" fill="#ED1E2E"/>
<path d="M564.912 80.0354L571.726 82.9041C572.801 83.2626 573.518 84.697 572.801 85.7728C572.443 86.8485 571.008 87.2071 569.933 86.8485L563.119 83.9798C562.044 83.6212 561.326 82.1869 562.044 81.1111C562.402 80.0354 563.837 79.6768 564.912 80.0354Z" fill="#ED1E2E"/>
<path d="M574.236 89C575.311 89.3586 576.029 90.793 575.311 91.8687L572.443 98.6819C572.084 99.7577 570.65 100.475 569.574 99.7577C568.498 99.3991 567.781 97.9647 568.498 96.889L571.367 90.0758C571.725 89 573.16 88.6415 574.236 89Z" fill="#ED1E2E"/>
</svg>
