<svg width="219" height="220" viewBox="0 0 219 220" fill="none" xmlns="http://www.w3.org/2000/svg">
<g opacity="0.06">
<path fill-rule="evenodd" clip-rule="evenodd" d="M95.4972 141.341H123.397C125.135 141.341 126.803 142.029 128.035 143.256C129.268 144.482 129.964 146.147 129.972 147.885V175.816C129.964 177.554 129.268 179.219 128.035 180.445C126.803 181.672 125.135 182.36 123.397 182.36H95.4972C93.7586 182.36 92.0908 181.672 90.8585 180.445C89.6262 179.219 88.9299 177.554 88.9218 175.816V148.008C88.9096 147.137 89.0706 146.272 89.3956 145.464C89.7206 144.655 90.203 143.92 90.8148 143.299C91.4266 142.679 92.1556 142.186 92.9594 141.85C93.7632 141.514 94.6259 141.341 95.4972 141.341ZM67.1369 57.1816L68.0279 57.0279L67.1369 57.1816ZM65.0475 57.6117L66.0922 57.3966L65.0475 57.6117ZM62.9888 58.0726L64.2179 57.7961L62.9888 58.0726ZM60.8994 58.6257L62.2821 58.257L60.8994 58.6257ZM158.547 58.7793C175.855 63.5881 191.117 73.9202 202.011 88.2029C212.904 102.486 218.833 119.937 218.894 137.899V192.869C218.87 200.057 216.003 206.944 210.92 212.027C205.838 217.109 198.951 219.976 191.763 220H27.1313C19.9431 219.976 13.0563 217.109 7.97341 212.027C2.89057 206.944 0.0242983 200.057 0 192.869L0 137.899C0.0610121 119.937 5.98958 102.486 16.8833 88.2029C27.7769 73.9202 43.039 63.5881 60.3464 58.7793C60.7515 60.9987 61.3163 63.186 62.0363 65.324C62.743 67.5056 63.2654 69.2877 64.095 71.3156C66.4159 77.0064 69.1475 82.521 72.2681 87.8156C77.3249 96.2375 83.0046 104.269 89.2598 111.844L100.782 124.994C102.042 126.654 105.176 129.542 106.927 131.324C107.527 132.046 108.298 132.607 109.17 132.953H109.816C110.83 132.707 111.874 131.416 113.933 129.358L122.905 119.832C123.185 119.423 123.493 119.033 123.827 118.665C129.03 112.787 133.912 106.632 138.452 100.229C146.165 89.6592 155.844 73.1592 158.547 58.7793ZM156.458 58.3799L157.902 58.7486L156.458 58.3799ZM154.645 57.9497L155.997 58.257L154.645 57.9497ZM152.771 57.5503L153.877 57.7654L152.771 57.5503ZM150.866 57.1816L151.757 57.3352L150.866 57.1816ZM148.961 56.8743H149.668H148.961ZM87.5084 55.9832H131.447C130.503 59.4891 128.732 62.7175 126.283 65.3977C123.833 68.0778 120.777 70.1315 117.37 71.3865C113.963 72.6416 110.305 73.0613 106.702 72.6106C103.1 72.1599 99.6575 70.8518 96.6648 68.7961C92.1692 65.6861 88.9072 61.0974 87.4469 55.8296L87.5084 55.9832Z" fill="#0029DD"/>
<path fill-rule="evenodd" clip-rule="evenodd" d="M86.5869 49.838C86.701 46.6713 87.3773 43.5501 88.5841 40.6201C89.7274 38.0968 91.2969 35.7893 93.2237 33.7989C94.1709 32.8508 95.199 31.9872 96.2964 31.2179C98.6534 29.4958 101.342 28.2821 104.193 27.6536C107.269 26.8848 110.474 26.7859 113.591 27.3637C116.708 27.9416 119.664 29.1826 122.26 31.0028C123.958 32.1245 125.48 33.4912 126.777 35.0587C127.27 35.5291 127.694 36.067 128.037 36.6564C129.877 39.2263 131.151 42.157 131.776 45.2553C132.401 48.3535 132.362 51.5491 131.662 54.6313L131.386 55.7682H136.794C144.151 55.7953 151.47 56.8291 158.548 58.8408C159.027 56.4117 159.274 53.9424 159.285 51.4665C159.63 43.6576 158.058 35.8831 154.707 28.8212C151.916 22.9523 148.038 17.6661 143.277 13.243C142.601 12.5363 142.263 12.4134 141.587 11.7989L138.268 9.21788C137.105 8.36191 135.895 7.57202 134.643 6.85195C133.352 6.14525 132.123 5.28492 130.74 4.67039C124.734 1.94874 118.275 0.365144 111.69 0L107.051 0C99.0966 0.434893 91.3536 2.71783 84.436 6.6676C83.1759 7.36281 81.9645 8.14302 80.8103 9.00279C73.7163 14.0052 68.0245 20.7443 64.2796 28.5754C61.426 34.677 59.8373 41.2931 59.6092 48.0251C59.5182 51.625 59.7651 55.2255 60.3466 58.7793C67.4139 56.7697 74.7227 55.7359 82.0701 55.7067H87.4472C86.8747 53.7085 86.5851 51.64 86.5869 49.5614" fill="#0029DD"/>
</g>
</svg>
