<svg width="162" height="120" viewBox="0 0 162 120" fill="none" xmlns="http://www.w3.org/2000/svg">
<path d="M145.124 110.8H134.44V110.881H145.124V110.8Z" fill="#EBEBEB"/>
<path d="M106.841 111.678H104.038V111.758H106.841V111.678Z" fill="#EBEBEB"/>
<path d="M134.12 107.807H127.93V107.887H134.12V107.807Z" fill="#EBEBEB"/>
<path d="M30.8538 108.349H16.9219V108.429H30.8538V108.349Z" fill="#EBEBEB"/>
<path d="M35.7704 108.349H33.7285V108.429H35.7704V108.349Z" fill="#EBEBEB"/>
<path d="M72.6267 109.71H42.4082V109.791H72.6267V109.71Z" fill="#EBEBEB"/>
<path d="M76.4493 91.2233H14.1639C13.6759 91.2225 13.2083 91.0281 12.8635 90.6827C12.5188 90.3374 12.3252 89.8694 12.3252 89.3815V1.82576C12.3294 1.34062 12.5249 0.876744 12.8692 0.534895C13.2135 0.193046 13.6787 0.00083107 14.1639 0H76.4493C76.9378 0 77.4063 0.194055 77.7517 0.539476C78.0971 0.884897 78.2912 1.35339 78.2912 1.84189V89.3815C78.2912 89.87 78.0971 90.3384 77.7517 90.6839C77.4063 91.0293 76.9378 91.2233 76.4493 91.2233ZM14.1639 0.0645146C13.6973 0.0653691 13.2502 0.251305 12.9206 0.581509C12.591 0.911714 12.4058 1.3592 12.4058 1.82576V89.3815C12.4058 89.848 12.591 90.2955 12.9206 90.6257C13.2502 90.9559 13.6973 91.1418 14.1639 91.1427H76.4493C76.9161 91.1418 77.3636 90.956 77.6937 90.6259C78.0238 90.2958 78.2097 89.8483 78.2105 89.3815V1.82576C78.2097 1.35891 78.0238 0.911425 77.6937 0.581312C77.3636 0.2512 76.9161 0.0653673 76.4493 0.0645146H14.1639Z" fill="#EBEBEB"/>
<path d="M146.225 91.2233H83.9366C83.4484 91.2225 82.9804 91.0282 82.6351 90.6829C82.2899 90.3377 82.0956 89.8697 82.0947 89.3815V1.82576C82.0998 1.34032 82.296 0.876453 82.6408 0.534693C82.9856 0.192933 83.4511 0.000822007 83.9366 0H146.225C146.71 0.00167882 147.174 0.194269 147.518 0.536027C147.861 0.877785 148.056 1.34117 148.061 1.82576V89.3815C148.061 89.8688 147.868 90.3363 147.523 90.6816C147.179 91.0268 146.713 91.2216 146.225 91.2233ZM83.9366 0.0645146C83.4698 0.0653673 83.0223 0.2512 82.6922 0.581312C82.3621 0.911425 82.1762 1.35891 82.1754 1.82576V89.3815C82.1762 89.8483 82.3621 90.2958 82.6922 90.6259C83.0223 90.956 83.4698 91.1418 83.9366 91.1427H146.225C146.692 91.1418 147.14 90.956 147.47 90.6259C147.8 90.2958 147.986 89.8483 147.986 89.3815V1.82576C147.986 1.35891 147.8 0.911425 147.47 0.581312C147.14 0.2512 146.692 0.0653673 146.225 0.0645146H83.9366Z" fill="#EBEBEB"/>
<path d="M161.286 105.61H0V105.691H161.286V105.61Z" fill="#EBEBEB"/>
<path d="M43.9205 81.6687H19.918V105.671H43.9205V81.6687Z" fill="#F0F0F0"/>
<path d="M41.5083 84.0816H22.3281V103.262H41.5083V84.0816Z" fill="#E6E6E6"/>
<path d="M67.9596 81.6687H43.957V105.671H67.9596V81.6687Z" fill="#F0F0F0"/>
<path d="M65.5493 84.0816H46.3691V103.262H65.5493V84.0816Z" fill="#E6E6E6"/>
<path d="M91.9967 81.6687H67.9941V105.671H91.9967V81.6687Z" fill="#F0F0F0"/>
<path d="M89.5883 84.0816H70.4082V103.262H89.5883V84.0816Z" fill="#E6E6E6"/>
<path d="M116.04 81.6687H92.0371V105.671H116.04V81.6687Z" fill="#F0F0F0"/>
<path d="M113.628 84.0816H94.4482V103.262H113.628V84.0816Z" fill="#E6E6E6"/>
<path d="M140.077 81.6687H116.074V105.671H140.077V81.6687Z" fill="#F0F0F0"/>
<path d="M137.666 84.0816H118.486V103.262H137.666V84.0816Z" fill="#E6E6E6"/>
<path d="M133.753 59.4662C130.759 61.7726 129.882 66.8273 129.743 70.3884C129.743 70.711 129.221 70.711 129.237 70.3884C129.395 66.6176 130.253 61.5274 133.498 59.0275C133.756 58.8275 134.008 59.2694 133.753 59.4662Z" fill="#F5F5F5"/>
<path d="M126.801 56.8824C127.565 56.792 128.207 57.5727 128.539 58.1468C130.262 61.1242 129.594 65.6176 129.268 68.8143C129.236 69.1369 128.73 69.1369 128.762 68.8143C129.084 65.7047 129.659 61.6532 128.252 58.6984C128.01 58.192 127.497 57.3082 126.801 57.3888C126.478 57.4243 126.478 56.9178 126.801 56.8824Z" fill="#E6E6E6"/>
<path d="M124.945 60.9661C128.149 60.1758 128.549 67.2756 128.642 68.8078C128.661 69.1304 128.155 69.1304 128.136 68.8078C128.01 66.7337 127.907 63.766 126.407 62.1048C126.103 61.7822 125.578 61.3306 125.081 61.4597C124.758 61.5371 124.629 61.05 124.945 60.9726V60.9661Z" fill="#E6E6E6"/>
<path d="M134.436 64.4176C131.791 62.4564 130.93 67.6078 130.781 69.0949C130.749 69.4175 130.243 69.4175 130.275 69.0949C130.443 67.4078 130.697 64.3563 132.646 63.6499C132.988 63.5361 133.353 63.506 133.709 63.5621C134.066 63.6182 134.403 63.759 134.694 63.9724C134.952 64.166 134.694 64.6176 134.436 64.4111V64.4176Z" fill="#E6E6E6"/>
<path d="M123.905 65.3466C124.106 65.1364 124.352 64.9752 124.625 64.8756C124.898 64.776 125.19 64.7407 125.479 64.7725C127.092 65.0434 127.544 67.4821 127.789 68.7466C127.85 69.0691 127.363 69.2014 127.298 68.882C127.089 67.7885 126.069 63.8757 124.263 65.7047C124.214 65.7436 124.152 65.7632 124.09 65.7596C124.027 65.7561 123.969 65.7297 123.924 65.6854C123.88 65.6412 123.854 65.5822 123.85 65.5197C123.846 65.4572 123.866 65.3956 123.905 65.3466Z" fill="#F5F5F5"/>
<path d="M133.442 81.9558H125.784C125.094 81.3733 124.54 80.6472 124.16 79.8281C123.78 79.0091 123.583 78.1169 123.584 77.214C123.584 75.0431 124.803 68.5272 124.803 68.5272H134.419C134.419 68.5272 135.642 75.0431 135.642 77.214C135.642 78.1169 135.446 79.0091 135.066 79.8281C134.686 80.6472 134.132 81.3733 133.442 81.9558Z" fill="#EBEBEB"/>
<path d="M134.66 66.9175C132.35 66.9175 130.089 65.9789 129.612 64.8241C129.134 63.6692 130.618 62.7338 132.928 62.7338C133.672 62.735 134.413 62.8293 135.134 63.0144C135.774 62.8187 136.44 62.724 137.108 62.7338C139.418 62.7338 141.679 63.6692 142.157 64.8241C142.634 65.9789 141.153 66.9175 138.841 66.9175H134.66Z" fill="#F5F5F5"/>
<path d="M119.59 62.4403C117.7 62.4403 116.936 61.6726 117.881 60.7274C118.826 59.7823 121.123 59.0178 123.01 59.0178C123.513 59.0018 124.016 59.0806 124.49 59.25C125.125 59.1034 125.774 59.0256 126.426 59.0178C128.316 59.0178 129.08 59.7855 128.135 60.7274C127.19 61.6693 124.893 62.4403 123.003 62.4403H119.59Z" fill="#F0F0F0"/>
<path d="M136.963 60.7274C134.589 60.7274 131.699 59.7597 130.512 58.5758C129.324 57.392 130.286 56.4243 132.663 56.4243C133.485 56.4319 134.304 56.5292 135.105 56.7146C135.702 56.502 136.333 56.4035 136.966 56.4243C139.344 56.4243 142.234 57.392 143.418 58.5758C144.601 59.7597 143.643 60.7274 141.266 60.7274H136.963Z" fill="#EBEBEB"/>
<path d="M123.752 57.9501C122.562 57.9501 121.801 57.4694 122.046 56.8759C122.291 56.2824 123.456 55.7985 124.626 55.7985C124.971 55.7939 125.313 55.8429 125.643 55.9437C126.014 55.8488 126.395 55.8 126.778 55.7985C127.968 55.7985 128.733 56.2791 128.484 56.8759C128.236 57.4727 127.075 57.9501 125.888 57.9501H123.752Z" fill="#F0F0F0"/>
<path d="M122.383 66.5594C121.196 66.5594 120.031 66.0756 119.786 65.4821C119.541 64.8885 120.302 64.4079 121.493 64.4079C121.876 64.4079 122.257 64.4567 122.628 64.5531C122.957 64.4507 123.3 64.4017 123.644 64.4079C124.831 64.4079 125.996 64.8885 126.241 65.4821C126.486 66.0756 125.725 66.5594 124.534 66.5594H122.383Z" fill="#EBEBEB"/>
<path d="M124.587 69.7336C124.716 69.0013 124.803 68.5272 124.803 68.5272H134.419C134.419 68.5272 134.509 69.0013 134.638 69.7336H124.587Z" fill="#F5F5F5"/>
<path d="M124.599 59.4855C124.599 59.4855 121.96 60.3661 121.125 61.8177C121.125 61.8177 121.257 59.7049 124.599 59.4855Z" fill="#FAFAFA"/>
<path d="M125.838 56.0372C125.413 56.2822 125.039 56.605 124.734 56.9888C124.807 56.7406 124.949 56.5186 125.145 56.3498C125.341 56.1809 125.581 56.0723 125.838 56.0372Z" fill="#FAFAFA"/>
<path d="M136.071 56.9887C136.071 56.9887 138.929 58.0339 140.687 60.0145C140.221 59.1734 139.557 58.4585 138.753 57.9314C137.949 57.4042 137.028 57.0807 136.071 56.9887Z" fill="#FAFAFA"/>
<path d="M136.071 63.3531C137.259 63.848 138.292 64.6536 139.062 65.6853C139.062 65.6853 138.533 63.7048 136.071 63.3531Z" fill="#E6E6E6"/>
<path d="M123.734 62.7305C123.973 62.8553 124.176 63.0397 124.323 63.2657C124.47 63.4917 124.556 63.7518 124.573 64.0208C124.18 63.6764 123.889 63.2298 123.734 62.7305Z" fill="#FAFAFA"/>
<path d="M81.7407 101.22C81.3658 101.536 80.953 101.805 80.5117 102.02C79.8891 102.332 79.205 102.503 78.5086 102.52C77.4978 102.306 76.5414 101.888 75.6982 101.291C74.855 100.694 74.1428 99.9313 73.6055 99.0489L73.7377 99.1586C73.8442 99.2392 73.9506 99.3199 74.0603 99.3941C74.6968 99.815 75.3911 100.141 76.1215 100.362C77.4846 100.757 78.8957 100.964 80.315 100.975C80.7947 101.028 81.2708 101.11 81.7407 101.22Z" fill="#FAFAFA"/>
<path d="M83.3108 102.139C82.2218 102.614 81.0358 102.826 79.8496 102.755C80.1962 102.665 80.5332 102.542 80.856 102.388C81.3885 102.129 81.8824 101.798 82.3237 101.404C82.6115 101.465 82.8803 101.594 83.1076 101.781C83.2045 101.881 83.2744 102.005 83.3108 102.139Z" fill="#FAFAFA"/>
<path d="M85.8858 100.271C85.2446 100.964 84.4785 101.528 83.6278 101.936C83.5766 101.775 83.4907 101.628 83.3762 101.504C83.1594 101.308 82.8998 101.167 82.6182 101.091C82.7246 100.991 82.8278 100.881 82.9407 100.768C83.182 100.506 83.4062 100.228 83.6117 99.936C84.3362 100.212 85.1124 100.327 85.8858 100.271Z" fill="#FAFAFA"/>
<path d="M86.6589 99.2973C86.5331 99.4876 86.3976 99.6683 86.2557 99.8425V99.8167C85.8847 99.9876 85.2686 99.978 84.4719 99.7876C84.2751 99.7425 84.0687 99.6844 83.8525 99.6167C84.1655 99.1457 84.4426 98.6518 84.6815 98.1393C85.2609 98.2995 85.8801 98.2241 86.4041 97.9296C87.0137 97.5683 87.5234 96.8651 87.9298 95.8297C87.8007 97.0732 87.3639 98.2649 86.6589 99.2973Z" fill="#FAFAFA"/>
<path d="M86.3487 97.5006C86.1321 97.6257 85.893 97.7069 85.6451 97.7396C85.3971 97.7723 85.1451 97.7557 84.9036 97.6909C84.9487 97.5877 84.9939 97.4802 85.039 97.3684C85.6285 96.0183 85.9674 94.5721 86.039 93.1007C86.0808 92.0911 85.9206 91.0833 85.5681 90.1363C85.3648 89.6028 85.0903 89.0994 84.752 88.6396C86.1391 89.5782 87.1732 90.9529 87.6906 92.5459C87.9075 93.186 87.9863 93.8648 87.9218 94.5376C87.8573 95.2103 87.651 95.8618 87.3164 96.449C87.0877 96.8756 86.7548 97.2374 86.3487 97.5006Z" fill="#FAFAFA"/>
<path d="M84.4685 97.5103C83.7718 97.2264 83.0879 96.2587 82.8234 95.6362C80.3235 89.8041 78.8622 88.0622 78.1074 87.5719C79.9773 86.9868 82.0014 87.151 83.7524 88.0299C84.3776 88.6178 84.857 89.3435 85.1524 90.1492C85.6685 91.5072 85.9943 93.8233 84.6201 97.1458C84.5685 97.2781 84.5137 97.3974 84.4685 97.5103Z" fill="#FAFAFA"/>
<path d="M83.415 99.4038C82.8093 99.1934 82.2169 98.9467 81.6408 98.6651C79.6067 97.698 77.7445 96.4046 76.1281 94.8362C74.6927 93.3652 74.0991 92.3556 73.854 91.7685C73.7822 91.6001 73.7271 91.4251 73.6895 91.2459C73.7862 91.0717 73.8927 90.904 74.012 90.7363C74.8854 89.4393 76.1415 88.447 77.6055 87.8976C77.7571 87.9331 78.0797 88.0879 78.6151 88.7331C79.657 89.9911 80.9473 92.4104 82.4537 95.9232C82.7743 96.649 83.2737 97.2816 83.9053 97.7619C84.0136 97.8341 84.128 97.8967 84.2472 97.949C84.0091 98.4553 83.7308 98.9418 83.415 99.4038Z" fill="#FAFAFA"/>
<path d="M83.1648 99.765C82.8638 100.18 82.5235 100.564 82.1487 100.913C81.6041 100.768 81.0501 100.66 80.4907 100.591C76.9424 100.51 75.0521 99.607 74.0973 98.8683C73.7875 98.6308 73.5118 98.3519 73.278 98.0393C72.8447 97.0351 72.6348 95.9488 72.6626 94.8555C72.6905 93.7622 72.9554 92.688 73.4393 91.7072C73.4586 91.7685 73.4812 91.833 73.5102 91.9007C73.8683 92.8039 74.6618 93.8845 75.8682 95.1264C76.7268 95.9837 77.6679 96.7541 78.6778 97.4264C79.5639 98.0296 80.4921 98.5686 81.4552 99.0392C82.0112 99.3126 82.5819 99.5549 83.1648 99.765Z" fill="#FAFAFA"/>
<path d="M33.8317 60.221H30.3027V81.5269H33.8317V60.221Z" fill="#F5F5F5"/>
<path d="M35.0881 81.672H28.8076L30.3011 80.5495H33.8333L35.0881 81.672Z" fill="#EBEBEB"/>
<path d="M43.2729 81.6914H42.1406L42.1535 80.7172L43.2729 81.6914Z" fill="#E0E0E0"/>
<path d="M42.1541 60.4274L42.1412 81.6913L35.0898 81.672L33.835 80.5494V60.3854L42.1541 60.4274Z" fill="#E0E0E0"/>
<path d="M30.7439 75.7657C30.7439 76.2263 30.6073 76.6766 30.3514 77.0596C30.0955 77.4426 29.7317 77.7411 29.3062 77.9174C28.8806 78.0936 28.4123 78.1398 27.9605 78.0499C27.5088 77.96 27.0938 77.7382 26.7681 77.4125C26.4424 77.0868 26.2206 76.6718 26.1307 76.22C26.0408 75.7683 26.0869 75.3 26.2632 74.8744C26.4395 74.4489 26.738 74.0851 27.121 73.8292C27.504 73.5733 27.9543 73.4367 28.4149 73.4367C29.0326 73.4367 29.625 73.6821 30.0617 74.1188C30.4985 74.5556 30.7439 75.148 30.7439 75.7657Z" fill="#EBEBEB"/>
<path d="M38.1062 75.7657C38.1062 76.2263 37.9696 76.6766 37.7137 77.0596C37.4578 77.4426 37.094 77.7411 36.6685 77.9174C36.2429 78.0936 35.7746 78.1398 35.3229 78.0499C34.8711 77.96 34.4561 77.7382 34.1304 77.4125C33.8047 77.0868 33.5829 76.6718 33.493 76.22C33.4031 75.7683 33.4493 75.3 33.6255 74.8744C33.8018 74.4489 34.1003 74.0851 34.4833 73.8292C34.8663 73.5733 35.3166 73.4367 35.7772 73.4367C36.3949 73.4367 36.9873 73.6821 37.424 74.1188C37.8608 74.5556 38.1062 75.148 38.1062 75.7657Z" fill="#EBEBEB"/>
<path d="M34.5077 74.8399H29.7207V77.1656H34.5077V74.8399Z" fill="#EBEBEB"/>
<path d="M26.0898 75.7657V81.6914H27.8092L30.2736 77.1657L26.0898 75.7657Z" fill="#EBEBEB"/>
<path d="M38.1047 75.7657V81.6914H36.3853L33.9209 77.1657L38.1047 75.7657Z" fill="#EBEBEB"/>
<path d="M26.0898 81.072H26.9447C27.162 81.072 27.3751 81.0117 27.5602 80.8978C27.7453 80.7839 27.8951 80.6209 27.993 80.4268L30.0736 76.3302H33.9219V77.1656H30.2736L28.1962 80.9817C28.0785 81.1969 27.9049 81.3764 27.6937 81.5013C27.4826 81.6262 27.2416 81.6918 26.9963 81.6913H26.0898V81.072Z" fill="#E0E0E0"/>
<path d="M38.1045 81.072H37.2465C37.0295 81.0721 36.8168 81.0119 36.6322 80.8979C36.4476 80.784 36.2984 80.6208 36.2013 80.4268L34.1207 76.3302H30.2725V77.1656H33.9208L35.9981 80.9817C36.1151 81.1969 36.288 81.3765 36.4987 81.5014C36.7094 81.6263 36.9499 81.6919 37.1949 81.6913H38.1045V81.072Z" fill="#E0E0E0"/>
<path d="M36.3321 74.3915H35.5869V76.4141H36.3321V74.3915Z" fill="white"/>
<path d="M34.9473 75.027V75.7722H36.9698V75.027H34.9473Z" fill="white"/>
<path d="M27.4335 75.2689C27.6331 75.2689 27.7948 75.1072 27.7948 74.9077C27.7948 74.7081 27.6331 74.5464 27.4335 74.5464C27.234 74.5464 27.0723 74.7081 27.0723 74.9077C27.0723 75.1072 27.234 75.2689 27.4335 75.2689Z" fill="white"/>
<path d="M28.9091 75.2689C29.1087 75.2689 29.2704 75.1072 29.2704 74.9077C29.2704 74.7081 29.1087 74.5464 28.9091 74.5464C28.7096 74.5464 28.5479 74.7081 28.5479 74.9077C28.5479 75.1072 28.7096 75.2689 28.9091 75.2689Z" fill="white"/>
<path d="M27.4335 76.5656C27.6331 76.5656 27.7948 76.4039 27.7948 76.2044C27.7948 76.0048 27.6331 75.8431 27.4335 75.8431C27.234 75.8431 27.0723 76.0048 27.0723 76.2044C27.0723 76.4039 27.234 76.5656 27.4335 76.5656Z" fill="white"/>
<path d="M28.9091 76.5656C29.1087 76.5656 29.2704 76.4039 29.2704 76.2044C29.2704 76.0048 29.1087 75.8431 28.9091 75.8431C28.7096 75.8431 28.5479 76.0048 28.5479 76.2044C28.5479 76.4039 28.7096 76.5656 28.9091 76.5656Z" fill="white"/>
<path d="M38.6412 10.329C39.2249 6.73286 36.7829 3.34441 33.1868 2.76067C29.5907 2.17694 26.2022 4.61897 25.6185 8.2151C25.0347 11.8112 27.4768 15.1997 31.0729 15.7834C34.669 16.3671 38.0575 13.9251 38.6412 10.329Z" fill="#E0E0E0"/>
<path d="M38.2965 10.3277C38.8802 6.73161 36.4382 3.34316 32.8421 2.75942C29.2459 2.17569 25.8575 4.61772 25.2737 8.21385C24.69 11.81 27.132 15.1984 30.7282 15.7822C34.3243 16.3659 37.7127 13.9239 38.2965 10.3277Z" fill="#EBEBEB"/>
<path opacity="0.8" d="M31.7026 14.5641C34.6261 14.5641 36.996 12.1942 36.996 9.27073C36.996 6.34726 34.6261 3.97733 31.7026 3.97733C28.7791 3.97733 26.4092 6.34726 26.4092 9.27073C26.4092 12.1942 28.7791 14.5641 31.7026 14.5641Z" fill="#FAFAFA"/>
<path d="M32.2239 9.70943C32.2245 9.81624 32.1934 9.92084 32.1344 10.0099C32.0755 10.099 31.9914 10.1685 31.8928 10.2097C31.7942 10.2509 31.6857 10.2618 31.5809 10.2411C31.4761 10.2205 31.3798 10.1691 31.3043 10.0936C31.2287 10.018 31.1774 9.92175 31.1567 9.81695C31.136 9.71215 31.1469 9.60357 31.1881 9.50501C31.2293 9.40645 31.2988 9.32235 31.3879 9.2634C31.477 9.20445 31.5816 9.17332 31.6884 9.17396C31.8304 9.17396 31.9666 9.23037 32.067 9.33079C32.1674 9.43121 32.2239 9.56741 32.2239 9.70943Z" fill="#E0E0E0"/>
<path d="M31.6289 9.90619L29.3516 7.76431L29.5709 7.52883L31.6354 9.47072L35.332 6.20306L35.5482 6.44499L31.6289 9.90619Z" fill="#E0E0E0"/>
<path d="M82.5509 72.1174H78.0059V81.3494H82.5509V72.1174Z" fill="#E6E6E6"/>
<path d="M84.6026 81.5139H75.9932L78.0931 79.6656H82.5027L84.6026 81.5139Z" fill="#E6E6E6"/>
<path d="M99.7536 50.2696H60.5837C60.174 50.2696 59.8418 50.6018 59.8418 51.0115V75.0335C59.8418 75.4432 60.174 75.7754 60.5837 75.7754H99.7536C100.163 75.7754 100.496 75.4432 100.496 75.0335V51.0115C100.496 50.6018 100.163 50.2696 99.7536 50.2696Z" fill="#F0F0F0"/>
<path d="M98.9796 51.8631H61.3193V74.0883H98.9796V51.8631Z" fill="#E0E0E0"/>
<path d="M82.5509 75.7754H78.0059V77.1463H82.5509V75.7754Z" fill="#E0E0E0"/>
<path d="M139.186 41.5118L138.125 42.157L119.132 14.8835C117.919 13.09 118.283 11.6578 119.454 10.9288C120.625 10.1998 122.07 10.5062 123.141 12.39L139.186 41.5118Z" fill="#E6E6E6"/>
<path d="M138.706 40.986L137.89 41.4957C137.419 41.786 137.206 42.2924 137.413 42.6215C137.616 42.944 138.164 42.9827 138.632 42.6924L139.448 42.1828C139.919 41.8924 140.132 41.3892 139.929 41.057C139.71 40.728 139.161 40.6957 138.706 40.986Z" fill="#E6E6E6"/>
<path d="M117.691 41.5118L118.753 42.1569L137.739 14.8964C138.952 13.1029 138.588 11.6707 137.417 10.9417C136.243 10.2126 134.801 10.5191 133.726 12.4029L117.691 41.5118Z" fill="#F5F5F5"/>
<path d="M118.184 40.986L119 41.4957C119.471 41.786 119.684 42.2924 119.478 42.6215C119.275 42.944 118.726 42.9827 118.258 42.6924L117.439 42.1828C116.971 41.8924 116.759 41.3892 116.962 41.057C117.168 40.728 117.713 40.6957 118.184 40.986Z" fill="#F5F5F5"/>
<path d="M80.6421 120C115.184 120 143.186 118.365 143.186 116.348C143.186 114.332 115.184 112.697 80.6421 112.697C46.1003 112.697 18.0986 114.332 18.0986 116.348C18.0986 118.365 46.1003 120 80.6421 120Z" fill="#F5F5F5"/>
<path d="M80.3704 23.6897H80.3543C80.318 23.6864 80.2839 23.6708 80.2575 23.6457C80.2312 23.6205 80.2141 23.5871 80.2092 23.551C80.0253 22.1865 79.1737 20.8865 77.8092 19.8898C76.9887 19.284 76.0561 18.847 75.0656 18.6039C74.0751 18.3609 73.0462 18.3166 72.0384 18.4737C72.0035 18.4799 71.9675 18.4744 71.936 18.4581C71.9045 18.4417 71.8793 18.4155 71.8642 18.3834C71.8486 18.3518 71.8439 18.316 71.8509 18.2816C71.8579 18.2471 71.8762 18.2159 71.9029 18.193C72.469 17.727 72.8725 17.0931 73.0551 16.3829C73.2377 15.6727 73.1901 14.9229 72.919 14.2415C72.3481 12.8674 70.832 11.819 69.1449 11.6255C69.1062 11.6222 69.07 11.6045 69.0437 11.5758C69.0174 11.5471 69.0029 11.5096 69.003 11.4706C69.0017 11.4314 69.0148 11.3931 69.0397 11.3628C69.0647 11.3325 69.0998 11.3124 69.1385 11.3061C69.9467 11.1893 70.7169 10.8868 71.3885 10.4223C72.0601 9.95772 72.6149 9.34383 73.0094 8.62878C73.3247 8.08815 73.5086 7.48096 73.5461 6.8562C73.5837 6.23144 73.4738 5.60661 73.2255 5.0321C73.2083 4.9947 73.2061 4.95215 73.2193 4.91317C73.2325 4.87419 73.2601 4.84173 73.2964 4.82243C73.3323 4.80295 73.3742 4.79778 73.4137 4.80796C73.4532 4.81813 73.4874 4.8429 73.5093 4.87727C74.3126 6.16756 76.0899 6.91915 77.7544 6.69658C79.4189 6.474 80.764 5.29339 80.9995 3.8902C80.9995 3.84742 81.0165 3.8064 81.0467 3.77615C81.077 3.7459 81.118 3.72891 81.1608 3.72891C81.2035 3.72891 81.2445 3.7459 81.2748 3.77615C81.305 3.8064 81.322 3.84742 81.322 3.8902C81.7994 8.36427 86.309 9.72552 88.6251 9.8223C88.661 9.82428 88.6952 9.83798 88.7226 9.86128C88.75 9.88458 88.769 9.91621 88.7767 9.95133C88.7845 9.98639 88.7801 10.0231 88.7643 10.0553C88.7484 10.0876 88.7221 10.1135 88.6896 10.1287C88.6025 10.1739 86.5445 11.2255 86.8477 13.4867C86.9516 14.482 87.2918 15.438 87.84 16.2752C88.3882 17.1123 89.1285 17.8064 89.9992 18.2995C90.0324 18.3179 90.058 18.3474 90.0715 18.3828C90.0851 18.4182 90.0858 18.4572 90.0734 18.493C90.0611 18.529 90.0367 18.5596 90.0043 18.5796C89.972 18.5996 89.9337 18.6077 89.896 18.6027C85.9026 17.9995 81.6124 20.2801 80.5253 23.5768C80.5149 23.6097 80.4943 23.6384 80.4665 23.6587C80.4386 23.679 80.4049 23.6899 80.3704 23.6897ZM73.2255 18.0447C74.9455 18.0594 76.6175 18.6133 78.006 19.6285C79.1702 20.4237 80.0246 21.596 80.4253 22.9478C81.7349 19.9898 85.5284 17.9479 89.238 18.2059C88.4884 17.6592 87.8604 16.9629 87.3935 16.1612C86.9265 15.3595 86.6309 14.4697 86.5251 13.548C86.2832 11.7287 87.4574 10.6061 88.1186 10.1287C85.751 9.88359 81.9252 8.51588 81.1124 4.64502C80.8042 5.28761 80.3386 5.8419 79.7589 6.2564C79.1791 6.67089 78.5041 6.93216 77.7963 7.01592C77.0759 7.10516 76.3446 7.03591 75.6537 6.81304C74.9628 6.59017 74.3289 6.21905 73.7964 5.72563C73.9983 6.76744 73.8222 7.84707 73.2997 8.77071C72.9468 9.41379 72.4705 9.98098 71.8982 10.4398C71.3259 10.8987 70.6687 11.2402 69.9643 11.4448C71.4384 11.8416 72.6932 12.848 73.2158 14.1061C73.4835 14.7696 73.5561 15.4957 73.4253 16.1992C73.2944 16.9026 72.9655 17.554 72.4771 18.0769C72.7258 18.0529 72.9756 18.0421 73.2255 18.0447Z" fill="#0029DD"/>
<path d="M126.771 95.2297L135.951 98.8296C136.215 98.6006 137.78 95.5136 137.78 95.5136L129.641 91.7556L126.771 95.2297Z" fill="#FFB573"/>
<path d="M135.195 100.881C134.963 101.362 134.666 101.791 134.382 101.823C134.306 101.834 134.229 101.822 134.161 101.787C134.093 101.753 134.037 101.697 134.001 101.63C133.965 101.573 133.941 101.51 133.931 101.444C133.92 101.378 133.924 101.31 133.94 101.246C134.076 100.542 135.456 99.6135 135.514 99.5748C135.531 99.5638 135.551 99.558 135.571 99.558C135.591 99.558 135.61 99.5638 135.627 99.5748C135.644 99.5865 135.656 99.603 135.663 99.622C135.67 99.641 135.671 99.6616 135.666 99.6812C135.547 100.095 135.389 100.497 135.195 100.881ZM134.179 101.107C134.152 101.166 134.131 101.228 134.114 101.291C134.105 101.33 134.103 101.37 134.11 101.409C134.116 101.449 134.131 101.486 134.153 101.52C134.234 101.636 134.295 101.642 134.34 101.639C134.663 101.581 135.137 100.642 135.379 99.9102C134.907 100.23 134.502 100.639 134.185 101.113L134.179 101.107Z" fill="#0029DD"/>
<path d="M135.652 99.7102L135.623 99.7425C135.2 100.091 133.959 100.581 133.575 100.304C133.51 100.25 133.467 100.176 133.451 100.093C133.435 100.011 133.448 99.926 133.488 99.8522C133.518 99.7595 133.566 99.6738 133.63 99.6001C133.693 99.5264 133.771 99.4662 133.859 99.4231C134.484 99.1425 135.526 99.5393 135.571 99.5522C135.589 99.5551 135.605 99.5626 135.619 99.574C135.632 99.5853 135.643 99.6 135.649 99.6167L135.652 99.7102ZM133.697 99.8651L133.655 99.9134C133.597 100.078 133.655 100.117 133.671 100.133C133.884 100.313 134.833 100.004 135.336 99.6844C134.894 99.5167 134.41 99.4908 133.952 99.6102C133.837 99.6589 133.746 99.7503 133.697 99.8651Z" fill="#0029DD"/>
<path d="M135.263 98.7683L136.853 95.0878C136.887 95.0128 136.945 94.9516 137.019 94.9146C137.092 94.8776 137.176 94.867 137.256 94.8846L140.614 95.4813C140.937 95.562 141.05 96.3039 141.034 96.3394C140.279 98.6845 138.288 103.565 137.566 105.149C136.843 106.733 135.182 106.223 135.337 105.513C136.024 102.317 135.659 100.82 135.237 99.5167C135.15 99.2731 135.159 99.0054 135.263 98.7683Z" fill="#263238"/>
<g opacity="0.2">
<path opacity="0.2" d="M132.5 93.0685L129.655 91.7524L126.784 95.2329L130.984 96.8781L132.5 93.0685Z" fill="black"/>
</g>
<path d="M115.995 59.8145C116.285 60.4831 116.495 61.1837 116.621 61.9016C117.359 65.6724 118.385 78.4688 119.053 83.3332C119.134 83.8173 119.338 84.2724 119.646 84.6553C119.953 85.0381 120.353 85.3359 120.808 85.5203C123.459 86.7686 125.185 87.1493 131.169 92.062C130.446 93.5942 129.759 94.6749 129.104 96.4716C129.104 96.4716 117.095 91.2427 114.46 89.0718C110.573 85.8783 105.998 69.8755 104.624 65.5402C103.844 63.0789 103.266 60.1339 104.705 58.0113C105.511 56.821 113.395 53.1953 115.995 59.8145Z" fill="#263238"/>
<path d="M86.126 16.4802L84.8615 13.8448L82.9938 11.1417C82.9938 11.1417 81.1551 12.6868 80.8906 12.9319C80.6261 13.1771 81.0358 16.0093 82.6519 17.0415C83.5737 17.6471 84.6102 18.0566 85.697 18.2447L86.126 16.4802Z" fill="#FFB573"/>
<path d="M84.8535 13.8448L82.9859 11.1416C82.8679 10.9488 82.6792 10.8099 82.4601 10.7545L81.0246 10.4029C80.8741 10.3627 80.7154 10.3644 80.5657 10.4079C80.416 10.4513 80.2811 10.5349 80.1755 10.6495C80.0699 10.764 79.9976 10.9053 79.9665 11.058C79.9353 11.2107 79.9465 11.369 79.9988 11.5158L80.9827 14.3157L84.8535 13.8448Z" fill="#FFB573"/>
<path d="M105.554 30.1927C105.554 30.1927 103.454 35.2571 103.106 37.6119C102.757 39.9667 103.36 51.6051 103.719 53.6857C104.077 55.7663 115.705 56.0372 117.834 54.1211L122.073 37.0248C122.213 36.4701 122.235 35.8921 122.139 35.3282C122.042 34.7642 121.828 34.2268 121.511 33.7504C121.195 33.2739 120.781 32.8691 120.299 32.562C119.816 32.2548 119.274 32.0521 118.708 31.9669C117.741 31.8217 117.063 31.7056 117.247 31.6798L105.554 30.1927Z" fill="#0029DD"/>
<path d="M110.253 32.4637C111.098 33.525 111.059 35.7346 110.33 36.8765C109.685 37.87 108.395 38.2861 107.23 38.1958C106.066 38.1055 104.953 37.5926 103.889 37.0861C101.213 35.8131 98.5576 34.5034 95.9211 33.1572C93.6211 31.9863 91.2728 30.7412 89.5954 28.7799C87.3794 26.1993 83.3182 18.8447 83.0666 18.1028C82.815 17.3609 85.8407 15.4674 86.4246 16.1028C88.0374 17.8673 92.9921 25.3284 94.3308 26.1219C95.8598 27.0219 108.272 29.9992 110.253 32.4637Z" fill="#0029DD"/>
<path opacity="0.1" d="M110.253 32.4637C111.098 33.525 111.059 35.7346 110.33 36.8765C109.685 37.87 108.395 38.2861 107.23 38.1958C106.066 38.1055 104.953 37.5926 103.889 37.0861C101.213 35.8131 98.5576 34.5034 95.9211 33.1572C93.6211 31.9863 91.2728 30.7412 89.5954 28.7799C87.3794 26.1993 83.3182 18.8447 83.0666 18.1028C82.815 17.3609 85.8407 15.4674 86.4246 16.1028C88.0374 17.8673 92.9921 25.3284 94.3308 26.1219C95.8598 27.0219 108.272 29.9992 110.253 32.4637Z" fill="black"/>
<path d="M105.553 30.1927C105.553 30.1927 103.001 32.612 103.105 37.6119C103.153 39.9764 103.359 51.6051 103.717 53.6857C104.076 55.7663 115.704 56.0372 117.833 54.1211L121.459 37.2055C122.04 34.8571 121.085 32.3346 118.695 31.9798C117.727 31.8346 117.049 31.7185 117.233 31.6927L105.553 30.1927Z" fill="#0029DD"/>
<path d="M98.5605 48.8148L94.1058 48.7083C94.1058 48.7083 93.7477 45.3375 93.8477 45.0181C93.8477 45.0181 95.7251 44.6472 97.1476 45.3988L98.4056 46.202L98.5605 48.8148Z" fill="#FFB573"/>
<path d="M94.837 48.7568L94.0047 45.0375L92.3016 45.1182C92.2269 45.122 92.1539 45.1417 92.0875 45.176C92.021 45.2103 91.9627 45.2583 91.9163 45.3169C91.8699 45.3755 91.8365 45.4434 91.8184 45.5159C91.8003 45.5884 91.7978 45.664 91.8112 45.7375L92.1919 47.773C92.231 47.9874 92.3392 48.1833 92.4999 48.3306C92.6606 48.4779 92.8651 48.5687 93.0822 48.5891L94.837 48.7568Z" fill="#FFB573"/>
<path d="M120.966 39.128C118.785 42.5828 117.075 46.0214 113.617 47.9052C110.314 49.7019 101.989 49.9535 98.3114 49.1729C98.7082 49.4148 97.9082 45.2246 97.9082 45.2246C98.9179 44.5795 106.989 43.9602 110.211 43.4473C112.395 43.0989 114.75 33.6862 116.911 32.8024C122.401 30.5024 122.401 36.8345 120.966 39.128Z" fill="#0029DD"/>
<path opacity="0.1" d="M120.966 39.128C118.785 42.5828 117.075 46.0214 113.617 47.9052C110.314 49.7019 101.989 49.9535 98.3114 49.1729C98.7082 49.4148 97.9082 45.2246 97.9082 45.2246C98.9179 44.5795 106.989 43.9602 110.211 43.4473C112.395 43.0989 114.75 33.6862 116.911 32.8024C122.401 30.5024 122.401 36.8345 120.966 39.128Z" fill="white"/>
<path d="M103.717 53.6728L103.456 57.2437C103.298 59.2838 103.465 61.3361 103.949 63.3241C104.54 65.6821 105.288 66.8305 105.288 66.8305C105.288 66.8305 114.362 70.8014 117.975 66.8498C121.588 62.8983 117.833 54.1083 117.833 54.1083C113.128 54.5662 108.385 54.4198 103.717 53.6728Z" fill="#263238"/>
<path opacity="0.4" d="M116.966 63.6338C115.97 63.9305 107.086 73.3593 107.086 73.3593L109.163 79.3075L117.589 69.5304L116.966 63.6338Z" fill="black"/>
<path d="M89.9114 102.275L89.1533 112.103C89.4501 112.29 92.7306 113.819 92.8597 112.881C93.2564 110.016 94.0758 104 94.0758 104L89.9114 102.275Z" fill="#FFB573"/>
<path d="M86.9626 111.965C86.4368 111.884 85.9432 111.726 85.8271 111.465C85.794 111.396 85.7833 111.318 85.7966 111.243C85.8099 111.168 85.8465 111.099 85.9013 111.045C85.9439 110.993 85.9969 110.951 86.0569 110.921C86.1169 110.891 86.1826 110.874 86.2497 110.871C86.9626 110.797 88.2528 111.839 88.3077 111.887C88.3233 111.9 88.3346 111.918 88.3404 111.937C88.3461 111.957 88.346 111.978 88.3399 111.997C88.3336 112.016 88.3216 112.034 88.3056 112.046C88.2895 112.059 88.27 112.066 88.2496 112.068C87.8183 112.074 87.3874 112.039 86.9626 111.965ZM86.4497 111.062C86.3864 111.055 86.3226 111.055 86.2594 111.062C86.2192 111.063 86.1799 111.074 86.1438 111.091C86.1077 111.109 86.0757 111.134 86.0497 111.165C85.9594 111.278 85.9755 111.336 85.9916 111.378C86.14 111.674 87.1755 111.849 87.9464 111.868C87.5034 111.51 86.9951 111.242 86.4497 111.078V111.062Z" fill="#0029DD"/>
<path d="M88.218 112.062L88.1792 112.042C87.7212 111.739 86.889 110.697 87.047 110.249C87.0786 110.171 87.1366 110.106 87.2109 110.067C87.2852 110.027 87.3711 110.015 87.4535 110.033C87.5505 110.034 87.6461 110.055 87.7348 110.095C87.8235 110.134 87.9033 110.191 87.9696 110.262C88.4212 110.778 88.347 111.894 88.347 111.939C88.3499 111.956 88.3479 111.974 88.341 111.99C88.3341 112.006 88.3228 112.02 88.3083 112.029L88.218 112.062ZM87.4986 110.236L87.4406 110.213C87.2696 110.213 87.247 110.268 87.2373 110.294C87.1244 110.549 87.6986 111.362 88.1502 111.752C88.1848 111.28 88.0721 110.809 87.8276 110.403C87.7428 110.308 87.6254 110.249 87.4986 110.236Z" fill="#0029DD"/>
<path d="M89.0066 111.413L92.9904 111.858C93.0735 111.866 93.1514 111.902 93.2104 111.961C93.2694 112.02 93.3057 112.098 93.313 112.181L93.7259 115.568C93.7452 115.91 93.0807 116.213 93.0259 116.213C90.5647 116.178 85.3132 115.697 83.5874 115.471C81.8617 115.245 81.8649 113.507 82.5907 113.445C85.8454 113.171 87.168 112.371 88.2938 111.597C88.4999 111.448 88.7544 111.383 89.0066 111.413Z" fill="#263238"/>
<g opacity="0.2">
<path opacity="0.2" d="M93.6687 106.975L94.0751 104L89.9107 102.275L89.6494 106.3L93.6687 106.975Z" fill="black"/>
</g>
<path d="M118.92 65.5853C116.829 69.2788 107.307 76.7108 102.446 82.3591C100.865 84.1913 99.4719 86.1751 99.0945 88.5654C98.2042 94.1459 95.4591 99.4586 94.0752 105.062C92.8366 105.539 92.1592 105.449 90.9076 104.997C89.1528 104.352 89.1205 104.162 89.4012 101.833C89.6657 99.636 88.0593 97.0522 90.4463 84.3623C91.9269 76.485 101.859 66.5111 111.559 57.6146C113.172 56.1243 115.604 55.6792 118.042 57.1243C118.487 57.3823 120.965 62.0016 118.92 65.5853Z" fill="#263238"/>
<path d="M114.305 27.0961C115.659 26.0251 116.885 24.6929 117.411 23.051C117.937 21.4091 117.663 19.4285 116.388 18.2673C116.285 18.1737 116.15 18.0802 116.021 18.1318C115.973 18.1599 115.932 18.1982 115.901 18.2439C115.87 18.2896 115.849 18.3416 115.84 18.3963C114.914 21.2317 115.456 24.3252 114.305 27.0961Z" fill="#263238"/>
<path d="M113.972 25.3283C113.756 27.2637 113.618 30.054 115.047 31.2088C115.047 31.2088 115.134 33.1442 109.943 35.6764C107.785 33.0668 109.134 31.6959 109.134 31.6959C111.214 31.0185 111.085 30.1637 110.598 28.7185L113.972 25.3283Z" fill="#FFB573"/>
<path opacity="0.2" d="M112.6 26.696L110.619 28.7089C110.738 29.0434 110.828 29.3877 110.887 29.7379C111.69 29.5573 112.903 28.7702 113.006 27.8734C112.97 27.4534 112.831 27.0488 112.6 26.696Z" fill="black"/>
<path d="M116.181 21.8736C115.584 25.0509 115.397 26.3896 113.578 27.8412C110.839 30.0056 107.068 28.5767 106.704 25.2929C106.381 22.3317 107.41 17.6189 110.7 16.7576C111.425 16.5601 112.189 16.5511 112.918 16.7314C113.647 16.9117 114.318 17.2754 114.868 17.7878C115.417 18.3003 115.826 18.9447 116.057 19.6597C116.287 20.3748 116.331 21.1368 116.184 21.8736H116.181Z" fill="#FFB573"/>
<path d="M110.965 22.0736C110.93 22.3317 110.765 22.5284 110.594 22.5091C110.423 22.4897 110.314 22.2575 110.343 21.9962C110.372 21.7349 110.543 21.5414 110.71 21.5607C110.878 21.5801 110.994 21.8252 110.965 22.0736Z" fill="#263238"/>
<path d="M108.034 21.7123C108.002 21.9768 107.834 22.1639 107.666 22.1445C107.499 22.1252 107.386 21.8929 107.415 21.6349C107.444 21.3768 107.615 21.1801 107.782 21.2026C107.95 21.2252 108.063 21.451 108.034 21.7123Z" fill="#263238"/>
<path d="M108.882 22.2962C108.575 22.8619 108.192 23.3828 107.743 23.8445C107.865 23.955 108.01 24.0381 108.167 24.0881C108.323 24.1382 108.489 24.1541 108.653 24.1349L108.882 22.2962Z" fill="#ED893E"/>
<path d="M109.944 25.3284C109.815 25.3334 109.686 25.3269 109.557 25.309C109.537 25.3074 109.519 25.2981 109.506 25.283C109.492 25.268 109.486 25.2484 109.486 25.2284C109.49 25.2081 109.502 25.1901 109.519 25.1781C109.536 25.1661 109.556 25.161 109.577 25.1639C109.899 25.2099 110.229 25.18 110.538 25.0763C110.847 24.9727 111.127 24.7984 111.357 24.5671C111.365 24.5599 111.373 24.5542 111.382 24.5503C111.392 24.5464 111.402 24.5443 111.412 24.5443C111.422 24.5443 111.432 24.5464 111.442 24.5503C111.451 24.5542 111.46 24.5599 111.467 24.5671C111.481 24.582 111.489 24.6016 111.489 24.6219C111.489 24.6423 111.481 24.6619 111.467 24.6768C111.269 24.8806 111.032 25.0431 110.771 25.1549C110.51 25.2668 110.229 25.3257 109.944 25.3284Z" fill="#263238"/>
<path d="M112.233 21.6285C112.2 21.6304 112.168 21.6217 112.14 21.6037C112.113 21.5857 112.092 21.5593 112.081 21.5285C111.968 21.3046 111.809 21.1069 111.614 20.948C111.42 20.7891 111.194 20.6726 110.952 20.6059C110.913 20.5946 110.879 20.5684 110.859 20.5329C110.839 20.4974 110.833 20.4554 110.843 20.4156C110.847 20.3961 110.856 20.3777 110.867 20.3616C110.879 20.3454 110.894 20.3318 110.911 20.3216C110.928 20.3113 110.947 20.3047 110.967 20.302C110.987 20.2993 111.007 20.3006 111.026 20.3059C111.318 20.3844 111.589 20.5251 111.82 20.7184C112.052 20.9116 112.239 21.1528 112.368 21.4252C112.38 21.4634 112.377 21.5045 112.36 21.5404C112.342 21.5763 112.312 21.6043 112.275 21.6188C112.262 21.6256 112.247 21.6289 112.233 21.6285Z" fill="#263238"/>
<path d="M107.322 20.2446C107.294 20.2445 107.267 20.2377 107.243 20.2247C107.219 20.2118 107.198 20.1931 107.183 20.1704C107.162 20.135 107.155 20.0929 107.164 20.0527C107.173 20.0125 107.197 19.9773 107.231 19.9543C107.437 19.8157 107.674 19.7295 107.92 19.7031C108.167 19.6767 108.417 19.7109 108.647 19.8027C108.683 19.8183 108.711 19.8473 108.726 19.8835C108.74 19.9198 108.74 19.9602 108.725 19.9962C108.708 20.0332 108.677 20.0621 108.639 20.0766C108.601 20.0911 108.559 20.09 108.521 20.0736C108.339 20.0079 108.144 19.9859 107.952 20.0095C107.76 20.033 107.576 20.1014 107.415 20.2091C107.389 20.2312 107.356 20.2437 107.322 20.2446Z" fill="#263238"/>
<path d="M116.742 24.4445C116.47 24.992 115.992 25.4096 115.413 25.6058C114.639 25.8574 114.216 25.1735 114.4 24.4219C114.571 23.7445 115.178 22.8091 115.968 22.8639C116.243 22.8947 116.494 23.0332 116.667 23.2491C116.84 23.4649 116.92 23.7405 116.89 24.0155C116.872 24.1674 116.821 24.3136 116.742 24.4445Z" fill="#FFB573"/>
<path d="M104.935 23.4123C106.229 21.229 108.136 19.4737 110.418 18.364C111.986 20.2994 112.612 22.9994 113.092 25.4316C113.092 25.4316 115.392 24.0897 115.979 22.851C116.567 21.6123 117.183 19.7317 116.673 18.4737C116.387 17.7204 115.854 17.0867 115.16 16.677C114.412 16.2705 112.415 15.1254 109.354 16.2608C108.547 16.5576 107.725 17.3511 107.147 17.9705C106.459 18.7118 105.912 19.5734 105.535 20.5123C105.343 20.9902 105.196 21.4848 105.096 21.9897C104.999 22.3607 105.093 23.0961 104.935 23.4123Z" fill="#263238"/>
<path d="M88.5791 102.188C88.5436 102.188 88.5049 105.052 88.5049 105.052L95.1015 105.92L95.4692 103.339L88.5791 102.188Z" fill="#0029DD"/>
<path opacity="0.6" d="M88.5791 102.188C88.5436 102.188 88.5049 105.052 88.5049 105.052L95.1015 105.92L95.4692 103.339L88.5791 102.188Z" fill="white"/>
<path d="M126.875 96.6587C126.875 96.691 129.349 97.6264 129.349 97.6264L132.314 91.0298L130.168 89.8686L126.875 96.6587Z" fill="#0029DD"/>
<path opacity="0.6" d="M126.875 96.6587C126.875 96.691 129.349 97.6264 129.349 97.6264L132.314 91.0298L130.168 89.8686L126.875 96.6587Z" fill="white"/>
<path d="M74.0216 90.4879C73.4216 88.1009 72.7861 85.2687 71.9378 82.6397L66.9121 84.6268C66.9582 85.1784 67.038 85.7267 67.1508 86.2687C68.583 92.2685 69.5314 93.0233 74.1055 102.52C73.2345 102.275 76.1861 103.659 76.8828 101.375C76.8828 101.375 74.6571 93.004 74.0216 90.4879Z" fill="#FF8B7B"/>
<path opacity="0.2" d="M66.9121 84.6268L67.8024 88.959L73.1345 86.8913L71.9346 82.6398C71.4604 82.1914 66.9121 84.6268 66.9121 84.6268Z" fill="black"/>
<path d="M72.8305 84.6687L66.8049 86.5203L64.9695 82.6688C64.7727 82.2566 64.4642 81.908 64.0792 81.6623C60.9889 79.6882 46.6829 70.4788 43.8281 67.295C40.4604 63.5435 42.2152 59.1629 42.6055 58.8565C44.7055 57.1727 47.7667 58.0146 49.7021 58.8275C51.5666 59.6081 66.7984 71.5626 70.4629 77.8592C71.8919 79.6753 72.8305 84.6687 72.8305 84.6687Z" fill="#0029DD"/>
<path opacity="0.1" d="M72.8305 84.6687L66.8049 86.5203L64.9695 82.6688C64.7727 82.2566 64.4642 81.908 64.0792 81.6623C60.9889 79.6882 46.6829 70.4788 43.8281 67.295C40.4604 63.5435 42.2152 59.1629 42.6055 58.8565C44.7055 57.1727 47.7667 58.0146 49.7021 58.8275C51.5666 59.6081 66.7984 71.5626 70.4629 77.8592C71.8919 79.6753 72.8305 84.6687 72.8305 84.6687Z" fill="black"/>
<path d="M77.7031 101.862C77.6865 101.865 77.6695 101.862 77.6548 101.853C77.6402 101.845 77.6288 101.832 77.6224 101.817C77.6145 101.801 77.6104 101.784 77.6104 101.767C77.6104 101.749 77.6145 101.732 77.6224 101.717C77.6611 101.668 78.5514 100.552 79.1127 100.507C79.1655 100.501 79.2191 100.506 79.2693 100.524C79.3196 100.541 79.3653 100.569 79.403 100.607C79.4532 100.65 79.49 100.707 79.5089 100.77C79.5277 100.834 79.5279 100.901 79.5095 100.965C79.4482 101.21 79.0804 101.423 78.6772 101.575C78.3639 101.706 78.0373 101.802 77.7031 101.862ZM78.9933 100.71C78.5764 100.946 78.2094 101.26 77.9127 101.636C78.5127 101.501 79.2998 101.184 79.3837 100.904C79.3837 100.865 79.3837 100.81 79.3127 100.726C79.2901 100.704 79.2626 100.687 79.2324 100.677C79.2022 100.667 79.17 100.664 79.1385 100.668C79.088 100.675 79.0383 100.687 78.9901 100.704L78.9933 100.71Z" fill="#0029DD"/>
<path d="M77.6544 101.839C77.6411 101.832 77.6302 101.821 77.6228 101.808C77.6154 101.795 77.6118 101.78 77.6124 101.765C77.6124 101.726 77.4221 100.762 77.7156 100.239C77.7563 100.169 77.8111 100.107 77.8766 100.059C77.9421 100.011 78.0169 99.9766 78.0963 99.9586C78.1582 99.9327 78.2276 99.9313 78.2905 99.9547C78.3533 99.978 78.405 100.024 78.435 100.084C78.6059 100.452 78.0769 101.494 77.7544 101.83L77.7253 101.852L77.6544 101.839ZM77.8511 100.339C77.7017 100.732 77.6648 101.159 77.7447 101.571C78.0672 101.162 78.4092 100.359 78.2931 100.152C78.2931 100.133 78.2576 100.081 78.1221 100.113L78.0802 100.146C77.9819 100.179 77.9 100.248 77.8511 100.339Z" fill="#0029DD"/>
<path d="M77.0381 101.407L73.9833 102.407C73.9196 102.432 73.8655 102.477 73.8289 102.535C73.7924 102.593 73.7753 102.661 73.7801 102.73L73.8349 105.758C73.8607 106.062 74.4252 106.233 74.4543 106.223C76.3671 105.813 80.4057 104.588 81.725 104.123C83.0444 103.659 82.8476 102.136 82.2766 102.188C79.6961 102.446 78.5896 101.952 77.6251 101.446C77.5355 101.398 77.4369 101.37 77.3357 101.364C77.2346 101.357 77.1331 101.372 77.0381 101.407Z" fill="#263238"/>
<path d="M65.564 85.4816C65.5318 85.4816 66.8801 88.1009 66.8801 88.1009L73.838 85.4107L72.9219 82.901L65.564 85.4816Z" fill="#0029DD"/>
<path opacity="0.6" d="M65.564 85.4816C65.5318 85.4816 66.8801 88.1009 66.8801 88.1009L73.838 85.4107L72.9219 82.901L65.564 85.4816Z" fill="white"/>
<path d="M49.2709 26.6155C48.8 28.2928 48.6838 30.0928 51.087 30.7476C51.087 30.7476 53.345 33.0217 48.8967 32.883C44.8549 32.7605 44.3291 30.5379 44.3291 30.5379C45.8968 29.1315 45.6194 25.1381 45.2355 22.9478L49.2709 26.6155Z" fill="#FF8B7B"/>
<path d="M52.8617 23.151C52.8617 23.2414 52.8617 23.3317 52.8455 23.4188C52.8294 23.5059 52.8455 23.5607 52.8455 23.6317C52.8455 23.7026 52.8197 23.8091 52.8036 23.8962C52.7694 24.0912 52.7198 24.2832 52.6552 24.4704C52.407 25.2277 51.9399 25.8944 51.313 26.3865C50.686 26.8785 49.9273 27.1737 49.1327 27.2348C48.2686 27.2841 47.4147 27.0284 46.7199 26.5122C46.3837 26.2743 46.081 25.9922 45.8199 25.6735C45.7113 25.5383 45.6101 25.3972 45.5167 25.251C44.8135 24.1381 44.549 22.693 44.0748 20.6801C43.9233 20.0664 43.9167 19.4259 44.0555 18.8092C44.2967 17.7776 44.9359 16.8831 45.8337 16.3206C46.7316 15.7581 47.8153 15.5731 48.8489 15.8061C50.0521 16.0674 50.9585 16.8964 51.6036 17.9641L51.6327 18.0189C51.6875 18.106 51.7359 18.1963 51.7843 18.2866C51.9675 18.6368 52.127 18.9989 52.2617 19.3705C52.352 19.6285 52.4326 19.8931 52.5036 20.1576C52.5778 20.4285 52.6391 20.7027 52.6875 20.9769C52.7812 21.4785 52.8383 21.9863 52.8584 22.4962C52.8649 22.722 52.8649 22.9414 52.8617 23.151Z" fill="#FF8B7B"/>
<path d="M49.6764 13.6061C49.999 13.1093 49.4474 12.4674 48.8377 12.3384C47.8861 12.1352 46.8248 12.7932 46.6603 13.6867C46.2216 12.6932 44.7249 12.261 43.7572 12.8448C43.5285 12.9889 43.3344 13.1816 43.1887 13.4092C43.043 13.6368 42.9493 13.8937 42.9142 14.1616C42.879 14.4296 42.9034 14.702 42.9856 14.9595C43.0677 15.2169 43.2056 15.4531 43.3895 15.6512C43.087 15.4587 42.7284 15.374 42.3719 15.4109C42.0153 15.4478 41.6816 15.6041 41.425 15.8544C41.197 16.1095 41.0762 16.4426 41.0876 16.7844C41.099 17.1263 41.2418 17.4506 41.4863 17.6899C40.196 17.7673 39.0476 18.7995 38.9251 19.9995C38.8025 21.1994 39.7186 22.4123 40.9734 22.7155C40.7619 22.961 40.6406 23.2713 40.6295 23.5951C40.6183 23.9188 40.718 24.2367 40.9121 24.4961C41.1318 24.7552 41.4243 24.942 41.7517 25.0324C42.0791 25.1227 42.4261 25.1123 42.7475 25.0026C42.6266 25.2464 42.5927 25.5243 42.6514 25.79C42.71 26.0558 42.8578 26.2935 43.0701 26.4638C43.3 26.6374 43.5769 26.7377 43.8646 26.7515C44.1523 26.7653 44.4375 26.692 44.683 26.5412C44.9686 26.6985 45.2848 26.792 45.61 26.8154C45.9352 26.8388 46.2616 26.7915 46.5668 26.6767C46.8605 26.564 47.1236 26.3839 47.3348 26.1508C47.5461 25.9177 47.6996 25.6382 47.7829 25.3348C48.0972 25.3099 48.4013 25.2121 48.6712 25.0492C48.9411 24.8862 49.1693 24.6626 49.3377 24.3961C49.4902 24.1363 49.5731 23.8415 49.5782 23.5403C49.5833 23.2391 49.5104 22.9416 49.3667 22.6768C49.8377 22.2768 50.3344 21.851 50.5086 21.2833C50.6828 20.7156 50.4118 19.993 49.7925 19.8511C49.9569 19.7346 50.091 19.5803 50.1836 19.4013C50.2761 19.2222 50.3244 19.0236 50.3244 18.8221C50.3244 18.6205 50.2761 18.4219 50.1836 18.2429C50.091 18.0639 49.9569 17.9096 49.7925 17.7931C50.528 17.7092 51.3215 17.5963 51.8344 17.0996C52.3473 16.6028 52.2957 15.5899 51.586 15.3932C51.7367 15.2961 51.8641 15.167 51.9594 15.0152C52.0546 14.8634 52.1153 14.6925 52.1372 14.5146C52.159 14.3367 52.1415 14.1561 52.0858 13.9858C52.0302 13.8154 51.9377 13.6594 51.815 13.5287C51.5319 13.2815 51.1638 13.1538 50.7884 13.1724C50.413 13.1911 50.0595 13.3546 49.8022 13.6287C49.7506 13.3384 49.6957 13.0513 49.6441 12.7642L49.6764 13.6061Z" fill="#263238"/>
<path d="M49.0664 19.7608C49.9405 19.8801 50.5599 21.0511 50.7115 21.8381C50.8824 22.6994 50.3889 23.3349 49.5373 22.8639C48.901 22.4955 48.4025 21.9291 48.118 21.2511C47.7922 20.4382 48.189 19.6382 49.0664 19.7608Z" fill="#FF8B7B"/>
<path d="M52.8619 23.1639C52.8619 23.2542 52.8619 23.3446 52.8458 23.4317C52.8297 23.5188 52.8458 23.5736 52.8458 23.6446C52.8458 23.7155 52.82 23.822 52.8039 23.9091C52.7697 24.1041 52.72 24.2961 52.6555 24.4832H52.6394L52.5265 24.4349C52.1822 24.3001 51.8833 24.0702 51.6646 23.7721C51.4458 23.474 51.3163 23.1199 51.291 22.751L51.4104 22.7768C51.9684 22.9026 52.4587 23.0478 52.8619 23.1639Z" fill="#263238"/>
<path d="M52.7859 23.9091C52.7517 24.1041 52.7021 24.2961 52.6375 24.4833H52.6214L52.5085 24.4349C52.2304 24.3078 51.9787 24.1294 51.7666 23.9091C52.0395 23.8073 52.3377 23.7949 52.6182 23.8736C52.6748 23.882 52.7308 23.8939 52.7859 23.9091Z" fill="#A02724"/>
<path d="M51.3896 22.7639C51.4204 22.8788 51.4788 22.9845 51.5598 23.0716C51.6407 23.1588 51.7418 23.2248 51.8542 23.2639C52.1767 23.4026 52.4993 23.5252 52.8219 23.6349C52.8219 23.5639 52.8219 23.4962 52.8219 23.422C52.8219 23.3478 52.8219 23.2445 52.838 23.1542C52.3767 23.0026 51.8832 22.8736 51.3896 22.7639Z" fill="white"/>
<path d="M43.3809 62.0564L46.1292 65.5757C46.1292 65.5757 49.0323 63.8467 49.242 63.5757C49.242 63.5757 48.4194 61.85 46.9679 61.1564L45.5582 60.6436L43.3809 62.0564Z" fill="#FF8B7B"/>
<path d="M45.6611 65.0177L49.1385 63.4629L50.4287 65.3757L48.032 66.5531C47.837 66.6493 47.6159 66.6793 47.4023 66.6386C47.1886 66.5978 46.9941 66.4885 46.8482 66.3273L45.6611 65.0177Z" fill="#FF8B7B"/>
<path d="M40.1897 31.9863C39.1123 32.8443 38.4285 34.1023 37.9317 35.3926C36.6027 38.9086 33.1706 47.3471 34.448 50.8761C35.7253 54.405 41.5961 61.279 44.8638 63.1338C46.3767 63.3048 47.1541 62.9725 46.7283 61.5209C46.3025 60.0694 44.5154 58.063 42.0316 54.4308C40.7413 52.5212 39.0607 50.618 39.2446 48.3019C39.3865 46.5117 42.709 38.5506 43.4864 36.9313C44.7928 34.212 44.3122 28.7089 40.1897 31.9863Z" fill="#FF8B7B"/>
<path d="M50.2438 65.2047L51.2503 66.3079L50.6761 66.5918L49.0342 65.237L49.9406 64.7951L50.2438 65.2047Z" fill="#FF8B7B"/>
<path d="M47.0156 61.3145C47.8238 61.4821 48.6432 61.5899 49.4672 61.6371C50.0317 61.6145 49.5704 62.3855 49.5704 62.3855L47.7414 62.579L47.0156 61.3145Z" fill="#FF8B7B"/>
<path d="M56.2865 29.7347C53.8118 29.1663 51.2498 29.0874 48.7448 29.5024C44.8417 30.2185 39.5966 29.6831 39.6192 36.0055C39.6192 39.2538 40.4644 43.144 41.2321 46.0052C42.03 49.0387 42.4183 52.1653 42.3869 55.3017V55.8695C42.3869 55.8695 48.1061 61.0887 56.6155 55.634L56.2865 29.7347Z" fill="#263238"/>
<path d="M58.4856 95.7168C59.2555 94.6038 59.962 93.4482 60.6017 92.2556C64.0242 85.8622 60.5081 69.5627 59.792 64.9305C59.3856 62.3016 58.5533 59.3468 56.1599 58.1888C54.8147 57.5436 53.2116 57.6178 51.7922 58.0791L51.6342 58.1275C50.0062 58.6265 48.584 59.6402 47.5812 61.0164C46.5785 62.3926 46.0492 64.0569 46.073 65.7595C46.0925 66.735 46.2005 67.7067 46.3956 68.6627C47.0408 71.8884 48.5343 74.8916 49.9858 77.8528C51.4374 80.814 52.889 83.8333 53.4728 87.0783C53.6849 88.0279 53.6959 89.0113 53.5051 89.9653C53.2966 90.669 52.8861 91.296 52.3245 91.7685L58.4856 95.7168Z" fill="#0029DD"/>
<path d="M42.3714 55.8695C42.3714 55.8695 41.1779 61.9048 42.136 64.4273C43.8262 68.8788 45.952 68.2627 47.5842 68.4852C49.2164 68.7078 58.9323 66.6401 59.2936 62.3306C59.2936 62.3306 57.8775 56.9081 56.6001 55.634C55.8356 54.8663 48.0035 57.6759 42.3714 55.8695Z" fill="#0029DD"/>
<path d="M52.2346 19.3737C52.3894 19.3479 52.5572 19.5221 52.5894 19.7543C52.6217 19.9866 52.5411 20.2059 52.383 20.2317C52.2249 20.2575 52.0604 20.0866 52.0282 19.8511C51.9959 19.6156 52.083 19.3995 52.2346 19.3737Z" fill="#263238"/>
<path d="M52.5804 22.5059C52.7818 22.5208 52.9839 22.4916 53.1728 22.4203C53.3617 22.349 53.5327 22.2373 53.674 22.093C53.1006 21.5514 52.6026 20.9351 52.1934 20.2608L52.5804 22.5059Z" fill="#ED847E"/>
<path d="M50.9376 18.664C50.904 18.6615 50.8722 18.6479 50.8473 18.6253C50.8338 18.6124 50.8231 18.5968 50.8158 18.5797C50.8085 18.5625 50.8047 18.544 50.8047 18.5253C50.8047 18.5066 50.8085 18.4882 50.8158 18.471C50.8231 18.4538 50.8338 18.4383 50.8473 18.4253C51.002 18.2651 51.1928 18.1443 51.4039 18.073C51.6149 18.0017 51.84 17.982 52.0601 18.0157C52.0781 18.0195 52.0952 18.0268 52.1104 18.0372C52.1256 18.0476 52.1385 18.0609 52.1486 18.0763C52.1586 18.0918 52.1655 18.109 52.1689 18.1271C52.1722 18.1452 52.172 18.1638 52.1682 18.1818C52.1644 18.1998 52.1571 18.2169 52.1467 18.232C52.1362 18.2472 52.1229 18.2602 52.1075 18.2702C52.0921 18.2803 52.0748 18.2872 52.0568 18.2905C52.0387 18.2939 52.0201 18.2937 52.0021 18.2898C51.8271 18.2707 51.65 18.2924 51.4848 18.3535C51.3197 18.4145 51.171 18.5131 51.0505 18.6415C51.0361 18.6558 51.019 18.6672 51.0002 18.6749C50.9813 18.6827 50.9612 18.6867 50.9408 18.6866L50.9376 18.664Z" fill="#263238"/>
<path d="M53.626 93.0008C53.3174 93.2824 53.0265 93.583 52.7551 93.9007C49.8294 97.5297 45.4037 105.668 41.8393 112.787C41.5844 112.142 43.007 115.129 44.694 114.491C45.5843 114.152 56.8453 97.3942 58.0227 95.6588L53.626 93.0008Z" fill="#FF8B7B"/>
<path opacity="0.2" d="M53.6237 92.5523L51.9141 95.0426L56.2785 98.1844L58.0203 95.6587C58.0623 95.1587 53.6237 92.5523 53.6237 92.5523Z" fill="black"/>
<path d="M52.604 90.4331C52.5686 90.4105 51.2363 93.4395 51.2363 93.4395L58.5232 97.649L60.078 95.0684L52.604 90.4331Z" fill="#0029DD"/>
<path opacity="0.6" d="M52.604 90.4331C52.5686 90.4105 51.2363 93.4395 51.2363 93.4395L58.5232 97.649L60.078 95.0684L52.604 90.4331Z" fill="white"/>
<path d="M47.0459 112.042C47.0259 112.038 47.0078 112.027 46.994 112.012C46.9802 111.997 46.9712 111.978 46.9684 111.958C46.9661 111.938 46.97 111.917 46.9798 111.898C46.9896 111.88 47.0048 111.865 47.0233 111.855C47.0878 111.82 48.5781 111.023 49.2813 111.236C49.3493 111.25 49.4133 111.28 49.469 111.321C49.5246 111.363 49.5706 111.417 49.6039 111.478C49.6502 111.541 49.6752 111.617 49.6752 111.695C49.6752 111.774 49.6502 111.85 49.6039 111.913C49.4393 112.152 48.9135 112.21 48.3716 112.191C47.9259 112.185 47.4819 112.135 47.0459 112.042ZM49.0393 111.397C48.4618 111.456 47.9011 111.626 47.3878 111.897C48.162 112.029 49.2329 112.052 49.4361 111.787C49.4619 111.749 49.4877 111.691 49.4361 111.565C49.3943 111.493 49.326 111.439 49.2458 111.416C49.182 111.403 49.1173 111.394 49.0523 111.391L49.0393 111.397Z" fill="#0029DD"/>
<path d="M46.9987 111.997C46.9859 111.984 46.9771 111.968 46.9731 111.95C46.9691 111.933 46.9701 111.914 46.9761 111.897C46.9761 111.852 47.1245 110.723 47.6761 110.284C47.7565 110.227 47.8476 110.186 47.944 110.164C48.0404 110.143 48.1402 110.141 48.2374 110.158C48.3228 110.157 48.4058 110.186 48.4724 110.24C48.5389 110.293 48.5847 110.368 48.6019 110.452C48.6696 110.929 47.6342 111.81 47.1213 112.023H47.0793L46.9987 111.997ZM47.7987 110.468C47.4712 110.825 47.2647 111.277 47.2084 111.758C47.7342 111.458 48.4664 110.755 48.4019 110.468C48.4019 110.442 48.4019 110.374 48.2148 110.349H48.1535C48.0245 110.343 47.8978 110.385 47.7987 110.468Z" fill="#0029DD"/>
<path d="M46.4184 111.245L42.354 110.923C42.2702 110.917 42.1871 110.941 42.1188 110.989C42.0505 111.038 42.0013 111.109 41.9798 111.191L40.9121 114.49C40.8282 114.813 41.4476 115.274 41.4831 115.278C43.9507 115.719 49.2861 116.245 51.0538 116.365C52.8215 116.484 53.1569 114.736 52.444 114.532C49.2441 113.629 48.0796 112.574 47.1055 111.584C46.9284 111.387 46.6824 111.266 46.4184 111.245Z" fill="#263238"/>
<path d="M78.4631 17.3996C78.176 18.1028 73.402 26.1606 71.102 28.5315C69.3569 30.3347 68.0312 30.7508 65.7312 31.7573C63.0947 32.8992 60.4421 34.0077 57.7734 35.083C56.9174 35.4657 56.0185 35.744 55.096 35.912C55.096 35.9894 55.0799 36.07 55.0702 36.1442C54.9831 36.8894 54.7735 37.7571 54.0735 38.0377C53.3735 38.3184 52.6832 37.8442 52.1896 37.3313C51.504 36.5835 51.0192 35.674 50.7806 34.6879C50.542 33.7018 50.5573 32.6713 50.8252 31.6927C50.9277 31.289 51.1385 30.9209 51.4348 30.6282C51.5478 30.4569 51.7034 30.3179 51.8864 30.225C55.7863 28.2896 65.1345 26.4638 66.6731 25.68C68.0183 24.9929 74.2761 17.4125 75.9535 15.7996C76.56 15.2093 78.7534 16.6964 78.4631 17.3996Z" fill="#FF8B7B"/>
<path d="M75.6855 16.3609L77.6984 12.5094C77.6984 12.5094 80.779 13.061 81.0144 13.3158C81.2499 13.5706 80.6467 16.2867 79.0048 17.1641C78.0678 17.6806 77.0346 17.999 75.9694 18.0995L75.6855 16.3609Z" fill="#FF8B7B"/>
<path d="M77.6982 12.5094C77.6982 12.5094 79.1143 9.60623 79.7466 9.28365C79.8659 9.21914 80.5014 9.85138 80.982 10.3127C81.1841 10.5038 81.3358 10.7419 81.4236 11.0059C81.5114 11.2698 81.5326 11.5514 81.4852 11.8255C81.324 12.7739 81.0207 13.9674 81.0207 13.9674L77.6982 12.5094Z" fill="#FF8B7B"/>
</svg>
