<svg width="70" height="20" viewBox="0 0 70 20" fill="none" xmlns="http://www.w3.org/2000/svg">
<path fill-rule="evenodd" clip-rule="evenodd" d="M7.57004 11.204H9.78162C9.91943 11.204 10.0516 11.2586 10.1493 11.3558C10.247 11.4531 10.3022 11.585 10.3028 11.7228V13.9369C10.3022 14.0747 10.247 14.2066 10.1493 14.3038C10.0516 14.4011 9.91943 14.4557 9.78162 14.4557H7.57004C7.43222 14.4557 7.30001 14.4011 7.20233 14.3038C7.10465 14.2066 7.04945 14.0747 7.0488 13.9369V11.7326C7.04784 11.6635 7.0606 11.595 7.08636 11.5309C7.11212 11.4668 7.15036 11.4085 7.19886 11.3593C7.24736 11.3101 7.30515 11.2711 7.36887 11.2444C7.43259 11.2178 7.50097 11.204 7.57004 11.204ZM5.32192 4.53277L5.39255 4.52059L5.32192 4.53277ZM5.1563 4.56687L5.23911 4.54982L5.1563 4.56687ZM4.99311 4.6034L5.09053 4.58148L4.99311 4.6034ZM4.82748 4.64724L4.93709 4.61802L4.82748 4.64724ZM12.568 4.65942C13.94 5.04061 15.1498 5.85964 16.0133 6.99182C16.8769 8.12401 17.3468 9.50734 17.3517 10.9313V15.2886C17.3497 15.8585 17.1225 16.4044 16.7196 16.8073C16.3167 17.2102 15.7708 17.4374 15.201 17.4393H2.15069C1.58088 17.4374 1.03497 17.2102 0.63205 16.8073C0.229134 16.4044 0.00192612 15.8585 0 15.2886L0 10.9313C0.00483641 9.50734 0.474793 8.12401 1.33833 6.99182C2.20187 5.85964 3.41169 5.04061 4.78364 4.65942C4.81575 4.83535 4.86052 5.00873 4.9176 5.17822C4.97362 5.35115 5.01503 5.49242 5.08079 5.65317C5.26477 6.10428 5.4813 6.54141 5.72868 6.96112C6.12952 7.62872 6.57975 8.26539 7.0756 8.86581L7.98897 9.90827C8.08883 10.0398 8.33727 10.2688 8.4761 10.41C8.5236 10.4673 8.58474 10.5117 8.6539 10.5391H8.70506C8.78543 10.5196 8.86824 10.4173 9.03143 10.2541L9.74265 9.49908C9.76488 9.46661 9.78929 9.43569 9.81572 9.40653C10.2281 8.94056 10.6152 8.45273 10.9751 7.94513C11.5864 7.10726 12.3537 5.79931 12.568 4.65942ZM12.4024 4.62776L12.5169 4.65699L12.4024 4.62776ZM12.2587 4.59366L12.3659 4.61802L12.2587 4.59366ZM12.1101 4.562L12.1978 4.57904L12.1101 4.562ZM11.9591 4.53277L12.0297 4.54495L11.9591 4.53277ZM11.8081 4.50841H11.8641H11.8081ZM6.93676 4.43778H10.4198C10.3449 4.71569 10.2045 4.9716 10.0104 5.18405C9.81623 5.39651 9.57396 5.55931 9.30389 5.65879C9.03383 5.75828 8.74384 5.79155 8.45826 5.75582C8.17268 5.72009 7.89982 5.6164 7.66259 5.45345C7.30623 5.20692 7.04765 4.84318 6.93189 4.4256L6.93676 4.43778Z" fill="#0029DD"/>
<path fill-rule="evenodd" clip-rule="evenodd" d="M6.8636 3.95064C6.87265 3.69962 6.92626 3.4522 7.02192 3.21994C7.11255 3.01992 7.23697 2.83701 7.3897 2.67923C7.46479 2.60408 7.54629 2.53562 7.63327 2.47463C7.82011 2.33812 8.03327 2.24191 8.25924 2.1921C8.50304 2.13115 8.75709 2.12331 9.00419 2.16912C9.25128 2.21492 9.48565 2.3133 9.6914 2.45758C9.82596 2.5465 9.94662 2.65484 10.0494 2.77909C10.0885 2.81638 10.1222 2.85902 10.1493 2.90574C10.2952 3.10946 10.3962 3.34177 10.4457 3.58737C10.4953 3.83297 10.4922 4.08628 10.4367 4.33061L10.4148 4.42073H10.8435C11.4267 4.42288 12.0069 4.50483 12.5679 4.66429C12.6059 4.47174 12.6255 4.276 12.6264 4.07973C12.6537 3.46072 12.5291 2.84444 12.2635 2.28465C12.0423 1.81942 11.7348 1.40039 11.3574 1.04977C11.3038 0.99375 11.277 0.984007 11.2234 0.935294L10.9604 0.730698C10.8682 0.662846 10.7722 0.600232 10.673 0.543153C10.5707 0.487132 10.4733 0.418934 10.3636 0.370221C9.88751 0.154476 9.37547 0.0289449 8.85354 0L8.48575 0C7.85525 0.0344739 7.24146 0.215441 6.69311 0.528539C6.59321 0.583648 6.49719 0.645495 6.4057 0.713649C5.84335 1.11019 5.39217 1.6444 5.09531 2.26517C4.86911 2.74883 4.74317 3.27329 4.72509 3.80694C4.71788 4.0923 4.73745 4.37771 4.78355 4.65942C5.34377 4.50012 5.92314 4.41817 6.50556 4.41585H6.9318C6.88642 4.25746 6.86347 4.09349 6.8636 3.92872" fill="#0029DD"/>
<path d="M25.8785 1.36884V2.17504H21.8036V4.46943H25.1381V5.2732H21.8036V8.3397H20.9463V1.36884H25.8785Z" fill="black"/>
<path d="M26.6393 2.97883H27.4967V8.33729H26.6393V2.97883ZM27.6136 1.35425V2.39428H26.498V1.35425H27.6136Z" fill="black"/>
<path d="M30.9599 2.87163C31.223 2.86701 31.4847 2.91077 31.732 3.00072C31.951 3.07908 32.1487 3.20752 32.3093 3.37581C32.4715 3.54605 32.596 3.74855 32.6746 3.97011C32.7638 4.22267 32.8075 4.48903 32.8037 4.75683V8.33969H31.9464V4.97361C31.9741 4.63805 31.8731 4.30451 31.6638 4.04075C31.5493 3.93009 31.4125 3.84506 31.2626 3.79131C31.1127 3.73756 30.9531 3.71631 30.7943 3.72898C30.5077 3.72759 30.2263 3.80512 29.9808 3.95307C29.7285 4.10552 29.517 4.31699 29.3646 4.56929C29.1988 4.84502 29.098 5.15488 29.0699 5.47535V4.85426C29.101 4.5735 29.175 4.29917 29.2891 4.04075C29.3864 3.80982 29.5214 3.59665 29.6885 3.40991C29.852 3.23744 30.0493 3.10062 30.2682 3.00803C30.4869 2.91517 30.7223 2.86793 30.9599 2.8692V2.87163ZM28.2563 2.97637H29.1161V8.33482H28.2539L28.2563 2.97637Z" fill="black"/>
<path d="M37.585 0.833008H38.4424V8.33972H37.6605C37.6459 8.1814 37.6288 7.99629 37.6118 7.78195C37.5947 7.56761 37.585 7.39468 37.585 7.26803V0.833008ZM35.9775 7.63094C36.3008 7.64442 36.6195 7.55019 36.8835 7.36302C37.1254 7.18106 37.3097 6.9333 37.4145 6.64937C37.5299 6.33762 37.5876 6.0075 37.585 5.6751C37.5925 5.32185 37.5322 4.97043 37.4072 4.63995C37.3029 4.35902 37.1161 4.1162 36.8714 3.94335C36.606 3.77111 36.2935 3.68596 35.9775 3.69978C35.7402 3.68738 35.5033 3.73199 35.2868 3.82988C35.0703 3.92776 34.8803 4.07608 34.7328 4.26242C34.4292 4.67294 34.2746 5.17465 34.2944 5.68485C34.2883 6.03499 34.3633 6.38179 34.5136 6.69808C34.6477 6.97954 34.8546 7.22004 35.1128 7.39468C35.371 7.55787 35.6721 7.64015 35.9775 7.63094ZM35.7631 8.44689C35.3432 8.45092 34.9323 8.32501 34.5867 8.08641C34.2233 7.83813 33.9324 7.49768 33.744 7.09997C33.5298 6.65427 33.4231 6.16462 33.4322 5.67023C33.4231 5.17456 33.5263 4.68326 33.7342 4.23319C33.9161 3.83301 34.201 3.48837 34.5599 3.23457C34.9128 2.99189 35.3325 2.86505 35.7607 2.87166C36.099 2.85885 36.4348 2.93441 36.735 3.09087C36.9851 3.23127 37.1884 3.44219 37.3195 3.69735C37.4631 3.97583 37.5594 4.27627 37.6045 4.58636C37.6598 4.94497 37.6867 5.30739 37.6849 5.67023C37.682 5.96685 37.6535 6.26267 37.5996 6.55438C37.5421 6.86973 37.443 7.17605 37.3049 7.46531C37.1728 7.747 36.9717 7.99079 36.7203 8.17409C36.4379 8.36354 36.103 8.45901 35.7631 8.44689Z" fill="black"/>
<path d="M40.3369 8.3397L42.9869 1.36884H43.8857L46.5649 8.3397H45.6418L43.3084 2.03377H43.5642L41.2381 8.3397H40.3369ZM41.752 6.51539V5.71162H45.0986V6.51539H41.752Z" fill="black"/>
<path d="M21.8036 13.5472H24.0225C24.2197 13.5633 24.4181 13.5388 24.6053 13.4751C24.7926 13.4114 24.9648 13.3099 25.1113 13.1769C25.2323 13.0491 25.3266 12.8983 25.3885 12.7335C25.4504 12.5687 25.4787 12.3932 25.4717 12.2173C25.4813 12.0542 25.4538 11.891 25.3914 11.74C25.3289 11.589 25.2332 11.4541 25.1113 11.3453C24.7962 11.1173 24.4103 11.0085 24.0225 11.0384H21.8036V13.5472ZM20.9463 17.2031V10.2298H24.0225C24.4479 10.2185 24.8712 10.293 25.2672 10.449C25.5953 10.5814 25.8732 10.8141 26.0612 11.1139C26.2533 11.4491 26.3478 11.8313 26.334 12.2173C26.3411 12.4821 26.2912 12.7454 26.1878 12.9894C26.0965 13.1984 25.9591 13.3841 25.7859 13.5325C25.6082 13.6825 25.4031 13.7966 25.1819 13.8687C24.9368 13.9507 24.6823 14.0014 24.4244 14.0197L24.3928 13.9661C24.7219 13.9737 25.0489 14.0203 25.367 14.1049C25.6203 14.1711 25.843 14.3225 25.9979 14.5336C26.1681 14.8136 26.2472 15.1396 26.2244 15.4665V17.2031H25.367V15.4665C25.3793 15.2341 25.3288 15.0028 25.2209 14.7967C25.1085 14.624 24.9341 14.501 24.7337 14.4532C24.4308 14.3756 24.1184 14.3411 23.8058 14.3509H21.8036V17.2031H20.9463Z" fill="black"/>
<path d="M29.5884 16.5065C29.8848 16.5065 30.1761 16.4293 30.4336 16.2824C30.7073 16.1226 30.9322 15.8909 31.0839 15.6126C31.2493 15.2774 31.3353 14.9086 31.3353 14.5348C31.3353 14.161 31.2493 13.7922 31.0839 13.457C30.9311 13.1762 30.7068 12.9409 30.4336 12.775C30.1794 12.6181 29.8871 12.5339 29.5884 12.5315C29.2876 12.5351 28.9932 12.6192 28.7359 12.775C28.4596 12.9369 28.2316 13.1699 28.0758 13.4497C27.9085 13.7865 27.8214 14.1575 27.8214 14.5336C27.8214 14.9097 27.9085 15.2806 28.0758 15.6174C28.2308 15.897 28.4612 16.1275 28.7408 16.2824C29.0027 16.4292 29.2979 16.5064 29.5981 16.5065H29.5884ZM29.5981 17.3102C29.1473 17.3124 28.7036 17.1983 28.3097 16.979C27.9034 16.754 27.5665 16.4221 27.3354 16.0193C27.0927 15.5621 26.9658 15.0524 26.9658 14.5348C26.9658 14.0172 27.0927 13.5075 27.3354 13.0503C27.5678 12.6447 27.9041 12.3084 28.3097 12.076C28.7013 11.8497 29.1458 11.7312 29.5981 11.7326C30.0482 11.7306 30.4905 11.8492 30.8793 12.076C31.2802 12.3095 31.6115 12.6459 31.8389 13.0503C32.0909 13.5032 32.2162 14.0155 32.2019 14.5336C32.216 15.0524 32.0906 15.5655 31.8389 16.0193C31.6128 16.4209 31.2809 16.7528 30.8793 16.979C30.4854 17.2005 30.0403 17.3147 29.5884 17.3102H29.5981Z" fill="black"/>
<path d="M35.4514 16.5065C35.7487 16.5069 36.0408 16.4297 36.299 16.2824C36.573 16.1236 36.7973 15.8917 36.9469 15.6126C37.1136 15.2778 37.2003 14.9088 37.2003 14.5348C37.2003 14.1608 37.1136 13.7919 36.9469 13.457C36.7958 13.1759 36.5721 12.9404 36.299 12.775C36.0441 12.6178 35.7509 12.5336 35.4514 12.5315C35.1507 12.5361 34.8566 12.6201 34.5989 12.775C34.3233 12.9371 34.0962 13.1701 33.9413 13.4497C33.7598 13.7832 33.6707 14.159 33.6831 14.5385C33.6694 14.9132 33.7533 15.285 33.9267 15.6175C34.0813 15.8956 34.3097 16.1257 34.5868 16.2824C34.8488 16.4287 35.1439 16.5059 35.4441 16.5065H35.4514ZM35.4441 17.3102C34.9941 17.3124 34.5511 17.1983 34.1581 16.979C33.7519 16.754 33.4149 16.4221 33.1838 16.0193C32.9275 15.567 32.7995 15.0533 32.8136 14.5336C32.7992 14.0146 32.9273 13.5016 33.1838 13.0503C33.4162 12.6447 33.7525 12.3084 34.1581 12.076C34.5488 11.8497 34.9926 11.7312 35.4441 11.7326C35.8942 11.7303 36.3367 11.8489 36.7253 12.076C37.1267 12.3089 37.4581 12.6454 37.6849 13.0503C37.9377 13.5029 38.0639 14.0153 38.0503 14.5336C38.0635 15.0526 37.9373 15.5657 37.6849 16.0193C37.4595 16.4215 37.1274 16.7536 36.7253 16.979C36.3365 17.1978 35.8975 17.312 35.4514 17.3102H35.4441Z" fill="black"/>
<path d="M44.9944 11.735C45.2574 11.7314 45.519 11.7751 45.7665 11.8641C45.9855 11.9439 46.1836 12.0721 46.3462 12.2392C46.5071 12.4109 46.6306 12.6141 46.7091 12.8359C46.7983 13.0885 46.842 13.3548 46.8382 13.6227V17.2031H45.9808V13.837C46.0048 13.5022 45.9013 13.1707 45.691 12.909C45.576 12.7973 45.4385 12.7114 45.2878 12.6568C45.1371 12.6022 44.9765 12.5803 44.8166 12.5924C44.5297 12.5909 44.248 12.6694 44.0031 12.8189C43.7508 12.9713 43.5393 13.1828 43.3869 13.4351C43.2204 13.7105 43.1196 14.0205 43.0922 14.3412L43.08 13.7201C43.1128 13.4396 43.1893 13.1659 43.3065 12.909C43.4077 12.6776 43.5486 12.4657 43.723 12.283C43.8871 12.1112 44.0845 11.9744 44.303 11.8811C44.5215 11.7877 44.7568 11.7397 44.9944 11.7399V11.735ZM41.3921 11.7399C41.6551 11.7362 41.9166 11.78 42.1642 11.869C42.3827 11.9483 42.5802 12.0766 42.7414 12.2441C42.9048 12.4133 43.031 12.6149 43.1116 12.8359C43.2008 13.0885 43.2445 13.3548 43.2407 13.6227V17.2031H42.3809V13.837C42.4042 13.5018 42.2998 13.1703 42.0887 12.909C41.9738 12.7989 41.8369 12.7142 41.6871 12.6604C41.5373 12.6067 41.3778 12.5852 41.2191 12.5972C40.9322 12.5958 40.6505 12.6742 40.4056 12.8238C40.1533 12.9762 39.9419 13.1877 39.7894 13.44C39.6229 13.7154 39.5221 14.0254 39.4947 14.346L39.4825 13.7249C39.5137 13.4434 39.5876 13.1683 39.7017 12.909C39.8046 12.678 39.9463 12.4663 40.1206 12.283C40.2841 12.1106 40.4815 11.9737 40.7003 11.8812C40.9182 11.7846 41.1538 11.7349 41.3921 11.735V11.7399ZM38.6885 11.8471H39.5483V17.2055H38.6885V11.8471Z" fill="black"/>
<path d="M53.7742 11.735C54.0372 11.7314 54.2988 11.7751 54.5463 11.8641C54.7653 11.9439 54.9634 12.0721 55.126 12.2392C55.2868 12.4109 55.4104 12.6141 55.4889 12.8359C55.5792 13.0882 55.623 13.3548 55.618 13.6227V17.2031H54.7606V13.837C54.7846 13.5022 54.6811 13.1707 54.4708 12.909C54.3563 12.799 54.2199 12.7145 54.0705 12.6607C53.9211 12.607 53.762 12.5854 53.6037 12.5972C53.316 12.5955 53.0334 12.6739 52.7878 12.8238C52.5355 12.9762 52.324 13.1877 52.1715 13.44C52.0066 13.7141 51.9067 14.0224 51.8793 14.3412L51.8671 13.7201C51.8979 13.4382 51.9727 13.1629 52.0887 12.9041C52.1899 12.6727 52.3309 12.4609 52.5052 12.2782C52.6694 12.1063 52.8667 11.9696 53.0852 11.8762C53.3038 11.7828 53.539 11.7348 53.7766 11.735H53.7742ZM50.1743 11.735C50.4373 11.7314 50.6989 11.7751 50.9464 11.8641C51.1649 11.9434 51.3624 12.0717 51.5236 12.2392C51.6824 12.4112 51.8035 12.6145 51.8793 12.8359C51.9684 13.0885 52.0121 13.3548 52.0083 13.6227V17.2031H51.1486V13.837C51.1753 13.5034 51.0752 13.1721 50.8685 12.909C50.7536 12.7989 50.6167 12.7142 50.4669 12.6604C50.3171 12.6067 50.1576 12.5852 49.9989 12.5972C49.712 12.5958 49.4303 12.6742 49.1854 12.8238C48.9331 12.9762 48.7216 13.1877 48.5692 13.44C48.4027 13.7154 48.3019 14.0254 48.2745 14.346V13.7249C48.3057 13.4434 48.3796 13.1683 48.4937 12.909C48.5966 12.678 48.7383 12.4663 48.9126 12.283C49.0761 12.1106 49.2734 11.9737 49.4923 11.8812C49.7071 11.786 49.9393 11.7362 50.1743 11.735ZM47.4707 11.8422H48.3305V17.2006H47.4707V11.8422Z" fill="black"/>
<path d="M60.404 11.8422H61.2613V17.2006H60.4795C60.4795 17.2006 60.4795 17.1373 60.4624 17.0082C60.4454 16.8791 60.4405 16.7305 60.4259 16.5576C60.4113 16.3847 60.404 16.2459 60.404 16.1314V11.8422ZM58.7964 16.4967C59.1196 16.5087 59.4378 16.4146 59.7025 16.2288C59.9439 16.0464 60.1281 15.7988 60.2335 15.5152C60.3497 15.2036 60.4075 14.8734 60.404 14.5409C60.4113 14.1876 60.351 13.8363 60.2262 13.5057C60.1169 13.258 59.9464 13.0422 59.7308 12.8785C59.5151 12.7149 59.2613 12.6088 58.9933 12.5703C58.7253 12.5318 58.4519 12.5622 58.1989 12.6585C57.9459 12.7548 57.7215 12.9139 57.547 13.1209C57.3041 13.4738 57.1564 13.8833 57.118 14.31C57.0796 14.7366 57.1518 15.166 57.3277 15.5566C57.4611 15.8385 57.6681 16.0791 57.9269 16.2532C58.1845 16.4185 58.4855 16.5033 58.7916 16.4967H58.7964ZM58.5821 17.3102C58.1666 17.3123 57.7604 17.1874 57.4179 16.9522C57.0564 16.7055 56.7645 16.37 56.5702 15.9779C56.3593 15.5291 56.25 15.0392 56.25 14.5433C56.25 14.0474 56.3593 13.5576 56.5702 13.1087C56.7683 12.7058 57.0691 12.3622 57.4422 12.1125C57.8094 11.8689 58.2414 11.7416 58.682 11.7472C58.8882 11.7326 59.0952 11.7589 59.2912 11.8245C59.4873 11.8902 59.6684 11.9938 59.8243 12.1296C60.0983 12.4075 60.2846 12.7599 60.3601 13.1428C60.4597 13.6037 60.5079 14.0742 60.5038 14.5458C60.5011 14.8424 60.4726 15.1382 60.4186 15.4299C60.3615 15.7461 60.2624 16.0533 60.1239 16.3433C59.9911 16.6238 59.7901 16.8667 59.5393 17.0496C59.2546 17.2369 58.9175 17.3282 58.5772 17.3102H58.5821Z" fill="black"/>
<path d="M61.8906 10.449H62.748V17.2031H61.8906V10.449ZM62.161 11.8422H63.8952V12.6459H62.748L62.161 11.8422Z" fill="black"/>
<path d="M67.9498 15.32H68.7748C68.7162 15.6793 68.5842 16.002 68.3788 16.288C68.1808 16.5667 67.9168 16.7903 67.5868 16.959C67.2642 17.1203 66.8902 17.201 66.4648 17.201C65.9515 17.201 65.4895 17.08 65.0788 16.838C64.6682 16.5887 64.3418 16.2513 64.0998 15.826C63.8652 15.3933 63.7478 14.902 63.7478 14.352C63.7478 13.802 63.8615 13.3107 64.0888 12.878C64.3235 12.4453 64.6425 12.1043 65.0458 11.855C65.4492 11.6057 65.9038 11.481 66.4098 11.481C66.9452 11.481 67.3962 11.602 67.7628 11.844C68.1368 12.0787 68.4118 12.427 68.5878 12.889C68.7712 13.3437 68.8445 13.9047 68.8078 14.572H64.6278C64.6645 14.9313 64.7635 15.2467 64.9248 15.518C65.0862 15.7893 65.2988 16.002 65.5628 16.156C65.8268 16.3027 66.1275 16.376 66.4648 16.376C66.8388 16.376 67.1542 16.2807 67.4108 16.09C67.6748 15.892 67.8545 15.6353 67.9498 15.32ZM66.4428 12.306C65.9882 12.306 65.6068 12.438 65.2988 12.702C64.9908 12.966 64.7855 13.3253 64.6828 13.78H67.9058C67.8765 13.296 67.7188 12.9293 67.4328 12.68C67.1542 12.4307 66.8242 12.306 66.4428 12.306Z" fill="black"/>
<path d="M62.1749 19.3075H61.8145V19.6485H62.1749V19.3075Z" fill="black"/>
<path d="M64.2726 18.9982C64.2604 19.1314 64.2134 19.2591 64.1362 19.3684C64.0636 19.4726 63.9655 19.5565 63.8512 19.612C63.7365 19.6671 63.6108 19.6954 63.4835 19.6948C63.3357 19.6947 63.1906 19.656 63.0624 19.5825C62.9342 19.509 62.8275 19.4033 62.7528 19.2758C62.6693 19.1274 62.628 18.9589 62.6334 18.7887C62.6272 18.6184 62.6686 18.4497 62.7528 18.3016C62.8276 18.1707 62.9361 18.0622 63.067 17.9874C63.1855 17.9192 63.3189 17.881 63.4555 17.8759C63.5921 17.8708 63.728 17.899 63.8512 17.9581C63.9631 18.0153 64.0593 18.0989 64.1313 18.2017C64.2086 18.3096 64.2572 18.4353 64.2726 18.5671H64.0291C63.9959 18.444 63.9242 18.3347 63.8245 18.2553C63.7301 18.1811 63.6132 18.1415 63.4932 18.1433C63.3947 18.1426 63.2979 18.1687 63.2131 18.2188C63.1233 18.2716 63.05 18.3483 63.0012 18.4404C62.9483 18.5485 62.9208 18.6672 62.9208 18.7875C62.9208 18.9078 62.9483 19.0265 63.0012 19.1346C63.0491 19.2258 63.1217 19.3018 63.2107 19.3538C63.2967 19.4031 63.3941 19.4291 63.4932 19.4293C63.6186 19.4346 63.7416 19.3939 63.8391 19.3148C63.9334 19.2318 64.0005 19.1223 64.0315 19.0006L64.2726 18.9982Z" fill="black"/>
<path d="M65.5196 19.4244C65.6199 19.4254 65.7184 19.3986 65.8044 19.347C65.8904 19.2954 65.9604 19.2211 66.0067 19.1321C66.0611 19.0241 66.0895 18.9048 66.0895 18.7838C66.0895 18.6629 66.0611 18.5436 66.0067 18.4355C65.9581 18.3441 65.8858 18.2676 65.7973 18.2139C65.7142 18.1638 65.619 18.1377 65.522 18.1384C65.4252 18.1383 65.3301 18.1644 65.2468 18.2139C65.1571 18.2654 65.083 18.3403 65.0325 18.4307C64.9756 18.5395 64.9471 18.661 64.9497 18.7838C64.9455 18.9053 64.9741 19.0256 65.0325 19.1321C65.0806 19.224 65.1542 19.3001 65.2444 19.3513C65.3293 19.3987 65.4248 19.4238 65.522 19.4244H65.5196ZM65.522 19.685C65.3761 19.6851 65.2326 19.6473 65.1055 19.5754C64.974 19.5028 64.8646 19.3959 64.7889 19.2661C64.7054 19.1176 64.6641 18.9492 64.6696 18.779C64.6634 18.6086 64.7047 18.44 64.7889 18.2918C64.8637 18.1609 64.9722 18.0525 65.1031 17.9776C65.2307 17.9082 65.3744 17.8737 65.5196 17.8778C65.666 17.8767 65.81 17.9154 65.9361 17.9898C66.0671 18.0644 66.1757 18.173 66.2503 18.304C66.3326 18.4528 66.373 18.6212 66.3672 18.7911C66.3723 18.961 66.3319 19.1292 66.2503 19.2783C66.1761 19.4062 66.0695 19.5123 65.9412 19.5859C65.8129 19.6595 65.6675 19.6978 65.5196 19.6972L65.522 19.685Z" fill="black"/>
<path d="M68.8975 17.8778C68.9805 17.8776 69.0628 17.8916 69.1411 17.9192C69.2124 17.9442 69.2768 17.9859 69.3286 18.041C69.3808 18.0965 69.4214 18.1619 69.448 18.2334C69.475 18.3118 69.489 18.394 69.4894 18.4769V19.6363H69.2117V18.5573C69.2198 18.4482 69.1858 18.3402 69.1167 18.2553C69.0796 18.2201 69.0355 18.193 68.9872 18.1758C68.939 18.1586 68.8877 18.1517 68.8366 18.1554C68.7431 18.1552 68.6513 18.1804 68.5711 18.2285C68.4897 18.2783 68.4212 18.3467 68.3714 18.4282C68.3189 18.5176 68.2865 18.6173 68.2764 18.7205V18.511C68.2852 18.4193 68.309 18.3295 68.3471 18.2456C68.3804 18.1707 68.4266 18.1023 68.4835 18.0434C68.5369 17.9878 68.6005 17.9431 68.671 17.9119C68.742 17.8824 68.8182 17.8675 68.8951 17.868L68.8975 17.8778ZM67.726 17.868C67.8089 17.8679 67.8913 17.8819 67.9695 17.9094C68.0409 17.9344 68.1052 17.9762 68.1571 18.0312C68.2093 18.0868 68.2499 18.1522 68.2764 18.2236C68.3034 18.302 68.3174 18.3843 68.3178 18.4672V19.6266H68.0402V18.5573C68.0479 18.4536 68.0176 18.3505 67.9549 18.2675C67.9177 18.2324 67.8735 18.2054 67.8253 18.1882C67.7771 18.171 67.7259 18.164 67.6748 18.1676C67.5813 18.167 67.4894 18.1923 67.4093 18.2407C67.3278 18.2905 67.2594 18.3589 67.2096 18.4404C67.1571 18.5298 67.1247 18.6295 67.1146 18.7327V18.533C67.1253 18.4413 67.1499 18.3517 67.1877 18.2675C67.2202 18.1928 67.2655 18.1243 67.3216 18.0653C67.3755 18.0103 67.4391 17.9657 67.5092 17.9338C67.5779 17.901 67.6524 17.8819 67.7284 17.8778L67.726 17.868ZM66.8516 17.9021H67.1292V19.6387H66.8516V17.9021Z" fill="black"/>
</svg>
