<svg width="70" height="20" viewBox="0 0 70 20" fill="none" xmlns="http://www.w3.org/2000/svg">
<path fill-rule="evenodd" clip-rule="evenodd" d="M7.57004 11.204H9.78162C9.91943 11.204 10.0516 11.2586 10.1493 11.3558C10.247 11.4531 10.3022 11.585 10.3028 11.7228V13.9369C10.3022 14.0747 10.247 14.2066 10.1493 14.3038C10.0516 14.4011 9.91943 14.4557 9.78162 14.4557H7.57004C7.43222 14.4557 7.30001 14.4011 7.20233 14.3038C7.10465 14.2066 7.04945 14.0747 7.0488 13.9369V11.7326C7.04784 11.6635 7.0606 11.595 7.08636 11.5309C7.11212 11.4668 7.15036 11.4085 7.19886 11.3593C7.24736 11.3101 7.30515 11.2711 7.36887 11.2444C7.43259 11.2178 7.50097 11.204 7.57004 11.204ZM5.32192 4.53277L5.39255 4.52059L5.32192 4.53277ZM5.1563 4.56687L5.23911 4.54982L5.1563 4.56687ZM4.99311 4.6034L5.09053 4.58148L4.99311 4.6034ZM4.82748 4.64724L4.93709 4.61802L4.82748 4.64724ZM12.568 4.65942C13.94 5.04061 15.1498 5.85964 16.0133 6.99182C16.8769 8.12401 17.3468 9.50734 17.3517 10.9313V15.2886C17.3497 15.8585 17.1225 16.4044 16.7196 16.8073C16.3167 17.2102 15.7708 17.4374 15.201 17.4393H2.15069C1.58088 17.4374 1.03497 17.2102 0.63205 16.8073C0.229134 16.4044 0.00192612 15.8585 0 15.2886L0 10.9313C0.00483641 9.50734 0.474793 8.12401 1.33833 6.99182C2.20187 5.85964 3.41169 5.04061 4.78364 4.65942C4.81575 4.83535 4.86052 5.00873 4.9176 5.17822C4.97362 5.35115 5.01503 5.49242 5.08079 5.65317C5.26477 6.10428 5.4813 6.54141 5.72868 6.96112C6.12952 7.62872 6.57975 8.26539 7.0756 8.86581L7.98897 9.90827C8.08883 10.0398 8.33727 10.2688 8.4761 10.41C8.5236 10.4673 8.58474 10.5117 8.6539 10.5391H8.70506C8.78543 10.5196 8.86824 10.4173 9.03143 10.2541L9.74265 9.49908C9.76488 9.46661 9.78929 9.43569 9.81572 9.40653C10.2281 8.94056 10.6152 8.45273 10.9751 7.94513C11.5864 7.10726 12.3537 5.79931 12.568 4.65942ZM12.4024 4.62776L12.5169 4.65699L12.4024 4.62776ZM12.2587 4.59366L12.3659 4.61802L12.2587 4.59366ZM12.1101 4.562L12.1978 4.57904L12.1101 4.562ZM11.9591 4.53277L12.0297 4.54495L11.9591 4.53277ZM11.8081 4.50841H11.8641H11.8081ZM6.93676 4.43778H10.4198C10.3449 4.71569 10.2045 4.9716 10.0104 5.18405C9.81623 5.39651 9.57396 5.55931 9.30389 5.65879C9.03383 5.75828 8.74384 5.79155 8.45826 5.75582C8.17268 5.72009 7.89982 5.6164 7.66259 5.45345C7.30623 5.20692 7.04765 4.84318 6.93189 4.4256L6.93676 4.43778Z" fill="#ED1E2E"/>
<path fill-rule="evenodd" clip-rule="evenodd" d="M6.86372 3.95064C6.87277 3.69962 6.92638 3.4522 7.02204 3.21994C7.11268 3.01992 7.23709 2.83701 7.38983 2.67923C7.46491 2.60408 7.54641 2.53562 7.63339 2.47463C7.82023 2.33812 8.03339 2.24191 8.25936 2.1921C8.50316 2.13115 8.75721 2.12331 9.00431 2.16912C9.2514 2.21492 9.48577 2.3133 9.69153 2.45758C9.82608 2.5465 9.94674 2.65484 10.0496 2.77909C10.0887 2.81638 10.1223 2.85902 10.1494 2.90574C10.2953 3.10946 10.3963 3.34177 10.4458 3.58737C10.4954 3.83297 10.4923 4.08628 10.4368 4.33061L10.4149 4.42073H10.8436C11.4268 4.42288 12.007 4.50483 12.568 4.66429C12.6061 4.47174 12.6256 4.276 12.6265 4.07973C12.6538 3.46072 12.5292 2.84444 12.2636 2.28465C12.0424 1.81942 11.7349 1.40039 11.3575 1.04977C11.3039 0.99375 11.2771 0.984007 11.2236 0.935294L10.9605 0.730698C10.8683 0.662846 10.7723 0.600232 10.6731 0.543153C10.5708 0.487132 10.4734 0.418934 10.3638 0.370221C9.88763 0.154476 9.37559 0.0289449 8.85366 0L8.48587 0C7.85537 0.0344739 7.24158 0.215441 6.69323 0.528539C6.59333 0.583648 6.49731 0.645495 6.40582 0.713649C5.84347 1.11019 5.39229 1.6444 5.09543 2.26517C4.86923 2.74883 4.74329 3.27329 4.72521 3.80694C4.718 4.0923 4.73757 4.37771 4.78367 4.65942C5.34389 4.50012 5.92326 4.41817 6.50568 4.41585H6.93192C6.88654 4.25746 6.86359 4.09349 6.86372 3.92872" fill="#ED1E2E"/>
<path d="M25.8789 1.36884V2.17504H21.8041V4.46943H25.1385V5.2732H21.8041V8.3397H20.9467V1.36884H25.8789Z" fill="black"/>
<path d="M26.6388 2.97883H27.4962V8.33729H26.6388V2.97883ZM27.6131 1.35425V2.39428H26.4976V1.35425H27.6131Z" fill="black"/>
<path d="M30.9597 2.87163C31.2228 2.86701 31.4845 2.91077 31.7318 3.00072C31.9508 3.07908 32.1485 3.20752 32.309 3.37581C32.4712 3.54605 32.5957 3.74855 32.6744 3.97011C32.7635 4.22267 32.8072 4.48903 32.8035 4.75683V8.33969H31.9461V4.97361C31.9739 4.63805 31.8729 4.30451 31.6636 4.04075C31.5491 3.93009 31.4123 3.84506 31.2624 3.79131C31.1125 3.73756 30.9528 3.71631 30.7941 3.72898C30.5075 3.72759 30.226 3.80512 29.9805 3.95307C29.7283 4.10552 29.5168 4.31699 29.3643 4.56929C29.1986 4.84502 29.0978 5.15488 29.0696 5.47535V4.85426C29.1008 4.5735 29.1747 4.29917 29.2888 4.04075C29.3862 3.80982 29.5211 3.59665 29.6883 3.40991C29.8517 3.23744 30.0491 3.10062 30.268 3.00803C30.4867 2.91517 30.7221 2.86793 30.9597 2.8692V2.87163ZM28.2561 2.97637H29.1159V8.33482H28.2537L28.2561 2.97637Z" fill="black"/>
<path d="M37.5847 0.833008H38.442V8.33972H37.6602C37.6456 8.1814 37.6285 7.99629 37.6115 7.78195C37.5944 7.56761 37.5847 7.39468 37.5847 7.26803V0.833008ZM35.9772 7.63094C36.3005 7.64442 36.6192 7.55019 36.8832 7.36302C37.1251 7.18106 37.3094 6.9333 37.4142 6.64937C37.5296 6.33762 37.5873 6.0075 37.5847 5.6751C37.5922 5.32185 37.5319 4.97043 37.4069 4.63995C37.3026 4.35902 37.1158 4.1162 36.871 3.94335C36.6057 3.77111 36.2932 3.68596 35.9772 3.69978C35.7399 3.68738 35.503 3.73199 35.2865 3.82988C35.0699 3.92776 34.88 4.07608 34.7325 4.26242C34.4289 4.67294 34.2743 5.17465 34.2941 5.68485C34.288 6.03499 34.363 6.38179 34.5133 6.69808C34.6474 6.97954 34.8543 7.22004 35.1125 7.39468C35.3707 7.55787 35.6718 7.64015 35.9772 7.63094ZM35.7628 8.44689C35.3429 8.45092 34.932 8.32501 34.5864 8.08641C34.223 7.83813 33.9321 7.49768 33.7437 7.09997C33.5295 6.65427 33.4228 6.16462 33.4319 5.67023C33.4228 5.17456 33.526 4.68326 33.7339 4.23319C33.9158 3.83301 34.2007 3.48837 34.5596 3.23457C34.9125 2.99189 35.3322 2.86505 35.7604 2.87166C36.0987 2.85885 36.4345 2.93441 36.7347 3.09087C36.9848 3.23127 37.1881 3.44219 37.3192 3.69735C37.4628 3.97583 37.5591 4.27627 37.6042 4.58636C37.6595 4.94497 37.6864 5.30739 37.6846 5.67023C37.6817 5.96685 37.6532 6.26267 37.5993 6.55438C37.5418 6.86973 37.4427 7.17605 37.3046 7.46531C37.1725 7.747 36.9714 7.99079 36.72 8.17409C36.4376 8.36354 36.1027 8.45901 35.7628 8.44689Z" fill="black"/>
<path d="M40.337 8.3397L42.987 1.36884H43.8858L46.565 8.3397H45.6419L43.3085 2.03377H43.5643L41.2382 8.3397H40.337ZM41.7522 6.51539V5.71162H45.0988V6.51539H41.7522Z" fill="black"/>
<path d="M21.8041 13.5472H24.023C24.2201 13.5633 24.4185 13.5388 24.6058 13.4751C24.793 13.4114 24.9652 13.3099 25.1117 13.1769C25.2327 13.0491 25.327 12.8983 25.3889 12.7335C25.4508 12.5687 25.4791 12.3932 25.4722 12.2173C25.4817 12.0542 25.4542 11.891 25.3918 11.74C25.3294 11.589 25.2336 11.4541 25.1117 11.3453C24.7966 11.1173 24.4108 11.0085 24.023 11.0384H21.8041V13.5472ZM20.9467 17.2031V10.2298H24.023C24.4483 10.2185 24.8717 10.293 25.2676 10.449C25.5957 10.5814 25.8737 10.8141 26.0616 11.1139C26.2537 11.4491 26.3482 11.8313 26.3344 12.2173C26.3415 12.4821 26.2917 12.7454 26.1883 12.9894C26.0969 13.1984 25.9595 13.3841 25.7864 13.5325C25.6086 13.6825 25.4035 13.7966 25.1823 13.8687C24.9372 13.9507 24.6827 14.0014 24.4248 14.0197L24.3932 13.9661C24.7223 13.9737 25.0493 14.0203 25.3674 14.1049C25.6207 14.1711 25.8435 14.3225 25.9983 14.5336C26.1685 14.8136 26.2477 15.1396 26.2248 15.4665V17.2031H25.3674V15.4665C25.3797 15.2341 25.3293 15.0028 25.2213 14.7967C25.1089 14.624 24.9346 14.501 24.7342 14.4532C24.4312 14.3756 24.1188 14.3411 23.8062 14.3509H21.8041V17.2031H20.9467Z" fill="black"/>
<path d="M29.5884 16.5065C29.8849 16.5065 30.1762 16.4293 30.4336 16.2824C30.7074 16.1226 30.9323 15.8909 31.0839 15.6126C31.2493 15.2774 31.3354 14.9086 31.3354 14.5348C31.3354 14.161 31.2493 13.7922 31.0839 13.457C30.9312 13.1762 30.7068 12.9409 30.4336 12.775C30.1794 12.6181 29.8871 12.5339 29.5884 12.5315C29.2876 12.5351 28.9933 12.6192 28.736 12.775C28.4596 12.9369 28.2317 13.1699 28.0759 13.4497C27.9085 13.7865 27.8214 14.1575 27.8214 14.5336C27.8214 14.9097 27.9085 15.2806 28.0759 15.6174C28.2308 15.897 28.4612 16.1275 28.7408 16.2824C29.0027 16.4292 29.2979 16.5064 29.5982 16.5065H29.5884ZM29.5982 17.3102C29.1474 17.3124 28.7036 17.1983 28.3097 16.979C27.9035 16.754 27.5666 16.4221 27.3355 16.0193C27.0928 15.5621 26.9659 15.0524 26.9659 14.5348C26.9659 14.0172 27.0928 13.5075 27.3355 13.0503C27.5679 12.6447 27.9042 12.3084 28.3097 12.076C28.7013 11.8497 29.1459 11.7312 29.5982 11.7326C30.0482 11.7306 30.4906 11.8492 30.8793 12.076C31.2803 12.3095 31.6115 12.6459 31.839 13.0503C32.0909 13.5032 32.2163 14.0155 32.2019 14.5336C32.216 15.0524 32.0907 15.5655 31.839 16.0193C31.6129 16.4209 31.2809 16.7528 30.8793 16.979C30.4855 17.2005 30.0403 17.3147 29.5884 17.3102H29.5982Z" fill="black"/>
<path d="M35.4511 16.5065C35.7483 16.5069 36.0405 16.4297 36.2987 16.2824C36.5727 16.1236 36.797 15.8917 36.9466 15.6126C37.1133 15.2778 37.2 14.9088 37.2 14.5348C37.2 14.1608 37.1133 13.7919 36.9466 13.457C36.7955 13.1759 36.5718 12.9404 36.2987 12.775C36.0438 12.6178 35.7506 12.5336 35.4511 12.5315C35.1504 12.5361 34.8563 12.6201 34.5986 12.775C34.323 12.9371 34.0959 13.1701 33.941 13.4497C33.7595 13.7832 33.6704 14.159 33.6828 14.5385C33.6691 14.9132 33.753 15.285 33.9264 15.6175C34.081 15.8956 34.3094 16.1257 34.5864 16.2824C34.8485 16.4287 35.1436 16.5059 35.4438 16.5065H35.4511ZM35.4438 17.3102C34.9938 17.3124 34.5508 17.1983 34.1578 16.979C33.7516 16.754 33.4146 16.4221 33.1835 16.0193C32.9272 15.567 32.7992 15.0533 32.8133 14.5336C32.7989 14.0146 32.927 13.5016 33.1835 13.0503C33.4159 12.6447 33.7522 12.3084 34.1578 12.076C34.5485 11.8497 34.9923 11.7312 35.4438 11.7326C35.8939 11.7303 36.3364 11.8489 36.725 12.076C37.1264 12.3089 37.4578 12.6454 37.6846 13.0503C37.9374 13.5029 38.0636 14.0153 38.05 14.5336C38.0632 15.0526 37.937 15.5657 37.6846 16.0193C37.4592 16.4215 37.1271 16.7536 36.725 16.979C36.3362 17.1978 35.8972 17.312 35.4511 17.3102H35.4438Z" fill="black"/>
<path d="M44.994 11.735C45.257 11.7314 45.5185 11.7751 45.7661 11.8641C45.9851 11.9439 46.1832 12.0721 46.3458 12.2392C46.5066 12.4109 46.6302 12.6141 46.7087 12.8359C46.7978 13.0885 46.8415 13.3548 46.8378 13.6227V17.2031H45.9804V13.837C46.0044 13.5022 45.9008 13.1707 45.6906 12.909C45.5755 12.7973 45.4381 12.7114 45.2874 12.6568C45.1366 12.6022 44.976 12.5803 44.8162 12.5924C44.5292 12.5909 44.2476 12.6694 44.0027 12.8189C43.7504 12.9713 43.5389 13.1828 43.3864 13.4351C43.22 13.7105 43.1191 14.0205 43.0917 14.3412L43.0795 13.7201C43.1124 13.4396 43.1888 13.1659 43.3061 12.909C43.4072 12.6776 43.5482 12.4657 43.7226 12.283C43.8867 12.1112 44.084 11.9744 44.3026 11.8811C44.5211 11.7877 44.7563 11.7397 44.994 11.7399V11.735ZM41.3916 11.7399C41.6547 11.7362 41.9162 11.78 42.1637 11.869C42.3823 11.9483 42.5797 12.0766 42.741 12.2441C42.9044 12.4133 43.0305 12.6149 43.1112 12.8359C43.2004 13.0885 43.2441 13.3548 43.2403 13.6227V17.2031H42.3805V13.837C42.4038 13.5018 42.2994 13.1703 42.0882 12.909C41.9733 12.7989 41.8365 12.7142 41.6867 12.6604C41.5369 12.6067 41.3774 12.5852 41.2187 12.5972C40.9318 12.5958 40.6501 12.6742 40.4052 12.8238C40.1529 12.9762 39.9414 13.1877 39.789 13.44C39.6225 13.7154 39.5217 14.0254 39.4943 14.346L39.4821 13.7249C39.5133 13.4434 39.5872 13.1683 39.7013 12.909C39.8042 12.678 39.9459 12.4663 40.1202 12.283C40.2837 12.1106 40.4811 11.9737 40.6999 11.8812C40.9177 11.7846 41.1534 11.7349 41.3916 11.735V11.7399ZM38.688 11.8471H39.5478V17.2055H38.688V11.8471Z" fill="black"/>
<path d="M53.7745 11.735C54.0375 11.7314 54.2991 11.7751 54.5466 11.8641C54.7656 11.9439 54.9637 12.0721 55.1263 12.2392C55.2871 12.4109 55.4107 12.6141 55.4892 12.8359C55.5795 13.0882 55.6233 13.3548 55.6183 13.6227V17.2031H54.7609V13.837C54.7849 13.5022 54.6814 13.1707 54.4711 12.909C54.3566 12.799 54.2202 12.7145 54.0708 12.6607C53.9214 12.607 53.7623 12.5854 53.604 12.5972C53.3163 12.5955 53.0337 12.6739 52.7881 12.8238C52.5358 12.9762 52.3243 13.1877 52.1718 13.44C52.0069 13.7141 51.907 14.0224 51.8796 14.3412L51.8674 13.7201C51.8982 13.4382 51.973 13.1629 52.089 12.9041C52.1902 12.6727 52.3312 12.4609 52.5055 12.2782C52.6697 12.1063 52.867 11.9696 53.0855 11.8762C53.3041 11.7828 53.5393 11.7348 53.7769 11.735H53.7745ZM50.1746 11.735C50.4376 11.7314 50.6992 11.7751 50.9467 11.8641C51.1652 11.9434 51.3627 12.0717 51.5239 12.2392C51.6827 12.4112 51.8038 12.6145 51.8796 12.8359C51.9687 13.0885 52.0124 13.3548 52.0086 13.6227V17.2031H51.1489V13.837C51.1756 13.5034 51.0756 13.1721 50.8688 12.909C50.7539 12.7989 50.617 12.7142 50.4672 12.6604C50.3174 12.6067 50.1579 12.5852 49.9992 12.5972C49.7123 12.5958 49.4306 12.6742 49.1857 12.8238C48.9334 12.9762 48.7219 13.1877 48.5695 13.44C48.403 13.7154 48.3022 14.0254 48.2748 14.346V13.7249C48.306 13.4434 48.3799 13.1683 48.494 12.909C48.5969 12.678 48.7386 12.4663 48.9129 12.283C49.0764 12.1106 49.2738 11.9737 49.4926 11.8812C49.7074 11.786 49.9396 11.7362 50.1746 11.735ZM47.471 11.8422H48.3308V17.2006H47.471V11.8422Z" fill="black"/>
<path d="M60.4044 11.8422H61.2618V17.2006H60.4799C60.4799 17.2006 60.4799 17.1373 60.4629 17.0082C60.4458 16.8791 60.4409 16.7305 60.4263 16.5576C60.4117 16.3847 60.4044 16.2459 60.4044 16.1314V11.8422ZM58.7969 16.4967C59.12 16.5087 59.4383 16.4146 59.7029 16.2288C59.9443 16.0464 60.1285 15.7988 60.2339 15.5152C60.3501 15.2036 60.4079 14.8734 60.4044 14.5409C60.4118 14.1876 60.3514 13.8363 60.2266 13.5057C60.1174 13.258 59.9469 13.0422 59.7312 12.8785C59.5155 12.7149 59.2617 12.6088 58.9937 12.5703C58.7257 12.5318 58.4523 12.5622 58.1993 12.6585C57.9463 12.7548 57.7219 12.9139 57.5474 13.1209C57.3046 13.4738 57.1568 13.8833 57.1184 14.31C57.08 14.7366 57.1523 15.166 57.3282 15.5566C57.4615 15.8385 57.6685 16.0791 57.9273 16.2532C58.1849 16.4185 58.486 16.5033 58.792 16.4967H58.7969ZM58.5825 17.3102C58.167 17.3123 57.7608 17.1874 57.4183 16.9522C57.0568 16.7055 56.7649 16.37 56.5707 15.9779C56.3598 15.5291 56.2504 15.0392 56.2504 14.5433C56.2504 14.0474 56.3598 13.5576 56.5707 13.1087C56.7688 12.7058 57.0695 12.3622 57.4426 12.1125C57.8098 11.8689 58.2418 11.7416 58.6824 11.7472C58.8886 11.7326 59.0956 11.7589 59.2917 11.8245C59.4877 11.8902 59.6688 11.9938 59.8247 12.1296C60.0987 12.4075 60.2851 12.7599 60.3606 13.1428C60.4601 13.6037 60.5083 14.0742 60.5043 14.5458C60.5015 14.8424 60.473 15.1382 60.419 15.4299C60.3619 15.7461 60.2628 16.0533 60.1243 16.3433C59.9915 16.6238 59.7905 16.8667 59.5397 17.0496C59.255 17.2369 58.9179 17.3282 58.5777 17.3102H58.5825Z" fill="black"/>
<path d="M61.8901 10.449H62.7475V17.2031H61.8901V10.449ZM62.1605 11.8422H63.8947V12.6459H62.7475L62.1605 11.8422Z" fill="black"/>
<path d="M67.9496 15.32H68.7746C68.716 15.6793 68.584 16.002 68.3786 16.288C68.1806 16.5667 67.9166 16.7903 67.5866 16.959C67.264 17.1203 66.89 17.201 66.4646 17.201C65.9513 17.201 65.4893 17.08 65.0786 16.838C64.668 16.5887 64.3416 16.2513 64.0996 15.826C63.865 15.3933 63.7476 14.902 63.7476 14.352C63.7476 13.802 63.8613 13.3107 64.0886 12.878C64.3233 12.4453 64.6423 12.1043 65.0456 11.855C65.449 11.6057 65.9036 11.481 66.4096 11.481C66.945 11.481 67.396 11.602 67.7626 11.844C68.1366 12.0787 68.4116 12.427 68.5876 12.889C68.771 13.3437 68.8443 13.9047 68.8076 14.572H64.6276C64.6643 14.9313 64.7633 15.2467 64.9246 15.518C65.086 15.7893 65.2986 16.002 65.5626 16.156C65.8266 16.3027 66.1273 16.376 66.4646 16.376C66.8386 16.376 67.154 16.2807 67.4106 16.09C67.6746 15.892 67.8543 15.6353 67.9496 15.32ZM66.4426 12.306C65.988 12.306 65.6066 12.438 65.2986 12.702C64.9906 12.966 64.7853 13.3253 64.6826 13.78H67.9056C67.8763 13.296 67.7186 12.9293 67.4326 12.68C67.154 12.4307 66.824 12.306 66.4426 12.306Z" fill="black"/>
<path d="M62.1752 19.3075H61.8147V19.6485H62.1752V19.3075Z" fill="black"/>
<path d="M64.2723 18.9982C64.2601 19.1314 64.213 19.2591 64.1359 19.3684C64.0633 19.4726 63.9651 19.5565 63.8509 19.612C63.7361 19.6671 63.6104 19.6954 63.4831 19.6948C63.3354 19.6947 63.1902 19.656 63.062 19.5825C62.9339 19.509 62.8271 19.4033 62.7524 19.2758C62.6689 19.1274 62.6276 18.9589 62.6331 18.7887C62.6269 18.6184 62.6682 18.4497 62.7524 18.3016C62.8272 18.1707 62.9357 18.0622 63.0666 17.9874C63.1851 17.9192 63.3185 17.881 63.4551 17.8759C63.5918 17.8708 63.7276 17.899 63.8509 17.9581C63.9627 18.0153 64.0589 18.0989 64.131 18.2017C64.2082 18.3096 64.2568 18.4353 64.2723 18.5671H64.0287C63.9955 18.444 63.9238 18.3347 63.8241 18.2553C63.7298 18.1811 63.6128 18.1415 63.4928 18.1433C63.3944 18.1426 63.2975 18.1687 63.2127 18.2188C63.1229 18.2716 63.0496 18.3483 63.0008 18.4404C62.9479 18.5485 62.9204 18.6672 62.9204 18.7875C62.9204 18.9078 62.9479 19.0265 63.0008 19.1346C63.0488 19.2258 63.1213 19.3018 63.2103 19.3538C63.2963 19.4031 63.3937 19.4291 63.4928 19.4293C63.6182 19.4346 63.7413 19.3939 63.8387 19.3148C63.933 19.2318 64.0001 19.1223 64.0311 19.0006L64.2723 18.9982Z" fill="black"/>
<path d="M65.5193 19.4244C65.6196 19.4254 65.7181 19.3986 65.8041 19.347C65.8901 19.2954 65.9601 19.2211 66.0064 19.1321C66.0608 19.0241 66.0892 18.9048 66.0892 18.7838C66.0892 18.6629 66.0608 18.5436 66.0064 18.4355C65.9578 18.3441 65.8855 18.2676 65.797 18.2139C65.7139 18.1638 65.6187 18.1377 65.5217 18.1384C65.4249 18.1383 65.3298 18.1644 65.2465 18.2139C65.1568 18.2654 65.0827 18.3403 65.0322 18.4307C64.9753 18.5395 64.9468 18.661 64.9493 18.7838C64.9452 18.9053 64.9738 19.0256 65.0322 19.1321C65.0803 19.224 65.1539 19.3001 65.2441 19.3513C65.329 19.3987 65.4245 19.4238 65.5217 19.4244H65.5193ZM65.5217 19.685C65.3758 19.6851 65.2323 19.6473 65.1052 19.5754C64.9737 19.5028 64.8643 19.3959 64.7886 19.2661C64.7051 19.1176 64.6638 18.9492 64.6692 18.779C64.6631 18.6086 64.7044 18.44 64.7886 18.2918C64.8634 18.1609 64.9719 18.0525 65.1028 17.9776C65.2304 17.9082 65.3741 17.8737 65.5193 17.8778C65.6657 17.8767 65.8097 17.9154 65.9358 17.9898C66.0668 18.0644 66.1753 18.173 66.25 18.304C66.3323 18.4528 66.3727 18.6212 66.3669 18.7911C66.372 18.961 66.3316 19.1292 66.25 19.2783C66.1758 19.4062 66.0692 19.5123 65.9409 19.5859C65.8126 19.6595 65.6672 19.6978 65.5193 19.6972L65.5217 19.685Z" fill="black"/>
<path d="M68.8976 17.8778C68.9805 17.8776 69.0629 17.8916 69.1411 17.9192C69.2125 17.9442 69.2768 17.9859 69.3287 18.041C69.3809 18.0965 69.4215 18.1619 69.448 18.2334C69.475 18.3118 69.489 18.394 69.4894 18.4769V19.6363H69.2118V18.5573C69.2198 18.4482 69.1858 18.3402 69.1168 18.2553C69.0796 18.2201 69.0355 18.193 68.9873 18.1758C68.939 18.1586 68.8878 18.1517 68.8367 18.1554C68.7432 18.1552 68.6514 18.1804 68.5712 18.2285C68.4897 18.2783 68.4213 18.3467 68.3715 18.4282C68.319 18.5176 68.2865 18.6173 68.2765 18.7205V18.511C68.2852 18.4193 68.3091 18.3295 68.3471 18.2456C68.3805 18.1707 68.4266 18.1023 68.4835 18.0434C68.5369 17.9878 68.6006 17.9431 68.6711 17.9119C68.7421 17.8824 68.8183 17.8675 68.8951 17.868L68.8976 17.8778ZM67.726 17.868C67.809 17.8679 67.8913 17.8819 67.9696 17.9094C68.041 17.9344 68.1053 17.9762 68.1571 18.0312C68.2093 18.0868 68.2499 18.1522 68.2765 18.2236C68.3035 18.302 68.3175 18.3843 68.3179 18.4672V19.6266H68.0402V18.5573C68.0479 18.4536 68.0176 18.3505 67.955 18.2675C67.9177 18.2324 67.8736 18.2054 67.8254 18.1882C67.7772 18.171 67.7259 18.164 67.6749 18.1676C67.5813 18.167 67.4894 18.1923 67.4094 18.2407C67.3279 18.2905 67.2594 18.3589 67.2097 18.4404C67.1572 18.5298 67.1247 18.6295 67.1147 18.7327V18.533C67.1254 18.4413 67.15 18.3517 67.1877 18.2675C67.2202 18.1928 67.2656 18.1243 67.3217 18.0653C67.3756 18.0103 67.4392 17.9657 67.5093 17.9338C67.578 17.901 67.6524 17.8819 67.7285 17.8778L67.726 17.868ZM66.8516 17.9021H67.1293V19.6387H66.8516V17.9021Z" fill="black"/>
</svg>
