<svg width="512" height="376" viewBox="0 0 512 376" fill="none" xmlns="http://www.w3.org/2000/svg">
<g clip-path="url(#clip0_835_114)">
<rect width="511.218" height="376" fill="white"/>
<path d="M135.789 277.69C60.9146 277.69 0 216.706 0 141.746C0 66.7855 60.9146 5.80127 135.789 5.80127C157.545 5.82364 178.978 11.0676 198.292 21.0934C217.606 31.1192 234.237 45.6347 246.791 63.4227L245.507 64.3315C233.098 46.749 216.659 32.4013 197.569 22.4913C178.478 12.5813 157.293 7.39794 135.789 7.37577C61.7823 7.37577 1.5727 67.6542 1.5727 141.746C1.5727 215.837 61.7823 276.116 135.789 276.116C156.405 276.183 176.756 271.464 195.243 262.329C213.73 253.195 229.85 239.894 242.337 223.471L243.584 224.428C230.951 241.044 214.643 254.501 195.939 263.743C177.236 272.984 156.647 277.758 135.789 277.69Z" fill="#E6E6E6"/>
<path d="M191.927 118.98C190.439 118.98 188.983 118.538 187.746 117.71C186.508 116.882 185.543 115.705 184.973 114.328C184.404 112.952 184.255 111.436 184.545 109.975C184.835 108.513 185.552 107.17 186.605 106.116C187.658 105.062 188.999 104.345 190.459 104.054C191.919 103.763 193.432 103.912 194.808 104.483C196.183 105.053 197.359 106.019 198.186 107.258C199.013 108.497 199.454 109.954 199.454 111.445C199.454 113.443 198.661 115.36 197.25 116.773C195.838 118.186 193.924 118.98 191.927 118.98Z" fill="#E6E6E6"/>
<path d="M194.552 113.022L192.977 111.445L194.552 109.868C194.621 109.799 194.676 109.717 194.714 109.627C194.751 109.536 194.771 109.44 194.771 109.342C194.771 109.244 194.752 109.147 194.715 109.057C194.677 108.966 194.622 108.884 194.553 108.815C194.484 108.746 194.402 108.691 194.312 108.654C194.222 108.616 194.125 108.597 194.027 108.597C193.929 108.597 193.833 108.617 193.743 108.654C193.652 108.692 193.57 108.747 193.502 108.817L191.927 110.393L190.351 108.817C190.212 108.677 190.023 108.599 189.826 108.599C189.63 108.599 189.441 108.677 189.301 108.817C189.162 108.956 189.084 109.145 189.084 109.342C189.084 109.539 189.162 109.728 189.301 109.868L190.876 111.445L189.301 113.022C189.163 113.161 189.085 113.35 189.086 113.547C189.086 113.743 189.164 113.932 189.303 114.071C189.442 114.21 189.63 114.289 189.827 114.289C190.024 114.289 190.212 114.211 190.352 114.073L191.927 112.496L193.502 114.073C193.571 114.142 193.652 114.197 193.743 114.234C193.833 114.271 193.929 114.291 194.027 114.291C194.124 114.291 194.221 114.271 194.311 114.234C194.401 114.197 194.483 114.142 194.552 114.073C194.621 114.004 194.675 113.922 194.713 113.832C194.75 113.741 194.769 113.645 194.769 113.547C194.769 113.45 194.75 113.353 194.713 113.263C194.675 113.173 194.621 113.091 194.552 113.022Z" fill="white"/>
<path d="M154.493 29.9923C162.765 29.9923 169.472 23.2783 169.472 14.9961C169.472 6.714 162.765 0 154.493 0C146.22 0 139.514 6.714 139.514 14.9961C139.514 23.2783 146.22 29.9923 154.493 29.9923Z" fill="#E6E6E6"/>
<path d="M152.45 22.8009C152.191 22.8009 151.936 22.7406 151.705 22.6247C151.473 22.5089 151.272 22.3407 151.117 22.1335L147.03 16.6785C146.899 16.5033 146.804 16.3038 146.749 16.0916C146.695 15.8794 146.683 15.6586 146.714 15.4418C146.745 15.2249 146.818 15.0163 146.93 14.8278C147.041 14.6393 147.189 14.4746 147.364 14.3432C147.539 14.2118 147.738 14.1162 147.95 14.0618C148.162 14.0074 148.383 13.9954 148.599 14.0264C148.816 14.0574 149.024 14.1308 149.212 14.2424C149.401 14.354 149.565 14.5017 149.696 14.6769L152.37 18.2454L159.237 7.93385C159.483 7.56896 159.864 7.31648 160.295 7.23152C160.727 7.14656 161.175 7.23602 161.541 7.48037C161.907 7.72472 162.162 8.10413 162.25 8.5358C162.337 8.96747 162.251 9.41636 162.009 9.7845L153.836 22.058C153.688 22.28 153.49 22.4632 153.256 22.5924C153.023 22.7216 152.763 22.7929 152.496 22.8003L152.45 22.8009Z" fill="white"/>
<path d="M172.833 42.0508H136.813C134.611 42.0508 132.826 43.8376 132.826 46.0418V47.4781C132.826 49.6822 134.611 51.469 136.813 51.469H172.833C175.035 51.469 176.82 49.6822 176.82 47.4781V46.0418C176.82 43.8376 175.035 42.0508 172.833 42.0508Z" fill="#E6E6E6"/>
<path d="M195.175 60.8872H114.469C112.267 60.8872 110.482 62.674 110.482 64.8782V66.3145C110.482 68.5186 112.267 70.3055 114.469 70.3055H195.175C197.377 70.3055 199.162 68.5186 199.162 66.3145V64.8782C199.162 62.674 197.377 60.8872 195.175 60.8872Z" fill="#E6E6E6"/>
<path d="M195.175 79.7236H114.469C112.267 79.7236 110.482 81.5104 110.482 83.7146V85.1509C110.482 87.3551 112.267 89.1419 114.469 89.1419H195.175C197.377 89.1419 199.162 87.3551 199.162 85.1509V83.7146C199.162 81.5104 197.377 79.7236 195.175 79.7236Z" fill="#E6E6E6"/>
<path d="M146.087 280.561C144.599 280.561 143.143 280.119 141.906 279.291C140.668 278.463 139.703 277.286 139.133 275.91C138.564 274.533 138.415 273.017 138.705 271.556C138.996 270.094 139.712 268.751 140.765 267.697C141.818 266.644 143.159 265.926 144.619 265.635C146.079 265.344 147.593 265.494 148.968 266.064C150.343 266.634 151.519 267.6 152.346 268.839C153.173 270.078 153.614 271.535 153.614 273.026C153.614 275.024 152.821 276.941 151.41 278.354C149.998 279.767 148.084 280.561 146.087 280.561Z" fill="#E6E6E6"/>
<path d="M148.712 274.602L147.137 273.025L148.712 271.449C148.851 271.309 148.929 271.12 148.929 270.923C148.929 270.726 148.851 270.537 148.712 270.397C148.573 270.258 148.384 270.18 148.187 270.18C147.99 270.18 147.801 270.258 147.662 270.397L146.087 271.974L144.512 270.397C144.372 270.258 144.184 270.18 143.987 270.18C143.79 270.18 143.601 270.258 143.462 270.397C143.322 270.537 143.244 270.726 143.244 270.923C143.244 271.12 143.322 271.309 143.462 271.449L145.037 273.025L143.462 274.602C143.322 274.742 143.244 274.931 143.244 275.128C143.244 275.325 143.322 275.514 143.462 275.654C143.601 275.793 143.79 275.871 143.987 275.871C144.184 275.871 144.372 275.793 144.512 275.654L146.087 274.077L147.662 275.654C147.801 275.793 147.99 275.871 148.187 275.871C148.384 275.871 148.573 275.793 148.712 275.654C148.851 275.514 148.929 275.325 148.929 275.128C148.929 274.931 148.851 274.742 148.712 274.602Z" fill="white"/>
<path d="M108.655 191.573C116.927 191.573 123.634 184.859 123.634 176.577C123.634 168.295 116.927 161.581 108.655 161.581C100.382 161.581 93.6758 168.295 93.6758 176.577C93.6758 184.859 100.382 191.573 108.655 191.573Z" fill="#E6E6E6"/>
<path d="M106.61 184.382C106.351 184.382 106.096 184.321 105.865 184.206C105.633 184.09 105.432 183.922 105.277 183.714L101.191 178.259C101.059 178.084 100.964 177.885 100.91 177.673C100.855 177.46 100.843 177.24 100.874 177.023C100.905 176.806 100.978 176.597 101.09 176.409C101.201 176.22 101.349 176.056 101.524 175.924C101.699 175.793 101.898 175.697 102.11 175.643C102.322 175.588 102.543 175.576 102.759 175.607C102.976 175.638 103.184 175.712 103.373 175.823C103.561 175.935 103.725 176.083 103.857 176.258L106.53 179.826L113.397 169.515C113.517 169.331 113.673 169.173 113.855 169.049C114.037 168.926 114.242 168.84 114.457 168.796C114.672 168.752 114.894 168.752 115.11 168.794C115.326 168.836 115.531 168.921 115.714 169.043C115.896 169.165 116.053 169.322 116.175 169.505C116.297 169.688 116.382 169.893 116.424 170.109C116.467 170.325 116.466 170.547 116.422 170.763C116.378 170.978 116.293 171.183 116.169 171.365L107.996 183.639C107.849 183.861 107.65 184.044 107.417 184.173C107.183 184.302 106.923 184.374 106.656 184.381L106.61 184.382Z" fill="white"/>
<path d="M126.995 203.632H90.9747C88.7731 203.632 86.9883 205.419 86.9883 207.623V209.059C86.9883 211.263 88.7731 213.05 90.9747 213.05H126.995C129.197 213.05 130.982 211.263 130.982 209.059V207.623C130.982 205.419 129.197 203.632 126.995 203.632Z" fill="#E6E6E6"/>
<path d="M149.339 222.468H68.6329C66.4313 222.468 64.6465 224.255 64.6465 226.459V227.896C64.6465 230.1 66.4313 231.886 68.6329 231.886H149.339C151.541 231.886 153.326 230.1 153.326 227.896V226.459C153.326 224.255 151.541 222.468 149.339 222.468Z" fill="#E6E6E6"/>
<path d="M149.339 241.305H68.6329C66.4313 241.305 64.6465 243.092 64.6465 245.296V246.732C64.6465 248.936 66.4313 250.723 68.6329 250.723H149.339C151.541 250.723 153.326 248.936 153.326 246.732V245.296C153.326 243.092 151.541 241.305 149.339 241.305Z" fill="#E6E6E6"/>
<path d="M301.792 248.41C299.737 248.41 297.727 247.8 296.018 246.657C294.309 245.513 292.976 243.888 292.19 241.987C291.403 240.085 291.197 237.993 291.598 235.974C291.999 233.956 292.989 232.102 294.443 230.646C295.896 229.191 297.748 228.2 299.765 227.799C301.781 227.397 303.871 227.603 305.77 228.391C307.669 229.178 309.293 230.512 310.435 232.223C311.577 233.935 312.186 235.946 312.186 238.005C312.186 240.764 311.091 243.411 309.142 245.363C307.193 247.314 304.549 248.41 301.792 248.41Z" fill="#E6E6E6"/>
<path d="M305.42 240.182L303.245 238.004L305.42 235.827C305.612 235.634 305.72 235.373 305.72 235.101C305.72 234.828 305.612 234.567 305.42 234.375C305.227 234.182 304.967 234.074 304.695 234.074C304.423 234.074 304.162 234.182 303.97 234.375L301.795 236.552L299.62 234.375C299.427 234.182 299.166 234.074 298.895 234.074C298.623 234.074 298.362 234.182 298.169 234.375C297.977 234.567 297.869 234.828 297.869 235.101C297.869 235.373 297.977 235.634 298.169 235.827L300.344 238.004L298.169 240.182C297.977 240.374 297.869 240.635 297.869 240.907C297.869 241.18 297.977 241.441 298.169 241.633C298.362 241.826 298.623 241.934 298.895 241.934C299.166 241.934 299.427 241.826 299.62 241.633L301.795 239.456L303.97 241.633C304.162 241.826 304.423 241.934 304.695 241.934C304.966 241.934 305.227 241.826 305.42 241.633C305.612 241.441 305.72 241.18 305.72 240.907C305.72 240.635 305.612 240.374 305.42 240.182L305.42 240.182Z" fill="white"/>
<path d="M256.507 125.526C267.931 125.526 277.191 116.254 277.191 104.818C277.191 93.3808 267.931 84.1094 256.507 84.1094C245.083 84.1094 235.822 93.3808 235.822 104.818C235.822 116.254 245.083 125.526 256.507 125.526Z" fill="#0029DD"/>
<path d="M253.686 115.596C253.329 115.596 252.976 115.513 252.657 115.353C252.338 115.193 252.06 114.96 251.845 114.674L246.202 107.141C246.021 106.899 245.889 106.624 245.814 106.331C245.739 106.038 245.723 105.733 245.765 105.434C245.808 105.134 245.909 104.846 246.063 104.586C246.217 104.325 246.421 104.098 246.663 103.917C246.904 103.735 247.179 103.603 247.472 103.528C247.765 103.453 248.069 103.436 248.369 103.479C248.668 103.522 248.955 103.623 249.215 103.777C249.475 103.931 249.702 104.135 249.884 104.377L253.576 109.305L263.058 95.0659C263.225 94.8141 263.441 94.5978 263.692 94.4294C263.943 94.261 264.225 94.1437 264.521 94.0843C264.817 94.025 265.123 94.0246 265.419 94.0833C265.716 94.142 265.998 94.2586 266.249 94.4264C266.501 94.5943 266.716 94.8101 266.885 95.0615C267.053 95.3129 267.17 95.595 267.229 95.8917C267.288 96.1884 267.289 96.4938 267.23 96.7906C267.171 97.0874 267.055 97.3697 266.887 97.6214L255.601 114.57C255.396 114.877 255.122 115.13 254.8 115.308C254.478 115.486 254.118 115.585 253.75 115.595C253.729 115.595 253.707 115.596 253.686 115.596Z" fill="white"/>
<path d="M283.352 142.178H230.574C228.373 142.178 226.588 143.965 226.588 146.169V151.192C226.588 153.397 228.373 155.183 230.574 155.183H283.352C285.554 155.183 287.339 153.397 287.339 151.192V146.169C287.339 143.965 285.554 142.178 283.352 142.178Z" fill="#3F3D56"/>
<path d="M314.205 168.189H199.721C197.519 168.189 195.734 169.976 195.734 172.18V177.204C195.734 179.408 197.519 181.195 199.721 181.195H314.205C316.407 181.195 318.192 179.408 318.192 177.204V172.18C318.192 169.976 316.407 168.189 314.205 168.189Z" fill="#3F3D56"/>
<path d="M314.205 194.2H199.721C197.519 194.2 195.734 195.987 195.734 198.191V203.215C195.734 205.419 197.519 207.206 199.721 207.206H314.205C316.407 207.206 318.192 205.419 318.192 203.215V198.191C318.192 195.987 316.407 194.2 314.205 194.2Z" fill="#3F3D56"/>
<path d="M354.391 364.998L344.36 364.997L339.588 326.262L354.393 326.263L354.391 364.998Z" fill="#FFB6B6"/>
<path d="M354.123 361.718L343.413 357.357L343.106 357.231L337.193 361.718C333.854 361.719 330.652 363.047 328.292 365.41C325.931 367.774 324.604 370.98 324.604 374.322V374.731H356.946V361.718H354.123Z" fill="#2F2E41"/>
<path d="M439.174 356.586L429.595 359.566L413.555 323.993L427.693 319.596L439.174 356.586Z" fill="#FFB6B6"/>
<path d="M437.946 353.534L426.426 352.551L426.095 352.522L421.779 358.564C418.59 359.557 415.926 361.776 414.373 364.735C412.819 367.693 412.502 371.148 413.492 374.341L413.614 374.731L444.499 365.122L440.642 352.695L437.946 353.534Z" fill="#2F2E41"/>
<path d="M399.039 166.571L403.118 178.188V184.467L402.55 191.372L408.864 214.402L413.818 265.186L438.746 340.362L419.632 345.873L370.831 223.043L355.417 347.281L337.938 346.815C337.938 346.815 334.947 339.575 335.734 335.638C336.52 331.702 336.52 336.426 336.52 331.702C336.52 326.979 333.111 329.03 335.602 325.249C338.093 321.468 337.783 318.158 337.938 315.877C338.093 313.595 336.52 221.487 336.52 218.338C336.52 215.189 335.975 215.879 336.248 212.779C336.52 209.678 339.976 210.953 339.034 205.592C338.093 200.231 337.783 201.168 337.938 197.157C338.093 193.146 340.26 169.627 340.26 169.627L399.039 166.571Z" fill="#2F2E41"/>
<path d="M333.618 170.35L368.66 136.518L378.372 108.987L364.046 102.75C356.688 109.807 348.734 131.787 348.734 131.787L324.62 162.5C324.432 162.564 324.245 162.633 324.06 162.715C322.974 163.194 322.029 163.946 321.318 164.898C320.607 165.849 320.154 166.968 320.001 168.147C319.848 169.325 320.001 170.523 320.446 171.625C320.891 172.727 321.612 173.695 322.54 174.436C323.468 175.177 324.571 175.666 325.743 175.856C326.915 176.045 328.116 175.929 329.229 175.518C330.343 175.108 331.332 174.416 332.101 173.511C332.87 172.606 333.393 171.517 333.618 170.35Z" fill="#FFB8B8"/>
<path d="M360.016 105.824L378.187 111.599L378.256 111.588C385.019 110.454 390.631 99.3945 394.148 90.3169C395.305 87.3227 395.284 84.0003 394.088 81.0214C392.892 78.0426 390.611 75.6294 387.706 74.2699C385.556 73.2815 383.173 72.9147 380.826 73.2112C378.479 73.5077 376.261 74.4555 374.424 75.9475L365.093 83.5809L360.016 105.824Z" fill="#0029DD"/>
<path d="M402.126 181.494L402.232 181.353C407.901 173.825 400.147 155.183 398.975 152.479L404.246 150.916L403.327 140.867L402.885 136.386L406.984 132.489L406.997 132.39L409.816 112.306L413.505 99.0138C414.895 93.9887 414.924 88.6838 413.59 83.6436C412.255 78.6033 409.605 74.0094 405.911 70.3334L398.372 62.8388L389.338 48.6835L374.193 48.292L368.746 57.978C363.682 59.0129 359.14 61.7938 355.913 65.8363C352.685 69.8788 350.977 74.9267 351.084 80.1007L351.597 105.887L346.163 137.836L346.01 143.639L340.676 149.274L341.662 154.971L337.672 156.562L335.72 164.658C334.974 165.592 330.051 171.822 330.006 173.559C329.999 173.82 330.185 174.077 330.59 174.367C333.777 176.65 351.59 181.597 359.607 178.623C368.146 175.458 401.614 181.402 401.952 181.462L402.126 181.494Z" fill="#0029DD"/>
<path d="M364.998 99.7506L357.261 84.3086C346.031 85.0765 323.744 98.0754 323.744 98.0754L281.574 107.026C280.325 106.546 278.972 106.403 277.65 106.612C276.328 106.822 275.084 107.376 274.045 108.22C273.005 109.063 272.205 110.166 271.727 111.418C271.248 112.669 271.107 114.024 271.318 115.347C271.529 116.67 272.084 117.915 272.928 118.955C273.772 119.995 274.874 120.794 276.125 121.271C277.375 121.749 278.729 121.889 280.05 121.676C281.372 121.463 282.614 120.906 283.652 120.06L337.293 116.21L364.998 99.7506Z" fill="#FFB8B8"/>
<path d="M361.877 102.286L382.083 87.253L385.642 74.4124C386.331 71.889 386.302 69.2228 385.558 66.7151C384.813 64.2075 383.383 61.9583 381.428 60.2217C378.763 57.8856 375.311 56.6498 371.771 56.7641C368.23 56.8785 364.865 58.3345 362.356 60.8378C354.753 68.4359 346.08 79.036 347.943 86.3863L347.962 86.4608L361.877 102.286Z" fill="#0029DD"/>
<path d="M382.266 44.782C392.189 44.782 400.233 36.7286 400.233 26.7943C400.233 16.86 392.189 8.80664 382.266 8.80664C372.343 8.80664 364.299 16.86 364.299 26.7943C364.299 36.7286 372.343 44.782 382.266 44.782Z" fill="#FFB8B8"/>
<path d="M394.09 45.6062C391.085 44.193 387.575 45.0518 384.257 45.1825C380.939 45.3132 376.92 44.0611 376.216 40.8126C375.695 38.4107 377.26 35.778 376.274 33.5271C375.199 31.0724 371.972 30.723 369.384 30.0357C366.141 29.0974 363.28 27.1486 361.218 24.4722C359.156 21.7958 357.999 18.531 357.916 15.1518C357.736 16.493 360.028 16.9335 360.781 15.8097C361.534 14.6859 361.016 13.1304 360.186 12.0625C359.355 10.9946 358.235 10.1417 357.609 8.94244C356.983 7.74314 357.104 5.96202 358.327 5.38486C358.953 6.65104 359.841 7.76985 360.931 8.66749C362.021 9.56513 363.289 10.2212 364.65 10.5924C364.094 8.90126 364.881 6.99995 366.146 5.74908C367.491 4.57711 369.04 3.6638 370.716 3.05511C374.857 1.25772 379.693 -0.530892 383.704 1.54288C384.739 2.08846 385.638 2.86118 386.333 3.80334C387.028 4.7455 387.502 5.83276 387.719 6.98388C395.138 7.61192 402.756 15.6577 402.334 23.0998C401.879 31.1113 401.547 31.7595 394.886 45.2412" fill="#2F2E41"/>
<path d="M484.093 375.193H457.997L457.884 374.99C457.551 374.384 457.229 373.742 456.928 373.082C454.24 367.321 453.103 360.731 452.101 354.918L451.346 350.536C451.255 350.005 451.323 349.459 451.544 348.968C451.764 348.476 452.126 348.062 452.583 347.778C453.04 347.493 453.571 347.352 454.108 347.372C454.646 347.392 455.165 347.572 455.6 347.889C459.566 350.778 463.534 353.664 467.503 356.548C469.005 357.642 470.722 358.909 472.365 360.279C472.524 359.507 472.69 358.734 472.856 357.971C472.97 357.445 473.239 356.964 473.628 356.592C474.016 356.219 474.507 355.971 475.038 355.879C475.568 355.787 476.114 355.856 476.605 356.076C477.096 356.297 477.51 356.659 477.795 357.117L480.848 362.028C483.075 365.614 485.04 369.148 484.64 372.96C484.642 373.006 484.638 373.053 484.63 373.098C484.549 373.724 484.401 374.34 484.186 374.933L484.093 375.193Z" fill="#F0F0F0"/>
<path d="M510.286 375.758L262.305 376C262.057 375.999 261.82 375.9 261.646 375.724C261.471 375.549 261.373 375.311 261.373 375.063C261.373 374.815 261.471 374.578 261.646 374.402C261.82 374.226 262.057 374.127 262.305 374.126L510.286 373.884C510.534 373.885 510.771 373.984 510.945 374.16C511.12 374.336 511.218 374.573 511.218 374.821C511.218 375.069 511.12 375.307 510.945 375.482C510.771 375.658 510.534 375.757 510.286 375.758Z" fill="#CACACA"/>
</g>
<defs>
<clipPath id="clip0_835_114">
<rect width="511.218" height="376" fill="white"/>
</clipPath>
</defs>
</svg>
