<svg width="407" height="300" viewBox="0 0 407 300" fill="none" xmlns="http://www.w3.org/2000/svg">
<g opacity="0.7">
<path d="M366.06 279.48H339.112V279.683H366.06V279.48Z" fill="#EBEBEB"/>
<path d="M269.496 281.693H262.426V281.896H269.496V281.693Z" fill="#EBEBEB"/>
<path d="M338.297 271.929H322.684V272.133H338.297V271.929Z" fill="#EBEBEB"/>
<path d="M77.825 273.296H42.6836V273.5H77.825V273.296Z" fill="#EBEBEB"/>
<path d="M90.2266 273.296H85.0762V273.5H90.2266V273.296Z" fill="#EBEBEB"/>
<path d="M183.193 276.73H106.971V276.933H183.193V276.73Z" fill="#EBEBEB"/>
<path d="M192.834 230.1H35.7348C34.5026 230.1 33.3209 229.61 32.4496 228.739C31.5783 227.868 31.0889 226.686 31.0889 225.454V4.60525C31.0996 3.38013 31.5938 2.20885 32.4639 1.34635C33.334 0.483846 34.5096 -4.69686e-05 35.7348 3.41939e-09H192.834C194.066 3.4194e-09 195.248 0.48948 196.119 1.36076C196.99 2.23204 197.48 3.41375 197.48 4.64593V225.454C197.48 226.686 196.99 227.868 196.119 228.739C195.248 229.61 194.066 230.1 192.834 230.1ZM35.7348 0.16273C34.5572 0.164881 33.4285 0.63362 32.5958 1.46629C31.7632 2.29896 31.2944 3.42768 31.2923 4.60525V225.454C31.2944 226.631 31.7632 227.76 32.5958 228.593C33.4285 229.425 34.5572 229.894 35.7348 229.896H192.834C194.011 229.894 195.14 229.425 195.973 228.593C196.805 227.76 197.274 226.631 197.276 225.454V4.60525C197.274 3.42768 196.805 2.29896 195.973 1.46629C195.14 0.63362 194.011 0.164881 192.834 0.16273H35.7348Z" fill="#EBEBEB"/>
<path d="M368.835 230.1H211.719C210.488 230.097 209.307 229.607 208.436 228.736C207.566 227.866 207.075 226.685 207.073 225.454V4.60525C207.086 3.3808 207.581 2.21074 208.451 1.3487C209.32 0.48665 210.495 0.00207341 211.719 0H368.835C370.057 0.00423463 371.228 0.490019 372.095 1.35206C372.962 2.2141 373.453 3.38295 373.464 4.60525V225.454C373.464 226.683 372.977 227.862 372.109 228.733C371.241 229.604 370.064 230.095 368.835 230.1ZM211.719 0.16273C210.542 0.164881 209.413 0.63362 208.58 1.46629C207.748 2.29896 207.279 3.42768 207.277 4.60525V225.454C207.279 226.631 207.748 227.76 208.58 228.593C209.413 229.425 210.542 229.894 211.719 229.896H368.835C370.012 229.894 371.141 229.425 371.973 228.593C372.806 227.76 373.275 226.631 373.277 225.454V4.60525C373.275 3.42768 372.806 2.29896 371.973 1.46629C371.141 0.63362 370.012 0.164881 368.835 0.16273H211.719Z" fill="#EBEBEB"/>
<path d="M406.824 266.388H0V266.592H406.824V266.388Z" fill="#EBEBEB"/>
<path d="M145.391 33.5792H47.1025V266.876H145.391V33.5792Z" fill="#EBEBEB"/>
<path d="M141.21 37.8102H51.2773V266.885H141.21V37.8102Z" fill="#F5F5F5"/>
<path d="M94.1387 68.0291H58.0859V151.924H94.1387V68.0291Z" fill="#FAFAFA"/>
<path d="M134.886 68.0291H98.833V151.924H134.886V68.0291Z" fill="#FAFAFA"/>
<path d="M134.886 177.294H58.0859V261.189H134.886V177.294Z" fill="#EBEBEB"/>
<path d="M72.1458 43.8881H120.826C124.555 43.8881 128.131 45.3694 130.768 48.0062C133.405 50.6429 134.886 54.2191 134.886 57.948V63.6842H58.0859V57.948C58.0859 56.1016 58.4496 54.2733 59.1562 52.5675C59.8628 50.8617 60.8984 49.3117 62.204 48.0062C63.5095 46.7006 65.0595 45.6649 66.7653 44.9584C68.4711 44.2518 70.2994 43.8881 72.1458 43.8881Z" fill="#FAFAFA"/>
<path d="M64.6439 155.7H58.0859V172.786H64.6439V155.7Z" fill="#E6E6E6"/>
<path d="M64.6451 172.786H65.9307V155.7H64.6451V172.786Z" fill="#E0E0E0"/>
<path d="M62.4723 162.412C62.4723 162.959 62.31 163.494 62.006 163.949C61.7021 164.404 61.27 164.759 60.7645 164.968C60.259 165.177 59.7028 165.232 59.1662 165.125C58.6295 165.019 58.1366 164.755 57.7497 164.368C57.3628 163.981 57.0994 163.489 56.9926 162.952C56.8859 162.415 56.9407 161.859 57.15 161.354C57.3594 160.848 57.714 160.416 58.1689 160.112C58.6239 159.808 59.1587 159.646 59.7059 159.646C60.4396 159.646 61.1432 159.937 61.662 160.456C62.1808 160.975 62.4723 161.679 62.4723 162.412Z" fill="#E0E0E0"/>
<path d="M61.9424 167.188H60.5186V170.646H61.9424V167.188Z" fill="#E0E0E0"/>
<path d="M57.2721 166.277C59.4065 166.277 61.1369 164.547 61.1369 162.412C61.1369 160.278 59.4065 158.547 57.2721 158.547C55.1376 158.547 53.4072 160.278 53.4072 162.412C53.4072 164.547 55.1376 166.277 57.2721 166.277Z" fill="#EBEBEB"/>
<path d="M241.174 37.7451H211.012V76.9222H241.174V37.7451Z" fill="#F5F5F5"/>
<path d="M238.847 40.7556H213.331V73.9118H238.847V40.7556Z" fill="#EBEBEB"/>
<path d="M237.251 42.8304H214.925V71.8369H237.251V42.8304Z" fill="#FAFAFA"/>
<path d="M269.009 82.1865H238.847V107.89H269.009V82.1865Z" fill="#EBEBEB"/>
<path d="M266.691 84.1637H241.175V105.913H266.691V84.1637Z" fill="#F5F5F5"/>
<path d="M265.094 85.5225H242.768V104.554H265.094V85.5225Z" fill="#FAFAFA"/>
<path d="M273.313 74.7091V53.9692H246.365V74.7091H273.313Z" fill="#E6E6E6"/>
<path d="M271.245 73.1144V55.564H248.447V73.1144H271.245Z" fill="#F0F0F0"/>
<path d="M269.814 72.016V56.6624H249.872V72.016H269.814Z" fill="#EBEBEB"/>
<path d="M352.455 253.272C352.455 258.773 353.318 262.336 354.766 264.615C355.323 265.452 356.081 266.136 356.971 266.605C357.861 267.074 358.854 267.313 359.859 267.3H367.825C368.831 267.315 369.824 267.076 370.714 266.607C371.604 266.138 372.362 265.453 372.918 264.615C374.375 262.336 375.237 258.773 375.237 253.272C375.237 245.299 371.755 238.911 370.624 233.81C370.209 231.971 371.576 226.341 371.576 226.341H356.116C356.116 226.341 357.475 231.971 357.068 233.81C355.929 238.911 352.455 245.299 352.455 253.272Z" fill="#E6E6E6"/>
<path d="M326.126 220.987C326.126 214.063 336.988 216.918 339.722 206.186C340.763 202.118 331.927 192.9 331.927 192.9H359.469C359.469 192.9 350.633 202.118 351.675 206.186C354.408 216.935 365.271 214.063 365.271 220.987C365.271 228.619 349.95 244.501 349.209 262.385C349.144 264.012 352.089 267.267 352.089 267.267H339.291C339.291 267.267 342.236 263.955 342.171 262.385C341.447 244.501 326.126 228.635 326.126 220.987Z" fill="#F0F0F0"/>
<path d="M334.449 238.985C332.822 235.624 336.158 224.176 336.158 224.176H324.222C324.222 224.176 327.533 235.624 325.93 238.985C324.807 241.36 322.236 242.882 322.236 245.697V262.597C322.236 266.974 325.816 267.3 330.194 267.3C334.571 267.3 338.151 266.974 338.151 262.597V245.722C338.151 242.882 335.58 241.36 334.449 238.985Z" fill="#E6E6E6"/>
<path d="M199.493 300C286.62 300 357.251 295.876 357.251 290.79C357.251 285.703 286.62 281.579 199.493 281.579C112.365 281.579 41.7344 285.703 41.7344 290.79C41.7344 295.876 112.365 300 199.493 300Z" fill="#F5F5F5"/>
<path d="M241.575 262.808L223.756 223.306H182.097L188.493 260.27C188.575 260.746 188.553 261.235 188.428 261.702C188.303 262.169 188.078 262.603 187.768 262.975C187.459 263.346 187.072 263.646 186.635 263.853C186.198 264.061 185.722 264.17 185.238 264.175H166.947C166.479 264.175 166.03 264.361 165.699 264.692C165.368 265.023 165.182 265.472 165.182 265.941V267.91C165.182 268.378 165.368 268.827 165.699 269.158C166.03 269.489 166.479 269.675 166.947 269.675H240.289C240.799 269.675 241.287 269.473 241.647 269.113C242.007 268.753 242.21 268.264 242.21 267.755V265.713C242.204 264.711 241.988 263.721 241.575 262.808ZM222.283 257.926H202.284C201.653 257.928 201.042 257.705 200.559 257.298C200.076 256.892 199.754 256.327 199.648 255.705L196.629 238.269C196.563 237.884 196.581 237.489 196.684 237.112C196.786 236.735 196.969 236.385 197.221 236.086C197.473 235.788 197.788 235.548 198.142 235.384C198.497 235.22 198.883 235.135 199.273 235.136H214.399C214.914 235.136 215.417 235.285 215.85 235.563C216.283 235.841 216.627 236.238 216.84 236.706L224.724 254.143C224.907 254.551 224.986 254.998 224.952 255.444C224.918 255.891 224.773 256.321 224.531 256.697C224.288 257.073 223.955 257.382 223.563 257.597C223.171 257.812 222.731 257.925 222.283 257.926Z" fill="#0029DD"/>
<path opacity="0.2" d="M241.575 262.808L223.756 223.306H182.097L188.493 260.27C188.575 260.746 188.553 261.235 188.428 261.702C188.303 262.169 188.078 262.603 187.768 262.975C187.459 263.346 187.072 263.646 186.635 263.853C186.198 264.061 185.722 264.17 185.238 264.175H166.947C166.479 264.175 166.03 264.361 165.699 264.692C165.368 265.023 165.182 265.472 165.182 265.941V267.91C165.182 268.378 165.368 268.827 165.699 269.158C166.03 269.489 166.479 269.675 166.947 269.675H240.289C240.799 269.675 241.287 269.473 241.647 269.113C242.007 268.753 242.21 268.264 242.21 267.755V265.713C242.204 264.711 241.988 263.721 241.575 262.808ZM222.283 257.926H202.284C201.653 257.928 201.042 257.705 200.559 257.298C200.076 256.892 199.754 256.327 199.648 255.705L196.629 238.269C196.563 237.884 196.581 237.489 196.684 237.112C196.786 236.735 196.969 236.385 197.221 236.086C197.473 235.788 197.788 235.548 198.142 235.384C198.497 235.22 198.883 235.135 199.273 235.136H214.399C214.914 235.136 215.417 235.285 215.85 235.563C216.283 235.841 216.627 236.238 216.84 236.706L224.724 254.143C224.907 254.551 224.986 254.998 224.952 255.444C224.918 255.891 224.773 256.321 224.531 256.697C224.288 257.073 223.955 257.382 223.563 257.597C223.171 257.812 222.731 257.925 222.283 257.926Z" fill="white"/>
<path d="M201.623 235.095H199.271C198.881 235.094 198.495 235.179 198.14 235.343C197.786 235.507 197.471 235.747 197.219 236.045C196.967 236.344 196.784 236.694 196.681 237.071C196.579 237.448 196.56 237.843 196.627 238.228L199.646 255.664C199.751 256.287 200.074 256.851 200.557 257.258C201.04 257.664 201.651 257.887 202.282 257.886H204.641C204.01 257.887 203.399 257.664 202.917 257.258C202.434 256.851 202.111 256.287 202.005 255.664L198.987 238.228C198.92 237.844 198.939 237.449 199.04 237.073C199.142 236.697 199.325 236.347 199.576 236.049C199.827 235.75 200.141 235.51 200.494 235.346C200.848 235.181 201.233 235.096 201.623 235.095Z" fill="#0029DD"/>
<path d="M243.932 262.808L226.097 223.338H223.754L241.573 262.808C241.99 263.731 242.207 264.732 242.207 265.745V267.788C242.207 268.04 242.158 268.29 242.061 268.523C241.965 268.756 241.823 268.967 241.645 269.146C241.467 269.324 241.255 269.465 241.022 269.562C240.789 269.658 240.539 269.708 240.287 269.708H242.647C242.899 269.708 243.149 269.658 243.382 269.562C243.615 269.465 243.826 269.324 244.005 269.146C244.183 268.967 244.324 268.756 244.421 268.523C244.517 268.29 244.567 268.04 244.567 267.788V265.745C244.566 264.732 244.35 263.731 243.932 262.808Z" fill="#0029DD"/>
<g opacity="0.2">
<path opacity="0.2" d="M201.624 235.095H199.272C198.882 235.094 198.496 235.179 198.141 235.343C197.787 235.507 197.472 235.747 197.22 236.046C196.968 236.344 196.785 236.694 196.682 237.071C196.58 237.448 196.561 237.843 196.628 238.228L199.647 255.664C199.752 256.287 200.075 256.851 200.558 257.258C201.041 257.664 201.652 257.887 202.283 257.886H204.642C204.011 257.887 203.4 257.664 202.917 257.258C202.435 256.851 202.112 256.287 202.006 255.664L198.988 238.228C198.921 237.844 198.94 237.449 199.041 237.073C199.143 236.697 199.326 236.347 199.577 236.049C199.828 235.75 200.142 235.51 200.495 235.346C200.849 235.181 201.234 235.096 201.624 235.095Z" fill="black"/>
<path opacity="0.2" d="M243.934 262.808L226.099 223.338H223.756L241.575 262.808C241.992 263.731 242.208 264.732 242.209 265.745V267.788C242.209 268.04 242.16 268.29 242.063 268.523C241.967 268.756 241.825 268.967 241.647 269.146C241.469 269.324 241.257 269.465 241.024 269.562C240.791 269.658 240.541 269.708 240.289 269.708H242.649C242.901 269.708 243.151 269.658 243.384 269.562C243.617 269.465 243.828 269.324 244.007 269.146C244.185 268.967 244.326 268.756 244.423 268.523C244.519 268.29 244.569 268.04 244.569 267.788V265.745C244.568 264.732 244.352 263.731 243.934 262.808Z" fill="black"/>
</g>
<path opacity="0.2" d="M223.738 223.306H182.079L183.715 232.736H228.001L223.738 223.306Z" fill="black"/>
<path d="M283.5 227.447H105.775C104.942 227.463 104.115 227.3 103.35 226.971C102.585 226.641 101.899 226.152 101.338 225.535C100.777 224.919 100.354 224.19 100.098 223.397C99.8417 222.604 99.7578 221.766 99.8518 220.938L111.08 92.5117C111.257 90.7492 112.075 89.1129 113.378 87.9131C114.681 86.7133 116.38 86.0335 118.151 86.0025H295.876C296.709 85.9868 297.536 86.1492 298.301 86.4789C299.066 86.8086 299.752 87.298 300.313 87.9142C300.874 88.5305 301.297 89.2595 301.553 90.0524C301.809 90.8453 301.893 91.6838 301.799 92.5117L290.563 220.946C290.386 222.706 289.569 224.341 288.267 225.539C286.965 226.737 285.269 227.416 283.5 227.447Z" fill="#0029DD"/>
<path opacity="0.5" d="M283.5 227.447H105.775C104.942 227.463 104.115 227.3 103.35 226.971C102.585 226.641 101.899 226.152 101.338 225.535C100.777 224.919 100.354 224.19 100.098 223.397C99.8417 222.604 99.7578 221.766 99.8518 220.938L111.08 92.5117C111.257 90.7492 112.075 89.1129 113.378 87.9131C114.681 86.7133 116.38 86.0335 118.151 86.0025H295.876C296.709 85.9868 297.536 86.1492 298.301 86.4789C299.066 86.8086 299.752 87.298 300.313 87.9142C300.874 88.5305 301.297 89.2595 301.553 90.0524C301.809 90.8453 301.893 91.6838 301.799 92.5117L290.563 220.946C290.386 222.706 289.569 224.341 288.267 225.539C286.965 226.737 285.269 227.416 283.5 227.447Z" fill="white"/>
<path d="M101.056 207.065L99.844 220.946C99.75 221.774 99.8339 222.612 100.09 223.405C100.346 224.198 100.769 224.927 101.33 225.543C101.891 226.16 102.577 226.649 103.342 226.979C104.107 227.309 104.934 227.471 105.767 227.455H283.501C285.271 227.424 286.968 226.744 288.27 225.544C289.572 224.344 290.388 222.708 290.563 220.946L291.783 207.065H101.056Z" fill="#0029DD"/>
<path opacity="0.8" d="M101.056 207.065L99.844 220.946C99.75 221.774 99.8339 222.612 100.09 223.405C100.346 224.198 100.769 224.927 101.33 225.543C101.891 226.16 102.577 226.649 103.342 226.979C104.107 227.309 104.934 227.471 105.767 227.455H283.501C285.271 227.424 286.968 226.744 288.27 225.544C289.572 224.344 290.388 222.708 290.563 220.946L291.783 207.065H101.056Z" fill="white"/>
<path d="M285.511 203.135H108.014C107.562 203.144 107.114 203.056 106.7 202.878C106.285 202.699 105.913 202.435 105.609 202.101C105.305 201.768 105.075 201.373 104.936 200.944C104.796 200.515 104.75 200.061 104.8 199.612L114.083 93.4718C114.181 92.5175 114.625 91.6319 115.331 90.9827C116.037 90.3335 116.957 89.9656 117.916 89.9487H295.413C295.864 89.9401 296.312 90.028 296.727 90.2063C297.141 90.3846 297.513 90.6493 297.817 90.9828C298.121 91.3162 298.351 91.7107 298.491 92.1399C298.63 92.5691 298.677 93.0232 298.627 93.4718L289.343 199.612C289.246 200.566 288.802 201.452 288.096 202.101C287.39 202.75 286.47 203.118 285.511 203.135Z" fill="#0029DD"/>
<path opacity="0.9" d="M285.511 203.135H108.014C107.562 203.144 107.114 203.056 106.7 202.878C106.285 202.699 105.913 202.435 105.609 202.101C105.305 201.768 105.075 201.373 104.936 200.944C104.796 200.515 104.75 200.061 104.8 199.612L114.083 93.4718C114.181 92.5175 114.625 91.6319 115.331 90.9827C116.037 90.3335 116.957 89.9656 117.916 89.9487H295.413C295.864 89.9401 296.312 90.028 296.727 90.2063C297.141 90.3846 297.513 90.6493 297.817 90.9828C298.121 91.3162 298.351 91.7107 298.491 92.1399C298.63 92.5691 298.677 93.0232 298.627 93.4718L289.343 199.612C289.246 200.566 288.802 201.452 288.096 202.101C287.39 202.75 286.47 203.118 285.511 203.135Z" fill="white"/>
<path d="M299.807 86.0269H295.878C296.711 86.0112 297.538 86.1736 298.303 86.5033C299.068 86.833 299.754 87.3224 300.315 87.9386C300.876 88.5549 301.298 89.2839 301.555 90.0768C301.811 90.8697 301.895 91.7082 301.801 92.5361L290.564 220.946C290.389 222.708 289.573 224.344 288.271 225.544C286.969 226.744 285.272 227.424 283.502 227.455H287.432C289.202 227.424 290.899 226.744 292.201 225.544C293.503 224.344 294.319 222.708 294.494 220.946L305.731 92.5199C305.822 91.6932 305.737 90.8565 305.479 90.0656C305.222 89.2747 304.799 88.5477 304.238 87.9333C303.678 87.3188 302.992 86.831 302.228 86.5022C301.464 86.1735 300.639 86.0115 299.807 86.0269Z" fill="#0029DD"/>
<path opacity="0.2" d="M299.807 86.0269H295.878C296.711 86.0112 297.538 86.1736 298.303 86.5033C299.068 86.833 299.754 87.3224 300.315 87.9386C300.876 88.5549 301.298 89.2839 301.555 90.0768C301.811 90.8697 301.895 91.7082 301.801 92.5361L290.564 220.946C290.389 222.708 289.573 224.344 288.271 225.544C286.969 226.744 285.272 227.424 283.502 227.455H287.432C289.202 227.424 290.899 226.744 292.201 225.544C293.503 224.344 294.319 222.708 294.494 220.946L305.731 92.5199C305.822 91.6932 305.737 90.8565 305.479 90.0656C305.222 89.2747 304.799 88.5477 304.238 87.9333C303.678 87.3188 302.992 86.831 302.228 86.5022C301.464 86.1735 300.639 86.0115 299.807 86.0269Z" fill="white"/>
<path d="M192.649 154.504C192.74 153.421 192.759 152.334 192.706 151.249L196.986 148.979C196.847 147.695 196.618 146.423 196.302 145.171L191.632 145.252C190.986 143.243 190.052 141.338 188.857 139.598L191.599 135.594C190.822 134.601 189.971 133.668 189.053 132.804L184.846 135.204C183.223 133.866 181.414 132.769 179.476 131.949L179.964 127.287C178.751 126.859 177.508 126.519 176.246 126.27L173.618 130.338C172.539 130.19 171.452 130.117 170.363 130.119C169.275 130.119 168.187 130.192 167.109 130.338L165.197 126.27C163.876 126.522 162.574 126.861 161.299 127.287L160.966 131.949C158.859 132.784 156.864 133.878 155.026 135.204L151.234 132.804C150.167 133.672 149.154 134.603 148.2 135.594L150.25 139.598C148.763 141.318 147.498 143.218 146.483 145.252L141.829 145.171C141.296 146.41 140.845 147.682 140.478 148.979L144.359 151.249C144.118 152.322 143.947 153.409 143.846 154.504C143.753 155.586 143.731 156.673 143.781 157.758L139.51 160.02C139.643 161.304 139.872 162.577 140.193 163.828L144.864 163.755C145.506 165.778 146.44 167.697 147.638 169.45L144.888 173.445C145.668 174.438 146.522 175.371 147.443 176.236L151.649 173.844C153.27 175.182 155.076 176.278 157.011 177.099L156.531 181.761C157.745 182.189 158.987 182.529 160.25 182.778L162.878 178.71C163.957 178.854 165.044 178.928 166.132 178.929C167.221 178.925 168.308 178.851 169.387 178.71L171.299 182.778C172.619 182.526 173.921 182.186 175.196 181.761L175.53 177.099C177.636 176.261 179.631 175.168 181.47 173.844L185.253 176.236C186.324 175.372 187.338 174.44 188.288 173.445L186.246 169.45C187.735 167.717 189.001 165.804 190.013 163.755L194.667 163.828C195.202 162.59 195.653 161.318 196.018 160.02L192.136 157.758C192.377 156.685 192.548 155.598 192.649 154.504ZM167.516 162.803C166.452 162.823 165.397 162.616 164.42 162.196C163.443 161.777 162.567 161.153 161.85 160.368C161.133 159.582 160.592 158.653 160.262 157.642C159.933 156.63 159.823 155.561 159.94 154.504C160.171 152.257 161.216 150.172 162.878 148.643C164.541 147.114 166.705 146.246 168.964 146.204C170.027 146.185 171.081 146.393 172.058 146.813C173.034 147.234 173.91 147.857 174.627 148.642C175.343 149.427 175.884 150.356 176.214 151.367C176.544 152.378 176.655 153.447 176.539 154.504C176.31 156.751 175.266 158.837 173.603 160.366C171.94 161.896 169.774 162.763 167.516 162.803Z" fill="#0029DD"/>
<path opacity="0.4" d="M192.649 154.504C192.74 153.421 192.759 152.334 192.706 151.249L196.986 148.979C196.847 147.695 196.618 146.423 196.302 145.171L191.632 145.252C190.986 143.243 190.052 141.338 188.857 139.598L191.599 135.594C190.822 134.601 189.971 133.668 189.053 132.804L184.846 135.204C183.223 133.866 181.414 132.769 179.476 131.949L179.964 127.287C178.751 126.859 177.508 126.519 176.246 126.27L173.618 130.338C172.539 130.19 171.452 130.117 170.363 130.119C169.275 130.119 168.187 130.192 167.109 130.338L165.197 126.27C163.876 126.522 162.574 126.861 161.299 127.287L160.966 131.949C158.859 132.784 156.864 133.878 155.026 135.204L151.234 132.804C150.167 133.672 149.154 134.603 148.2 135.594L150.25 139.598C148.763 141.318 147.498 143.218 146.483 145.252L141.829 145.171C141.296 146.41 140.845 147.682 140.478 148.979L144.359 151.249C144.118 152.322 143.947 153.409 143.846 154.504C143.753 155.586 143.731 156.673 143.781 157.758L139.51 160.02C139.643 161.304 139.872 162.577 140.193 163.828L144.864 163.755C145.506 165.778 146.44 167.697 147.638 169.45L144.888 173.445C145.668 174.438 146.522 175.371 147.443 176.236L151.649 173.844C153.27 175.182 155.076 176.278 157.011 177.099L156.531 181.761C157.745 182.189 158.987 182.529 160.25 182.778L162.878 178.71C163.957 178.854 165.044 178.928 166.132 178.929C167.221 178.925 168.308 178.851 169.387 178.71L171.299 182.778C172.619 182.526 173.921 182.186 175.196 181.761L175.53 177.099C177.636 176.261 179.631 175.168 181.47 173.844L185.253 176.236C186.324 175.372 187.338 174.44 188.288 173.445L186.246 169.45C187.735 167.717 189.001 165.804 190.013 163.755L194.667 163.828C195.202 162.59 195.653 161.318 196.018 160.02L192.136 157.758C192.377 156.685 192.548 155.598 192.649 154.504ZM167.516 162.803C166.452 162.823 165.397 162.616 164.42 162.196C163.443 161.777 162.567 161.153 161.85 160.368C161.133 159.582 160.592 158.653 160.262 157.642C159.933 156.63 159.823 155.561 159.94 154.504C160.171 152.257 161.216 150.172 162.878 148.643C164.541 147.114 166.705 146.246 168.964 146.204C170.027 146.185 171.081 146.393 172.058 146.813C173.034 147.234 173.91 147.857 174.627 148.642C175.343 149.427 175.884 150.356 176.214 151.367C176.544 152.378 176.655 153.447 176.539 154.504C176.31 156.751 175.266 158.837 173.603 160.366C171.94 161.896 169.774 162.763 167.516 162.803Z" fill="white"/>
<path d="M259.255 128.556C259.325 127.745 259.352 126.93 259.337 126.115L266.448 122.348C266.316 121.3 266.129 120.26 265.886 119.232L258.116 119.362C257.583 117.849 256.873 116.404 256.001 115.058L260.573 108.402C259.922 107.604 259.227 106.844 258.49 106.124L251.493 110.111C250.238 109.126 248.873 108.291 247.425 107.621L248.238 99.8671C247.24 99.5397 246.224 99.2681 245.195 99.0534L240.842 105.774C240.032 105.684 239.217 105.638 238.401 105.636C237.567 105.637 236.733 105.683 235.904 105.774L232.73 98.9965C231.657 99.2131 230.595 99.4847 229.549 99.8101L228.996 107.564C227.408 108.24 225.893 109.075 224.472 110.054L218.166 106.067C217.304 106.791 216.482 107.548 215.725 108.345L219.126 115.001C218.033 116.338 217.074 117.78 216.262 119.305L208.516 119.175C208.101 120.192 207.703 121.225 207.41 122.291L213.862 126.058C213.705 126.866 213.588 127.68 213.512 128.499C213.441 129.327 213.414 130.158 213.431 130.989L206.319 134.756C206.447 135.802 206.634 136.84 206.881 137.864L214.643 137.742C215.179 139.254 215.889 140.698 216.758 142.047L212.186 148.694C212.837 149.494 213.532 150.258 214.269 150.98L221.266 146.985C222.52 147.972 223.885 148.808 225.334 149.475L224.521 157.229C225.515 157.56 226.529 157.832 227.556 158.043L231.892 151.338C232.703 151.429 233.518 151.475 234.333 151.477C235.168 151.476 236.002 151.43 236.831 151.338L240.012 158.124C241.087 157.91 242.149 157.639 243.194 157.311L243.747 149.557C245.335 148.882 246.851 148.048 248.271 147.067L254.569 151.062C255.431 150.338 256.261 149.581 257.05 148.775L253.641 142.128C254.74 140.794 255.699 139.352 256.505 137.824L264.251 137.946C264.674 136.93 265.044 135.892 265.358 134.838L258.905 131.07C259.069 130.24 259.186 129.4 259.255 128.556ZM235.48 138.32C234.232 138.343 232.993 138.1 231.846 137.605C230.7 137.11 229.672 136.375 228.833 135.45C227.994 134.525 227.362 133.432 226.98 132.243C226.599 131.054 226.476 129.797 226.62 128.556C226.888 125.923 228.113 123.48 230.063 121.689C232.012 119.899 234.551 118.885 237.197 118.841C238.44 118.821 239.673 119.066 240.814 119.559C241.955 120.052 242.979 120.782 243.816 121.701C244.653 122.62 245.285 123.706 245.671 124.888C246.056 126.07 246.185 127.321 246.05 128.556C245.793 131.197 244.574 133.651 242.625 135.451C240.676 137.252 238.133 138.273 235.48 138.32Z" fill="#0029DD"/>
<path opacity="0.3" d="M259.255 128.556C259.325 127.745 259.352 126.93 259.337 126.115L266.448 122.348C266.316 121.3 266.129 120.26 265.886 119.232L258.116 119.362C257.583 117.849 256.873 116.404 256.001 115.058L260.573 108.402C259.922 107.604 259.227 106.844 258.49 106.124L251.493 110.111C250.238 109.126 248.873 108.291 247.425 107.621L248.238 99.8671C247.24 99.5397 246.224 99.2681 245.195 99.0534L240.842 105.774C240.032 105.684 239.217 105.638 238.401 105.636C237.567 105.637 236.733 105.683 235.904 105.774L232.73 98.9965C231.657 99.2131 230.595 99.4847 229.549 99.8101L228.996 107.564C227.408 108.24 225.893 109.075 224.472 110.054L218.166 106.067C217.304 106.791 216.482 107.548 215.725 108.345L219.126 115.001C218.033 116.338 217.074 117.78 216.262 119.305L208.516 119.175C208.101 120.192 207.703 121.225 207.41 122.291L213.862 126.058C213.705 126.866 213.588 127.68 213.512 128.499C213.441 129.327 213.414 130.158 213.431 130.989L206.319 134.756C206.447 135.802 206.634 136.84 206.881 137.864L214.643 137.742C215.179 139.254 215.889 140.698 216.758 142.047L212.186 148.694C212.837 149.494 213.532 150.258 214.269 150.98L221.266 146.985C222.52 147.972 223.885 148.808 225.334 149.475L224.521 157.229C225.515 157.56 226.529 157.832 227.556 158.043L231.892 151.338C232.703 151.429 233.518 151.475 234.333 151.477C235.168 151.476 236.002 151.43 236.831 151.338L240.012 158.124C241.087 157.91 242.149 157.639 243.194 157.311L243.747 149.557C245.335 148.882 246.851 148.048 248.271 147.067L254.569 151.062C255.431 150.338 256.261 149.581 257.05 148.775L253.641 142.128C254.74 140.794 255.699 139.352 256.505 137.824L264.251 137.946C264.674 136.93 265.044 135.892 265.358 134.838L258.905 131.07C259.069 130.24 259.186 129.4 259.255 128.556ZM235.48 138.32C234.232 138.343 232.993 138.1 231.846 137.605C230.7 137.11 229.672 136.375 228.833 135.45C227.994 134.525 227.362 133.432 226.98 132.243C226.599 131.054 226.476 129.797 226.62 128.556C226.888 125.923 228.113 123.48 230.063 121.689C232.012 119.899 234.551 118.885 237.197 118.841C238.44 118.821 239.673 119.066 240.814 119.559C241.955 120.052 242.979 120.782 243.816 121.701C244.653 122.62 245.285 123.706 245.671 124.888C246.056 126.07 246.185 127.321 246.05 128.556C245.793 131.197 244.574 133.651 242.625 135.451C240.676 137.252 238.133 138.273 235.48 138.32Z" fill="white"/>
<path d="M227.171 174.422C227.218 173.88 227.237 173.337 227.228 172.794L231.956 170.288C231.866 169.589 231.736 168.897 231.581 168.222L226.423 168.311C226.063 167.307 225.591 166.346 225.015 165.447L228.05 161.029C227.619 160.498 227.157 159.992 226.667 159.516L222.021 162.16C221.18 161.516 220.268 160.97 219.303 160.533L219.84 155.382C219.179 155.16 218.505 154.975 217.823 154.829L214.926 159.337C214.386 159.275 213.842 159.245 213.299 159.247C212.755 159.245 212.212 159.275 211.671 159.337L209.564 154.829C208.85 154.976 208.143 155.161 207.449 155.382L207.082 160.533C206.028 160.975 205.02 161.52 204.072 162.16L199.841 159.475C199.263 159.955 198.718 160.459 198.214 160.988L200.476 165.406C199.75 166.296 199.115 167.255 198.58 168.27L193.429 168.181C193.153 168.856 192.909 169.548 192.697 170.248L196.985 172.754C196.878 173.291 196.799 173.835 196.749 174.381C196.703 174.922 196.684 175.465 196.692 176.008L191.965 178.506C192.054 179.201 192.179 179.891 192.339 180.573L197.506 180.491C197.86 181.497 198.329 182.458 198.905 183.355L195.87 187.774C196.303 188.303 196.765 188.808 197.254 189.287L201.899 186.634C202.739 187.281 203.651 187.828 204.617 188.262L204.08 193.42C204.739 193.632 205.406 193.819 206.098 193.974L208.994 189.466C209.535 189.524 210.078 189.554 210.622 189.555C211.165 189.553 211.709 189.523 212.249 189.466L214.365 193.974C215.081 193.819 215.78 193.632 216.48 193.42L216.838 188.262C217.894 187.823 218.903 187.277 219.849 186.634L224.031 189.287C224.608 188.807 225.154 188.302 225.658 187.774L223.396 183.355C224.124 182.466 224.762 181.507 225.3 180.491L230.442 180.573C230.725 179.898 230.97 179.208 231.175 178.506L226.887 176.008C227.008 175.484 227.103 174.955 227.171 174.422ZM211.159 183.421C210.008 183.437 208.866 183.21 207.809 182.753C206.752 182.295 205.805 181.619 205.029 180.769C204.253 179.918 203.666 178.912 203.308 177.818C202.949 176.724 202.827 175.566 202.949 174.422C203.199 171.989 204.329 169.731 206.127 168.074C207.926 166.416 210.268 165.473 212.713 165.423C213.864 165.406 215.006 165.633 216.063 166.091C217.119 166.548 218.067 167.224 218.843 168.075C219.619 168.925 220.206 169.931 220.564 171.025C220.923 172.119 221.045 173.277 220.923 174.422C220.673 176.854 219.543 179.112 217.744 180.769C215.946 182.427 213.604 183.37 211.159 183.421Z" fill="#0029DD"/>
<path opacity="0.5" d="M227.171 174.422C227.218 173.88 227.237 173.337 227.228 172.794L231.956 170.288C231.866 169.589 231.736 168.897 231.581 168.222L226.423 168.311C226.063 167.307 225.591 166.346 225.015 165.447L228.05 161.029C227.619 160.498 227.157 159.992 226.667 159.516L222.021 162.16C221.18 161.516 220.268 160.97 219.303 160.533L219.84 155.382C219.179 155.16 218.505 154.975 217.823 154.829L214.926 159.337C214.386 159.275 213.842 159.245 213.299 159.247C212.755 159.245 212.212 159.275 211.671 159.337L209.564 154.829C208.85 154.976 208.143 155.161 207.449 155.382L207.082 160.533C206.028 160.975 205.02 161.52 204.072 162.16L199.841 159.475C199.263 159.955 198.718 160.459 198.214 160.988L200.476 165.406C199.75 166.296 199.115 167.255 198.58 168.27L193.429 168.181C193.153 168.856 192.909 169.548 192.697 170.248L196.985 172.754C196.878 173.291 196.799 173.835 196.749 174.381C196.703 174.922 196.684 175.465 196.692 176.008L191.965 178.506C192.054 179.201 192.179 179.891 192.339 180.573L197.506 180.491C197.86 181.497 198.329 182.458 198.905 183.355L195.87 187.774C196.303 188.303 196.765 188.808 197.254 189.287L201.899 186.634C202.739 187.281 203.651 187.828 204.617 188.262L204.08 193.42C204.739 193.632 205.406 193.819 206.098 193.974L208.994 189.466C209.535 189.524 210.078 189.554 210.622 189.555C211.165 189.553 211.709 189.523 212.249 189.466L214.365 193.974C215.081 193.819 215.78 193.632 216.48 193.42L216.838 188.262C217.894 187.823 218.903 187.277 219.849 186.634L224.031 189.287C224.608 188.807 225.154 188.302 225.658 187.774L223.396 183.355C224.124 182.466 224.762 181.507 225.3 180.491L230.442 180.573C230.725 179.898 230.97 179.208 231.175 178.506L226.887 176.008C227.008 175.484 227.103 174.955 227.171 174.422ZM211.159 183.421C210.008 183.437 208.866 183.21 207.809 182.753C206.752 182.295 205.805 181.619 205.029 180.769C204.253 179.918 203.666 178.912 203.308 177.818C202.949 176.724 202.827 175.566 202.949 174.422C203.199 171.989 204.329 169.731 206.127 168.074C207.926 166.416 210.268 165.473 212.713 165.423C213.864 165.406 215.006 165.633 216.063 166.091C217.119 166.548 218.067 167.224 218.843 168.075C219.619 168.925 220.206 169.931 220.564 171.025C220.923 172.119 221.045 173.277 220.923 174.422C220.673 176.854 219.543 179.112 217.744 180.769C215.946 182.427 213.604 183.37 211.159 183.421Z" fill="white"/>
<path d="M193.382 109.973C193.212 111.732 192.401 113.368 191.104 114.569C189.806 115.769 188.112 116.45 186.344 116.482C185.511 116.498 184.685 116.335 183.92 116.006C183.156 115.676 182.471 115.186 181.911 114.569C181.352 113.953 180.931 113.224 180.676 112.431C180.422 111.638 180.34 110.8 180.437 109.973C180.606 108.213 181.417 106.577 182.715 105.377C184.013 104.176 185.707 103.495 187.475 103.463C188.307 103.447 189.134 103.61 189.898 103.939C190.663 104.269 191.348 104.759 191.908 105.376C192.467 105.992 192.888 106.722 193.143 107.514C193.397 108.307 193.478 109.145 193.382 109.973Z" fill="#0029DD"/>
<path opacity="0.4" d="M193.382 109.973C193.212 111.732 192.401 113.368 191.104 114.569C189.806 115.769 188.112 116.45 186.344 116.482C185.511 116.498 184.685 116.335 183.92 116.006C183.156 115.676 182.471 115.186 181.911 114.569C181.352 113.953 180.931 113.224 180.676 112.431C180.422 111.638 180.34 110.8 180.437 109.973C180.606 108.213 181.417 106.577 182.715 105.377C184.013 104.176 185.707 103.495 187.475 103.463C188.307 103.447 189.134 103.61 189.898 103.939C190.663 104.269 191.348 104.759 191.908 105.376C192.467 105.992 192.888 106.722 193.143 107.514C193.397 108.307 193.478 109.145 193.382 109.973Z" fill="white"/>
<path d="M255.365 187.595C255.192 189.354 254.378 190.989 253.079 192.189C251.781 193.389 250.086 194.07 248.318 194.104C247.486 194.118 246.661 193.955 245.897 193.625C245.133 193.295 244.448 192.805 243.889 192.189C243.33 191.572 242.908 190.844 242.654 190.051C242.399 189.259 242.316 188.421 242.411 187.595C242.581 185.835 243.392 184.199 244.69 182.999C245.988 181.798 247.682 181.117 249.449 181.085C250.282 181.069 251.109 181.232 251.874 181.562C252.639 181.891 253.324 182.381 253.884 182.997C254.445 183.614 254.867 184.343 255.122 185.136C255.377 185.929 255.46 186.767 255.365 187.595Z" fill="#0029DD"/>
<path opacity="0.7" d="M255.365 187.595C255.192 189.354 254.378 190.989 253.079 192.189C251.781 193.389 250.086 194.07 248.318 194.104C247.486 194.118 246.661 193.955 245.897 193.625C245.133 193.295 244.448 192.805 243.889 192.189C243.33 191.572 242.908 190.844 242.654 190.051C242.399 189.259 242.316 188.421 242.411 187.595C242.581 185.835 243.392 184.199 244.69 182.999C245.988 181.798 247.682 181.117 249.449 181.085C250.282 181.069 251.109 181.232 251.874 181.562C252.639 181.891 253.324 182.381 253.884 182.997C254.445 183.614 254.867 184.343 255.122 185.136C255.377 185.929 255.46 186.767 255.365 187.595Z" fill="white"/>
<path d="M267.084 173.024C271.177 169.106 271.583 162.887 267.991 159.135C264.399 155.383 258.169 155.517 254.076 159.436C249.982 163.354 249.576 169.573 253.168 173.325C256.76 177.077 262.991 176.943 267.084 173.024Z" fill="#0029DD"/>
<path opacity="0.6" d="M267.084 173.024C271.177 169.106 271.583 162.887 267.991 159.135C264.399 155.383 258.169 155.517 254.076 159.436C249.982 163.354 249.576 169.573 253.168 173.325C256.76 177.077 262.991 176.943 267.084 173.024Z" fill="white"/>
<path d="M149.635 123.244C155.605 117.53 156.199 108.463 150.963 102.994C145.727 97.5239 136.643 97.7225 130.674 103.437C124.704 109.152 124.11 118.218 129.346 123.688C134.582 129.157 143.666 128.959 149.635 123.244Z" fill="#0029DD"/>
<path opacity="0.6" d="M149.635 123.244C155.605 117.53 156.199 108.463 150.963 102.994C145.727 97.5239 136.643 97.7225 130.674 103.437C124.704 109.152 124.11 118.218 129.346 123.688C134.582 129.157 143.666 128.959 149.635 123.244Z" fill="white"/>
<g opacity="0.3">
<path opacity="0.3" d="M225.479 89.9487H218.652L194.593 203.143H201.419L225.479 89.9487Z" fill="white"/>
<path opacity="0.3" d="M187.693 203.143L211.753 89.9487H186.106L162.047 203.143H187.693Z" fill="white"/>
</g>
<path d="M137.645 83.6186H179.003C179.075 83.6067 179.141 83.5695 179.188 83.5136C179.236 83.4577 179.262 83.3868 179.262 83.3134C179.262 83.2401 179.236 83.1692 179.188 83.1133C179.141 83.0574 179.075 83.0202 179.003 83.0083H137.645C137.573 83.0202 137.507 83.0574 137.459 83.1133C137.412 83.1692 137.386 83.2401 137.386 83.3134C137.386 83.3868 137.412 83.4577 137.459 83.5136C137.507 83.5695 137.573 83.6067 137.645 83.6186Z" fill="#0029DD"/>
<path d="M184.977 83.6186H192.446C192.519 83.6067 192.584 83.5695 192.632 83.5136C192.679 83.4577 192.705 83.3868 192.705 83.3134C192.705 83.2401 192.679 83.1692 192.632 83.1133C192.584 83.0574 192.519 83.0202 192.446 83.0083H184.977C184.905 83.0202 184.839 83.0574 184.791 83.1133C184.744 83.1692 184.718 83.2401 184.718 83.3134C184.718 83.3868 184.744 83.4577 184.791 83.5136C184.839 83.5695 184.905 83.6067 184.977 83.6186Z" fill="#0029DD"/>
<path d="M173.171 207.562H214.562C214.634 207.55 214.7 207.512 214.747 207.457C214.795 207.401 214.821 207.33 214.821 207.256C214.821 207.183 214.795 207.112 214.747 207.056C214.7 207 214.634 206.963 214.562 206.951H173.171C173.099 206.963 173.033 207 172.986 207.056C172.938 207.112 172.912 207.183 172.912 207.256C172.912 207.33 172.938 207.401 172.986 207.457C173.033 207.512 173.099 207.55 173.171 207.562Z" fill="#0029DD"/>
<path d="M220.5 207.562H227.97C228.042 207.55 228.108 207.512 228.155 207.457C228.203 207.401 228.229 207.33 228.229 207.256C228.229 207.183 228.203 207.112 228.155 207.056C228.108 207 228.042 206.963 227.97 206.951H220.5C220.428 206.963 220.362 207 220.315 207.056C220.267 207.112 220.241 207.183 220.241 207.256C220.241 207.33 220.267 207.401 220.315 207.457C220.362 207.512 220.428 207.55 220.5 207.562Z" fill="#0029DD"/>
<path d="M233.588 160.443C233.589 160.911 233.73 161.368 233.991 161.756C234.252 162.145 234.622 162.447 235.055 162.625C235.488 162.803 235.964 162.848 236.422 162.756C236.881 162.664 237.302 162.438 237.633 162.106C237.963 161.775 238.188 161.353 238.278 160.894C238.369 160.435 238.322 159.959 238.142 159.527C237.963 159.095 237.659 158.726 237.27 158.466C236.881 158.206 236.424 158.067 235.956 158.067V160.443H233.588Z" fill="#0029DD"/>
<path opacity="0.2" d="M233.588 160.443C233.589 160.911 233.73 161.368 233.991 161.756C234.252 162.145 234.622 162.447 235.055 162.625C235.488 162.803 235.964 162.848 236.422 162.756C236.881 162.664 237.302 162.438 237.633 162.106C237.963 161.775 238.188 161.353 238.278 160.894C238.369 160.435 238.322 159.959 238.142 159.527C237.963 159.095 237.659 158.726 237.27 158.466C236.881 158.206 236.424 158.067 235.956 158.067V160.443H233.588Z" fill="black"/>
<path d="M234.283 168.49C230.971 171.989 224.69 176.391 220.296 172.29C219.523 171.574 218.351 172.737 219.124 173.461C224.291 178.27 231.443 173.885 235.446 169.654C236.178 168.889 235.015 167.717 234.283 168.49Z" fill="#0029DD"/>
<g opacity="0.6">
<path opacity="0.6" d="M234.281 168.49C230.969 171.989 224.688 176.391 220.294 172.29C219.521 171.574 218.349 172.737 219.122 173.462C224.289 178.27 231.441 173.885 235.444 169.654C236.176 168.889 235.013 167.717 234.281 168.49Z" fill="black"/>
</g>
<path d="M245.176 159.922C249.407 155.919 253.784 148.767 248.975 143.609C248.251 142.795 247.088 143.999 247.812 144.772C251.88 149.166 247.503 155.447 244.012 158.759C243.239 159.491 244.403 160.655 245.176 159.922Z" fill="#0029DD"/>
<g opacity="0.6">
<path opacity="0.6" d="M245.178 159.922C249.409 155.919 253.786 148.767 248.977 143.609C248.253 142.795 247.09 143.999 247.814 144.772C251.882 149.166 247.505 155.447 244.014 158.759C243.241 159.491 244.405 160.655 245.178 159.922Z" fill="black"/>
</g>
<path d="M234.997 174.259C233.54 179.914 233.605 188.254 240.415 190.125C240.631 190.18 240.86 190.147 241.052 190.033C241.243 189.92 241.382 189.735 241.437 189.519C241.492 189.303 241.459 189.074 241.345 188.883C241.231 188.691 241.046 188.553 240.83 188.498C235.021 186.87 235.379 179.352 236.591 174.666C236.646 174.45 236.613 174.221 236.5 174.03C236.386 173.838 236.201 173.7 235.985 173.645C235.769 173.59 235.541 173.623 235.349 173.736C235.158 173.85 235.019 174.035 234.964 174.251L234.997 174.259Z" fill="#0029DD"/>
<g opacity="0.6">
<path opacity="0.6" d="M234.995 174.259C233.538 179.914 233.603 188.254 240.414 190.125C240.629 190.18 240.858 190.147 241.05 190.033C241.241 189.92 241.38 189.735 241.435 189.519C241.49 189.303 241.457 189.074 241.343 188.883C241.229 188.691 241.044 188.553 240.828 188.498C235.019 186.87 235.377 179.352 236.589 174.666C236.644 174.45 236.611 174.221 236.498 174.03C236.384 173.838 236.199 173.7 235.983 173.645C235.767 173.59 235.539 173.623 235.347 173.736C235.156 173.85 235.017 174.035 234.962 174.251L234.995 174.259Z" fill="black"/>
</g>
<path d="M250.439 160.826C255.15 159.613 262.701 159.255 264.271 165.065C264.326 165.28 264.465 165.466 264.656 165.579C264.848 165.693 265.077 165.726 265.293 165.671C265.508 165.616 265.693 165.477 265.807 165.286C265.921 165.094 265.954 164.865 265.899 164.65C264.027 157.848 255.687 157.782 250.033 159.231C249.817 159.286 249.632 159.424 249.518 159.616C249.404 159.807 249.371 160.036 249.426 160.252C249.481 160.468 249.62 160.653 249.811 160.766C250.003 160.88 250.232 160.913 250.448 160.858L250.439 160.826Z" fill="#0029DD"/>
<g opacity="0.6">
<path opacity="0.6" d="M250.44 160.826C255.151 159.613 262.702 159.255 264.272 165.065C264.327 165.28 264.466 165.466 264.657 165.579C264.849 165.693 265.078 165.726 265.294 165.671C265.509 165.616 265.694 165.477 265.808 165.286C265.922 165.094 265.955 164.865 265.9 164.65C264.028 157.848 255.688 157.783 250.034 159.231C249.818 159.286 249.633 159.424 249.519 159.616C249.405 159.807 249.372 160.036 249.427 160.252C249.482 160.468 249.621 160.653 249.812 160.767C250.004 160.88 250.233 160.913 250.449 160.858L250.44 160.826Z" fill="black"/>
</g>
<path d="M233.183 174.584C234.052 176.341 235.204 177.944 236.592 179.328C242.597 185.333 251.555 186.114 256.591 181.077C261.628 176.041 260.855 167.083 254.85 161.07C253.464 159.684 251.862 158.532 250.107 157.66L233.183 174.584Z" fill="#0029DD"/>
<path opacity="0.3" d="M233.183 174.584C234.052 176.341 235.204 177.944 236.592 179.328C242.597 185.333 251.555 186.114 256.591 181.077C261.628 176.041 260.855 167.083 254.85 161.07C253.464 159.684 251.862 158.532 250.107 157.66L233.183 174.584Z" fill="black"/>
<path d="M234.875 172.892L248.414 159.353C244.142 157.246 239.268 157.62 236.209 160.687C233.15 163.755 232.767 168.62 234.875 172.892Z" fill="#0029DD"/>
<path opacity="0.5" d="M234.875 172.892L248.414 159.353C244.142 157.246 239.268 157.62 236.209 160.687C233.15 163.755 232.767 168.62 234.875 172.892Z" fill="black"/>
<path opacity="0.2" d="M233.183 174.584C234.052 176.341 235.204 177.944 236.592 179.328C242.597 185.333 251.555 186.114 256.591 181.077L241.653 166.122L233.183 174.584Z" fill="black"/>
<path d="M222.24 167.001C222.839 165.534 223.724 164.201 224.844 163.079C227.773 160.175 231.353 160.752 234.404 163.136C234.608 163.299 234.901 163.014 234.697 162.852C231.882 160.679 228.505 159.662 225.462 161.981C223.855 163.269 222.608 164.951 221.842 166.863C221.736 167.107 222.143 167.213 222.24 166.969V167.001Z" fill="#263238"/>
<path d="M242.418 146.318C240.504 147.085 238.821 148.335 237.536 149.947C235.217 152.99 236.226 156.359 238.398 159.174C238.561 159.385 238.854 159.092 238.691 158.881C236.315 155.805 235.721 152.242 238.626 149.329C239.75 148.21 241.082 147.323 242.548 146.717C242.792 146.619 242.694 146.221 242.45 146.318H242.418Z" fill="#263238"/>
<path d="M241.824 172.599C242.168 172.939 242.403 173.374 242.499 173.848C242.595 174.323 242.549 174.815 242.365 175.262C242.181 175.71 241.868 176.093 241.466 176.362C241.064 176.631 240.591 176.775 240.107 176.775C239.623 176.775 239.15 176.631 238.748 176.362C238.346 176.093 238.033 175.71 237.849 175.262C237.665 174.815 237.619 174.323 237.715 173.848C237.811 173.374 238.046 172.939 238.39 172.599C238.847 172.147 239.464 171.893 240.107 171.893C240.75 171.893 241.367 172.147 241.824 172.599Z" fill="white"/>
<path d="M251.554 162.868C251.898 163.208 252.133 163.643 252.23 164.117C252.326 164.591 252.279 165.084 252.095 165.531C251.911 165.979 251.598 166.361 251.196 166.631C250.794 166.9 250.321 167.044 249.837 167.044C249.354 167.044 248.881 166.9 248.479 166.631C248.077 166.361 247.764 165.979 247.58 165.531C247.396 165.084 247.349 164.591 247.445 164.117C247.542 163.643 247.777 163.208 248.121 162.868C248.578 162.416 249.195 162.162 249.837 162.162C250.48 162.162 251.097 162.416 251.554 162.868Z" fill="white"/>
<path d="M249.431 177.871C249.775 178.212 250.01 178.647 250.106 179.121C250.203 179.595 250.156 180.087 249.972 180.535C249.788 180.982 249.475 181.365 249.073 181.634C248.671 181.904 248.198 182.048 247.714 182.048C247.231 182.048 246.758 181.904 246.356 181.634C245.954 181.365 245.641 180.982 245.457 180.535C245.273 180.087 245.226 179.595 245.322 179.121C245.419 178.647 245.654 178.212 245.998 177.871C246.455 177.419 247.072 177.166 247.714 177.166C248.357 177.166 248.974 177.419 249.431 177.871Z" fill="white"/>
<path d="M256.829 170.475C257.173 170.816 257.408 171.251 257.504 171.725C257.6 172.199 257.553 172.691 257.369 173.139C257.185 173.586 256.873 173.969 256.471 174.238C256.069 174.508 255.596 174.652 255.112 174.652C254.628 174.652 254.155 174.508 253.753 174.238C253.351 173.969 253.038 173.586 252.854 173.139C252.67 172.691 252.623 172.199 252.72 171.725C252.816 171.251 253.051 170.816 253.395 170.475C253.852 170.023 254.469 169.77 255.112 169.77C255.755 169.77 256.372 170.023 256.829 170.475Z" fill="white"/>
<path d="M134.893 191.882C134.491 191.881 134.099 191.998 133.765 192.22C133.43 192.442 133.17 192.757 133.015 193.127C132.86 193.498 132.819 193.905 132.896 194.299C132.974 194.692 133.166 195.054 133.449 195.338C133.732 195.622 134.093 195.816 134.486 195.895C134.879 195.974 135.287 195.934 135.658 195.781C136.028 195.628 136.345 195.368 136.568 195.035C136.791 194.702 136.91 194.31 136.91 193.908H134.893V191.882Z" fill="#0029DD"/>
<path opacity="0.2" d="M134.893 191.882C134.491 191.881 134.099 191.998 133.765 192.22C133.43 192.442 133.17 192.757 133.015 193.127C132.86 193.498 132.819 193.905 132.896 194.299C132.974 194.692 133.166 195.054 133.449 195.338C133.732 195.622 134.093 195.816 134.486 195.895C134.879 195.974 135.287 195.934 135.658 195.781C136.028 195.628 136.345 195.368 136.568 195.035C136.791 194.702 136.91 194.31 136.91 193.908H134.893V191.882Z" fill="black"/>
<path d="M128.012 192.476C125.026 189.645 121.267 184.283 124.757 180.524C125.376 179.865 124.383 178.897 123.756 179.531C119.648 183.941 123.398 190.044 127.011 193.469C127.662 194.096 128.638 193.103 128.004 192.476H128.012Z" fill="#0029DD"/>
<g opacity="0.6">
<path opacity="0.6" d="M128.011 192.476C125.025 189.645 121.266 184.283 124.756 180.524C125.375 179.865 124.382 178.897 123.755 179.531C119.647 183.941 123.397 190.044 127.01 193.469C127.661 194.096 128.637 193.103 128.003 192.476H128.011Z" fill="black"/>
</g>
<path d="M135.334 201.785C138.751 205.397 144.862 209.107 149.272 205.039C149.939 204.421 148.938 203.412 148.279 204.046C144.52 207.545 139.158 203.786 136.326 200.792C135.7 200.133 134.699 201.126 135.334 201.785Z" fill="#0029DD"/>
<g opacity="0.6">
<path opacity="0.6" d="M135.332 201.785C138.749 205.397 144.86 209.107 149.27 205.039C149.937 204.421 148.936 203.412 148.277 204.046C144.518 207.545 139.156 203.786 136.324 200.792C135.698 200.133 134.697 201.126 135.332 201.785Z" fill="black"/>
</g>
<path d="M123.087 193.087C118.254 191.85 111.119 191.899 109.532 197.716C109.508 197.806 109.503 197.899 109.515 197.99C109.528 198.081 109.558 198.169 109.604 198.249C109.651 198.329 109.713 198.399 109.786 198.455C109.859 198.51 109.943 198.551 110.032 198.575C110.122 198.598 110.215 198.604 110.306 198.591C110.397 198.579 110.486 198.549 110.565 198.502C110.645 198.456 110.715 198.394 110.771 198.321C110.826 198.247 110.867 198.164 110.891 198.074C112.25 193.111 118.702 193.42 122.729 194.445C122.819 194.469 122.912 194.475 123.003 194.462C123.094 194.45 123.182 194.42 123.262 194.373C123.342 194.327 123.412 194.265 123.468 194.191C123.523 194.118 123.564 194.034 123.588 193.945C123.611 193.856 123.617 193.763 123.605 193.671C123.592 193.58 123.562 193.492 123.515 193.412C123.469 193.333 123.407 193.263 123.334 193.207C123.26 193.151 123.177 193.11 123.087 193.087Z" fill="#0029DD"/>
<g opacity="0.6">
<path opacity="0.6" d="M123.087 193.087C118.254 191.85 111.119 191.899 109.532 197.716C109.508 197.806 109.503 197.899 109.515 197.99C109.528 198.081 109.558 198.169 109.604 198.249C109.651 198.329 109.713 198.399 109.786 198.455C109.859 198.51 109.943 198.551 110.032 198.575C110.122 198.598 110.215 198.604 110.306 198.591C110.397 198.579 110.486 198.549 110.565 198.502C110.645 198.456 110.715 198.394 110.771 198.321C110.826 198.247 110.867 198.164 110.891 198.074C112.25 193.111 118.702 193.42 122.729 194.445C122.819 194.469 122.912 194.475 123.003 194.462C123.094 194.45 123.182 194.42 123.262 194.373C123.342 194.327 123.412 194.265 123.468 194.191C123.523 194.118 123.564 194.034 123.588 193.945C123.611 193.856 123.617 193.763 123.605 193.671C123.592 193.58 123.562 193.492 123.515 193.412C123.469 193.333 123.407 193.263 123.334 193.207C123.26 193.151 123.177 193.11 123.087 193.087Z" fill="black"/>
</g>
<path d="M134.562 206.284C135.596 210.303 135.905 216.756 130.942 218.123C130.761 218.17 130.607 218.287 130.514 218.448C130.42 218.609 130.394 218.801 130.441 218.981C130.489 219.161 130.606 219.315 130.767 219.409C130.928 219.503 131.119 219.529 131.3 219.481C137.109 217.854 137.166 210.759 135.929 205.926C135.873 205.755 135.753 205.612 135.595 205.526C135.437 205.44 135.252 205.417 135.077 205.463C134.903 205.508 134.753 205.619 134.657 205.771C134.561 205.924 134.528 206.107 134.562 206.284Z" fill="#0029DD"/>
<g opacity="0.6">
<path opacity="0.6" d="M134.558 206.284C135.592 210.303 135.901 216.756 130.938 218.123C130.757 218.17 130.604 218.287 130.51 218.448C130.416 218.609 130.39 218.801 130.437 218.981C130.485 219.161 130.602 219.315 130.763 219.409C130.924 219.503 131.115 219.529 131.296 219.481C137.105 217.854 137.162 210.759 135.925 205.926C135.869 205.755 135.749 205.612 135.591 205.526C135.433 205.44 135.248 205.417 135.074 205.463C134.899 205.508 134.749 205.619 134.653 205.771C134.558 205.924 134.524 206.107 134.558 206.284Z" fill="black"/>
</g>
<path d="M122.805 191.533C121.299 192.279 119.925 193.265 118.737 194.454C113.611 199.58 112.935 207.236 117.248 211.54C121.56 215.844 129.2 215.177 134.334 210.051C135.524 208.866 136.508 207.491 137.247 205.983L122.805 191.533Z" fill="#0029DD"/>
<path opacity="0.3" d="M122.805 191.533C121.299 192.279 119.925 193.265 118.737 194.454C113.611 199.58 112.935 207.236 117.248 211.54C121.56 215.844 129.2 215.177 134.334 210.051C135.524 208.866 136.508 207.491 137.247 205.983L122.805 191.533Z" fill="black"/>
<path d="M124.251 192.981L135.821 204.551C137.619 200.898 137.302 196.74 134.682 194.12C132.062 191.5 127.904 191.207 124.251 192.981Z" fill="#0029DD"/>
<path opacity="0.5" d="M124.251 192.981L135.821 204.551C137.619 200.898 137.302 196.74 134.682 194.12C132.062 191.5 127.904 191.207 124.251 192.981Z" fill="black"/>
<path opacity="0.2" d="M122.805 191.533C121.299 192.279 119.925 193.265 118.737 194.454C113.611 199.58 112.935 207.236 117.248 211.54L130.022 198.766L122.805 191.533Z" fill="black"/>
<path d="M129.289 182.184C130.543 182.698 131.682 183.456 132.641 184.413C135.082 186.911 134.618 189.938 132.584 192.55C132.446 192.721 132.698 192.973 132.836 192.794C134.691 190.394 135.554 187.513 133.577 184.91C132.466 183.533 131.02 182.466 129.378 181.81C129.167 181.728 129.077 182.07 129.289 182.151V182.184Z" fill="#263238"/>
<path d="M146.961 199.425C146.307 197.782 145.239 196.335 143.861 195.227C141.257 193.249 138.377 194.112 135.977 195.967C135.798 196.105 136.042 196.358 136.221 196.219C138.857 194.185 141.916 193.681 144.357 196.162C145.31 197.125 146.067 198.263 146.587 199.514C146.668 199.726 147.01 199.637 146.928 199.425H146.961Z" fill="#263238"/>
<path d="M124.488 198.921C124.197 199.21 123.828 199.407 123.425 199.487C123.023 199.567 122.606 199.526 122.227 199.368C121.848 199.211 121.524 198.945 121.297 198.604C121.069 198.263 120.947 197.862 120.947 197.452C120.947 197.042 121.069 196.641 121.297 196.3C121.524 195.959 121.848 195.693 122.227 195.535C122.606 195.378 123.023 195.337 123.425 195.417C123.828 195.496 124.197 195.694 124.488 195.983C124.874 196.375 125.09 196.902 125.09 197.452C125.09 198.002 124.874 198.529 124.488 198.921Z" fill="white"/>
<path d="M132.811 207.236C132.521 207.526 132.151 207.723 131.748 207.803C131.346 207.882 130.929 207.841 130.55 207.684C130.171 207.527 129.848 207.261 129.62 206.92C129.392 206.579 129.271 206.178 129.271 205.767C129.271 205.357 129.392 204.956 129.62 204.615C129.848 204.274 130.171 204.008 130.55 203.851C130.929 203.694 131.346 203.652 131.748 203.732C132.151 203.812 132.521 204.009 132.811 204.299C133.004 204.491 133.157 204.72 133.262 204.972C133.366 205.224 133.42 205.495 133.42 205.767C133.42 206.04 133.366 206.31 133.262 206.562C133.157 206.814 133.004 207.043 132.811 207.236Z" fill="white"/>
<path d="M119.996 205.413C119.706 205.704 119.336 205.903 118.933 205.983C118.531 206.064 118.113 206.023 117.734 205.866C117.354 205.71 117.03 205.444 116.801 205.102C116.573 204.761 116.451 204.36 116.451 203.949C116.451 203.538 116.573 203.137 116.801 202.795C117.03 202.454 117.354 202.188 117.734 202.031C118.113 201.875 118.531 201.834 118.933 201.914C119.336 201.995 119.706 202.193 119.996 202.484C120.383 202.873 120.601 203.4 120.601 203.949C120.601 204.498 120.383 205.025 119.996 205.413Z" fill="white"/>
<path d="M126.318 211.744C126.027 212.033 125.658 212.231 125.255 212.31C124.853 212.39 124.436 212.349 124.057 212.191C123.678 212.034 123.355 211.768 123.127 211.427C122.899 211.086 122.777 210.685 122.777 210.275C122.777 209.865 122.899 209.464 123.127 209.123C123.355 208.782 123.678 208.516 124.057 208.359C124.436 208.201 124.853 208.16 125.255 208.24C125.658 208.319 126.027 208.517 126.318 208.806C126.704 209.198 126.92 209.725 126.92 210.275C126.92 210.825 126.704 211.352 126.318 211.744Z" fill="white"/>
<path d="M161.567 107.54C161.305 107.379 161.002 107.3 160.695 107.311C160.389 107.322 160.092 107.424 159.844 107.604C159.595 107.784 159.405 108.033 159.297 108.32C159.19 108.608 159.17 108.921 159.24 109.219C159.311 109.518 159.468 109.789 159.692 109.999C159.916 110.209 160.197 110.347 160.5 110.397C160.802 110.447 161.113 110.407 161.393 110.28C161.672 110.154 161.908 109.948 162.071 109.688L160.753 108.874L161.567 107.54Z" fill="#0029DD"/>
<path opacity="0.2" d="M161.567 107.54C161.305 107.379 161.002 107.3 160.695 107.311C160.389 107.322 160.092 107.424 159.844 107.604C159.595 107.784 159.405 108.033 159.297 108.32C159.19 108.608 159.17 108.921 159.24 109.219C159.311 109.518 159.468 109.789 159.692 109.999C159.916 110.209 160.197 110.347 160.5 110.397C160.802 110.447 161.113 110.407 161.393 110.28C161.672 110.154 161.908 109.948 162.071 109.688L160.753 108.874L161.567 107.54Z" fill="black"/>
<path d="M156.831 105.148C156.017 102.088 155.732 97.0518 159.54 96.0104C160.207 95.8232 159.963 94.7736 159.288 94.9526C154.821 96.1812 154.797 101.69 155.773 105.392C155.952 106.067 157.01 105.823 156.831 105.148Z" fill="#0029DD"/>
<g opacity="0.6">
<path opacity="0.6" d="M156.828 105.148C156.014 102.088 155.729 97.0518 159.537 96.0104C160.205 95.8232 159.96 94.7736 159.285 94.9526C154.818 96.1812 154.794 101.69 155.77 105.392C155.949 106.067 157.007 105.823 156.828 105.148Z" fill="black"/>
</g>
<path d="M157.848 114.195C158.662 117.946 161.103 122.869 165.659 121.966C166.343 121.827 166.091 120.77 165.415 120.908C161.534 121.722 159.549 117.043 158.906 113.943C158.768 113.26 157.71 113.512 157.848 114.195Z" fill="#0029DD"/>
<g opacity="0.6">
<path opacity="0.6" d="M157.846 114.195C158.66 117.946 161.101 122.869 165.657 121.966C166.341 121.827 166.089 120.77 165.413 120.908C161.532 121.722 159.547 117.043 158.904 113.943C158.766 113.26 157.708 113.512 157.846 114.195Z" fill="black"/>
</g>
<path d="M153.356 103.553C150.695 100.786 146.033 97.9387 142.616 101.112C142.111 101.584 142.852 102.373 143.364 101.926C146.261 99.2324 150.362 102.039 152.575 104.367C153.055 104.863 153.844 104.122 153.388 103.618L153.356 103.553Z" fill="#0029DD"/>
<g opacity="0.6">
<path opacity="0.6" d="M153.354 103.553C150.693 100.786 146.031 97.9387 142.614 101.112C142.109 101.584 142.85 102.373 143.362 101.926C146.259 99.2324 150.36 102.04 152.573 104.367C153.053 104.863 153.842 104.122 153.387 103.618L153.354 103.553Z" fill="black"/>
</g>
<path d="M155.527 116.824C154.575 119.875 152.167 124.22 148.367 123.105C148.23 123.063 148.082 123.077 147.955 123.144C147.829 123.211 147.734 123.326 147.692 123.463C147.65 123.6 147.664 123.748 147.731 123.875C147.798 124.001 147.913 124.096 148.05 124.138C152.5 125.448 155.421 120.81 156.561 117.141C156.581 117.073 156.589 117.002 156.582 116.931C156.575 116.86 156.555 116.792 156.521 116.729C156.488 116.666 156.443 116.611 156.388 116.566C156.333 116.52 156.27 116.486 156.203 116.466C156.066 116.423 155.917 116.438 155.791 116.505C155.664 116.572 155.569 116.687 155.527 116.824Z" fill="#0029DD"/>
<g opacity="0.6">
<path opacity="0.6" d="M155.527 116.824C154.575 119.875 152.167 124.22 148.367 123.105C148.23 123.063 148.082 123.077 147.955 123.144C147.829 123.211 147.734 123.326 147.692 123.463C147.65 123.6 147.664 123.748 147.731 123.875C147.798 124.001 147.913 124.096 148.05 124.138C152.5 125.448 155.421 120.81 156.561 117.141C156.581 117.073 156.589 117.002 156.582 116.931C156.575 116.86 156.555 116.792 156.521 116.729C156.488 116.666 156.443 116.611 156.388 116.566C156.333 116.52 156.27 116.486 156.203 116.465C156.066 116.423 155.917 116.437 155.791 116.505C155.664 116.572 155.569 116.686 155.527 116.824Z" fill="black"/>
</g>
<path d="M153.78 102.422C152.496 102.303 151.202 102.394 149.947 102.69C144.512 103.968 140.997 108.703 142.055 113.268C143.113 117.832 148.41 120.485 153.845 119.207C155.099 118.91 156.297 118.413 157.392 117.735L153.78 102.422Z" fill="#0029DD"/>
<path opacity="0.3" d="M153.78 102.422C152.496 102.303 151.202 102.394 149.947 102.69C144.512 103.968 140.997 108.703 142.055 113.268C143.113 117.832 148.41 120.485 153.845 119.207C155.099 118.91 156.297 118.413 157.392 117.735L153.78 102.422Z" fill="black"/>
<path d="M154.162 103.952L157.034 116.205C159.687 114.578 161.168 111.689 160.509 108.882C159.85 106.075 157.278 104.253 154.162 103.952Z" fill="#0029DD"/>
<path opacity="0.5" d="M154.162 103.952L157.034 116.205C159.687 114.578 161.168 111.689 160.509 108.882C159.85 106.075 157.278 104.253 154.162 103.952Z" fill="black"/>
<path opacity="0.2" d="M153.78 102.422C152.496 102.303 151.202 102.394 149.947 102.69C144.512 103.968 140.997 108.703 142.055 113.268L155.586 110.078L153.78 102.422Z" fill="black"/>
<path d="M161.826 98.9232C162.438 99.7673 162.878 100.724 163.119 101.738C163.73 104.383 162.176 106.157 159.775 107.06C159.621 107.125 159.678 107.385 159.84 107.328C162.029 106.515 163.762 104.969 163.518 102.446C163.351 101.095 162.835 99.8108 162.021 98.7198C161.923 98.5815 161.728 98.7686 161.826 98.907V98.9232Z" fill="#263238"/>
<path d="M166.416 117.352C166.653 116.014 166.538 114.638 166.082 113.357C165.187 111.006 162.95 110.412 160.623 110.648C160.452 110.648 160.517 110.933 160.688 110.916C163.234 110.648 165.423 111.543 166.05 114.171C166.288 115.187 166.324 116.241 166.155 117.271C166.155 117.442 166.383 117.515 166.416 117.344V117.352Z" fill="#263238"/>
<path d="M151.924 107.938C151.609 108.019 151.278 108.003 150.973 107.894C150.667 107.785 150.401 107.586 150.209 107.325C150.017 107.063 149.908 106.751 149.895 106.426C149.882 106.102 149.966 105.782 150.137 105.506C150.308 105.23 150.557 105.011 150.853 104.878C151.149 104.745 151.477 104.703 151.797 104.758C152.117 104.813 152.413 104.963 152.647 105.187C152.881 105.412 153.043 105.701 153.111 106.018C153.2 106.43 153.126 106.86 152.905 107.218C152.683 107.576 152.332 107.834 151.924 107.938Z" fill="white"/>
<path d="M153.999 116.742C153.684 116.822 153.353 116.807 153.048 116.698C152.742 116.588 152.476 116.39 152.284 116.129C152.092 115.867 151.983 115.554 151.97 115.23C151.957 114.906 152.041 114.585 152.212 114.309C152.383 114.033 152.632 113.815 152.928 113.682C153.224 113.548 153.553 113.507 153.872 113.562C154.192 113.617 154.488 113.766 154.722 113.991C154.956 114.215 155.118 114.505 155.187 114.822C155.276 115.233 155.201 115.663 154.98 116.022C154.758 116.38 154.407 116.638 153.999 116.742Z" fill="white"/>
<path d="M146.351 110.363C146.036 110.445 145.704 110.432 145.398 110.324C145.091 110.216 144.824 110.018 144.631 109.757C144.437 109.495 144.327 109.182 144.313 108.857C144.299 108.533 144.383 108.211 144.554 107.934C144.725 107.658 144.974 107.439 145.271 107.305C145.567 107.172 145.897 107.13 146.217 107.186C146.537 107.241 146.834 107.391 147.068 107.617C147.302 107.843 147.463 108.133 147.531 108.451C147.618 108.86 147.543 109.287 147.324 109.643C147.104 109.999 146.756 110.257 146.351 110.363Z" fill="white"/>
<path d="M147.928 117.059C147.614 117.141 147.283 117.127 146.976 117.019C146.67 116.911 146.403 116.714 146.21 116.453C146.017 116.192 145.906 115.879 145.892 115.555C145.878 115.231 145.961 114.91 146.131 114.633C146.301 114.356 146.55 114.137 146.846 114.003C147.142 113.869 147.471 113.826 147.791 113.88C148.111 113.935 148.407 114.084 148.642 114.308C148.877 114.533 149.039 114.822 149.108 115.139C149.197 115.55 149.124 115.979 148.904 116.337C148.685 116.695 148.335 116.954 147.928 117.059Z" fill="white"/>
<path d="M310.23 169.353C310.23 169.353 307.618 221.735 318.554 241.222C328.212 258.423 342.027 279.219 342.027 279.219L350.831 273.711C350.831 273.711 338.285 244.347 332.866 236.568C329.684 232.012 328.472 225.25 329.928 213.696C331.881 198.237 333.997 180.752 326.291 165.032L310.23 169.353Z" fill="#263238"/>
<path opacity="0.5" d="M316.242 178.791C316.242 178.791 317.43 189.035 310.864 205.446C310.351 197.668 310.221 190.166 310.229 184.413L310.318 184.234L316.242 178.791Z" fill="black"/>
<path d="M349.405 274.712L354.734 283.459L349.917 285.9L344.661 278.227L349.405 274.712Z" fill="#FFC3BD"/>
<path d="M346.144 285.273C345.638 285.687 344.998 285.901 344.345 285.875C344.24 285.829 344.151 285.753 344.09 285.655C344.029 285.558 343.999 285.445 344.004 285.33C343.991 285.131 344.052 284.934 344.174 284.777C344.891 283.963 347.429 283.825 347.502 283.817C347.533 283.815 347.563 283.823 347.589 283.839C347.615 283.855 347.636 283.878 347.649 283.906C347.665 283.932 347.673 283.961 347.673 283.991C347.673 284.022 347.665 284.051 347.649 284.077C347.183 284.518 346.679 284.918 346.144 285.273ZM344.655 284.793C344.574 284.846 344.5 284.909 344.435 284.98C344.39 285.022 344.354 285.074 344.332 285.132C344.309 285.19 344.3 285.252 344.305 285.314C344.305 285.525 344.394 285.582 344.459 285.598C344.923 285.777 346.241 284.931 347.136 284.175C346.279 284.219 345.437 284.423 344.655 284.777V284.793Z" fill="#0029DD"/>
<path d="M347.624 284.093H347.567C346.753 284.223 344.776 283.906 344.5 283.28C344.418 283.125 344.418 282.881 344.736 282.629C344.848 282.537 344.979 282.468 345.118 282.428C345.258 282.387 345.405 282.375 345.549 282.393C346.566 282.507 347.624 283.825 347.673 283.882C347.686 283.905 347.694 283.932 347.694 283.959C347.694 283.986 347.686 284.013 347.673 284.036C347.662 284.059 347.645 284.079 347.624 284.093ZM344.988 282.808L344.915 282.848C344.703 283.011 344.744 283.109 344.76 283.149C344.955 283.524 346.387 283.873 347.25 283.841C346.805 283.286 346.2 282.883 345.517 282.686C345.331 282.659 345.143 282.703 344.988 282.808Z" fill="#0029DD"/>
<path d="M347.705 283.003L353.4 279.293C353.505 279.225 353.629 279.195 353.753 279.206C353.877 279.218 353.994 279.272 354.084 279.358L358.152 283.328C358.237 283.413 358.305 283.514 358.351 283.625C358.397 283.736 358.421 283.855 358.421 283.975C358.421 284.095 358.397 284.215 358.351 284.326C358.305 284.437 358.237 284.537 358.152 284.622L358.005 284.777C355.922 286.078 354.027 287.152 351.496 288.845C348.478 290.814 349.478 290.676 345.963 293.035C343.84 294.459 341.895 292.278 342.709 291.571C346.525 288.316 346.134 286.811 346.777 284.248C346.924 283.733 347.254 283.291 347.705 283.003Z" fill="#263238"/>
<path opacity="0.1" d="M348.208 272.954L350.21 276.233L345.458 279.219L343.709 276.673L348.208 272.954Z" fill="black"/>
<path d="M349.992 269.537L351.944 273.556L341.733 280.074L338.698 276.526L349.992 269.537Z" fill="#0029DD"/>
<path d="M300.058 167.611C300.058 167.611 275.233 216.227 276.82 236.291C278.407 256.356 285.957 282.669 285.957 282.669L295.827 281.172C295.827 281.172 294.834 253.37 291.58 237.886C290.424 232.378 295.566 222.036 301.685 212.435C309.87 199.596 321.587 184.91 317.836 167.62L300.058 167.611Z" fill="#263238"/>
<path d="M293.567 278.837L294.86 289L289.466 289.26L287.798 280.114L293.567 278.837Z" fill="#FFC3BD"/>
<path d="M286.403 289.748C285.754 289.818 285.101 289.644 284.573 289.26C284.507 289.166 284.472 289.053 284.472 288.938C284.472 288.824 284.507 288.711 284.573 288.617C284.682 288.449 284.851 288.327 285.045 288.275C286.086 287.999 288.25 289.26 288.348 289.317C288.373 289.333 288.393 289.356 288.405 289.384C288.417 289.412 288.419 289.442 288.413 289.471C288.407 289.502 288.393 289.529 288.371 289.551C288.349 289.573 288.321 289.588 288.291 289.593C287.668 289.701 287.036 289.753 286.403 289.748ZM285.419 288.528C285.327 288.516 285.234 288.516 285.142 288.528C285.08 288.537 285.021 288.562 284.971 288.598C284.92 288.635 284.878 288.683 284.849 288.739C284.735 288.918 284.776 289.008 284.849 289.056C285.134 289.463 286.705 289.488 287.868 289.358C287.103 288.922 286.26 288.64 285.386 288.528H285.419Z" fill="#0029DD"/>
<path d="M288.259 289.585H288.194C287.453 289.244 285.964 287.885 286.103 287.144C286.103 286.982 286.249 286.778 286.656 286.738C286.802 286.723 286.95 286.739 287.09 286.784C287.23 286.829 287.359 286.902 287.47 286.998C288.283 287.657 288.405 289.341 288.414 289.439C288.417 289.466 288.413 289.493 288.402 289.518C288.39 289.542 288.372 289.563 288.348 289.577C288.335 289.585 288.32 289.59 288.305 289.591C288.289 289.593 288.274 289.591 288.259 289.585ZM286.754 287.055H286.664C286.404 287.055 286.388 287.177 286.371 287.218C286.371 287.641 287.307 288.707 288.072 289.17C288.007 288.461 287.722 287.79 287.258 287.25C287.12 287.125 286.94 287.058 286.754 287.063V287.055Z" fill="#0029DD"/>
<path d="M288.927 288.723L295.729 288.78C295.854 288.783 295.974 288.828 296.07 288.907C296.166 288.987 296.232 289.097 296.258 289.219L297.438 294.76C297.465 294.877 297.469 294.999 297.449 295.117C297.429 295.236 297.386 295.349 297.321 295.451C297.257 295.552 297.173 295.64 297.074 295.709C296.975 295.777 296.864 295.825 296.746 295.85H296.559C294.118 295.785 291.921 295.639 288.87 295.614C285.266 295.614 286.177 296.021 281.938 296.046C279.383 296.046 278.943 293.149 280.026 293.019C284.989 292.441 285.518 290.944 287.438 289.187C287.863 288.859 288.391 288.695 288.927 288.723Z" fill="#263238"/>
<path opacity="0.1" d="M293.769 280.44L294.249 284.248L288.692 285.029L288.139 281.994L293.769 280.44Z" fill="black"/>
<path d="M296.658 277.942L296.796 282.409L284.811 284.183L283.493 279.708L296.658 277.942Z" fill="#0029DD"/>
<path d="M297.69 124.675L291.579 115.725C291.579 115.725 291.53 111.112 290.399 109.712C289.269 108.313 288.227 109.525 287.535 109.444C286.624 109.33 285.867 106.563 284.427 108.524C282.987 110.485 282.922 112.373 284.631 113.992L288.048 117.247C290.137 121.705 292.459 126.051 295.005 130.265L297.69 124.675Z" fill="#FFC3BD"/>
<path d="M323.783 92.4141C328.695 98.2283 333.21 104.366 337.298 110.786C344.246 121.876 350.747 134.382 362 130.184C383.334 122.161 362.277 72.6262 362.277 72.6262L358.599 71.7393L350.992 74.4325L337.029 81.6089L328.299 86.8732L324.572 89.5663L323.783 92.4141Z" fill="#0029DD"/>
<path opacity="0.7" d="M323.783 92.4141C328.695 98.2283 333.21 104.366 337.298 110.786C344.246 121.876 350.747 134.382 362 130.184C383.334 122.161 362.277 72.6262 362.277 72.6262L358.599 71.7393L350.992 74.4325L337.029 81.6089L328.299 86.8732L324.572 89.5663L323.783 92.4141Z" fill="white"/>
<path opacity="0.1" d="M368.176 125.342C354.539 134.293 347.957 116.392 345.255 110.485C342.001 103.439 335.492 91.3726 331.855 84.7251L328.299 86.8732L324.572 89.5663L323.759 92.4141C328.67 98.2283 333.185 104.366 337.273 110.786C344.222 121.876 350.723 134.382 361.976 130.184C364.503 129.267 366.674 127.572 368.176 125.342Z" fill="black"/>
<path d="M341.399 79.3631C330.773 84.8227 322.897 90.6973 323.808 92.471C324.719 94.2448 334.084 91.2668 344.711 85.7991C355.337 80.3314 363.221 74.465 362.302 72.6831C361.382 70.9012 352.034 73.8954 341.399 79.3631Z" fill="#0029DD"/>
<path opacity="0.4" d="M341.399 79.3631C330.773 84.8227 322.897 90.6973 323.808 92.471C324.719 94.2448 334.084 91.2668 344.711 85.7991C355.337 80.3314 363.221 74.465 362.302 72.6831C361.382 70.9012 352.034 73.8954 341.399 79.3631Z" fill="white"/>
<path d="M340.757 78.5088C335.639 81.1532 330.293 83.7812 325.737 87.3531C324.508 88.3133 322.417 90.0056 322.344 91.8201L315.241 95.4734L261.304 123.202C260.645 123.536 261.735 125.643 262.386 125.31L270.27 121.242L323.426 93.9111C324.947 94.9119 327.543 94.1878 329.032 93.7484C334.581 92.1211 339.862 89.314 344.971 86.686C350.081 84.0579 355.443 81.4054 359.999 77.8335C361.48 76.67 364.279 74.4162 363.124 72.1379C361.968 69.8597 358.519 70.8524 356.704 71.3812C351.139 73.0655 345.891 75.8807 340.757 78.5088ZM341.847 80.6161C343.621 79.7049 359.601 70.8524 360.984 73.4072C362.139 75.539 345.394 83.8219 343.897 84.5949C342.27 85.4492 325.997 94.261 324.809 91.9177C323.621 89.5744 340.195 81.4623 341.847 80.6161Z" fill="#0029DD"/>
<path opacity="0.2" d="M341.847 80.6162C343.62 79.7049 359.6 70.8524 360.984 73.4073C362.139 75.539 345.394 83.822 343.897 84.5949C342.27 85.4493 325.997 94.2611 324.809 91.9178C323.621 89.5745 340.195 81.4624 341.847 80.6162Z" fill="white"/>
<path d="M291.964 94.8712C291.964 94.8712 286.667 99.8752 292.281 101.738L293.819 96.7833L291.964 94.8712Z" fill="#263238"/>
<path d="M291.351 104.513C291.392 105.034 291.693 105.441 292.035 105.416C292.377 105.392 292.645 104.92 292.596 104.407C292.547 103.895 292.246 103.48 291.905 103.512C291.563 103.545 291.286 103.984 291.351 104.513Z" fill="#263238"/>
<path d="M293.435 105.042L290.758 109.11C291.232 109.426 291.774 109.625 292.339 109.692C292.905 109.758 293.478 109.69 294.012 109.493L293.435 105.042Z" fill="#ED893E"/>
<path d="M315.192 119.216C315.192 119.216 310.693 119.525 309.367 111.38C309.367 111.38 304.965 110.217 302.727 113.073C300.49 115.928 306.494 120.68 303.622 123.601C300.75 126.522 315.192 119.216 315.192 119.216Z" fill="#FFC3BD"/>
<path opacity="0.1" d="M305.738 115.945C305.239 117.123 304.597 118.235 303.826 119.256C303.411 118.247 302.874 117.214 302.54 116.23L305.738 115.945Z" fill="black"/>
<path d="M311.279 99.4277C312.134 106.368 312.646 109.297 309.831 113.463C305.201 118.036 296.87 119.273 293.957 112.723C291.337 106.824 290.385 96.4497 296.593 92.4629C297.645 91.7799 298.822 91.3113 300.056 91.0839C301.29 90.8566 302.557 90.8749 303.783 91.138C305.01 91.401 306.173 91.9036 307.205 92.6168C308.237 93.33 309.119 94.2399 309.798 95.2944C310.603 96.5402 311.11 97.9545 311.279 99.4277Z" fill="#FFC3BD"/>
<path d="M290.994 100.437C291.04 100.439 291.083 100.453 291.122 100.477C291.16 100.502 291.192 100.535 291.214 100.575C291.379 100.875 291.612 101.132 291.895 101.326C292.177 101.52 292.502 101.644 292.841 101.69C292.912 101.696 292.979 101.728 293.027 101.781C293.075 101.834 293.102 101.903 293.102 101.974C293.099 102.011 293.09 102.046 293.074 102.079C293.058 102.112 293.036 102.141 293.009 102.165C292.982 102.19 292.95 102.208 292.916 102.22C292.881 102.232 292.845 102.237 292.809 102.235C292.376 102.191 291.961 102.042 291.599 101.801C291.237 101.56 290.94 101.234 290.734 100.852C290.715 100.821 290.703 100.786 290.697 100.751C290.692 100.715 290.694 100.679 290.703 100.644C290.712 100.609 290.728 100.576 290.75 100.547C290.772 100.519 290.8 100.495 290.831 100.477C290.881 100.45 290.937 100.436 290.994 100.437Z" fill="#263238"/>
<path d="M300.311 104.96C300.311 104.96 299.562 99.9972 297.178 98.8093C297.178 98.8093 298.204 101.25 295.551 100.73C292.899 100.209 289.587 97.1007 292.589 93.065C295.592 89.0293 303.077 86.4744 307.87 91.1122C307.87 91.1122 316.071 92.6825 315.648 105.31C315.575 107.491 313.386 108.264 312.719 109.655C310.091 115.147 304.135 115.815 302.955 109.834C302.646 107.959 301.714 106.242 300.311 104.96Z" fill="#263238"/>
<path d="M301.155 104.456C301.155 104.456 298.552 103.699 297.901 106.083C297.925 106.108 297.461 101.706 301.155 104.456Z" fill="#263238"/>
<path d="M314.266 91.8608C314.266 91.8608 312.362 89.9324 310.637 91.7225C310.637 91.7225 312.386 87.6705 314.266 91.8608Z" fill="#263238"/>
<path d="M300.464 104.147C300.025 104.702 299.701 105.339 299.511 106.021C299.321 106.703 299.269 107.415 299.357 108.117C299.601 109.997 301.473 110.217 302.864 109.086C304.125 108.061 305.5 105.831 304.548 104.261C304.336 103.915 304.041 103.628 303.69 103.425C303.338 103.222 302.942 103.11 302.537 103.099C302.131 103.088 301.73 103.178 301.368 103.361C301.006 103.543 300.695 103.814 300.464 104.147Z" fill="#FFC3BD"/>
<path d="M327.185 164.178C326.168 153.674 331.205 132.592 323.296 122.592C318.032 115.937 296.21 119.427 293.533 125.782C292.117 129.142 296.364 145.464 297.861 151.916C298.675 155.366 299.668 168.352 299.668 168.352C299.668 168.352 306.291 169.711 316.323 168.628C319.911 168.238 323.516 168.352 327.616 166.903C327.616 166.903 327.25 164.853 327.185 164.178Z" fill="#0029DD"/>
<path opacity="0.1" d="M293.288 136.457L297.731 131.258L299.757 129.842C299.757 129.842 298.007 138.32 295.355 143.723C294.582 141.363 293.833 138.873 293.288 136.457Z" fill="black"/>
<path d="M294.313 128.019L282.922 138.434L276.152 124L274.615 119.037C274.615 119.037 272.32 116.758 271.938 115.147C271.555 113.536 268.122 116.604 267.796 117.922C267.471 119.24 265.77 121.836 268.301 123.276C269.676 124.013 270.903 124.998 271.921 126.18C271.921 126.18 276.592 146.522 281.36 147.335C286.128 148.149 297.503 135.131 297.503 135.131L294.313 128.019Z" fill="#FFC3BD"/>
<path d="M296.528 122.592C296.528 122.592 291.419 123.959 288.864 130.818C288.864 130.818 287.237 130.607 286.618 132.828C289.184 135.3 291.272 138.224 292.777 141.453C293.337 141.325 293.839 141.017 294.207 140.576C294.574 140.135 294.787 139.585 294.812 139.012C294.812 139.012 304.868 128.841 296.528 122.592Z" fill="#0029DD"/>
<path d="M119.139 114.977L121.58 110.428C121.58 110.428 120.27 107.621 120.888 105.701C121.506 103.781 122.735 103.878 123.101 102.511C123.467 101.145 125.355 100.949 125.355 100.949C125.355 100.949 129.708 105.701 128.821 107.759C127.934 109.818 125.168 112.267 125.168 112.267L122.629 118.125L119.139 114.977Z" fill="#FFB573"/>
<path d="M93.3691 91.7876C93.3691 91.7876 97.7058 91.3645 100.554 97.06C103.401 102.756 110.862 119.175 113.165 118.972C115.468 118.768 119.487 112.942 119.487 112.942C119.487 112.942 121.171 112.788 124.019 116.856C124.019 116.856 119.137 127.572 111.538 127.572C104.931 127.572 97.5756 114.692 97.5756 114.692C97.5756 114.692 91.0664 97.8981 93.3691 91.7876Z" fill="#263238"/>
<path opacity="0.2" d="M96.6406 112.104C97.1858 113.691 97.5763 114.692 97.5763 114.692C99.011 117.109 100.644 119.403 102.458 121.551C100.782 114.008 97.0474 102.284 97.0474 102.284L96.6406 112.104Z" fill="black"/>
<path d="M72.3688 90.3149C74.8098 87.5159 73.9961 81.9668 73.2964 78.1102L80.9528 84.6193C80.1799 87.7356 80.0497 89.55 84.5329 90.6241L89.7972 91.7469L91.156 97.2309C91.156 97.2309 88.6418 100.152 87.6247 100.485C86.6077 100.819 80.0334 100.892 80.0334 100.892L75.7536 100.217C75.7536 100.217 70.2696 96.5555 70.1313 96.2138C69.3663 95.2887 68.5515 94.4059 67.6904 93.5695L67.3242 91.4296L71.604 90.7217C71.8971 90.6749 72.1662 90.5318 72.3688 90.3149Z" fill="#FFB573"/>
<path opacity="0.2" d="M76.4058 80.7464L80.9053 84.6519C80.7089 85.376 80.5808 86.117 80.5229 86.8651C78.8061 86.6128 76.121 85.1564 75.7549 83.3013C75.7562 82.4088 75.9799 81.5307 76.4058 80.7464Z" fill="black"/>
<path d="M68.3505 71.9346C70.0673 78.2404 70.6612 80.9417 74.5667 83.5453C80.4494 87.4671 87.8129 83.9684 88.0163 77.2803C88.1953 71.2593 85.3476 61.9267 78.5618 60.7225C77.0702 60.4532 75.5346 60.5672 74.0991 61.0536C72.6635 61.5401 71.3751 62.3832 70.3545 63.5038C69.3339 64.6244 68.6146 65.9859 68.2641 67.4605C67.9136 68.9351 67.9433 70.4746 68.3505 71.9346Z" fill="#FFB573"/>
<path d="M78.8785 71.4871C78.9924 72.0078 79.3504 72.374 79.6921 72.3007C80.0339 72.2275 80.221 71.7475 80.1152 71.2267C80.0094 70.706 79.6352 70.3398 79.3016 70.4131C78.968 70.4863 78.7971 70.9908 78.8785 71.4871Z" fill="#263238"/>
<path d="M84.7529 70.2829C84.8668 70.8118 85.2248 71.1617 85.5665 71.0966C85.9082 71.0315 86.0954 70.5433 85.9896 70.0225C85.8838 69.5018 85.5095 69.1438 85.176 69.2089C84.8424 69.274 84.6227 69.7622 84.7529 70.2829Z" fill="#263238"/>
<path d="M83.1328 71.601C83.8457 72.6902 84.7054 73.6759 85.6877 74.5301C85.4606 74.7752 85.1828 74.9676 84.8736 75.0941C84.5644 75.2206 84.2313 75.278 83.8976 75.2624L83.1328 71.601Z" fill="#ED893E"/>
<path d="M83.8095 78.6716C84.0696 78.657 84.3281 78.6216 84.5825 78.5658C84.6228 78.5579 84.6586 78.535 84.6827 78.5018C84.7069 78.4687 84.7176 78.4276 84.7127 78.3868C84.7088 78.3663 84.7009 78.3468 84.6893 78.3294C84.6777 78.312 84.6627 78.2972 84.6452 78.2858C84.6277 78.2744 84.6081 78.2667 84.5875 78.263C84.567 78.2594 84.5459 78.26 84.5255 78.2648C83.8815 78.4125 83.2117 78.407 82.5701 78.2487C81.9285 78.0904 81.3331 77.7838 80.8316 77.3535C80.8025 77.3244 80.7629 77.308 80.7217 77.308C80.6805 77.308 80.641 77.3244 80.6119 77.3535C80.5828 77.3826 80.5664 77.4221 80.5664 77.4633C80.5664 77.5045 80.5828 77.544 80.6119 77.5732C81.0452 77.9595 81.5511 78.2556 82.1002 78.4442C82.6492 78.6328 83.2303 78.7101 83.8095 78.6716Z" fill="#263238"/>
<path d="M76.2665 70.7874C76.3341 70.7844 76.399 70.7599 76.4517 70.7175C76.5044 70.675 76.5421 70.6168 76.5594 70.5514C76.7543 70.0835 77.0435 69.6607 77.4088 69.3094C77.7741 68.958 78.2079 68.6856 78.683 68.5091C78.7227 68.4954 78.7593 68.474 78.7906 68.4461C78.8219 68.4182 78.8474 68.3843 78.8656 68.3465C78.8838 68.3086 78.8942 68.2676 78.8964 68.2257C78.8986 68.1838 78.8924 68.1418 78.8783 68.1023C78.8507 68.0262 78.7943 67.9639 78.7213 67.9289C78.6482 67.894 78.5644 67.889 78.4878 67.9152C77.9184 68.1202 77.3991 68.4438 76.9643 68.8646C76.5295 69.2854 76.189 69.7938 75.9655 70.3561C75.9456 70.4349 75.9575 70.5182 75.9986 70.5883C76.0397 70.6583 76.1067 70.7094 76.1851 70.7304C76.2071 70.7558 76.2351 70.7754 76.2665 70.7874Z" fill="#263238"/>
<path d="M85.9497 67.2073C86.0053 67.2042 86.0592 67.1869 86.1062 67.1569C86.1533 67.127 86.1918 67.0855 86.2182 67.0365C86.2379 67.0002 86.2502 66.9604 86.2544 66.9194C86.2585 66.8783 86.2544 66.8369 86.2423 66.7975C86.2301 66.758 86.2102 66.7214 86.1837 66.6898C86.1572 66.6582 86.1247 66.6322 86.088 66.6134C85.6515 66.3643 85.1604 66.2265 84.658 66.2123C84.1557 66.1981 83.6575 66.3079 83.2077 66.532C83.1384 66.5685 83.0861 66.6305 83.0617 66.7049C83.0374 66.7794 83.0431 66.8603 83.0775 66.9307C83.117 67.0012 83.1825 67.0535 83.2601 67.0763C83.3377 67.0992 83.4211 67.0907 83.4925 67.0527C83.8496 66.8917 84.2396 66.8166 84.631 66.8336C85.0224 66.8506 85.4044 66.959 85.7463 67.1504C85.8064 67.1904 85.8776 67.2103 85.9497 67.2073Z" fill="#263238"/>
<path d="M76.9343 152.478C79.7495 177.481 87.6989 198.855 89.9527 214.591C92.1495 230.108 90.148 232.256 102.109 280.147L112.369 277.584L104.753 211.174C104.753 211.174 101.498 181.362 98.4634 144.658C98.4553 144.658 76.2753 146.611 76.9343 152.478Z" fill="#0029DD"/>
<path opacity="0.1" d="M81.8164 179.474C83.5495 186.846 85.3802 193.721 86.9261 200.019C90.1319 183.046 88.0164 156.798 88.0164 156.798L81.8164 179.474Z" fill="black"/>
<path d="M67.4297 148.377C64.1019 173.315 66.1523 195.967 64.9887 211.784C63.7927 228.057 62.2793 231.58 62.2793 280.944H72.8567L80.1795 212.053C80.1795 212.053 85.6066 182.225 91.5706 145.879C91.5625 145.879 68.2108 142.527 67.4297 148.377Z" fill="#0029DD"/>
<path d="M69.0993 91.1285C69.0993 91.1285 72.8909 98.9884 81.841 98.1747C90.7911 97.3611 87.268 91.1285 87.268 91.1285C87.268 91.1285 93.7772 90.5834 97.0318 93.0243C100.286 95.4653 98.6591 146.457 98.6591 146.457C98.6591 146.457 83.1998 149.711 67.1953 147.807C67.1953 147.807 58.7904 93.2928 63.9408 92.2107L69.0993 91.1285Z" fill="#263238"/>
<path opacity="0.4" d="M64.5348 128.255L65.3484 102.284L62.4355 106.726C62.8505 113.309 63.6804 121.177 64.5348 128.255Z" fill="black"/>
<path d="M64.2822 277.397L63.9404 287.942L69.4976 287.69L70.3194 278.145L64.2822 277.397Z" fill="#FFB573"/>
<path d="M70.7416 287.909C70.7102 287.909 70.6799 287.898 70.655 287.879C70.6301 287.86 70.612 287.834 70.6033 287.803C70.5959 287.773 70.5973 287.74 70.6074 287.71C70.6175 287.68 70.6358 287.653 70.6602 287.633C70.7579 287.568 72.8489 286.07 73.9148 286.249C74.1188 286.284 74.302 286.394 74.4274 286.559C74.5071 286.647 74.5577 286.757 74.5723 286.875C74.5868 286.993 74.5646 287.113 74.5088 287.218C74.0016 287.659 73.3503 287.899 72.6781 287.893C72.0344 287.958 71.3862 287.963 70.7416 287.909ZM71.2054 287.657C72.4096 287.657 74.0206 287.511 74.2728 287.063C74.2728 287.006 74.346 286.917 74.2159 286.738C74.1796 286.686 74.1324 286.643 74.0775 286.612C74.0226 286.581 73.9614 286.563 73.8985 286.559C73.7988 286.542 73.6972 286.542 73.5975 286.559C72.7388 286.773 71.9276 287.146 71.2054 287.657Z" fill="#0029DD"/>
<path d="M70.6595 287.909C70.6352 287.897 70.6148 287.879 70.6004 287.856C70.586 287.833 70.5783 287.806 70.5781 287.779C70.5781 287.698 70.5781 285.965 71.3185 285.208C71.4241 285.099 71.5505 285.012 71.6904 284.954C71.8302 284.895 71.9805 284.865 72.1322 284.866C72.5553 284.866 72.7017 285.061 72.7343 285.232C72.9458 285.94 71.5545 287.478 70.8222 287.893C70.8039 287.9 70.7836 287.9 70.7653 287.893C70.75 287.903 70.7326 287.91 70.7143 287.913C70.6959 287.916 70.6772 287.915 70.6595 287.909ZM72.059 285.159C71.8672 285.178 71.6884 285.265 71.5545 285.403C71.1377 286.006 70.9136 286.721 70.9117 287.454C71.6521 286.9 72.539 285.712 72.4658 285.289C72.4658 285.249 72.417 285.143 72.1485 285.143H72.059V285.159Z" fill="#0029DD"/>
<path d="M69.9783 287.087L63.0053 287.803C62.8783 287.815 62.7591 287.87 62.6674 287.959C62.5757 288.048 62.517 288.165 62.5009 288.292L61.8418 294.093C61.8259 294.215 61.8343 294.34 61.8666 294.459C61.899 294.578 61.9545 294.69 62.0302 294.787C62.1058 294.885 62.2 294.966 62.3073 295.027C62.4146 295.088 62.533 295.127 62.6555 295.143H62.8589C65.3649 294.841 67.5862 294.467 70.7187 294.158C74.4127 293.776 73.5177 294.313 77.8626 293.93C80.4825 293.702 80.6615 290.676 79.5387 290.676C74.3964 290.554 73.7129 289.048 71.5649 287.421C71.0967 287.115 70.5303 286.996 69.9783 287.087Z" fill="#263238"/>
<path opacity="0.1" d="M64.2327 279.057L64.1025 283.011L69.8794 283.28L70.1561 280.106L64.2327 279.057Z" fill="black"/>
<path d="M61.0283 276.77L61.3212 281.367L73.7782 282.035L74.7057 277.324L61.0283 276.77Z" fill="#263238"/>
<path d="M103.582 275.981L105.551 286.347L110.913 284.891L109.636 275.395L103.582 275.981Z" fill="#FFB573"/>
<path d="M112.539 284.728C112.508 284.727 112.478 284.718 112.452 284.701C112.426 284.683 112.405 284.659 112.393 284.63C112.38 284.601 112.378 284.569 112.385 284.538C112.392 284.507 112.409 284.48 112.434 284.459C112.515 284.386 114.468 282.694 115.574 282.775C115.782 282.787 115.977 282.877 116.119 283.027C116.207 283.108 116.267 283.214 116.292 283.331C116.317 283.447 116.305 283.569 116.258 283.678C116.063 284.069 115.281 284.37 114.5 284.492C113.854 284.623 113.198 284.702 112.539 284.728ZM112.979 284.427C114.183 284.345 115.77 284.02 115.981 283.548C115.981 283.491 116.03 283.393 115.884 283.231C115.844 283.182 115.792 283.143 115.734 283.117C115.676 283.092 115.613 283.08 115.55 283.084C115.453 283.068 115.354 283.068 115.257 283.084C114.42 283.384 113.647 283.839 112.979 284.427Z" fill="#0029DD"/>
<path d="M112.456 284.777C112.431 284.766 112.409 284.749 112.392 284.728C112.375 284.707 112.363 284.682 112.358 284.655C112.358 284.573 112.188 282.84 112.855 282.018C112.955 281.897 113.079 281.798 113.219 281.726C113.359 281.655 113.512 281.613 113.668 281.603C114.092 281.563 114.262 281.742 114.311 281.913C114.58 282.596 113.335 284.256 112.684 284.744H112.619C112.599 284.766 112.572 284.782 112.543 284.788C112.514 284.793 112.483 284.79 112.456 284.777ZM113.595 281.905C113.407 281.94 113.237 282.041 113.115 282.189C112.752 282.826 112.593 283.559 112.66 284.288C113.351 283.67 114.132 282.409 114.01 281.986C114.01 281.986 113.953 281.848 113.677 281.88H113.595V281.905Z" fill="#0029DD"/>
<path d="M111.718 283.963L104.842 285.322C104.716 285.344 104.601 285.41 104.518 285.508C104.435 285.606 104.388 285.73 104.387 285.859L104.248 291.701C104.242 291.95 104.334 292.191 104.505 292.373C104.675 292.554 104.911 292.661 105.16 292.669H105.355C107.796 292.132 110.001 291.562 113.093 290.96C116.73 290.244 115.892 290.863 120.188 290.074C122.775 289.602 122.629 286.575 121.547 286.648C116.412 287.006 115.599 285.59 113.312 284.207C112.829 283.932 112.261 283.846 111.718 283.963Z" fill="#263238"/>
<path opacity="0.1" d="M103.891 277.617L104.631 281.498L110.327 280.505L109.895 277.348L103.891 277.617Z" fill="black"/>
<path d="M100.268 276.079L101.553 280.505L113.855 278.438L113.725 273.638L100.268 276.079Z" fill="#263238"/>
<path d="M69.5701 75.2705C69.5701 75.2705 72.0111 72.5448 71.8321 70.1527C71.8321 70.1527 73.7767 69.038 74.6554 65.7183C74.6554 65.7183 85.7373 65.1325 86.2499 62.5939C86.7625 60.0553 83.4509 60.5435 83.4509 60.5435C83.4509 60.5435 87.0147 59.1766 84.7446 57.1181C82.4746 55.0595 79.7651 57.712 79.7651 57.712C79.7651 57.712 82.1572 53.6438 78.8538 53.5055C75.7294 53.3834 75.5992 58.6559 73.8825 58.4931C72.8003 58.3874 73.3699 53.7007 69.5701 58.9813C65.7704 64.2619 66.6491 66.2147 66.6491 66.2147C66.6491 66.2147 62.0601 66.654 62.1578 69.3635C62.2554 72.0729 63.7851 71.4139 64.2082 72.1461C64.6313 72.8784 62.9796 73.7734 64.3709 75.2705C65.7622 76.7677 69.5701 75.2705 69.5701 75.2705Z" fill="#263238"/>
<path d="M67.6328 77.207C67.948 77.7337 68.3639 78.193 68.8568 78.5588C69.3496 78.9246 69.9097 79.1896 70.505 79.3388C72.1323 79.7212 72.8483 78.2729 72.352 76.7839C71.8963 75.4496 70.5213 73.6433 68.9347 73.8955C68.5862 73.9629 68.2604 74.1172 67.9875 74.3441C67.7147 74.571 67.5035 74.8632 67.3736 75.1935C67.2438 75.5238 67.1995 75.8815 67.2448 76.2335C67.2901 76.5855 67.4236 76.9204 67.6328 77.207Z" fill="#FFB573"/>
<path d="M67.0094 66.7191C66.4672 66.0019 66.2119 65.1084 66.2934 64.2131C66.3585 62.5858 64.6661 63.074 64.8614 64.4409C64.9226 65.0027 65.1655 65.5292 65.5532 65.9404C65.9409 66.3516 66.4522 66.625 67.0094 66.7191Z" fill="#263238"/>
<path d="M130.706 113.146L132.798 112.584L134.864 114.651C135.002 114.063 134.987 113.45 134.822 112.869C134.657 112.289 134.346 111.76 133.919 111.333C133.492 110.906 132.963 110.595 132.382 110.43C131.802 110.264 131.188 110.25 130.601 110.388L126.72 106.506L123.611 103.398L119.73 99.5172C119.868 98.9294 119.854 98.3162 119.688 97.7355C119.523 97.1549 119.212 96.6261 118.785 96.1992C118.358 95.7722 117.829 95.4613 117.249 95.2959C116.668 95.1304 116.055 95.1159 115.467 95.2537L117.533 97.3204L116.972 99.4115L114.881 99.9729L112.814 97.9062C112.677 98.494 112.691 99.1073 112.856 99.688C113.022 100.269 113.333 100.797 113.76 101.224C114.187 101.651 114.715 101.962 115.296 102.128C115.877 102.293 116.49 102.308 117.078 102.17L120.959 106.051L124.067 109.151L127.948 113.032C127.811 113.62 127.826 114.233 127.992 114.814C128.157 115.395 128.468 115.924 128.894 116.351C129.321 116.778 129.849 117.09 130.43 117.257C131.01 117.423 131.623 117.44 132.212 117.304L130.186 115.237L130.706 113.146Z" fill="#263238"/>
<path opacity="0.4" d="M130.706 113.146L132.798 112.584L134.864 114.651C135.002 114.063 134.987 113.45 134.822 112.869C134.657 112.289 134.346 111.76 133.919 111.333C133.492 110.906 132.963 110.595 132.382 110.43C131.802 110.264 131.188 110.25 130.601 110.388L126.72 106.506L123.611 103.398L119.73 99.5172C119.868 98.9294 119.854 98.3162 119.688 97.7355C119.523 97.1549 119.212 96.6261 118.785 96.1992C118.358 95.7722 117.829 95.4613 117.249 95.2959C116.668 95.1304 116.055 95.1159 115.467 95.2537L117.533 97.3204L116.972 99.4115L114.881 99.9729L112.814 97.9062C112.677 98.494 112.691 99.1073 112.856 99.688C113.022 100.269 113.333 100.797 113.76 101.224C114.187 101.651 114.715 101.962 115.296 102.128C115.877 102.293 116.49 102.308 117.078 102.17L120.959 106.051L124.067 109.151L127.948 113.032C127.811 113.62 127.826 114.233 127.992 114.814C128.157 115.395 128.468 115.924 128.894 116.351C129.321 116.778 129.849 117.09 130.43 117.257C131.01 117.423 131.623 117.44 132.212 117.304L130.186 115.237L130.706 113.146Z" fill="white"/>
<path d="M80.9924 138.865L84.0436 135.383L82.1803 133.479L78.6979 136.522L78.2585 137.376C78.1213 137.632 77.9488 137.868 77.7459 138.076L73.5312 142.291L75.2318 144.016L79.4465 139.801C79.653 139.596 79.8888 139.424 80.1462 139.288L80.9924 138.865Z" fill="#263238"/>
<path opacity="0.7" d="M80.9924 138.865L84.0436 135.383L82.1803 133.479L78.6979 136.522L78.2585 137.376C78.1213 137.632 77.9488 137.868 77.7459 138.076L73.5312 142.291L75.2318 144.016L79.4465 139.801C79.653 139.596 79.8888 139.424 80.1462 139.288L80.9924 138.865Z" fill="white"/>
<path d="M83.9964 135.44L84.0452 135.383L82.182 133.479H82.125C81.9785 133.756 82.2145 134.293 82.7108 134.813C83.2071 135.334 83.7279 135.586 83.9964 135.44Z" fill="#263238"/>
<path opacity="0.4" d="M83.9964 135.44L84.0452 135.383L82.182 133.479H82.125C81.9785 133.756 82.2145 134.293 82.7108 134.813C83.2071 135.334 83.7279 135.586 83.9964 135.44Z" fill="white"/>
<path d="M73.6047 146.261L74.8578 144.992L74.931 145.073C75.0191 145.159 75.1374 145.207 75.2605 145.207C75.3836 145.207 75.5019 145.159 75.59 145.073C75.6348 145.03 75.6704 144.978 75.6948 144.921C75.7191 144.864 75.7316 144.802 75.7316 144.74C75.7316 144.678 75.7191 144.616 75.6948 144.559C75.6704 144.501 75.6348 144.449 75.59 144.406L73.1003 141.908C73.0111 141.823 72.8922 141.777 72.7691 141.778C72.6459 141.78 72.5282 141.829 72.4411 141.916C72.354 142.003 72.3044 142.121 72.3029 142.244C72.3014 142.367 72.3481 142.486 72.4331 142.575L72.5145 142.649L71.2452 143.918C71.0142 143.878 70.7769 143.899 70.5561 143.977C70.3352 144.055 70.1382 144.189 69.984 144.366L62.6612 151.688C61.7906 152.559 62.2299 153.543 63.0924 154.414C63.9549 155.285 64.9475 155.716 65.8181 154.845L73.141 147.522C73.3185 147.369 73.4541 147.172 73.5352 146.952C73.6163 146.731 73.6402 146.494 73.6047 146.261Z" fill="#0029DD"/>
<path opacity="0.4" d="M73.6047 146.261L74.8578 144.992L74.931 145.073C75.0191 145.159 75.1374 145.207 75.2605 145.207C75.3836 145.207 75.5019 145.159 75.59 145.073C75.6348 145.03 75.6704 144.978 75.6948 144.921C75.7191 144.864 75.7316 144.802 75.7316 144.74C75.7316 144.678 75.7191 144.616 75.6948 144.559C75.6704 144.501 75.6348 144.449 75.59 144.406L73.1003 141.908C73.0111 141.823 72.8922 141.777 72.7691 141.778C72.6459 141.78 72.5282 141.829 72.4411 141.916C72.354 142.003 72.3044 142.121 72.3029 142.244C72.3014 142.367 72.3481 142.486 72.4331 142.575L72.5145 142.649L71.2452 143.918C71.0142 143.878 70.7769 143.899 70.5561 143.977C70.3352 144.055 70.1382 144.189 69.984 144.366L62.6612 151.688C61.7906 152.559 62.2299 153.543 63.0924 154.414C63.9549 155.285 64.9475 155.716 65.8181 154.845L73.141 147.522C73.3185 147.369 73.4541 147.172 73.5352 146.952C73.6163 146.731 73.6402 146.494 73.6047 146.261Z" fill="white"/>
<path d="M60.1083 141.331L64.0627 144.658C64.0627 144.658 67.0813 143.959 68.8225 144.959C70.5637 145.96 70.2301 147.14 71.4913 147.775C72.7524 148.409 72.549 150.313 72.549 150.313C72.549 150.313 67.0081 153.568 65.1692 152.299C63.3304 151.029 61.5159 147.783 61.5159 147.783L56.3086 144.097L60.1083 141.331Z" fill="#FFB573"/>
<path d="M65.8194 91.7876C65.8194 91.7876 56.4869 92.3165 52.2804 103.179C48.0738 114.041 42.6549 123.927 45.7712 132.47C48.8874 141.013 56.6171 146.164 56.6171 146.164C56.6171 146.164 60.8725 144.13 62.3126 140.468C62.3126 140.468 54.1762 133.69 55.3722 127.857C56.5683 122.023 64.4851 108.215 64.4851 108.215C64.4851 108.215 74.4685 95.4571 65.8194 91.7876Z" fill="#263238"/>
</g>
</svg>
