<svg width="265" height="375" viewBox="0 0 265 375" fill="none" xmlns="http://www.w3.org/2000/svg">
<path d="M187.8 340.7C187.8 354.1 161.2 365 128.5 365C95.7 365 69.2 354.1 69.2 340.7C69.2 327.3 95.8 316.4 128.5 316.4C161.2 316.4 187.8 327.3 187.8 340.7Z" fill="#ED1E2E"/>
<path d="M187.8 340.7C187.8 354.1 161.2 365 128.5 365C95.7 365 69.2 354.1 69.2 340.7C69.2 327.3 95.8 316.4 128.5 316.4C161.2 316.4 187.8 327.3 187.8 340.7Z" fill="#ED1E2E"/>
<path opacity="0.9" d="M128.5 367C163.957 367 192.7 355.225 192.7 340.7C192.7 326.175 163.957 314.4 128.5 314.4C93.0433 314.4 64.3 326.175 64.3 340.7C64.3 355.225 93.0433 367 128.5 367Z" fill="white"/>
<path d="M68 319.1C68.4 304.9 80 293.5 94.4 293.5C108.7 293.5 120.4 304.9 120.8 319.1C120.8 319.4 120.8 319.6 120.8 319.8C120.8 320.1 120.8 320.3 120.8 320.5C120.5 324.2 117.9 327.7 113.1 330.5C102.8 336.4 86.1 336.4 75.8 330.5C71 327.7 68.4 324.1 68.1 320.5C68.1 320.2 68.1 320 68.1 319.8C68 319.6 68 319.4 68 319.1Z" fill="#ED1E2E"/>
<path opacity="0.8" d="M68 319.1C68.4 304.9 80 293.5 94.4 293.5C108.7 293.5 120.4 304.9 120.8 319.1C120.8 319.4 120.8 319.6 120.8 319.8C120.8 320.1 120.8 320.3 120.8 320.5C120.5 324.2 117.9 327.7 113.1 330.5C102.8 336.4 86.1 336.4 75.8 330.5C71 327.7 68.4 324.1 68.1 320.5C68.1 320.2 68.1 320 68.1 319.8C68 319.6 68 319.4 68 319.1Z" fill="white"/>
<path opacity="0.3" d="M82.9 296.1C86.4 294.4 90.2 293.5 94.3 293.5C108.6 293.5 120.3 304.9 120.7 319.1C120.7 319.4 120.7 319.6 120.7 319.8C120.7 320.1 120.7 320.3 120.7 320.5C120.4 324.2 117.8 327.7 113 330.5C109.2 332.7 104.6 334 99.8 334.6C106.6 333.4 111.1 325.8 109 317.3C106.5 307.7 96.6 293.6 82.9 296.1Z" fill="white"/>
<path opacity="0.1" d="M68 320.6C68 320.3 68 320.1 68 319.9C68 319.6 68 319.4 68 319.2C68.2 311.6 71.6 304.8 76.9 300.1C74 303 67.7 314.1 74.6 322.6C79.2 328.2 100.8 336.1 118.6 325.9C117.3 327.6 115.5 329.2 113 330.6C102.7 336.5 86 336.5 75.7 330.6C70.9 327.8 68.3 324.3 68 320.6Z" fill="#ED1E2E"/>
<path opacity="0.5" d="M94.7 299.4C93.5 302.1 95.8 305.7 99.8 307.4C103.8 309.1 108 308.4 109.1 305.7C110.3 303 108 299.4 104 297.7C100 296 95.8 296.8 94.7 299.4Z" fill="white"/>
<path opacity="0.5" d="M109.9 310.4C109.3 311.8 110.2 313.5 111.9 314.3C113.6 315.1 115.5 314.5 116.1 313.1C116.7 311.7 115.8 310 114.1 309.2C112.4 308.5 110.5 309 109.9 310.4Z" fill="white"/>
<path d="M178.2 318.7C177.9 306.6 168 296.9 155.8 296.9C143.7 296.9 133.7 306.6 133.4 318.7C133.4 318.9 133.4 319.1 133.4 319.3C133.4 319.5 133.4 319.7 133.4 319.9C133.7 323 135.8 326 140 328.4C148.7 333.4 162.9 333.4 171.7 328.4C175.8 326 178 323 178.2 319.9C178.2 319.7 178.2 319.5 178.2 319.3C178.3 319.1 178.3 318.9 178.2 318.7Z" fill="#ED1E2E"/>
<path opacity="0.8" d="M178.2 318.7C177.9 306.6 168 296.9 155.8 296.9C143.7 296.9 133.7 306.6 133.4 318.7C133.4 318.9 133.4 319.1 133.4 319.3C133.4 319.5 133.4 319.7 133.4 319.9C133.7 323 135.8 326 140 328.4C148.7 333.4 162.9 333.4 171.7 328.4C175.8 326 178 323 178.2 319.9C178.2 319.7 178.2 319.5 178.2 319.3C178.3 319.1 178.3 318.9 178.2 318.7Z" fill="white"/>
<path opacity="0.3" d="M165.6 299.2C162.7 297.8 159.4 297 155.9 297C143.8 297 133.8 306.7 133.5 318.8C133.5 319 133.5 319.2 133.5 319.4C133.5 319.6 133.5 319.8 133.5 320C133.8 323.1 135.9 326.1 140.1 328.5C143.3 330.3 147.2 331.5 151.3 332C145.5 331 141.7 324.5 143.5 317.4C145.6 309 154 297 165.6 299.2Z" fill="white"/>
<path opacity="0.1" d="M178.2 320C178.2 319.8 178.2 319.6 178.2 319.4C178.2 319.2 178.2 319 178.2 318.8C178 312.3 175.1 306.6 170.6 302.6C173 305.1 178.4 314.5 172.6 321.7C168.7 326.4 150.4 333.2 135.3 324.5C136.4 326 138 327.3 140.1 328.5C148.8 333.5 163 333.5 171.8 328.5C175.8 326.1 178 323.1 178.2 320Z" fill="#ED1E2E"/>
<path opacity="0.5" d="M155.6 302C156.6 304.3 154.7 307.3 151.3 308.8C147.9 310.3 144.4 309.6 143.4 307.4C142.4 305.1 144.3 302.1 147.7 300.6C151.1 299.1 154.6 299.7 155.6 302Z" fill="white"/>
<path opacity="0.5" d="M142.7 311.3C143.2 312.5 142.5 314 141 314.6C139.5 315.2 137.9 314.8 137.4 313.6C136.9 312.4 137.6 310.9 139.1 310.3C140.5 309.7 142.1 310.1 142.7 311.3Z" fill="white"/>
<path d="M200.1 321.3C199.9 313.3 193.3 306.9 185.3 306.9C177.3 306.9 170.7 313.3 170.5 321.3C170.5 321.4 170.5 321.6 170.5 321.7C170.5 321.8 170.5 322 170.5 322.1C170.7 324.2 172.1 326.2 174.8 327.7C180.6 331 190 331 195.8 327.7C198.5 326.1 200 324.1 200.1 322.1C200.1 322 200.1 321.8 200.1 321.7C200.1 321.6 200.1 321.5 200.1 321.3Z" fill="#ED1E2E"/>
<path opacity="0.9" d="M200.1 321.3C199.9 313.3 193.3 306.9 185.3 306.9C177.3 306.9 170.7 313.3 170.5 321.3C170.5 321.4 170.5 321.6 170.5 321.7C170.5 321.8 170.5 322 170.5 322.1C170.7 324.2 172.1 326.2 174.8 327.7C180.6 331 190 331 195.8 327.7C198.5 326.1 200 324.1 200.1 322.1C200.1 322 200.1 321.8 200.1 321.7C200.1 321.6 200.1 321.5 200.1 321.3Z" fill="white"/>
<path opacity="0.5" d="M191.7 308.4C189.8 307.5 187.6 306.9 185.3 306.9C177.3 306.9 170.7 313.3 170.5 321.3C170.5 321.4 170.5 321.6 170.5 321.7C170.5 321.8 170.5 322 170.5 322.1C170.7 324.2 172.1 326.2 174.8 327.7C176.9 328.9 179.5 329.7 182.2 330C178.4 329.3 175.9 325 177.1 320.3C178.5 314.9 184 307 191.7 308.4Z" fill="white"/>
<path opacity="0.1" d="M200.1 322.1C200.1 322 200.1 321.8 200.1 321.7C200.1 321.6 200.1 321.4 200.1 321.3C200 317 198.1 313.2 195.1 310.6C196.7 312.3 200.3 318.5 196.4 323.2C193.8 326.3 181.7 330.8 171.7 325.1C172.4 326.1 173.5 327 174.8 327.8C180.6 331.1 190 331.1 195.8 327.8C198.5 326.2 199.9 324.2 200.1 322.1Z" fill="#ED1E2E"/>
<path opacity="0.5" d="M185.2 310.2C185.9 311.7 184.6 313.7 182.4 314.7C180.2 315.7 177.8 315.3 177.2 313.7C176.5 312.2 177.8 310.2 180 309.2C182.1 308.3 184.5 308.7 185.2 310.2Z" fill="white"/>
<path opacity="0.5" d="M176.6 316.4C176.9 317.2 176.4 318.2 175.5 318.6C174.5 319 173.5 318.7 173.1 317.9C172.8 317.1 173.3 316.1 174.2 315.7C175.2 315.3 176.2 315.6 176.6 316.4Z" fill="white"/>
<path d="M231.7 327.8C231.4 316.9 222.5 308.2 211.6 308.2C200.7 308.2 191.8 316.9 191.5 327.8C191.5 328 191.5 328.2 191.5 328.4C191.5 328.6 191.5 328.8 191.5 329C191.7 331.8 193.7 334.5 197.4 336.7C205.2 341.2 218 341.2 225.9 336.7C229.6 334.6 231.5 331.8 231.8 329C231.8 328.8 231.8 328.6 231.8 328.4C231.7 328.1 231.7 327.9 231.7 327.8Z" fill="#ED1E2E"/>
<path opacity="0.7" d="M231.7 327.8C231.4 316.9 222.5 308.2 211.6 308.2C200.7 308.2 191.8 316.9 191.5 327.8C191.5 328 191.5 328.2 191.5 328.4C191.5 328.6 191.5 328.8 191.5 329C191.7 331.8 193.7 334.5 197.4 336.7C205.2 341.2 218 341.2 225.9 336.7C229.6 334.6 231.5 331.8 231.8 329C231.8 328.8 231.8 328.6 231.8 328.4C231.7 328.1 231.7 327.9 231.7 327.8Z" fill="white"/>
<path opacity="0.3" d="M220.3 310.2C217.7 308.9 214.7 308.2 211.6 308.2C200.7 308.2 191.8 316.9 191.5 327.8C191.5 328 191.5 328.2 191.5 328.4C191.5 328.6 191.5 328.8 191.5 329C191.7 331.8 193.7 334.5 197.4 336.7C200.3 338.4 203.8 339.4 207.5 339.9C202.3 339 198.9 333.2 200.5 326.7C202.3 319.1 209.8 308.3 220.3 310.2Z" fill="white"/>
<path opacity="0.1" d="M231.7 328.9C231.7 328.7 231.7 328.5 231.7 328.3C231.7 328.1 231.7 327.9 231.7 327.7C231.6 321.9 228.9 316.7 224.9 313.2C227.1 315.4 231.9 323.9 226.7 330.4C223.2 334.6 206.7 340.7 193.2 332.9C194.2 334.2 195.6 335.4 197.5 336.5C205.3 341 218.1 341 226 336.5C229.5 334.4 231.4 331.7 231.7 328.9Z" fill="#ED1E2E"/>
<path opacity="0.5" d="M211.3 312.7C212.2 314.8 210.5 317.5 207.4 318.8C204.4 320.1 201.2 319.6 200.3 317.5C199.4 315.4 201.1 312.7 204.2 311.4C207.3 310.1 210.4 310.7 211.3 312.7Z" fill="white"/>
<path opacity="0.5" d="M199.7 321.1C200.2 322.2 199.5 323.5 198.2 324.1C196.9 324.7 195.4 324.3 195 323.2C194.5 322.1 195.2 320.8 196.5 320.2C197.8 319.6 199.2 320 199.7 321.1Z" fill="white"/>
<path d="M152.5 251.1C152.5 258.4 149.2 265 144 269.4C140.5 272.4 138.3 276.7 138.3 281.3V338.9C138.3 340.4 137.3 341.8 135.4 342.9C134.3 343.5 133.1 344 131.8 344.2C129.6 344.6 127.2 344.6 125.1 344.2C123.8 343.9 122.5 343.5 121.5 342.9C119.6 341.8 118.6 340.3 118.6 338.9V281.2C118.6 276.6 116.4 272.4 112.9 269.4C107.6 265 104.3 258.3 104.4 250.9C104.5 238.3 114.6 227.7 127.1 227.1C141 226.4 152.5 237.4 152.5 251.1Z" fill="#ED1E2E"/>
<path opacity="0.5" d="M152.5 251.1C152.5 258.4 149.2 265 144 269.4C140.5 272.4 138.3 276.7 138.3 281.3V338.9C138.3 340.4 137.3 341.8 135.4 342.9C134.3 343.5 133.1 344 131.8 344.2C129.6 344.6 127.2 344.6 125.1 344.2C123.8 343.9 122.5 343.5 121.5 342.9C119.6 341.8 118.6 340.3 118.6 338.9V281.2C118.6 276.6 116.4 272.4 112.9 269.4C107.6 265 104.3 258.3 104.4 250.9C104.5 238.3 114.6 227.7 127.1 227.1C141 226.4 152.5 237.4 152.5 251.1Z" fill="white"/>
<path d="M141.9 251.1C141.9 255.6 139.7 259.6 136.2 262C133.3 264 131.8 267.4 131.8 270.9V340.3C131.8 342.2 130.3 343.7 128.5 343.7C128.5 343.7 128.5 343.7 128.4 343.7C126.5 343.7 125.1 342.1 125.1 340.3V270.7C125.1 267.3 123.5 263.9 120.7 261.9C117.2 259.4 114.9 255.3 115 250.6C115.2 243.6 120.9 237.8 127.9 237.6C135.6 237.4 141.9 243.6 141.9 251.1Z" fill="#ED1E2E"/>
<path opacity="0.7" d="M141.9 251.1C141.9 255.6 139.7 259.6 136.2 262C133.3 264 131.8 267.4 131.8 270.9V340.3C131.8 342.2 130.3 343.7 128.5 343.7C128.5 343.7 128.5 343.7 128.4 343.7C126.5 343.7 125.1 342.1 125.1 340.3V270.7C125.1 267.3 123.5 263.9 120.7 261.9C117.2 259.4 114.9 255.3 115 250.6C115.2 243.6 120.9 237.8 127.9 237.6C135.6 237.4 141.9 243.6 141.9 251.1Z" fill="white"/>
<path opacity="0.8" d="M140.7 267.7C143.517 267.7 145.8 265.417 145.8 262.6C145.8 259.783 143.517 257.5 140.7 257.5C137.883 257.5 135.6 259.783 135.6 262.6C135.6 265.417 137.883 267.7 140.7 267.7Z" fill="white"/>
<path opacity="0.7" d="M134.7 247.5C134.7 245.4 136.4 243.7 138.5 243.7C140.6 243.7 142.3 245.4 142.3 247.5C142.3 249.6 140.6 251.3 138.5 251.3C136.4 251.4 134.7 249.7 134.7 247.5Z" fill="white"/>
<path opacity="0.8" d="M127.4 241.4C127.4 240.4 128.3 239.5 129.3 239.5C130.3 239.5 131.2 240.4 131.2 241.4C131.2 242.4 130.3 243.3 129.3 243.3C128.2 243.3 127.4 242.5 127.4 241.4Z" fill="white"/>
<path opacity="0.7" d="M112.2 243.7C112.2 240.9 114.5 238.5 117.4 238.5C120.3 238.5 122.6 240.8 122.6 243.7C122.6 246.5 120.3 248.9 117.4 248.9C114.5 248.9 112.2 246.6 112.2 243.7Z" fill="white"/>
<path opacity="0.8" d="M111.3 253C111.3 254.3 112.4 255.4 113.7 255.4C115 255.4 116.1 254.3 116.1 253C116.1 251.7 115 250.6 113.7 250.6C112.4 250.6 111.3 251.7 111.3 253Z" fill="white"/>
<path opacity="0.7" d="M111.6 262.3C111.6 259.7 113.7 257.6 116.3 257.6C118.9 257.6 121 259.7 121 262.3C121 264.9 118.9 267 116.3 267C113.7 267 111.6 264.8 111.6 262.3Z" fill="white"/>
<path opacity="0.7" d="M123.3 269.1C123.3 267.3 124.7 265.9 126.5 265.9C128.3 265.9 129.7 267.3 129.7 269.1C129.7 270.9 128.3 272.3 126.5 272.3C124.7 272.3 123.3 270.9 123.3 269.1Z" fill="white"/>
<path opacity="0.7" d="M106.7 247.5C106.7 246.6 107.4 245.9 108.3 245.9C109.2 245.9 109.9 246.6 109.9 247.5C109.9 248.4 109.2 249.1 108.3 249.1C107.5 249.2 106.7 248.5 106.7 247.5Z" fill="white"/>
<path opacity="0.8" d="M142.6 240.7C142.6 239.5 143.6 238.5 144.8 238.5C146 238.5 147 239.5 147 240.7C147 241.9 146 242.9 144.8 242.9C143.6 242.9 142.6 241.9 142.6 240.7Z" fill="white"/>
<path opacity="0.7" d="M144.8 251.4C144.8 250.2 145.8 249.2 147 249.2C148.2 249.2 149.2 250.2 149.2 251.4C149.2 252.6 148.2 253.6 147 253.6C145.7 253.6 144.8 252.6 144.8 251.4Z" fill="white"/>
<path opacity="0.8" d="M124.3 253.6C124.3 252.4 125.3 251.4 126.5 251.4C127.7 251.4 128.7 252.4 128.7 253.6C128.7 254.8 127.7 255.8 126.5 255.8C125.3 255.7 124.3 254.8 124.3 253.6Z" fill="white"/>
<path d="M254.4 331.2C254.2 324.6 248.8 319.3 242.1 319.3C235.4 319.3 230 324.6 229.8 331.2C229.8 331.3 229.8 331.4 229.8 331.5C229.8 331.6 229.8 331.7 229.8 331.8C229.9 333.5 231.1 335.2 233.4 336.5C238.2 339.3 246 339.3 250.8 336.5C253 335.2 254.2 333.5 254.4 331.8C254.4 331.7 254.4 331.6 254.4 331.5C254.4 331.4 254.4 331.4 254.4 331.2Z" fill="#ED1E2E"/>
<path opacity="0.5" d="M254.4 331.2C254.2 324.6 248.8 319.3 242.1 319.3C235.4 319.3 230 324.6 229.8 331.2C229.8 331.3 229.8 331.4 229.8 331.5C229.8 331.6 229.8 331.7 229.8 331.8C229.9 333.5 231.1 335.2 233.4 336.5C238.2 339.3 246 339.3 250.8 336.5C253 335.2 254.2 333.5 254.4 331.8C254.4 331.7 254.4 331.6 254.4 331.5C254.4 331.4 254.4 331.4 254.4 331.2Z" fill="white"/>
<path opacity="0.5" d="M247.4 320.5C245.8 319.7 244 319.3 242.1 319.3C235.4 319.3 230 324.6 229.8 331.2C229.8 331.3 229.8 331.4 229.8 331.5C229.8 331.6 229.8 331.7 229.8 331.8C229.9 333.5 231.1 335.2 233.4 336.5C235.1 337.5 237.3 338.1 239.6 338.4C236.4 337.9 234.4 334.3 235.3 330.4C236.5 325.9 241.1 319.4 247.4 320.5Z" fill="white"/>
<path opacity="0.2" d="M254.4 331.9C254.4 331.8 254.4 331.7 254.4 331.6C254.4 331.5 254.4 331.4 254.4 331.3C254.3 327.8 252.7 324.6 250.2 322.4C251.5 323.8 254.5 328.9 251.3 332.9C249.2 335.5 239.1 339.2 230.9 334.4C231.5 335.2 232.4 336 233.5 336.6C238.3 339.4 246.1 339.4 250.9 336.6C253 335.3 254.2 333.6 254.4 331.9Z" fill="#ED1E2E"/>
<path opacity="0.5" d="M242 322.1C242.5 323.4 241.5 325 239.6 325.8C237.7 326.6 235.8 326.3 235.3 325C234.8 323.7 235.8 322.1 237.7 321.3C239.5 320.5 241.4 320.8 242 322.1Z" fill="white"/>
<path opacity="0.5" d="M234.9 327.2C235.2 327.9 234.8 328.7 234 329C233.2 329.4 232.3 329.1 232 328.5C231.7 327.8 232.1 327 232.9 326.7C233.7 326.3 234.6 326.5 234.9 327.2Z" fill="white"/>
<path d="M236 341.3C235.8 332.2 228.3 324.9 219.1 324.9C209.9 324.9 202.5 332.2 202.2 341.3C202.2 341.5 202.2 341.6 202.2 341.8C202.2 342 202.2 342.1 202.2 342.3C202.4 344.6 204 346.9 207.1 348.7C213.7 352.5 224.4 352.5 231 348.7C234.1 346.9 235.7 344.6 235.9 342.3C235.9 342.1 235.9 342 235.9 341.8C236 341.6 236 341.5 236 341.3Z" fill="#ED1E2E"/>
<path opacity="0.6" d="M236 341.3C235.8 332.2 228.3 324.9 219.1 324.9C209.9 324.9 202.5 332.2 202.2 341.3C202.2 341.5 202.2 341.6 202.2 341.8C202.2 342 202.2 342.1 202.2 342.3C202.4 344.6 204 346.9 207.1 348.7C213.7 352.5 224.4 352.5 231 348.7C234.1 346.9 235.7 344.6 235.9 342.3C235.9 342.1 235.9 342 235.9 341.8C236 341.6 236 341.5 236 341.3Z" fill="white"/>
<path opacity="0.5" d="M226.5 326.6C224.3 325.5 221.8 324.9 219.2 324.9C210 324.9 202.6 332.2 202.3 341.3C202.3 341.5 202.3 341.6 202.3 341.8C202.3 342 202.3 342.1 202.3 342.3C202.5 344.6 204.1 346.9 207.2 348.7C209.6 350.1 212.6 351 215.7 351.3C211.3 350.5 208.5 345.7 209.8 340.3C211.4 334 217.7 325 226.5 326.6Z" fill="white"/>
<path opacity="0.1" d="M236 342.3C236 342.1 236 342 236 341.8C236 341.6 236 341.5 236 341.3C235.9 336.4 233.7 332.1 230.3 329.1C232.1 331 236.2 338.1 231.8 343.5C228.9 347.1 215 352.2 203.6 345.6C204.4 346.7 205.6 347.7 207.2 348.6C213.8 352.4 224.5 352.4 231.1 348.6C234.2 346.9 235.8 344.6 236 342.3Z" fill="#ED1E2E"/>
<path opacity="0.3" d="M219 328.7C219.8 330.4 218.3 332.7 215.8 333.8C213.3 334.9 210.6 334.4 209.8 332.7C209 331 210.5 328.7 213 327.6C215.5 326.5 218.2 327 219 328.7Z" fill="white"/>
<path opacity="0.3" d="M209.2 335.7C209.6 336.6 209 337.7 207.9 338.2C206.8 338.7 205.6 338.3 205.2 337.5C204.8 336.6 205.4 335.5 206.5 335C207.6 334.5 208.8 334.8 209.2 335.7Z" fill="white"/>
<path d="M206.1 349.6C205.8 338.3 196.5 329.2 185.1 329.2C173.7 329.2 164.4 338.3 164.1 349.6C164.1 349.8 164.1 350 164.1 350.2C164.1 350.4 164.1 350.6 164.1 350.8C164.3 353.7 166.4 356.5 170.2 358.8C178.4 363.5 191.7 363.5 199.9 358.8C203.7 356.6 205.8 353.7 206 350.8C206 350.6 206 350.4 206 350.2C206 350 206.1 349.8 206.1 349.6Z" fill="#ED1E2E"/>
<path opacity="0.8" d="M206.1 349.6C205.8 338.3 196.5 329.2 185.1 329.2C173.7 329.2 164.4 338.3 164.1 349.6C164.1 349.8 164.1 350 164.1 350.2C164.1 350.4 164.1 350.6 164.1 350.8C164.3 353.7 166.4 356.5 170.2 358.8C178.4 363.5 191.7 363.5 199.9 358.8C203.7 356.6 205.8 353.7 206 350.8C206 350.6 206 350.4 206 350.2C206 350 206.1 349.8 206.1 349.6Z" fill="white"/>
<path opacity="0.3" d="M194.2 331.3C191.4 330 188.4 329.2 185.1 329.2C173.7 329.2 164.4 338.3 164.1 349.6C164.1 349.8 164.1 350 164.1 350.2C164.1 350.4 164.1 350.6 164.1 350.8C164.3 353.7 166.4 356.5 170.2 358.8C173.2 360.5 176.9 361.6 180.7 362.1C175.3 361.2 171.7 355.1 173.4 348.4C175.5 340.5 183.3 329.2 194.2 331.3Z" fill="white"/>
<path opacity="0.1" d="M206.1 350.7C206.1 350.5 206.1 350.3 206.1 350.1C206.1 349.9 206.1 349.7 206.1 349.5C205.9 343.5 203.2 338.1 199 334.4C201.3 336.7 206.3 345.6 200.8 352.3C197.2 356.7 180 363 165.9 354.9C166.9 356.3 168.4 357.5 170.3 358.7C178.5 363.4 191.8 363.4 200 358.7C203.8 356.5 205.8 353.6 206.1 350.7Z" fill="#ED1E2E"/>
<path opacity="0.3" d="M184.9 333.9C185.8 336 184 338.9 180.9 340.3C177.7 341.7 174.4 341.1 173.5 338.9C172.6 336.8 174.4 333.9 177.5 332.5C180.6 331.1 184 331.8 184.9 333.9Z" fill="white"/>
<path opacity="0.3" d="M172.8 342.6C173.3 343.7 172.6 345.1 171.2 345.7C169.8 346.3 168.3 345.9 167.8 344.8C167.3 343.7 168 342.3 169.4 341.7C170.8 341.1 172.3 341.5 172.8 342.6Z" fill="white"/>
<path d="M131 345.4C130.8 335.9 123 328.3 113.5 328.3C104 328.3 96.2 335.9 96 345.4C96 345.6 96 345.7 96 345.9C96 346.1 96 346.2 96 346.4C96.2 348.8 97.9 351.2 101.1 353.1C107.9 357.1 119.1 357.1 125.9 353.1C129.1 351.2 130.8 348.9 131 346.4C131 346.2 131 346.1 131 345.9C131.1 345.8 131.1 345.6 131 345.4Z" fill="#ED1E2E"/>
<path opacity="0.8" d="M131 345.4C130.8 335.9 123 328.3 113.5 328.3C104 328.3 96.2 335.9 96 345.4C96 345.6 96 345.7 96 345.9C96 346.1 96 346.2 96 346.4C96.2 348.8 97.9 351.2 101.1 353.1C107.9 357.1 119.1 357.1 125.9 353.1C129.1 351.2 130.8 348.9 131 346.4C131 346.2 131 346.1 131 345.9C131.1 345.8 131.1 345.6 131 345.4Z" fill="white"/>
<path opacity="0.3" d="M121.1 330.1C118.8 329 116.2 328.3 113.5 328.3C104 328.3 96.2 335.9 96 345.4C96 345.6 96 345.7 96 345.9C96 346.1 96 346.2 96 346.4C96.2 348.8 97.9 351.2 101.1 353.1C103.6 354.5 106.7 355.5 109.9 355.8C105.4 355 102.4 349.9 103.8 344.3C105.4 337.9 112 328.5 121.1 330.1Z" fill="white"/>
<path opacity="0.1" d="M131 346.4C131 346.2 131 346.1 131 345.9C131 345.7 131 345.6 131 345.4C130.9 340.3 128.6 335.8 125 332.7C126.9 334.7 131.1 342 126.5 347.7C123.5 351.4 109.1 356.7 97.3 349.9C98.2 351 99.4 352.1 101 353.1C107.8 357.1 119 357.1 125.8 353.1C129.1 351.2 130.9 348.8 131 346.4Z" fill="#ED1E2E"/>
<path opacity="0.3" d="M113.3 332.3C114.1 334.1 112.6 336.5 109.9 337.6C107.3 338.8 104.5 338.3 103.7 336.5C102.9 334.7 104.4 332.3 107.1 331.2C109.8 330 112.6 330.6 113.3 332.3Z" fill="white"/>
<path opacity="0.3" d="M103.2 339.6C103.6 340.5 103 341.7 101.9 342.2C100.8 342.7 99.5 342.4 99.1 341.4C98.7 340.5 99.3 339.3 100.4 338.8C101.5 338.3 102.8 338.7 103.2 339.6Z" fill="white"/>
<path d="M160.2 349.1C160 340.8 153.2 334.1 144.8 334.1C136.4 334.1 129.6 340.8 129.4 349.1C129.4 349.2 129.4 349.4 129.4 349.5C129.4 349.6 129.4 349.8 129.4 349.9C129.6 352 131.1 354.1 133.9 355.8C139.9 359.3 149.7 359.3 155.7 355.8C158.5 354.2 160 352.1 160.2 349.9C160.2 349.8 160.2 349.6 160.2 349.5C160.2 349.4 160.2 349.2 160.2 349.1Z" fill="#ED1E2E"/>
<path opacity="0.8" d="M160.2 349.1C160 340.8 153.2 334.1 144.8 334.1C136.4 334.1 129.6 340.8 129.4 349.1C129.4 349.2 129.4 349.4 129.4 349.5C129.4 349.6 129.4 349.8 129.4 349.9C129.6 352 131.1 354.1 133.9 355.8C139.9 359.3 149.7 359.3 155.7 355.8C158.5 354.2 160 352.1 160.2 349.9C160.2 349.8 160.2 349.6 160.2 349.5C160.2 349.4 160.2 349.2 160.2 349.1Z" fill="white"/>
<path opacity="0.3" d="M151.5 335.6C149.5 334.6 147.2 334.1 144.8 334.1C136.4 334.1 129.6 340.8 129.4 349.1C129.4 349.2 129.4 349.4 129.4 349.5C129.4 349.6 129.4 349.8 129.4 349.9C129.6 352 131.1 354.1 133.9 355.8C136.1 357.1 138.8 357.9 141.6 358.2C137.6 357.5 135 353.1 136.3 348.1C137.7 342.4 143.5 334.2 151.5 335.6Z" fill="white"/>
<path opacity="0.1" d="M160.2 349.9C160.2 349.8 160.2 349.6 160.2 349.5C160.2 349.4 160.2 349.2 160.2 349.1C160.1 344.7 158.1 340.7 155 338C156.7 339.7 160.4 346.2 156.3 351.1C153.6 354.3 141 359 130.6 353C131.4 354 132.4 354.9 133.9 355.8C139.9 359.3 149.7 359.3 155.7 355.8C158.5 354.2 160 352.1 160.2 349.9Z" fill="#ED1E2E"/>
<path opacity="0.3" d="M144.6 337.6C145.3 339.2 144 341.3 141.6 342.3C139.3 343.3 136.8 342.9 136.1 341.3C135.4 339.7 136.7 337.6 139.1 336.6C141.5 335.6 144 336 144.6 337.6Z" fill="white"/>
<path opacity="0.3" d="M135.7 344C136.1 344.8 135.5 345.8 134.5 346.3C133.5 346.7 132.4 346.4 132 345.6C131.6 344.8 132.2 343.8 133.2 343.3C134.3 342.8 135.4 343.1 135.7 344Z" fill="white"/>
<path d="M264.7 334.1C264.6 330.1 261.3 326.9 257.3 326.9C253.3 326.9 250 330.1 249.9 334.1C249.9 334.2 249.9 334.2 249.9 334.3C249.9 334.4 249.9 334.4 249.9 334.5C250 335.5 250.7 336.5 252.1 337.3C255 339 259.7 339 262.6 337.3C264 336.5 264.7 335.5 264.8 334.5C264.8 334.4 264.8 334.4 264.8 334.3C264.8 334.2 264.8 334.2 264.7 334.1Z" fill="#ED1E2E"/>
<path opacity="0.2" d="M264.7 334.1C264.6 330.1 261.3 326.9 257.3 326.9C253.3 326.9 250 330.1 249.9 334.1C249.9 334.2 249.9 334.2 249.9 334.3C249.9 334.4 249.9 334.4 249.9 334.5C250 335.5 250.7 336.5 252.1 337.3C255 339 259.7 339 262.6 337.3C264 336.5 264.7 335.5 264.8 334.5C264.8 334.4 264.8 334.4 264.8 334.3C264.8 334.2 264.8 334.2 264.7 334.1Z" fill="white"/>
<path opacity="0.5" d="M260.6 327.6C259.6 327.1 258.5 326.9 257.4 326.9C253.4 326.9 250.1 330.1 250 334.1C250 334.2 250 334.2 250 334.3C250 334.4 250 334.4 250 334.5C250.1 335.5 250.8 336.5 252.2 337.3C253.3 337.9 254.6 338.3 255.9 338.5C254 338.2 252.7 336 253.3 333.7C253.9 330.9 256.7 326.9 260.6 327.6Z" fill="white"/>
<path opacity="0.05" d="M264.7 334.5C264.7 334.4 264.7 334.4 264.7 334.3C264.7 334.2 264.7 334.2 264.7 334.1C264.6 332 263.7 330.1 262.2 328.7C263 329.5 264.8 332.6 262.8 335C261.5 336.6 255.4 338.8 250.4 335.9C250.8 336.4 251.3 336.8 252 337.2C254.9 338.9 259.6 338.9 262.5 337.2C263.9 336.6 264.7 335.6 264.7 334.5Z" fill="#455A64"/>
<path opacity="0.3" d="M257.3 328.6C257.6 329.4 257 330.4 255.9 330.9C254.8 331.4 253.6 331.2 253.3 330.4C253 329.6 253.6 328.6 254.7 328.1C255.8 327.6 256.9 327.8 257.3 328.6Z" fill="white"/>
<path opacity="0.3" d="M253 331.6C253.2 332 252.9 332.5 252.4 332.7C251.9 332.9 251.4 332.8 251.2 332.4C251 332 251.3 331.5 251.8 331.3C252.3 331.1 252.8 331.3 253 331.6Z" fill="white"/>
<path d="M10.5 325C10.7 318.4 16.1 313.1 22.8 313.1C29.5 313.1 34.9 318.4 35.1 325C35.1 325.1 35.1 325.2 35.1 325.3C35.1 325.4 35.1 325.5 35.1 325.6C35 327.3 33.8 329 31.5 330.3C26.7 333.1 18.9 333.1 14.1 330.3C11.9 329 10.7 327.3 10.5 325.6C10.5 325.5 10.5 325.4 10.5 325.3C10.5 325.2 10.5 325.1 10.5 325Z" fill="#ED1E2E"/>
<path opacity="0.5" d="M10.5 325C10.7 318.4 16.1 313.1 22.8 313.1C29.5 313.1 34.9 318.4 35.1 325C35.1 325.1 35.1 325.2 35.1 325.3C35.1 325.4 35.1 325.5 35.1 325.6C35 327.3 33.8 329 31.5 330.3C26.7 333.1 18.9 333.1 14.1 330.3C11.9 329 10.7 327.3 10.5 325.6C10.5 325.5 10.5 325.4 10.5 325.3C10.5 325.2 10.5 325.1 10.5 325Z" fill="white"/>
<path opacity="0.5" d="M17.4 314.3C19 313.5 20.8 313.1 22.7 313.1C29.4 313.1 34.8 318.4 35 325C35 325.1 35 325.2 35 325.3C35 325.4 35 325.5 35 325.6C34.9 327.3 33.7 329 31.4 330.3C29.7 331.3 27.5 331.9 25.2 332.2C28.4 331.7 30.4 328.1 29.5 324.2C28.4 319.7 23.8 313.1 17.4 314.3Z" fill="white"/>
<path opacity="0.2" d="M10.5 325.7C10.5 325.6 10.5 325.5 10.5 325.4C10.5 325.3 10.5 325.2 10.5 325.1C10.6 321.6 12.2 318.4 14.7 316.2C13.4 317.6 10.4 322.7 13.6 326.7C15.7 329.3 25.8 333 34 328.2C33.4 329 32.5 329.8 31.4 330.4C26.6 333.2 18.8 333.2 14 330.4C11.8 329 10.6 327.4 10.5 325.7Z" fill="#ED1E2E"/>
<path opacity="0.3" d="M22.9 315.8C22.4 317.1 23.4 318.7 25.3 319.5C27.2 320.3 29.1 320 29.6 318.7C30.1 317.4 29.1 315.8 27.2 315C25.4 314.2 23.4 314.6 22.9 315.8Z" fill="white"/>
<path opacity="0.3" d="M30 320.9C29.7 321.6 30.1 322.4 30.9 322.7C31.7 323.1 32.6 322.8 32.9 322.2C33.2 321.5 32.8 320.7 32 320.4C31.1 320 30.2 320.3 30 320.9Z" fill="white"/>
<path d="M36.8 329.7C37 320.1 44.9 312.4 54.6 312.4C64.3 312.4 72.1 320.1 72.4 329.7C72.4 329.9 72.4 330 72.4 330.2C72.4 330.4 72.4 330.5 72.4 330.7C72.2 333.2 70.5 335.6 67.2 337.5C60.3 341.5 49 341.5 42 337.5C38.7 335.6 37 333.2 36.8 330.7C36.8 330.5 36.8 330.4 36.8 330.2C36.8 330 36.8 329.8 36.8 329.7Z" fill="#ED1E2E"/>
<path opacity="0.7" d="M36.8 329.7C37 320.1 44.9 312.4 54.6 312.4C64.3 312.4 72.1 320.1 72.4 329.7C72.4 329.9 72.4 330 72.4 330.2C72.4 330.4 72.4 330.5 72.4 330.7C72.2 333.2 70.5 335.6 67.2 337.5C60.3 341.5 49 341.5 42 337.5C38.7 335.6 37 333.2 36.8 330.7C36.8 330.5 36.8 330.4 36.8 330.2C36.8 330 36.8 329.8 36.8 329.7Z" fill="white"/>
<path opacity="0.3" d="M46.8 314.1C49.1 313 51.7 312.3 54.5 312.3C64.2 312.3 72 320 72.3 329.6C72.3 329.8 72.3 329.9 72.3 330.1C72.3 330.3 72.3 330.4 72.3 330.6C72.1 333.1 70.4 335.5 67.1 337.4C64.6 338.9 61.4 339.8 58.2 340.2C62.8 339.4 65.8 334.3 64.4 328.6C62.7 322 56.1 312.4 46.8 314.1Z" fill="white"/>
<path opacity="0.1" d="M36.8 330.7C36.8 330.5 36.8 330.4 36.8 330.2C36.8 330 36.8 329.9 36.8 329.7C36.9 324.6 39.2 320 42.8 316.8C40.9 318.8 36.6 326.3 41.2 332C44.3 335.8 58.9 341.1 70.9 334.2C70 335.4 68.8 336.4 67.1 337.4C60.2 341.4 48.9 341.4 41.9 337.4C38.7 335.5 37 333.1 36.8 330.7Z" fill="#ED1E2E"/>
<path opacity="0.5" d="M54.7 316.4C53.9 318.2 55.4 320.6 58.1 321.8C60.8 323 63.6 322.5 64.4 320.7C65.2 318.9 63.7 316.5 61 315.3C58.4 314 55.5 314.6 54.7 316.4Z" fill="white"/>
<path opacity="0.5" d="M65 323.8C64.6 324.7 65.2 325.9 66.3 326.4C67.5 326.9 68.7 326.6 69.1 325.6C69.5 324.7 68.9 323.5 67.8 323C66.7 322.5 65.5 322.8 65 323.8Z" fill="white"/>
<path d="M21.1 340.1C21.3 331 28.8 323.7 38 323.7C47.2 323.7 54.6 331 54.9 340.1C54.9 340.3 54.9 340.4 54.9 340.6C54.9 340.8 54.9 340.9 54.9 341.1C54.7 343.4 53.1 345.7 50 347.5C43.4 351.3 32.7 351.3 26.1 347.5C23 345.7 21.4 343.4 21.2 341.1C21.2 340.9 21.2 340.8 21.2 340.6C21.1 340.4 21.1 340.3 21.1 340.1Z" fill="#ED1E2E"/>
<path opacity="0.6" d="M21.1 340.1C21.3 331 28.8 323.7 38 323.7C47.2 323.7 54.6 331 54.9 340.1C54.9 340.3 54.9 340.4 54.9 340.6C54.9 340.8 54.9 340.9 54.9 341.1C54.7 343.4 53.1 345.7 50 347.5C43.4 351.3 32.7 351.3 26.1 347.5C23 345.7 21.4 343.4 21.2 341.1C21.2 340.9 21.2 340.8 21.2 340.6C21.1 340.4 21.1 340.3 21.1 340.1Z" fill="white"/>
<path opacity="0.5" d="M30.7 325.4C32.9 324.3 35.4 323.7 38 323.7C47.2 323.7 54.6 331 54.9 340.1C54.9 340.3 54.9 340.4 54.9 340.6C54.9 340.8 54.9 340.9 54.9 341.1C54.7 343.4 53.1 345.7 50 347.5C47.6 348.9 44.6 349.8 41.5 350.1C45.9 349.3 48.7 344.5 47.4 339.1C45.8 332.8 39.4 323.8 30.7 325.4Z" fill="white"/>
<path opacity="0.15" d="M21.1 341.1C21.1 340.9 21.1 340.8 21.1 340.6C21.1 340.4 21.1 340.3 21.1 340.1C21.2 335.2 23.4 330.9 26.8 327.9C25 329.8 20.9 336.9 25.3 342.3C28.2 345.9 42.1 351 53.5 344.4C52.7 345.5 51.5 346.5 49.9 347.4C43.3 351.2 32.6 351.2 26 347.4C22.9 345.7 21.3 343.4 21.1 341.1Z" fill="#ED1E2E"/>
<path opacity="0.3" d="M38.2 327.5C37.4 329.2 38.9 331.5 41.4 332.6C43.9 333.7 46.6 333.2 47.4 331.5C48.2 329.8 46.7 327.5 44.2 326.4C41.6 325.3 38.9 325.8 38.2 327.5Z" fill="white"/>
<path opacity="0.3" d="M47.9 334.5C47.5 335.4 48.1 336.5 49.2 337C50.3 337.5 51.5 337.1 51.9 336.3C52.3 335.4 51.7 334.3 50.6 333.8C49.5 333.3 48.3 333.6 47.9 334.5Z" fill="white"/>
<path d="M56.9 347.5C57.2 336.2 66.5 327.1 77.9 327.1C89.3 327.1 98.6 336.2 98.9 347.5C98.9 347.7 98.9 347.9 98.9 348.1C98.9 348.3 98.9 348.5 98.9 348.7C98.7 351.6 96.6 354.4 92.8 356.7C84.6 361.4 71.3 361.4 63.1 356.7C59.3 354.5 57.2 351.6 57 348.7C57 348.5 57 348.3 57 348.1C56.9 347.9 56.9 347.7 56.9 347.5Z" fill="#ED1E2E"/>
<path opacity="0.8" d="M56.9 347.5C57.2 336.2 66.5 327.1 77.9 327.1C89.3 327.1 98.6 336.2 98.9 347.5C98.9 347.7 98.9 347.9 98.9 348.1C98.9 348.3 98.9 348.5 98.9 348.7C98.7 351.6 96.6 354.4 92.8 356.7C84.6 361.4 71.3 361.4 63.1 356.7C59.3 354.5 57.2 351.6 57 348.7C57 348.5 57 348.3 57 348.1C56.9 347.9 56.9 347.7 56.9 347.5Z" fill="white"/>
<path opacity="0.3" d="M68.8 329.2C71.6 327.9 74.6 327.1 77.9 327.1C89.3 327.1 98.6 336.2 98.9 347.5C98.9 347.7 98.9 347.9 98.9 348.1C98.9 348.3 98.9 348.5 98.9 348.7C98.7 351.6 96.6 354.4 92.8 356.7C89.8 358.4 86.1 359.5 82.3 360C87.7 359.1 91.3 353 89.6 346.3C87.5 338.5 79.7 327.2 68.8 329.2Z" fill="white"/>
<path opacity="0.1" d="M56.9 348.7C56.9 348.5 56.9 348.3 56.9 348.1C56.9 347.9 56.9 347.7 56.9 347.5C57.1 341.5 59.8 336.1 64 332.4C61.7 334.7 56.7 343.6 62.2 350.3C65.8 354.7 83 361 97.1 352.9C96.1 354.3 94.6 355.5 92.7 356.7C84.5 361.4 71.2 361.4 63 356.7C59.2 354.4 57.2 351.6 56.9 348.7Z" fill="#ED1E2E"/>
<path opacity="0.3" d="M78.1 331.9C77.2 334 79 336.9 82.1 338.3C85.3 339.7 88.6 339.1 89.5 336.9C90.4 334.8 88.6 331.9 85.5 330.5C82.4 329.1 79 329.7 78.1 331.9Z" fill="white"/>
<path opacity="0.3" d="M90.2 340.6C89.7 341.7 90.4 343.1 91.8 343.7C93.2 344.3 94.7 343.9 95.2 342.8C95.7 341.7 95 340.3 93.6 339.7C92.2 339 90.7 339.4 90.2 340.6Z" fill="white"/>
<path d="M169.2 361.4C168.9 351.1 160.5 342.8 150.1 342.8C139.7 342.8 131.2 351.1 131 361.4C131 361.6 131 361.7 131 361.9C131 362.1 131 362.3 131 362.4C131.2 365 133.1 367.6 136.6 369.7C144.1 374 156.2 374 163.7 369.7C167.2 367.7 169.1 365.1 169.3 362.4C169.3 362.2 169.3 362.1 169.3 361.9C169.3 361.7 169.3 361.6 169.2 361.4Z" fill="#ED1E2E"/>
<path opacity="0.9" d="M169.2 361.4C168.9 351.1 160.5 342.8 150.1 342.8C139.7 342.8 131.2 351.1 131 361.4C131 361.6 131 361.7 131 361.9C131 362.1 131 362.3 131 362.4C131.2 365 133.1 367.6 136.6 369.7C144.1 374 156.2 374 163.7 369.7C167.2 367.7 169.1 365.1 169.3 362.4C169.3 362.2 169.3 362.1 169.3 361.9C169.3 361.7 169.3 361.6 169.2 361.4Z" fill="white"/>
<path opacity="0.5" d="M158.4 344.7C155.9 343.5 153.1 342.8 150.1 342.8C139.7 342.8 131.2 351.1 131 361.4C131 361.6 131 361.7 131 361.9C131 362.1 131 362.3 131 362.4C131.2 365 133.1 367.6 136.6 369.7C139.3 371.3 142.7 372.3 146.2 372.7C141.2 371.8 138 366.3 139.5 360.2C141.3 353.1 148.5 342.9 158.4 344.7Z" fill="white"/>
<path opacity="0.1" d="M169.2 362.5C169.2 362.3 169.2 362.2 169.2 362C169.2 361.8 169.2 361.7 169.2 361.5C169.1 356 166.6 351.1 162.7 347.7C164.8 349.8 169.4 357.9 164.4 364C161.1 368 145.4 373.8 132.5 366.4C133.4 367.6 134.8 368.8 136.6 369.8C144.1 374.1 156.2 374.1 163.7 369.8C167.2 367.7 169 365.1 169.2 362.5Z" fill="#ED1E2E"/>
<path opacity="0.5" d="M149.9 347.1C150.8 349.1 149.1 351.7 146.2 352.9C143.3 354.2 140.3 353.6 139.4 351.7C138.5 349.7 140.2 347.1 143.1 345.9C146 344.6 149.1 345.1 149.9 347.1Z" fill="white"/>
<path opacity="0.5" d="M138.8 355C139.2 356 138.6 357.3 137.4 357.8C136.2 358.3 134.8 358 134.3 357C133.9 356 134.5 354.7 135.7 354.2C137 353.6 138.4 354 138.8 355Z" fill="white"/>
<path d="M89.4 363.5C89.7 353.7 97.7 345.8 107.6 345.8C117.5 345.8 125.5 353.7 125.8 363.5C125.8 363.7 125.8 363.8 125.8 364C125.8 364.2 125.8 364.3 125.8 364.5C125.6 367 123.8 369.5 120.5 371.4C113.4 375.5 101.9 375.5 94.8 371.4C91.5 369.5 89.7 367 89.5 364.5C89.5 364.3 89.5 364.2 89.5 364C89.3 363.8 89.3 363.6 89.4 363.5Z" fill="#ED1E2E"/>
<path opacity="0.9" d="M89.4 363.5C89.7 353.7 97.7 345.8 107.6 345.8C117.5 345.8 125.5 353.7 125.8 363.5C125.8 363.7 125.8 363.8 125.8 364C125.8 364.2 125.8 364.3 125.8 364.5C125.6 367 123.8 369.5 120.5 371.4C113.4 375.5 101.9 375.5 94.8 371.4C91.5 369.5 89.7 367 89.5 364.5C89.5 364.3 89.5 364.2 89.5 364C89.3 363.8 89.3 363.6 89.4 363.5Z" fill="white"/>
<path opacity="0.5" d="M99.6 347.6C102 346.4 104.7 345.8 107.5 345.8C117.4 345.8 125.4 353.7 125.7 363.5C125.7 363.7 125.7 363.8 125.7 364C125.7 364.2 125.7 364.3 125.7 364.5C125.5 367 123.7 369.5 120.4 371.4C117.8 372.9 114.6 373.8 111.3 374.2C116 373.4 119.1 368.1 117.6 362.3C115.9 355.6 109.1 345.8 99.6 347.6Z" fill="white"/>
<path opacity="0.1" d="M89.4 364.5C89.4 364.3 89.4 364.2 89.4 364C89.4 363.8 89.4 363.7 89.4 363.5C89.5 358.3 91.9 353.6 95.6 350.3C93.6 352.3 89.2 360 94 365.8C97.1 369.6 112.1 375.1 124.3 368.1C123.4 369.3 122.1 370.4 120.4 371.4C113.3 375.5 101.8 375.5 94.7 371.4C91.3 369.5 89.6 367 89.4 364.5Z" fill="#ED1E2E"/>
<path opacity="0.5" d="M107.7 349.9C106.9 351.8 108.5 354.2 111.2 355.4C113.9 356.6 116.8 356.1 117.6 354.2C118.4 352.3 116.8 349.9 114.1 348.7C111.4 347.5 108.5 348 107.7 349.9Z" fill="white"/>
<path opacity="0.5" d="M118.3 357.4C117.9 358.4 118.5 359.6 119.7 360.1C120.9 360.6 122.2 360.3 122.6 359.3C123 358.3 122.4 357.1 121.2 356.6C120 356.1 118.7 356.5 118.3 357.4Z" fill="white"/>
<path d="M136.6 369.8C136.5 365.8 133.2 362.6 129.2 362.6C125.2 362.6 121.9 365.8 121.8 369.8C121.8 369.9 121.8 369.9 121.8 370C121.8 370.1 121.8 370.1 121.8 370.2C121.9 371.2 122.6 372.2 124 373C126.9 374.7 131.6 374.7 134.5 373C135.9 372.2 136.6 371.2 136.7 370.2C136.7 370.1 136.7 370.1 136.7 370C136.6 370 136.6 369.9 136.6 369.8Z" fill="#ED1E2E"/>
<path opacity="0.9" d="M136.6 369.8C136.5 365.8 133.2 362.6 129.2 362.6C125.2 362.6 121.9 365.8 121.8 369.8C121.8 369.9 121.8 369.9 121.8 370C121.8 370.1 121.8 370.1 121.8 370.2C121.9 371.2 122.6 372.2 124 373C126.9 374.7 131.6 374.7 134.5 373C135.9 372.2 136.6 371.2 136.7 370.2C136.7 370.1 136.7 370.1 136.7 370C136.6 370 136.6 369.9 136.6 369.8Z" fill="white"/>
<path opacity="0.6" d="M132.4 363.4C131.4 362.9 130.3 362.7 129.2 362.7C125.2 362.7 121.9 365.9 121.8 369.9C121.8 370 121.8 370 121.8 370.1C121.8 370.2 121.8 370.2 121.8 370.3C121.9 371.3 122.6 372.3 124 373.1C125.1 373.7 126.4 374.1 127.7 374.3C125.8 374 124.5 371.8 125.1 369.5C125.7 366.6 128.5 362.6 132.4 363.4Z" fill="white"/>
<path opacity="0.1" d="M136.6 370.2C136.6 370.1 136.6 370.1 136.6 370C136.6 369.9 136.6 369.9 136.6 369.8C136.5 367.7 135.6 365.8 134.1 364.4C134.9 365.2 136.7 368.3 134.7 370.7C133.4 372.3 127.3 374.5 122.3 371.6C122.7 372.1 123.2 372.5 123.9 372.9C126.8 374.6 131.5 374.6 134.4 372.9C135.8 372.3 136.5 371.3 136.6 370.2Z" fill="#ED1E2E"/>
<path opacity="0.5" d="M129.1 364.3C129.4 365.1 128.8 366.1 127.7 366.6C126.6 367.1 125.4 366.9 125.1 366.1C124.8 365.3 125.4 364.3 126.5 363.8C127.6 363.3 128.7 363.5 129.1 364.3Z" fill="white"/>
<path opacity="0.5" d="M124.8 367.4C125 367.8 124.7 368.3 124.2 368.5C123.7 368.7 123.2 368.6 123 368.2C122.8 367.8 123.1 367.3 123.6 367.1C124.1 366.8 124.6 367 124.8 367.4Z" fill="white"/>
<path d="M0.100006 327.9C0.200006 323.9 3.5 320.7 7.5 320.7C11.5 320.7 14.8 323.9 14.9 327.9C14.9 328 14.9 328 14.9 328.1C14.9 328.2 14.9 328.2 14.9 328.3C14.8 329.3 14.1 330.3 12.7 331.1C9.80001 332.8 5.10001 332.8 2.20001 331.1C0.800012 330.3 0.1 329.3 0 328.3C0 328.2 0 328.2 0 328.1C0.1 328 0.100006 327.9 0.100006 327.9Z" fill="#ED1E2E"/>
<path opacity="0.2" d="M0.100006 327.9C0.200006 323.9 3.5 320.7 7.5 320.7C11.5 320.7 14.8 323.9 14.9 327.9C14.9 328 14.9 328 14.9 328.1C14.9 328.2 14.9 328.2 14.9 328.3C14.8 329.3 14.1 330.3 12.7 331.1C9.80001 332.8 5.10001 332.8 2.20001 331.1C0.800012 330.3 0.1 329.3 0 328.3C0 328.2 0 328.2 0 328.1C0.1 328 0.100006 327.9 0.100006 327.9Z" fill="white"/>
<path opacity="0.5" d="M4.29999 321.4C5.29999 320.9 6.39998 320.7 7.49998 320.7C11.5 320.7 14.8 323.9 14.9 327.9C14.9 328 14.9 328 14.9 328.1C14.9 328.2 14.9 328.2 14.9 328.3C14.8 329.3 14.1 330.3 12.7 331.1C11.6 331.7 10.3 332.1 8.99998 332.3C10.9 332 12.2 329.8 11.6 327.5C10.9 324.7 8.09999 320.7 4.29999 321.4Z" fill="white"/>
<path opacity="0.05" d="M0.100006 328.3C0.100006 328.2 0.100006 328.2 0.100006 328.1C0.100006 328 0.100006 328 0.100006 327.9C0.200006 325.8 1.10001 323.9 2.60001 322.5C1.80001 323.3 0 326.4 2 328.8C3.3 330.4 9.40001 332.6 14.4 329.7C14 330.2 13.5 330.6 12.8 331C9.9 332.7 5.2 332.7 2.3 331C0.900003 330.3 0.200006 329.3 0.100006 328.3Z" fill="#455A64"/>
<path opacity="0.3" d="M7.6 322.3C7.3 323.1 7.9 324.1 9 324.6C10.1 325.1 11.3 324.9 11.6 324.1C11.9 323.3 11.3 322.3 10.2 321.8C9.10001 321.4 7.9 321.6 7.6 322.3Z" fill="white"/>
<path opacity="0.3" d="M11.9 325.4C11.7 325.8 12 326.3 12.5 326.5C13 326.7 13.5 326.6 13.7 326.2C13.9 325.8 13.6 325.3 13.1 325.1C12.6 324.9 12 325 11.9 325.4Z" fill="white"/>
<path d="M152.8 198L156.9 148.8L173.3 158.2C181.2 162.7 184.7 174.4 183.4 191.5L181.3 219.1L176.9 203.8C174.5 195.5 168.4 192.6 159.5 195.7L152.8 198Z" fill="black"/>
<path d="M104.1 198L100 148.8L83.6 158.2C75.7 162.7 72.2 174.4 73.5 191.5L75.6 219.1L80 203.8C82.4 195.5 88.5 192.6 97.4 195.7L104.1 198Z" fill="black"/>
<path d="M152.7 221.9L149.6 208.3H107.3L104.2 221.9C103.4 226 105.7 230.3 111.2 233.4C120.7 238.9 136.1 238.9 145.6 233.4C151.2 230.2 153.5 226 152.7 221.9Z" fill="#252525"/>
<path d="M128.5 222.3C140.264 222.3 149.8 216.793 149.8 210C149.8 203.207 140.264 197.7 128.5 197.7C116.736 197.7 107.2 203.207 107.2 210C107.2 216.793 116.736 222.3 128.5 222.3Z" fill="#111111"/>
<path d="M104.3 221.9C103.5 226 105.8 230.3 111.3 233.4C120.8 238.9 136.2 238.9 145.7 233.4C151.2 230.2 153.5 226 152.7 221.9L151.8 218C152.6 221.7 150.5 225.7 145.5 228.6C136.1 234 120.9 234 111.5 228.6C106.4 225.7 104.3 221.7 105.2 218L104.3 221.9Z" fill="black"/>
<path d="M106.2 213.3C105.4 217 107.4 220.8 112.3 223.7C121.2 228.8 135.7 228.8 144.6 223.7C149.5 220.9 151.5 217 150.7 213.4L149.5 208.3C150.4 212 148.3 215.8 143.4 218.7C135.1 223.5 121.6 223.5 113.2 218.7C108.3 215.9 106.3 212 107.1 208.3L106.2 213.3Z" fill="black"/>
<path opacity="0.1" d="M144.3 208.3H141.1C142.2 212.9 145 225.1 145.3 227.9C145.8 231.4 138.1 237.2 118 236.1C127.1 238.6 138.2 237.7 145.7 233.4C147.8 232.2 149.4 230.8 150.6 229.3L144.3 208.3Z" fill="white"/>
<path d="M128.5 222.3C140.264 222.3 149.8 216.793 149.8 210C149.8 203.207 140.264 197.7 128.5 197.7C116.736 197.7 107.2 203.207 107.2 210C107.2 216.793 116.736 222.3 128.5 222.3Z" fill="#111111"/>
<path d="M171 110C171 57.4 148.8 11.9 132.2 1.40001C132.1 1.30001 131.9 1.20001 131.8 1.10001C131.8 1.10001 131.7 1.1 131.7 1C130.8 0.500004 129.7 0.100006 128.5 0.100006C127.3 0.100006 126.2 0.400004 125.3 1C125.3 1 125.2 1.00001 125.2 1.10001C125 1.20001 124.9 1.30001 124.8 1.40001C108.3 11.9 86 57.4 86 110C86 160.6 100.2 205.5 101.5 209.7C101.5 209.8 101.6 209.9 101.6 210C102.6 212.9 105.1 215.7 109.1 218C119.8 224.2 137.1 224.2 147.8 218C151.9 215.6 154.4 212.7 155.4 209.7C156.8 205.5 171 160.6 171 110Z" fill="#ED1E2E"/>
<path d="M144.3 14C140.2 8.1 136 3.8 132.2 1.3C132.1 1.2 131.9 1.1 131.8 1C131.8 1 131.7 1 131.7 0.900002C130.8 0.400002 129.7 0 128.5 0C127.3 0 126.2 0.300002 125.3 0.900002C125.3 0.900002 125.3 0.9 125.2 1C125 1.1 124.9 1.2 124.8 1.3C121 3.8 116.8 8.1 112.7 14C110.3 17.4 107.9 21.4 105.6 25.8C106.3 28.5 108.5 31.1 112.1 33.2C121.2 38.4 135.8 38.4 144.9 33.2C148.5 31.1 150.7 28.5 151.4 25.8C149.1 21.4 146.7 17.4 144.3 14Z" fill="black"/>
<path opacity="0.15" d="M86 110C86 160.6 100.2 205.5 101.5 209.7C101.5 209.8 101.6 209.9 101.6 210C102.6 212.9 105.1 215.7 109.1 218C110.9 219 112.9 219.9 115.1 220.6C108.2 195.7 100.1 153.5 100.1 111.3C100.1 53 114.5 11.7 124.8 1.39999C108.2 11.9 86 57.4 86 110Z" fill="black"/>
<path opacity="0.35" d="M171 110C171 160.6 156.8 205.5 155.5 209.7C155.5 209.8 155.4 209.9 155.4 210C154.4 212.9 151.9 215.7 147.9 218C155.9 188.7 165.1 153.4 165.1 111.3C165.1 53 142.7 11.7 132.3 1.39999C148.7 11.9 171 57.4 171 110Z" fill="white"/>
<path d="M176.3 184.2L160.9 155.9L156.8 158.2L149.7 202.8L156.4 208.2C165.2 215.3 171.4 225.3 173.8 236.4L178.2 256.8C178.2 256.8 180.1 243.8 182.3 228.2C184.2 214 184.2 197.8 176.3 184.2Z" fill="#111111"/>
<path d="M149.8 202.7L156.9 158.1L172.3 186.4C180.2 200 181.7 215.7 180.4 231.4L178.3 256.6L173.9 236.2C171.5 225.1 165.4 215.2 156.5 208L149.8 202.7Z" fill="black"/>
<path d="M80.6 184.2L96 155.9L100.1 158.2L107.1 202.7L100.4 208.1C91.6 215.2 85.4 225.2 83 236.3L78.6 256.7C78.6 256.7 76.7 243.7 74.5 228.1C72.7 214 72.7 197.8 80.6 184.2Z" fill="#111111"/>
<path d="M107.1 202.7L100 158.1L84.6 186.4C76.7 200 75.2 215.7 76.5 231.4L78.6 256.6L83 236.2C85.4 225.1 91.5 215.2 100.4 208L107.1 202.7Z" fill="black"/>
<path d="M146.987 83.4508C147.834 73.2133 140.221 64.2272 129.984 63.3799C119.746 62.5326 110.76 70.145 109.913 80.3826C109.066 90.6201 116.678 99.6062 126.916 100.453C137.153 101.301 146.139 93.6884 146.987 83.4508Z" fill="black"/>
<path d="M128.5 96.7C136.674 96.7 143.3 90.0738 143.3 81.9C143.3 73.7262 136.674 67.1 128.5 67.1C120.326 67.1 113.7 73.7262 113.7 81.9C113.7 90.0738 120.326 96.7 128.5 96.7Z" fill="#ED1E2E"/>
<path opacity="0.7" d="M128.5 96.7C136.674 96.7 143.3 90.0738 143.3 81.9C143.3 73.7262 136.674 67.1 128.5 67.1C120.326 67.1 113.7 73.7262 113.7 81.9C113.7 90.0738 120.326 96.7 128.5 96.7Z" fill="white"/>
<path d="M141.8 126.5C141.8 133.8 135.9 139.8 128.5 139.8C121.2 139.8 115.2 133.9 115.2 126.5C115.2 119.2 121.1 113.2 128.5 113.2C135.8 113.3 141.8 119.2 141.8 126.5Z" fill="black"/>
<path d="M137.91 128.76C139.141 123.546 135.912 118.322 130.699 117.091C125.485 115.859 120.261 119.088 119.03 124.302C117.798 129.515 121.027 134.74 126.241 135.971C131.454 137.202 136.679 133.973 137.91 128.76Z" fill="#ED1E2E"/>
<path opacity="0.7" d="M137.91 128.76C139.141 123.546 135.912 118.322 130.699 117.091C125.485 115.859 120.261 119.088 119.03 124.302C117.798 129.515 121.027 134.74 126.241 135.971C131.454 137.202 136.679 133.973 137.91 128.76Z" fill="white"/>
</svg>
