<svg width="140" height="120" viewBox="0 0 140 120" fill="none" xmlns="http://www.w3.org/2000/svg">
<path opacity="0.1" d="M124.652 54.7997C121.936 44.2544 112.024 44.9092 102.637 46.8673C97.5867 47.9191 90.5121 49.377 83.1313 47.2249C67.2422 42.5964 48.9766 41.4385 39.9741 47.2249C30.9717 53.0114 25.5611 59.983 28.1558 69.722C30.7504 79.461 37.3462 88.2209 31.7386 93.4314C26.131 98.6419 26.225 118.387 49.2858 119.923C72.3466 121.46 70.0611 99.33 85.2925 100.358C100.524 101.385 131.787 116.368 133.109 105.504C134.43 94.6439 117.465 86.8933 123.548 68.8581C124.752 65.2814 125.894 59.6222 124.652 54.7997Z" fill="#2C2A40"/>
<path opacity="0.1" d="M71.6221 37.5405C71.6221 37.5405 72.2101 33.7576 73.8681 33.9062C74.3258 33.9456 74.638 34.4124 74.8442 34.9125C74.9715 35.2217 75.411 35.1974 75.5019 34.8791C75.9414 33.3424 76.8386 30.9963 78.2299 30.9963C79.6697 30.9963 79.7152 33.6788 79.6121 35.3156C79.597 35.5612 79.9152 35.6703 80.0547 35.4672C80.4336 34.9095 80.9883 34.373 81.6612 34.5275C82.9736 34.8307 82.619 37.5435 82.619 37.5435H71.6221V37.5405Z" fill="#2C2A40"/>
<path opacity="0.1" d="M10.9727 73.1107C10.9727 73.1107 11.5607 69.3279 13.2187 69.4764C13.6764 69.5158 13.9886 69.9826 14.1947 70.4828C14.3221 70.7919 14.7616 70.7677 14.8525 70.4494C15.292 68.9126 16.1892 66.5665 17.5805 66.5665C19.0203 66.5665 19.0658 69.2491 18.9627 70.8859C18.9475 71.1314 19.2658 71.2405 19.4052 71.0375C19.7841 70.4797 20.3388 69.9432 21.0117 70.0978C22.3242 70.4009 21.9696 73.1138 21.9696 73.1138H10.9727V73.1107Z" fill="#2C2A40"/>
<path opacity="0.1" d="M127.658 58.0006C127.658 58.0006 128.246 54.2177 129.904 54.3662C130.362 54.4056 130.674 54.8724 130.88 55.3726C131.008 55.6817 131.447 55.6575 131.538 55.3392C131.978 53.8025 132.875 51.4564 134.266 51.4564C135.706 51.4564 135.751 54.1389 135.648 55.7757C135.633 56.0212 135.951 56.1304 136.091 55.9273C136.47 55.3695 137.024 54.833 137.697 54.9876C139.01 55.2907 138.655 58.0036 138.655 58.0036H127.658V58.0006Z" fill="#2C2A40"/>
<path d="M123.315 119.739C123.315 119.739 125.167 119.411 125.058 116.962C124.949 114.513 124.134 111.136 122.5 110.154C120.866 109.175 119.675 110.591 119.675 110.591L123.315 119.739Z" fill="#7B7B9A"/>
<path d="M116.016 110.154C116.07 110.97 116.831 112.17 118.465 113.04C120.099 113.913 120.972 117.017 121.705 118.378C122.042 119.002 122.409 119.341 122.709 119.526C123.06 119.742 123.315 119.742 123.315 119.742C123.315 119.742 123.324 119.526 123.327 119.157C123.333 118.271 123.294 116.501 122.978 114.625C122.533 111.958 120.951 111.03 120.951 111.03C120.663 110.539 120.041 110.187 119.332 109.966C118.174 109.606 116.786 109.587 116.246 109.86C116.092 109.933 116.01 110.033 116.016 110.154Z" fill="#B0B1CA"/>
<path d="M122.348 114.183C122.733 115.816 122.909 118.514 122.712 119.523C123.063 119.739 123.318 119.739 123.318 119.739C123.318 119.739 123.427 117.289 122.978 114.619C122.533 111.952 120.951 111.024 120.951 111.024C120.663 110.533 120.041 110.181 119.332 109.96C120.266 110.9 122.021 112.8 122.348 114.183Z" fill="#2C2A40"/>
<path opacity="0.2" d="M116.016 110.154C116.07 110.97 116.831 112.17 118.465 113.04C120.099 113.913 120.972 117.017 121.705 118.378C122.042 119.002 122.409 119.341 122.709 119.526C123.06 119.742 123.315 119.742 123.315 119.742C123.315 119.742 123.324 119.526 123.327 119.157C123.291 119.123 123.251 119.099 123.206 119.09C122.663 118.954 121.927 118.744 121.49 116.72C121.054 114.698 120.32 113.234 119.068 112.609C117.926 112.04 116.489 110.184 116.246 109.86C116.092 109.933 116.01 110.033 116.016 110.154Z" fill="#2C2A40"/>
<path d="M102.862 58.9736C102.862 58.9736 115.471 57.0791 118.897 62.4351C122.319 67.7911 117.72 85.6899 114.01 88.3998C110.3 91.1096 104.132 89.7062 101.825 88.0027C99.5155 86.2992 98.4456 61.5622 102.862 58.9736Z" fill="#2C2A40"/>
<path d="M117.468 81.2645C117.468 81.2645 119.065 80.8826 119.638 79.0033L117.732 78.1606C117.732 78.1606 116.986 80.0945 117.468 81.2645Z" fill="#00497B"/>
<path d="M117.468 77.9697C120.081 81.9465 125.982 82.9801 125.982 82.9801C127.204 82.6224 128.831 80.925 130.441 78.8517C133.499 74.9143 136.491 69.625 136.491 69.625L134.042 68.8096C134.042 68.8096 129.741 73.5624 127.889 74.596C126.037 75.6296 125.491 76.6117 125.491 76.6117C125.297 76.4026 125.076 76.1964 124.836 75.9994C123.521 74.9143 121.708 74.0656 121.708 74.0656C119.611 73.4745 117.468 77.9697 117.468 77.9697Z" fill="#F9B587"/>
<path d="M117.468 77.9697C120.081 81.9465 125.982 82.9801 125.982 82.9801C127.204 82.6224 128.831 80.925 130.441 78.8517C130.441 78.8517 127.564 81.9071 125.737 82.1647C123.909 82.4224 120.444 79.9308 120.096 78.979C119.747 78.0272 120.262 75.5993 121.705 74.0625C119.611 73.4745 117.468 77.9697 117.468 77.9697Z" fill="#F39568"/>
<path d="M92.389 88.3997C92.389 88.3997 92.2526 96.4353 93.3801 101.509C94.5077 106.583 99.3272 93.2011 99.3272 93.2011C99.3272 93.2011 95.0079 89.4121 92.389 88.3997Z" fill="#2C2A40"/>
<path d="M109.233 93.1071C109.233 93.1071 109.127 97.8447 106.023 101.194C102.919 104.544 101.585 108.463 101.585 108.463C101.585 108.463 106.232 106.338 109.23 106.911C109.23 106.911 110.8 106.993 111.373 106.338C111.945 105.683 112.109 104.907 113.006 105.153C113.904 105.398 115.171 105.113 115.498 105.071C115.825 105.032 117.908 108.338 117.498 110.503C117.498 110.503 115.865 110.951 115.662 111.239C115.459 111.524 114.273 112.752 113.537 112.709C112.8 112.67 110.842 113.813 110.842 113.813C110.842 113.813 100.739 117.656 99.8149 118.305C98.2569 119.396 90.9125 120.593 90.2578 116.468C89.603 112.343 96.0169 92.7373 96.9141 90.6155C97.8144 88.4937 108.154 90.5367 109.233 93.1071Z" fill="#2C2A40"/>
<path d="M100.048 106.705L100.333 106.808C100.436 106.526 100.563 106.223 100.709 105.914L100.436 105.783C100.284 106.105 100.154 106.414 100.048 106.705Z" fill="#5B5B6C"/>
<path d="M114.983 106.292L115.047 106.59C115.347 106.523 115.671 106.459 116.008 106.402L115.956 106.102C115.617 106.162 115.29 106.226 114.983 106.292Z" fill="#5B5B6C"/>
<path d="M99.9671 109.039L99.667 109.072L99.67 109.105C99.7216 109.524 99.8489 109.836 100.055 110.06L100.276 109.854C100.116 109.681 100.013 109.415 99.9701 109.066L99.9671 109.039Z" fill="#5B5B6C"/>
<path d="M102.361 109.93L102.443 110.221C102.755 110.133 103.083 110.03 103.392 109.93L103.298 109.642C102.992 109.739 102.667 109.845 102.361 109.93Z" fill="#5B5B6C"/>
<path d="M102.122 102.882C101.931 103.17 101.75 103.449 101.586 103.713L101.844 103.874C102.007 103.613 102.186 103.334 102.377 103.049L102.122 102.882Z" fill="#5B5B6C"/>
<path d="M101.488 104.456L101.227 104.301C101.051 104.601 100.888 104.892 100.742 105.168L101.009 105.31C101.154 105.038 101.315 104.75 101.488 104.456Z" fill="#5B5B6C"/>
<path d="M107.772 92.7858L107.472 92.7343C107.418 93.0556 107.351 93.3769 107.278 93.6921L107.572 93.7588C107.648 93.4375 107.715 93.1101 107.772 92.7858Z" fill="#5B5B6C"/>
<path d="M103.319 101.682L103.074 101.506C102.868 101.797 102.683 102.061 102.507 102.316L102.755 102.488C102.931 102.234 103.116 101.97 103.319 101.682Z" fill="#5B5B6C"/>
<path d="M104.053 100.154C103.862 100.418 103.668 100.682 103.474 100.952L103.719 101.13C103.913 100.864 104.107 100.597 104.298 100.333L104.053 100.154Z" fill="#5B5B6C"/>
<path d="M100.127 107.444L99.8331 107.366C99.7392 107.717 99.6785 108.051 99.6543 108.36L99.9574 108.384C99.9817 108.093 100.039 107.778 100.127 107.444Z" fill="#5B5B6C"/>
<path d="M100.788 110.121L100.73 110.418C100.846 110.439 100.97 110.451 101.106 110.451C101.303 110.451 101.519 110.43 101.767 110.381L101.713 110.084C101.331 110.154 101.031 110.166 100.788 110.121Z" fill="#5B5B6C"/>
<path d="M108.902 108.805L108.954 109.105C109.284 109.051 109.612 108.978 109.93 108.893L109.851 108.599C109.542 108.681 109.224 108.751 108.902 108.805Z" fill="#5B5B6C"/>
<path d="M110.493 108.402L110.593 108.687C110.927 108.572 111.239 108.442 111.521 108.299L111.384 108.029C111.115 108.166 110.814 108.29 110.493 108.402Z" fill="#5B5B6C"/>
<path d="M103.946 109.43L104.037 109.718C104.416 109.596 104.704 109.515 104.977 109.445L104.901 109.151C104.625 109.224 104.331 109.308 103.946 109.43Z" fill="#5B5B6C"/>
<path d="M107.269 108.951L107.272 109.254C107.599 109.251 107.935 109.233 108.269 109.196L108.239 108.896C107.914 108.93 107.587 108.948 107.269 108.951Z" fill="#5B5B6C"/>
<path d="M113.358 106.759L113.468 107.041C113.725 106.941 114.037 106.841 114.392 106.747L114.313 106.453C113.949 106.55 113.625 106.653 113.358 106.759Z" fill="#5B5B6C"/>
<path d="M112.409 107.317C112.294 107.444 112.139 107.572 111.954 107.699L112.124 107.951C112.327 107.811 112.497 107.669 112.63 107.523C112.691 107.456 112.773 107.393 112.876 107.326L112.715 107.068C112.591 107.147 112.485 107.232 112.409 107.317Z" fill="#5B5B6C"/>
<path d="M107.114 94.3499C107.029 94.6681 106.932 94.9803 106.829 95.2834L107.117 95.3804C107.22 95.0713 107.317 94.753 107.405 94.4287L107.114 94.3499Z" fill="#5B5B6C"/>
<path d="M104.455 99.6028L104.701 99.7816C104.898 99.5119 105.092 99.2451 105.283 98.9845L105.037 98.8056C104.846 99.0663 104.652 99.333 104.455 99.6028Z" fill="#5B5B6C"/>
<path d="M106.18 97.5598L105.913 97.4174C105.758 97.7083 105.592 97.9902 105.419 98.2539L105.674 98.4207C105.849 98.1479 106.022 97.8569 106.18 97.5598Z" fill="#5B5B6C"/>
<path d="M106.217 96.8142L106.49 96.9445C106.629 96.6505 106.759 96.3413 106.881 96.0291L106.599 95.92C106.48 96.2261 106.353 96.5262 106.217 96.8142Z" fill="#5B5B6C"/>
<path d="M105.58 109.005L105.632 109.305C105.986 109.245 106.292 109.224 106.58 109.236L106.596 108.933C106.283 108.917 105.959 108.942 105.58 109.005Z" fill="#5B5B6C"/>
<path d="M92.0156 34.6215L93.2463 39.8714L93.2523 39.9048C93.2523 39.9048 93.3342 40.8777 93.5979 42.1599C93.8949 43.5906 94.4193 45.4093 95.3165 46.7005C95.4529 46.8976 95.6014 47.0855 95.756 47.2552C95.756 47.2552 96.535 50.253 97.3777 52.8416C97.8718 54.3663 98.3871 55.7515 98.7781 56.2941C98.7781 56.2941 103.755 55.3574 102.564 52.3809C102.564 52.3809 100.87 48.501 99.5358 45.6396C99.5358 45.6366 99.5358 45.6366 99.5358 45.6366C99.2782 45.0819 99.0327 44.5666 98.8175 44.1241L97.2928 40.6413L96.5623 38.9712L94.3435 33.9062L92.0156 34.6215Z" fill="#F9B587"/>
<path d="M97.3809 52.8416C97.8749 54.3663 98.3902 55.7515 98.7812 56.2941C98.7812 56.2941 103.758 55.3574 102.567 52.3809C102.567 52.3809 100.873 48.501 99.539 45.6396C99.5724 45.7518 100.736 49.8408 100.388 50.9896C100.036 52.1566 98.9995 53.2538 97.3809 52.8416Z" fill="#F39568"/>
<path d="M97.4113 56.4881C97.4841 58.6523 98.3752 61.2287 99.4088 62.7655C100.03 63.4202 100.809 63.4202 101.606 63.0777C103.631 62.2108 105.771 59.1494 105.771 59.1494L102.855 52.9871L102.57 52.3839C100.924 52.8325 99.2542 54.0056 98.2873 54.7724C97.7629 55.1877 97.4447 55.4848 97.4447 55.4848C97.4083 55.803 97.3992 56.1395 97.4113 56.4881Z" fill="#0029DD"/>
<path opacity="0.2" d="M97.4113 56.4881C97.4841 58.6523 98.3752 61.2288 99.4088 62.7655C100.03 63.4203 100.809 63.4203 101.606 63.0777C99.8605 61.3439 98.6632 56.485 98.2873 54.7725C97.7629 55.1877 97.4447 55.4848 97.4447 55.4848C97.4083 55.803 97.3992 56.1395 97.4113 56.4881Z" fill="#2C2A40"/>
<path d="M97.4114 56.4881C98.7754 55.1331 101.894 53.4781 102.852 52.9871L102.567 52.3839C100.03 53.078 97.4417 55.4848 97.4417 55.4848C97.4083 55.803 97.3993 56.1395 97.4114 56.4881Z" fill="#2C2A40"/>
<path d="M90.791 89.4334C94.586 94.3438 110.427 94.6621 110.427 94.6621C110.427 94.6621 109.866 88.1603 110.427 84.9412C111.045 81.4009 111.578 76.1995 111.578 76.1995C113.027 77.2604 115.24 79.2306 116.501 80.3764C117.086 80.9099 117.468 81.2645 117.468 81.2645C117.865 79.4398 118.417 78.0576 118.99 77.0179C120.29 74.6597 121.705 74.0625 121.705 74.0625L121.042 73.1956L116.234 66.9151L111.066 62.6352L110.178 61.8986L106.11 59.2949L104.446 58.2279C104.446 58.2279 100.142 60.0284 98.9175 61.8986C97.6929 63.7688 94.877 72.4379 94.0161 76.6905C92.9007 82.2102 91.5579 86.8812 91.0244 88.6604L91.0214 88.6635C90.8759 89.1606 90.791 89.4334 90.791 89.4334Z" fill="#0029DD"/>
<path opacity="0.2" d="M90.791 89.4334C94.586 94.3438 110.427 94.6621 110.427 94.6621C110.427 94.6621 109.866 88.1603 110.427 84.9412C111.045 81.4009 111.578 76.1995 111.578 76.1995C113.027 77.2604 115.24 79.2306 116.501 80.3764C117.086 80.9099 117.468 81.2645 117.468 81.2645C117.865 79.4398 118.417 78.0576 118.99 77.0179C118.99 77.0179 113.437 74.008 111.063 71.38C111.063 71.38 108.105 79.564 107.086 83.6864C105.768 89.0242 101.297 91.2005 97.1928 90.9277C93.0916 90.6549 91.0244 88.6574 91.0244 88.6574L91.0214 88.6604C90.8759 89.1606 90.791 89.4334 90.791 89.4334Z" fill="#2C2A40"/>
<path d="M108.538 63.59C109.478 63.4051 109.954 62.8837 110.669 62.3018L110.178 61.8956L105.841 58.4522C105.265 58.816 104.546 59.1767 104.446 60.6377C104.298 62.8443 106.623 63.9659 108.538 63.59Z" fill="#2C2A40"/>
<path d="M116.501 80.3764C117.086 80.9098 117.468 81.2645 117.468 81.2645C118.765 75.3023 121.705 74.0625 121.705 74.0625L121.042 73.1956C119.832 74.0595 117.31 76.3025 116.501 80.3764Z" fill="#2C2A40"/>
<path d="M113.437 56.8518C113.437 56.8518 113.522 59.2191 110.794 59.7041C110.794 59.7041 111.476 56.6063 113.437 56.8518Z" fill="#2C2A40"/>
<path d="M108.965 51.7777C110.614 54.4269 113.276 56.6548 113.276 56.6548C113.276 56.6548 118.959 53.9116 117.092 49.4013C116.592 48.1919 115.976 47.3068 115.306 46.6702C112.463 43.9544 108.674 45.7094 108.674 45.7094C107.022 47.422 107.689 49.7256 108.965 51.7777Z" fill="#0029DD"/>
<path opacity="0.2" d="M108.966 51.7777C110.615 54.4269 113.276 56.6548 113.276 56.6548C113.276 56.6548 118.959 53.9116 117.092 49.4013C116.592 48.1919 115.977 47.3068 115.307 46.6703C115.34 46.7218 116.907 49.2316 115.307 50.9047C113.688 52.5931 110.888 53.1963 108.966 51.7777Z" fill="#2C2A40"/>
<path d="M113.246 50.5743C113.246 50.5743 111.76 42.8904 107.005 43.239C102.552 43.5664 106.022 49.4559 106.022 49.4559C106.022 49.4559 112.448 51.2927 113.246 50.5743Z" fill="#2C2A40"/>
<path d="M107.368 47.8554C107.368 47.8554 105.328 48.2616 105.519 50.1409C105.519 50.1409 107.247 49.1164 107.368 47.8554Z" fill="#2C2A40"/>
<path d="M110.925 59.2373L110.176 61.8986C110.098 62.2623 109.819 62.5473 109.455 62.6261C106.333 63.3141 104.848 61.0226 105.16 60.2224C105.563 60.0799 112.51 57.8551 113.774 55.1847C113.777 55.1816 113.335 57.5702 110.925 59.2373Z" fill="#F9B587"/>
<path d="M105.521 59.1191C106.521 59.504 107.928 59.8526 109.392 59.5919C112.156 59.1009 113.596 55.8303 113.596 55.8303C113.596 55.8303 114.057 53.6085 113.435 51.5534C113.269 50.9957 113.02 50.4501 112.663 49.9651C111.362 48.207 109.201 47.8948 108.013 47.7796C107.422 47.7221 106.849 48.007 106.54 48.5132L106.018 49.3649L105.67 49.9348C105.594 50.056 105.527 50.1833 105.467 50.3106C105.264 50.7441 105.139 51.2078 105.103 51.6868L105.063 52.2445C104.794 52.59 104.588 52.975 104.448 53.3812C104.327 53.7328 104.254 54.1056 104.239 54.4815L104.13 56.9912C104.09 57.9279 104.648 58.7857 105.521 59.1191Z" fill="#F9B587"/>
<path d="M108.38 50.7744C108.38 50.7744 110.593 49.9378 111.063 51.7686L110.717 52.0323C110.717 52.0323 110.047 50.6228 108.289 51.2503L108.38 50.7744Z" fill="#2C2A40"/>
<path d="M105.061 52.2475C104.791 52.5931 104.585 52.978 104.445 53.3842C104.882 53.2933 105.637 53.3902 106.904 54.1602C106.904 54.1602 106.437 53.2569 105.721 52.9295C105.53 52.8416 105.476 52.5931 105.618 52.4354L106.561 51.3776C106.561 51.3776 106.525 51.0684 106.258 50.8411C106.094 50.7016 105.755 50.4743 105.467 50.3137C105.264 50.7441 105.139 51.2109 105.103 51.6898L105.061 52.2475Z" fill="#F39568"/>
<path d="M105.694 49.9711C106.203 50.2348 106.557 50.5683 106.557 50.5683L106.43 50.9926C106.112 50.7047 105.803 50.5167 105.512 50.4016C105.369 50.344 105.296 50.1863 105.36 50.0651C105.36 50.0621 105.363 50.0621 105.363 50.0621C105.418 49.9469 105.569 49.9075 105.694 49.9711Z" fill="#2C2A40"/>
<path d="M104.84 54.439L108.677 55.7C108.677 55.7 107.386 57.5035 105.449 56.5972C103.927 55.8849 104.84 54.439 104.84 54.439Z" fill="white"/>
<path d="M105.767 59.1494C105.767 59.1494 108.177 59.8617 110.792 57.2186C110.792 57.2186 110.85 58.6402 109.447 60.0315C108.425 61.0469 106.494 60.8771 105.518 60.7104C105.224 60.6589 105.07 60.3346 105.221 60.0769L105.767 59.1494Z" fill="#F39568"/>
<path d="M112.884 54.8786C112.884 54.8786 114.157 53.8601 114.909 54.8967C115.66 55.9334 113.778 58.7069 112.557 57.4974C111.332 56.2911 112.884 54.8786 112.884 54.8786Z" fill="#F9B587"/>
<path d="M108.329 52.1414C108.329 52.1414 108.832 51.5777 109.42 51.8323C110.281 52.2021 110.13 53.0023 110.13 53.0023C110.13 53.0023 109.796 51.4898 108.329 52.1414Z" fill="#2C2A40"/>
<path d="M106.195 51.7565C106.195 51.7565 105.91 50.7956 105.186 51.4958C105.189 51.4928 105.822 51.1199 106.195 51.7565Z" fill="#2C2A40"/>
<path d="M105.989 49.3558C105.992 49.3831 105.922 49.4922 105.925 49.5195C105.925 49.5195 107.168 48.4798 109.353 49.3255C111.539 50.1682 112.609 52.2384 112.609 52.2384L113.436 51.5564C113.269 50.9987 113.021 50.4531 112.663 49.9681C111.363 48.2101 109.202 47.8978 108.013 47.7827C107.422 47.7251 106.849 48.01 106.54 48.5162L105.989 49.3558Z" fill="#F39568"/>
<path d="M112.218 55.0422L112.936 55.3696L113.982 54.4299C114.146 53.5267 113.415 51.1169 113.242 50.5743C113.151 50.4864 113 50.3985 112.891 50.3137C112.891 50.3137 112.169 52.8052 112.951 53.7297L112.218 55.0422Z" fill="#2C2A40"/>
<path d="M93.2471 39.8714L93.2531 39.9048C93.2531 39.9048 93.335 40.8778 93.5987 42.1599L97.2906 40.6444L96.5601 38.9742L93.2471 39.8714Z" fill="#F39568"/>
<path opacity="0.2" d="M98.6658 65.1753L101.588 67.7851C101.588 67.7851 100.542 71.8862 98.3051 70.9708C95.6104 69.8675 98.6658 65.1753 98.6658 65.1753Z" fill="#2C2A40"/>
<path d="M89.3396 42.6323L102.348 37.7751L99.1318 29.1627L86.1238 34.0199L89.3396 42.6323Z" fill="#2C2A40"/>
<path d="M86.1191 34.0153L89.3352 42.6298L102.345 37.7709L101.857 37.6314L86.4889 33.2697L86.2404 33.7698V33.7728L86.1191 34.0153Z" fill="#2C2A40"/>
<path d="M86.2402 33.7698L89.3108 42.0296C89.4896 41.9629 89.4108 41.9932 89.7048 41.8811L94.3758 35.2672L86.4888 33.2666L86.2402 33.7698Z" fill="white"/>
<path d="M89.7093 41.8871L102.149 37.2419L98.9336 28.6296L86.4935 33.2747L89.7093 41.8871Z" fill="#2C2A40"/>
<path d="M90.6971 30.9842C90.7001 30.9842 90.7001 30.9842 90.6971 30.9842C90.8487 30.8053 91.1215 30.6871 91.2912 30.6962C91.3276 30.5265 91.5276 30.3992 91.7519 30.3537C91.8823 30.3264 92.0187 30.3507 92.1369 30.4113C92.24 30.2143 92.4976 30.096 92.637 30.1749C92.637 30.1749 92.6704 30.19 92.731 30.2173C92.7795 30.0718 92.8886 29.993 92.8886 29.993C93.0341 29.7899 93.4463 29.6808 93.604 29.7687C93.604 29.7687 94.9801 30.3234 95.1135 31.3873C95.2438 32.4482 95.4378 33.6849 94.9467 33.5091C94.8073 33.4576 94.6679 33.2818 94.5436 33.0453C94.5982 33.6819 94.5648 34.1577 94.2466 34.0456C94.0708 33.9819 93.8949 33.7213 93.7525 33.3848C93.7828 33.9244 93.7282 34.3002 93.4433 34.1972C93.1857 34.1032 92.9341 33.5909 92.7765 33.0393C92.825 33.6546 92.7886 34.1062 92.4764 33.9941C92.0945 33.8577 91.9884 33.0029 91.7216 32.3118C91.4094 31.5025 91.3367 31.9268 90.879 31.6298L90.4667 31.7844C90.3849 31.3115 90.6729 31.0114 90.6971 30.9842Z" fill="#F9B587"/>
<path d="M133.336 70.1797C132.757 69.819 132.339 69.2552 132.157 68.5974C132.106 68.4095 132.045 68.2094 131.972 68.0124C131.699 67.2486 131.918 65.6148 131.972 64.9631C132.027 64.3084 132.491 63.0565 132.627 62.9201C132.763 62.7837 133.579 63.3657 133.254 64.2053C132.927 65.045 133.163 65.9785 133.33 66.2483C133.5 66.5181 134.261 66.027 134.452 65.536C134.643 65.045 136.304 61.3439 136.631 61.2348C136.958 61.1257 137.231 61.2075 137.013 62.1593C136.795 63.1111 135.761 64.7721 135.897 65.2359C136.034 65.6997 136.279 65.3177 136.361 65.0722C136.443 64.8267 137.777 61.3227 137.995 61.1954C138.213 61.0681 138.838 60.8499 138.513 62.3351C138.186 63.8204 137.174 65.63 137.234 65.9573C137.295 66.2847 138.683 62.6685 139.071 62.4655C139.459 62.2624 139.744 62.6291 139.438 63.5264C139.132 64.4236 138.313 66.1665 138.244 66.3635C138.186 66.5302 138.219 66.6696 138.362 66.5878C138.504 66.506 139.368 64.3842 139.565 64.2629C139.762 64.1417 140.253 64.366 139.723 65.8149C139.192 67.2637 138.838 68.5489 137.395 69.8826C136.504 70.7071 136.067 71.2042 135.231 71.083C134.727 71.0102 133.964 70.5677 133.336 70.1797Z" fill="#F9B587"/>
<path d="M115.307 66.1028C115.307 66.1028 115.662 62.1775 112.579 61.3591C110.369 60.7741 106.623 64.8449 105.674 69.4188C103.998 77.5059 107.884 84.5593 110.424 85.4838C110.424 85.4838 112.743 83.6863 110.976 81.2645C110.976 81.2645 106.193 76.4419 108.326 69.5007C110.103 63.7203 112.94 62.232 114.007 65.0692L115.307 66.1028Z" fill="#2C2A40"/>
<path d="M95.6014 70.698L96.923 66.6332C96.923 66.6332 96.7381 59.5343 104.231 57.7429C104.155 57.5065 104.119 57.2519 104.131 56.9942L104.176 55.9121C103.24 55.9758 93.6918 58.7341 95.6014 70.698Z" fill="#2C2A40"/>
<path d="M125.492 78.976C125.35 77.6999 125.492 76.6056 125.492 76.6056C125.298 76.3965 125.077 76.1904 124.837 75.9933C124.513 78.5001 125.492 78.976 125.492 78.976Z" fill="#F39568"/>
<path d="M95.3203 46.7006C95.4567 46.8976 95.6052 47.0855 95.7598 47.2553C95.7598 47.2553 97.0208 46.5187 97.3845 46.3277C97.3845 46.3277 96.2206 46.3489 95.3203 46.7006Z" fill="#F39568"/>
<path d="M115.501 105.265C116.177 105.904 116.726 107.399 117.08 108.608C117.08 108.611 117.08 108.611 117.083 108.614C117.371 109.596 117.532 110.391 117.532 110.391C118.132 111.045 119.505 110.857 121.709 111.097C123.694 111.312 125.082 112.691 126.562 113.285C126.562 113.285 126.562 113.285 126.565 113.285C126.728 113.352 126.895 113.407 127.062 113.452C127.941 113.682 128.562 113.54 128.899 113.113C129.205 112.728 129.277 112.112 129.105 111.336C128.738 109.699 124.613 106.105 123.427 105.626C122.242 105.147 121.509 104.868 120.099 103.707C118.693 102.549 117.259 102.47 116.974 102.904C116.926 102.976 116.853 103.092 116.765 103.231C116.322 103.931 115.501 105.265 115.501 105.265Z" fill="#B0B1CA"/>
<path d="M116.762 103.231C117.229 103.18 118.017 103.155 118.577 103.483C119.42 103.974 120.62 105.116 121.899 105.717C123.179 106.317 125.631 108.005 126.91 109.202C128.189 110.4 128.944 112.285 128.571 112.906C128.198 113.528 127.522 113.504 126.564 113.288C126.728 113.355 126.895 113.41 127.061 113.455C128.735 113.895 129.471 112.976 129.104 111.339C128.738 109.703 124.612 106.108 123.427 105.629C122.242 105.15 121.508 104.871 120.099 103.71C118.693 102.552 117.259 102.473 116.974 102.907C116.922 102.976 116.85 103.092 116.762 103.231Z" fill="#2C2A40"/>
<path opacity="0.2" d="M117.08 108.614C117.368 109.596 117.529 110.391 117.529 110.391C118.129 111.045 119.502 110.857 121.706 111.097C123.691 111.312 125.079 112.691 126.558 113.285C126.558 113.285 126.558 113.285 126.561 113.285C126.725 113.352 126.892 113.407 127.059 113.452C127.938 113.682 128.559 113.54 128.895 113.113L129.005 112.47C129.005 112.47 127.534 113.206 125.846 112.224C124.555 111.476 123.97 110.742 122.933 110.454C123.127 109.669 122.688 108.82 122.688 108.82C122.606 109.693 122.366 110.321 122.366 110.321C122.16 110.291 121.945 110.281 121.709 110.294C120.023 110.372 117.392 109.56 117.08 108.614Z" fill="#2C2A40"/>
<path d="M18.5684 93.0373C19.0837 93.007 19.508 92.7463 19.8717 92.3644C19.8839 92.3523 19.896 92.3402 19.9051 92.3281C20.5416 91.646 20.9963 90.6033 21.4479 89.8213C21.5783 89.5909 21.7116 89.3818 21.848 89.2121C22.2724 88.6755 23.015 87.2661 23.6607 85.9627C23.694 85.896 23.7273 85.8323 23.7576 85.7657C24.3851 84.4926 24.9004 83.3802 24.9004 83.3802C24.9004 83.3802 24.6609 82.683 24.282 81.9646C24.1638 81.7434 24.0335 81.5221 23.894 81.319C23.6122 80.9098 23.2848 80.5703 22.9332 80.4642C21.845 80.1278 20.8356 80.8522 19.996 81.8252C19.1746 82.78 16.9164 86.8084 16.5496 88.4816C16.5405 88.5179 16.5345 88.5513 16.5284 88.5846C16.1495 90.6912 16.8679 93.1343 18.5684 93.0373Z" fill="#B0B1CA"/>
<path d="M18.5679 93.0373C19.0983 93.007 19.5348 92.7282 19.9076 92.3281C18.7225 92.8949 18.0011 92.5524 17.5858 92.0825C17.0675 91.4945 16.8705 89.8819 17.0069 89.1999C17.3373 87.5419 18.5649 84.9412 19.1893 83.9045C19.8137 82.8679 21.0534 81.1614 22.2568 80.9947C22.9448 80.8977 23.5268 81.1159 23.8996 81.319C23.6177 80.9098 23.2904 80.5703 22.9388 80.4642C21.8506 80.1278 20.8412 80.8522 20.0016 81.8252C19.165 82.8012 16.825 86.9842 16.534 88.5846C16.1491 90.6912 16.8674 93.1343 18.5679 93.0373Z" fill="#2C2A40"/>
<path opacity="0.2" d="M18.5681 93.0373C19.0834 93.007 19.5078 92.7464 19.8715 92.3644C19.8836 92.3523 19.8957 92.3402 19.9048 92.3281C20.5414 91.6461 20.996 90.6033 21.4477 89.8213C21.578 89.5909 21.7114 89.3818 21.8478 89.2121C22.2722 88.6756 23.0148 87.2661 23.6604 85.9627C23.6937 85.896 23.7271 85.8324 23.7574 85.7657C23.5543 85.5262 23.2845 85.4232 22.9329 85.5202C22.9329 85.5202 22.0873 86.2991 21.2901 87.9026C20.411 89.6637 19.9503 91.3369 18.3074 91.349C16.6646 91.3642 16.9616 90.2851 16.7403 88.7331C16.71 88.5179 16.6403 88.4452 16.5464 88.4846C16.5373 88.521 16.5312 88.5543 16.5251 88.5877C16.1493 90.6913 16.8677 93.1343 18.5681 93.0373Z" fill="#2C2A40"/>
<path d="M45.7536 107.775C45.7718 108.684 46.4871 114.71 48.4513 115.928C49.4425 116.544 50.0123 116.519 50.2972 116.059C50.4609 115.795 50.5337 115.392 50.5367 114.883C50.5397 114.519 50.5094 114.101 50.4549 113.646C50.1851 111.436 50.1517 106.323 52.0947 105.213C52.0947 105.213 51.7401 102.573 50.8307 100.949C50.5579 100.458 50.2336 100.06 49.8547 99.8543C49.8547 99.8543 48.4998 99.8634 47.645 99.9786C47.2752 100.027 46.7811 100.012 46.3143 100.139C45.7021 100.306 45.1443 100.718 45.0019 101.852C44.7473 103.849 45.7354 106.865 45.7536 107.775Z" fill="#B0B1CA"/>
<path d="M45.7536 107.775C45.7718 108.684 46.4871 114.71 48.4513 115.928C49.4425 116.544 50.0123 116.519 50.2972 116.059C49.7971 116.08 49.103 115.913 48.4816 115.38C47.6268 114.646 46.5538 110.509 46.6175 109.175C46.6811 107.841 46.1294 105.413 45.6475 103.549C45.2807 102.14 45.9627 100.736 46.3143 100.139C45.7021 100.306 45.1443 100.718 45.0019 101.852C44.7473 103.849 45.7354 106.865 45.7536 107.775Z" fill="#2C2A40"/>
<path opacity="0.2" d="M45.7537 107.775C45.7719 108.684 46.4873 114.71 48.4514 115.928C49.4426 116.544 50.0125 116.519 50.2974 116.059C50.4611 115.795 50.5338 115.392 50.5369 114.883C50.161 114.968 49.5972 114.825 48.9455 114.458C47.7937 113.813 47.5664 110.281 47.73 107.95C47.8967 105.62 46.5024 103.789 47.3026 102.322C48.1029 100.855 50.749 101.185 50.749 101.185C50.7824 101.103 50.8066 101.024 50.8278 100.949C50.555 100.458 50.2307 100.06 49.8518 99.8543C49.8518 99.8543 48.4969 99.8634 47.6421 99.9786C47.2723 100.027 46.7783 100.012 46.3115 100.139C45.6992 100.306 45.1415 100.718 44.999 101.852C44.7474 103.849 45.7356 106.865 45.7537 107.775Z" fill="#2C2A40"/>
<path d="M45.9274 43.921C45.9274 43.921 34.103 44.2423 31.8448 49.6892C29.5896 55.1361 36.6976 70.7373 40.529 72.6075C44.3603 74.4808 49.7618 72.1953 51.5926 70.2614C53.4234 68.3336 50.3771 45.5669 45.9274 43.921Z" fill="#2C2A40"/>
<path d="M38.5434 58.437C38.5434 58.437 38.5252 60.6376 37.6249 63.0292C37.6249 63.0292 37.3612 64.6266 36.949 66.6029C36.464 68.9338 35.9912 70.6464 35.294 72.062C34.706 73.2532 34.2786 74.3989 33.9876 75.2901C33.9512 75.3992 33.9179 75.5023 33.8876 75.6023C33.6117 76.4935 33.4875 77.0663 33.4875 77.0663L30.8928 76.2025C30.8928 76.2025 30.7322 73.4684 30.7776 71.9801C30.8352 70.1342 30.6412 66.5301 31.8234 63.5445C31.9173 63.305 32.0204 63.0868 32.1295 62.8928C32.1295 62.8928 32.4629 59.9496 32.9419 58.0036C33.1025 57.358 33.2753 56.8245 33.4602 56.5426C33.4602 56.5486 37.3006 56.1455 38.5434 58.437Z" fill="#F9B587"/>
<path d="M33.8056 63.1656C33.8056 63.1656 32.2961 63.1808 31.8232 63.5475C31.9172 63.3081 32.0203 63.0898 32.1294 62.8958C32.1294 62.8989 33.2903 62.8292 33.8056 63.1656Z" fill="#F39568"/>
<path d="M38.5429 58.437C38.5429 58.437 38.5247 60.6376 37.6245 63.0292C37.6245 63.0292 37.3608 64.6266 36.9486 66.6029C37.1092 65.1146 36.9971 62.4412 37.0274 60.4921C37.0486 59.1615 35.8513 58.8493 34.8025 58.4734C34.366 58.3158 33.5113 58.1551 33.0051 57.9884C32.9838 57.9824 32.9626 58.0036 32.9414 58.0096C33.1021 57.364 33.2748 56.8305 33.4597 56.5486C33.4597 56.5486 37.3002 56.1455 38.5429 58.437Z" fill="#F39568"/>
<path d="M33.1027 75.0506L35.5882 76.8117C35.852 76.9997 36.0096 77.2997 36.0156 77.621L36.055 80.0156C36.0611 80.3006 35.8338 80.537 35.5458 80.54C35.3063 80.543 35.0972 80.3824 35.0366 80.152L34.4637 77.8969L33.8787 77.6817L34.2455 79.0275L34.6971 80.249L35.8307 81.6676C35.9944 81.8737 35.955 82.1768 35.7398 82.3314C35.5519 82.4678 35.2942 82.4436 35.1366 82.2768L33.6423 80.7249L32.642 79.5003L33.427 81.0401L34.9426 83.3044C35.0426 83.4529 35.0426 83.6499 34.9426 83.7985C34.788 84.0288 34.4607 84.0591 34.2636 83.8652L32.6208 82.2314L31.6872 80.7764L32.5086 83.3438L33.2361 84.9867C33.3179 85.1685 33.2512 85.3807 33.0815 85.4868C32.8936 85.602 32.6481 85.5444 32.5329 85.3595L31.478 83.653L30.7172 81.6737L31.2083 83.3771L31.478 83.9591C31.5356 84.0804 31.4811 84.2228 31.3598 84.2804C31.2537 84.3289 31.1295 84.2956 31.0628 84.2016L30.6596 83.6439L30.0625 82.2314L30.8991 76.1813C30.9052 76.1813 31.2537 75.3538 33.1027 75.0506Z" fill="#F9B587"/>
<path d="M33.8878 75.6084C33.8878 75.6084 33.1209 75.1507 32.2207 75.2659C32.2207 75.2659 33.1907 74.8991 33.9878 75.2931L33.8878 75.6084Z" fill="#F39568"/>
<path d="M57.5694 39.3197C60.2155 34.1032 59.1395 27.2528 58.9516 25.522C58.9364 25.3705 58.8697 25.1583 58.7576 24.9007C57.7543 22.5182 53.2136 16.0922 52.18 14.6433C52.1103 14.5463 52.0557 14.4705 52.0194 14.419C51.986 14.3736 51.9709 14.3493 51.9709 14.3493L48.7852 15.8315C48.7852 15.8315 50.9282 18.0715 51.7678 20.8814C52.6104 23.6912 54.6231 27.3771 54.6231 27.3771C53.735 30.6386 53.6683 34.9034 53.6683 34.9034C55.2111 38.5225 57.5694 39.3197 57.5694 39.3197Z" fill="#F9B587"/>
<path d="M57.57 39.3197C60.2162 34.1032 59.1401 27.2528 58.9522 25.522C58.937 25.3705 58.8704 25.1583 58.7582 24.9007C58.7552 24.9855 58.6794 30.5022 58.3217 32.2845C57.958 34.0819 57.3821 35.9673 56.3333 36.2189C55.2845 36.4705 54.2388 35.8764 53.6689 34.9064C55.2118 38.5225 57.57 39.3197 57.57 39.3197Z" fill="#F39568"/>
<path d="M51.9591 14.6039C51.5317 15.0556 49.6827 16.3104 49.413 16.4317C49.319 16.4741 49.1917 16.4135 49.0674 16.3165C48.9431 16.3195 48.1308 16.3317 47.6883 16.1195C47.4458 16.0013 47.4579 15.6557 47.5306 15.2889C46.9456 15.1313 45.818 14.2038 45.8575 13.349C45.8969 12.4154 46.9002 12.373 46.9002 12.373C46.9456 11.303 47.958 11.5 47.958 11.5C48.0217 11.0363 48.8734 10.8483 48.8734 10.8483C48.9704 10.4543 49.5251 10.3967 49.8494 10.5604C50.1738 10.7241 52.0682 13.0368 52.144 13.4521C52.2198 13.8704 51.9591 14.6039 51.9591 14.6039Z" fill="#F9B587"/>
<path d="M49.0556 14.8131C49.1829 15.3526 48.7312 15.4102 48.7312 15.4102C48.8252 15.3435 48.8222 15.1131 48.801 14.9161C48.801 14.9161 48.801 14.7828 48.7555 14.6191C48.704 14.4433 48.5979 14.2341 48.3766 14.128C47.9765 13.9371 47.7916 14.0553 47.7916 14.0553L47.0156 12.9459C47.4248 13.2066 47.9613 13.8158 47.9613 13.8158C48.6767 13.8037 48.9283 14.3372 49.0162 14.6282C49.1556 14.6221 49.3132 14.5645 49.3738 14.3705C49.4951 13.9856 49.2465 13.6036 49.2465 13.6036L48.1705 12.0941C48.1705 12.0941 49.6557 13.5491 49.677 14.1008C49.7012 14.8373 49.0556 14.8131 49.0556 14.8131Z" fill="#F39568"/>
<path d="M49.2949 11.6546C49.2949 11.6546 50.2588 12.8671 50.3831 13.1944C50.5165 13.5521 50.2831 13.9007 50.0224 13.9643C49.7617 14.028 49.6162 13.8916 49.6162 13.8916L49.6071 14.2644C49.6071 14.2644 50.6074 14.4463 50.6226 13.4915C50.6316 13.0126 49.2949 11.6546 49.2949 11.6546Z" fill="#F39568"/>
<path d="M50.5677 13.2702C50.5677 13.2702 50.8041 13.5097 51.1012 13.4218C51.3982 13.3339 51.4619 13.1369 51.3982 12.955C51.3982 12.955 51.571 13.1338 51.4134 13.3884C51.2073 13.7188 50.7132 13.6461 50.5586 13.6006L50.5677 13.2702Z" fill="#F39568"/>
<path d="M51.5771 15.0374C51.5771 15.0374 51.9409 14.9707 52.1773 14.6403C52.1076 14.5433 52.053 14.4675 52.0167 14.416C52.0197 14.419 51.8742 14.7343 51.5771 15.0374Z" fill="#F39568"/>
<path d="M49.3096 16.4408C49.3096 16.4408 49.7764 16.4014 50.0401 16.2346C50.0401 16.2346 49.7946 16.5559 49.4642 16.6317L49.3096 16.4408Z" fill="#F39568"/>
<path d="M54.6234 27.3771C54.6234 27.3771 56.0178 27.1649 56.4936 26.7678C56.4936 26.7678 55.9844 27.9681 54.4658 28.0106L54.6234 27.3771Z" fill="#F39568"/>
<path d="M22.6753 87.6601C23.236 88.0784 22.9784 88.1724 23.5331 88.4725C24.0696 88.7635 25.4821 89.9183 25.57 89.9911C25.573 89.9941 25.573 89.9941 25.573 89.9941C29.2619 93.9103 35.4757 100.003 38.8463 100.467C42.023 100.903 46.7546 91.9977 49.7766 85.4595C49.8099 85.411 51.0406 83.5954 52.8835 84.1289C54.7476 84.6714 61.6222 91.1217 64.7837 92.7555C64.7837 92.7555 60.5431 92.9737 59.1579 94.7499C57.7727 96.5262 53.911 98.2266 53.2108 98.5055C52.5107 98.7874 52.1439 98.4722 51.4922 98.9026C50.8405 99.333 49.8554 99.8634 49.8554 99.8634C49.8281 101.843 50.5677 103.555 52.0136 105.274C52.0136 105.274 52.6167 104.95 53.1927 104.777C53.9959 104.54 55.6873 104.095 55.9874 103.54C56.2874 102.986 66.7357 100.788 66.7357 100.788C66.7357 100.788 74.7622 99.1966 75.3866 95.3895C76.011 91.5794 59.7126 74.4626 59.7126 74.4626L58.4517 68.9732L52.5682 69.9462V69.9432L41.829 70.7525C41.829 70.7525 39.9921 75.6872 39.4768 80.1399C39.1313 83.1195 37.158 90.1972 37.158 90.1972C37.158 90.1972 35.3424 88.33 31.8081 86.8175C30.9048 86.4295 29.9742 86.0082 29.0891 85.5959C29.0891 85.5959 27.7494 84.923 27.2826 84.2744C26.8158 83.6257 26.5309 83.8742 26.0247 83.7227C25.5185 83.5711 25.0941 82.9589 24.7546 83.0195C24.4182 83.0831 24.3182 83.2498 24.3182 83.2498C23.4573 84.0591 23.0693 84.5926 22.4964 86.575C22.4964 86.575 22.1115 87.2418 22.6753 87.6601Z" fill="#2C2A40"/>
<path d="M32.2775 88.7756L32.1562 88.9665C32.4078 89.1272 32.6776 89.3151 32.9565 89.5273L33.0929 89.3454C32.8079 89.1302 32.5351 88.9393 32.2775 88.7756Z" fill="#5B5B6C"/>
<path d="M30.8043 87.9784L30.6982 88.1784C30.9407 88.3057 31.1741 88.427 31.3924 88.5331C31.453 88.5634 31.5136 88.5937 31.5773 88.627L31.6834 88.427C31.6197 88.3936 31.5561 88.3603 31.4924 88.33C31.2772 88.2209 31.0438 88.1027 30.8043 87.9784Z" fill="#5B5B6C"/>
<path d="M29.2383 87.36C29.5293 87.5328 29.8172 87.6965 30.0961 87.8511L30.2052 87.651C29.9294 87.4964 29.6414 87.3328 29.3504 87.163L29.2383 87.36Z" fill="#5B5B6C"/>
<path d="M33.4932 89.9426C33.7296 90.1335 33.9751 90.3396 34.2449 90.573L34.3934 90.4002C34.1206 90.1638 33.8721 89.9577 33.6356 89.7637L33.4932 89.9426Z" fill="#5B5B6C"/>
<path d="M36.1485 91.9673L36 92.1371C36.3243 92.422 36.5395 92.5948 36.6972 92.6978C36.7335 92.7221 36.7699 92.7403 36.8063 92.7585L36.9033 92.5524C36.876 92.5402 36.8487 92.5251 36.8214 92.5069C36.6729 92.4129 36.4668 92.2462 36.1485 91.9673Z" fill="#5B5B6C"/>
<path d="M37.4492 92.5129L37.5583 92.713C37.7978 92.5796 38.0403 92.3341 38.2828 91.9825L38.0948 91.8552C37.8766 92.1765 37.6584 92.3978 37.4492 92.5129Z" fill="#5B5B6C"/>
<path d="M34.9094 90.8549L34.7578 91.0247C34.973 91.2156 35.1791 91.4005 35.3731 91.5763L35.4913 91.6824L35.6429 91.5127L35.5247 91.4066C35.3307 91.2308 35.1246 91.0459 34.9094 90.8549Z" fill="#5B5B6C"/>
<path d="M27.8135 86.4871C28.0832 86.6598 28.3651 86.8356 28.6531 87.0115L28.7713 86.8175C28.4864 86.6447 28.2045 86.4689 27.9378 86.2961L27.8135 86.4871Z" fill="#5B5B6C"/>
<path d="M23.8758 84.1198C23.8182 84.1864 23.7606 84.2562 23.7061 84.3259C23.8849 84.3501 24.1456 84.3926 24.4275 84.4592L24.479 84.238C24.2547 84.1834 24.0455 84.147 23.8758 84.1198Z" fill="#5B5B6C"/>
<path d="M25.1491 84.435L25.0703 84.6472C25.4037 84.7715 25.6584 84.9139 25.8281 85.0715C25.8432 85.0867 25.8614 85.1018 25.8796 85.117L26.0312 84.9473C26.013 84.9321 25.9978 84.9169 25.9827 84.9048C25.7917 84.726 25.5098 84.5684 25.1491 84.435Z" fill="#5B5B6C"/>
<path d="M26.5582 85.3625L26.4248 85.5474C26.6552 85.7172 26.931 85.9051 27.2402 86.1112L27.3675 85.9233C27.0583 85.7172 26.7855 85.5292 26.5582 85.3625Z" fill="#5B5B6C"/>
<path d="M41.4834 78.3485L41.7047 78.4061C41.7895 78.0878 41.8744 77.7696 41.9593 77.4543L41.741 77.3937C41.6501 77.712 41.5652 78.0302 41.4834 78.3485Z" fill="#5B5B6C"/>
<path d="M41.9199 76.7359L42.1382 76.7966C42.2261 76.4783 42.317 76.16 42.4079 75.8478L42.1897 75.7842C42.0988 76.0964 42.0078 76.4146 41.9199 76.7359Z" fill="#5B5B6C"/>
<path d="M40.6895 81.5948L40.9107 81.6433C40.9804 81.3342 41.0532 81.0098 41.132 80.6825L40.9107 80.6309C40.8319 80.9613 40.7592 81.2857 40.6895 81.5948Z" fill="#5B5B6C"/>
<path d="M41.0713 79.9671L41.2926 80.0217C41.3683 79.7125 41.4502 79.3912 41.532 79.0669L41.3107 79.0093C41.2289 79.3336 41.1471 79.6579 41.0713 79.9671Z" fill="#5B5B6C"/>
<path d="M42.3809 75.1264L42.5991 75.1901C42.6931 74.8688 42.787 74.5535 42.881 74.2443L42.6628 74.1777C42.5688 74.4899 42.4748 74.8051 42.3809 75.1264Z" fill="#5B5B6C"/>
<path d="M38.4375 91.2793L38.6406 91.3854C38.78 91.1156 38.9194 90.8095 39.0528 90.476L38.8406 90.3912C38.7103 90.7185 38.5739 91.0156 38.4375 91.2793Z" fill="#5B5B6C"/>
<path d="M43.3809 71.9346L43.5961 72.0074C43.7113 71.6679 43.8204 71.3557 43.9204 71.0768L43.7082 70.998C43.6052 71.2799 43.496 71.5952 43.3809 71.9346Z" fill="#5B5B6C"/>
<path d="M42.8652 73.529L43.0835 73.5957C43.1835 73.2714 43.2866 72.9561 43.3836 72.656L43.1683 72.5863C43.0683 72.8864 42.9653 73.2017 42.8652 73.529Z" fill="#5B5B6C"/>
<path d="M39.0742 89.7576L39.2894 89.8304C39.3925 89.5303 39.4925 89.212 39.5834 88.8817L39.3652 88.821C39.2712 89.1454 39.1742 89.4606 39.0742 89.7576Z" fill="#5B5B6C"/>
<path d="M40.3506 83.2347L40.5749 83.2771C40.6325 82.974 40.6961 82.6497 40.7689 82.3102L40.5476 82.2647C40.4718 82.6042 40.4082 82.9316 40.3506 83.2347Z" fill="#5B5B6C"/>
<path d="M39.5342 88.1663L39.7555 88.2209C39.8343 87.9056 39.904 87.5783 39.9707 87.2539L39.7464 87.2085C39.6827 87.5298 39.613 87.8541 39.5342 88.1663Z" fill="#5B5B6C"/>
<path d="M39.8682 86.5416L40.0925 86.578C40.147 86.2506 40.1955 85.9233 40.2349 85.5989L40.0106 85.5686C39.9712 85.8899 39.9227 86.2173 39.8682 86.5416Z" fill="#5B5B6C"/>
<path d="M40.0869 84.8927L40.3112 84.92C40.3446 84.629 40.3931 84.3016 40.4537 83.95L40.2294 83.9137C40.1718 84.2683 40.1233 84.5987 40.0869 84.8927Z" fill="#5B5B6C"/>
<path d="M53.9692 83.0074C53.6297 82.9983 53.2903 83.0468 52.9629 83.1468L53.0296 83.365C53.3357 83.2711 53.651 83.2256 53.9632 83.2347L53.9692 83.0074Z" fill="#5B5B6C"/>
<path d="M55.4963 83.6803L55.6085 83.4833C55.5175 83.4317 55.4327 83.3863 55.3508 83.3499C55.1265 83.2438 54.8962 83.162 54.6688 83.1044L54.6143 83.3256C54.8264 83.3802 55.0416 83.456 55.2569 83.556C55.3296 83.5893 55.4084 83.6318 55.4963 83.6803Z" fill="#5B5B6C"/>
<path d="M56.084 98.2176L56.184 98.4207C56.4811 98.2721 56.7781 98.1206 57.0661 97.972L56.96 97.772C56.6751 97.9205 56.378 98.069 56.084 98.2176Z" fill="#5B5B6C"/>
<path d="M57.5635 97.4476L57.6726 97.6477C57.9787 97.481 58.2697 97.3173 58.5334 97.1597L58.4183 96.9627C58.1545 97.1203 57.8666 97.2809 57.5635 97.4476Z" fill="#5B5B6C"/>
<path d="M59 96.6111L59.1212 96.802C59.4607 96.5868 59.7366 96.3928 59.9427 96.2322L59.8002 96.0564C59.6002 96.214 59.3304 96.4019 59 96.6111Z" fill="#5B5B6C"/>
<path d="M50.3981 101.088C50.6012 100.946 50.8012 100.815 50.9922 100.697L50.871 100.503C50.7012 100.609 50.5284 100.721 50.3496 100.846C50.3678 100.924 50.383 101.006 50.3981 101.088Z" fill="#5B5B6C"/>
<path d="M51.4736 100.157L51.5797 100.358C51.9071 100.185 52.2072 100.057 52.4648 99.9786L52.3981 99.7604C52.1253 99.8422 51.8131 99.9756 51.4736 100.157Z" fill="#5B5B6C"/>
<path d="M57.373 85.0625C57.6034 85.2534 57.855 85.4686 58.1217 85.702L58.2703 85.5293C58.0035 85.2959 57.7489 85.0806 57.5185 84.8867L57.373 85.0625Z" fill="#5B5B6C"/>
<path d="M53.0469 99.5634L53.1227 99.7786C53.3833 99.6846 53.6955 99.5634 54.0471 99.4149L53.9592 99.2057C53.6107 99.3512 53.3045 99.4724 53.0469 99.5634Z" fill="#5B5B6C"/>
<path d="M54.5811 98.9299L54.675 99.136C54.963 99.0057 55.2661 98.8662 55.5722 98.7177L55.4752 98.5116C55.1661 98.6631 54.866 98.8026 54.5811 98.9299Z" fill="#5B5B6C"/>
<path d="M52.1773 83.7712C52.2531 83.7227 52.3349 83.6712 52.4228 83.6227L52.3137 83.4226C52.1531 83.5105 52.0136 83.6015 51.8984 83.6863C51.9924 83.7167 52.0864 83.7439 52.1773 83.7712Z" fill="#5B5B6C"/>
<path d="M56.1909 83.8561L56.0605 84.041C56.2909 84.2047 56.5546 84.4017 56.8426 84.629L56.985 84.4502C56.6941 84.2228 56.4273 84.0228 56.1909 83.8561Z" fill="#5B5B6C"/>
<path d="M65.9934 93.9497C65.8843 94.0316 65.6266 94.1255 65.1992 94.2407L65.2598 94.459C65.7236 94.3317 65.9934 94.2316 66.1298 94.1286C66.1571 94.1074 66.1843 94.0861 66.2116 94.0619L66.0631 93.8922C66.0388 93.9134 66.0176 93.9316 65.9934 93.9497Z" fill="#5B5B6C"/>
<path d="M63.7772 90.4063L63.6348 90.5821C63.9379 90.8277 64.1986 91.0217 64.4289 91.1823L64.5593 90.9944C64.3319 90.8398 64.0773 90.6488 63.7772 90.4063Z" fill="#5B5B6C"/>
<path d="M65.1353 91.3399L65.1292 91.3369L65.0322 91.543L65.0413 91.546C65.3626 91.6976 65.6324 91.8643 65.8446 92.0432L65.9901 91.8704C65.7597 91.6764 65.4717 91.5006 65.1353 91.3399Z" fill="#5B5B6C"/>
<path d="M66.4597 92.4099L66.2627 92.5251C66.3385 92.6554 66.39 92.7888 66.4143 92.9222C66.4415 93.0768 66.4324 93.2344 66.39 93.3829L66.6082 93.4466C66.6628 93.2617 66.6719 93.0707 66.6386 92.8828C66.6082 92.7191 66.5476 92.5615 66.4597 92.4099Z" fill="#5B5B6C"/>
<path d="M64.0529 94.5256C63.8984 94.562 63.7407 94.5984 63.5801 94.6378L63.6346 94.8591C63.7953 94.8197 63.9529 94.7833 64.1075 94.7469C64.2772 94.7075 64.4409 94.6681 64.5955 94.6317L64.5409 94.4105C64.3864 94.4468 64.2227 94.4862 64.0529 94.5256Z" fill="#5B5B6C"/>
<path d="M61.9619 95.0652L62.0286 95.2834C62.3105 95.1986 62.6197 95.1137 62.9743 95.0227L62.9167 94.8015C62.559 94.8954 62.2468 94.9803 61.9619 95.0652Z" fill="#5B5B6C"/>
<path d="M60.3857 95.6684L60.4918 95.8684C60.7343 95.7411 61.0344 95.6138 61.383 95.4895L61.3072 95.2743C60.9435 95.4077 60.6434 95.535 60.3857 95.6684Z" fill="#5B5B6C"/>
<path d="M60.5459 87.5692C60.3731 87.4116 60.2003 87.254 60.0275 87.0963L59.876 87.2661C60.0488 87.4237 60.2215 87.5813 60.3943 87.7359L60.6065 87.9269L60.758 87.7571L60.5459 87.5692Z" fill="#5B5B6C"/>
<path d="M61.1104 88.3876C61.3589 88.6119 61.6044 88.8332 61.8439 89.0484L61.9954 88.8786C61.756 88.6634 61.5105 88.4422 61.2619 88.2179L61.1104 88.3876Z" fill="#5B5B6C"/>
<path d="M63.2507 89.9759C63.0234 89.785 62.7779 89.5728 62.5051 89.3333L62.3535 89.5031C62.6293 89.7456 62.8718 89.9547 63.1022 90.1487L63.2507 89.9759Z" fill="#5B5B6C"/>
<path d="M59.519 86.6386C59.2704 86.4143 59.0249 86.1961 58.7824 85.9809L58.6309 86.1506C58.8733 86.3658 59.1189 86.5841 59.3644 86.8084L59.519 86.6386Z" fill="#5B5B6C"/>
<path d="M60.6286 74.0716C60.6286 74.0716 49.8681 77.5756 44.0575 76.0055C43.624 75.8872 40.0897 75.1719 40.0897 75.1719C40.0897 75.1719 42.0842 67.6001 41.5265 62.5715C41.381 61.2378 41.0658 58.6068 40.1231 56.2183C39.7866 55.3635 39.4411 54.4936 39.1016 53.6479C38.0922 51.1442 37.1526 48.8617 36.7373 47.8614C37.6012 47.2643 38.3074 47.1097 38.4711 47.0794C38.4954 47.0764 38.5045 47.0764 38.5045 47.0764C39.4593 46.9157 40.6778 46.6642 41.9781 46.2731H41.9812C43.6543 45.7639 45.4639 45.0243 47.031 43.9452L48.486 43.1359L50.0136 42.2842C50.0136 42.2842 51.8929 42.9632 53.845 45.7518C53.3418 46.3489 52.8023 46.9006 52.2233 47.3765C53.0842 47.916 53.8025 48.1706 53.8025 48.1706C54.1754 47.9615 54.527 47.7038 54.8604 47.4038C56.0971 49.6953 57.2307 52.9628 57.7854 57.5853C58.2856 61.7834 59.1676 66.6817 59.8193 70.0432C60.2831 72.453 60.6286 74.0716 60.6286 74.0716Z" fill="#0029DD"/>
<path d="M44.86 48.0433C42.8656 47.8736 42.4079 46.9218 41.9805 46.2731C43.6537 45.7639 45.4632 45.0243 47.0303 43.9452L47.9851 43.4087C48.2579 43.4087 48.9308 43.9119 48.9308 44.9182C48.9308 46.2762 47.5123 48.2706 44.86 48.0433Z" fill="#2C2A40"/>
<path opacity="0.2" d="M51.2412 50.929L54.7422 49.3619C54.7422 49.3619 57.4641 53.4509 55.2453 54.2511C52.8598 55.1089 51.2412 50.929 51.2412 50.929Z" fill="#2C2A40"/>
<path d="M47.5037 34.0183C47.5037 34.0183 48.9738 32.9059 48.3706 30.6719C48.3706 30.6719 47.8766 31.5206 47.428 31.6055C47.428 31.6055 48.5646 28.5289 45.091 26.8163C45.091 26.8163 45.4971 28.5077 45.0849 29.0715C45.0849 29.0715 44.1665 27.1134 42.8085 26.7102C42.8085 26.7102 43.0116 30.1384 40.8868 30.8326C39.3712 31.3266 37.4101 33.0877 36.8706 35.9824C36.8706 35.9824 35.9885 35.7278 35.6611 36.0734C35.6611 36.0734 36.7887 36.2643 36.9463 36.9827C36.9463 36.9827 36.4735 36.7433 36.1158 37.0464C36.1158 37.0464 36.913 37.2101 37.0373 37.8345C37.1615 38.4589 40.1805 43.2299 42.0022 44.024C43.8209 44.8212 47.5037 34.0183 47.5037 34.0183Z" fill="#2C2A40"/>
<path d="M42.7903 44.7485L43.0328 46.1489C43.0934 46.5035 43.3571 46.7945 43.7057 46.8854C46.7186 47.6705 48.0463 45.7973 48.1978 45.0728C47.8098 44.9182 40.908 42.1266 39.7773 39.4774C39.7773 39.4774 40.5048 43.0359 42.7903 44.7485Z" fill="#F9B587"/>
<path d="M48.3763 36.9464C48.6248 37.2919 48.8127 37.6738 48.934 38.077C49.0401 38.4256 49.0946 38.7893 49.0946 39.1561L49.1068 41.6022C49.1098 42.5115 48.5339 43.3238 47.673 43.6179C46.6849 43.9543 45.3027 44.2423 43.8872 43.9331C41.2137 43.3511 39.9346 40.1139 39.9346 40.1139C39.9346 40.1139 38.8191 36.7554 41.0622 34.4396C42.6141 32.8362 44.6995 32.5209 45.8332 32.4785C46.3181 32.4603 46.7758 32.7149 47.0123 33.1393L47.8701 34.673C47.9398 34.7943 48.0004 34.9185 48.0519 35.0458C48.2338 35.4732 48.3369 35.9309 48.352 36.4008L48.3763 36.9464Z" fill="#F9B587"/>
<path d="M45.2 35.3884C45.2 35.3884 43.0782 34.4911 42.5508 36.2553L42.8781 36.525C42.8781 36.525 43.5814 35.1762 45.2727 35.8552L45.2 35.3884Z" fill="#2C2A40"/>
<path d="M48.3759 36.9464C48.6244 37.2919 48.8123 37.6738 48.9336 38.077C48.5123 37.9709 47.7727 38.0376 46.5117 38.7408C46.5117 38.7408 46.9997 37.88 47.709 37.5859C47.9 37.5071 47.9606 37.2677 47.8272 37.107L46.9512 36.0431C46.9512 36.0431 46.9997 35.743 47.2665 35.5339C47.4302 35.4066 47.7696 35.1944 48.0576 35.0489C48.2395 35.4763 48.3425 35.934 48.3577 36.4038L48.3759 36.9464Z" fill="#F39568"/>
<path d="M47.8434 34.7064C47.3402 34.9428 46.9795 35.255 46.9795 35.255L47.0886 35.6703C47.4099 35.4005 47.7191 35.2308 48.004 35.1307C48.1465 35.0792 48.2192 34.9307 48.1647 34.8064C48.1647 34.8064 48.1647 34.8034 48.1616 34.8034C48.1131 34.6912 47.9676 34.6488 47.8434 34.7064Z" fill="#2C2A40"/>
<path d="M48.5094 39.0894L44.7266 40.1745C44.7266 40.1745 45.9178 41.978 47.8365 41.1687C49.343 40.5292 48.5094 39.0894 48.5094 39.0894Z" fill="white"/>
<path d="M47.4312 43.6391C47.4312 43.6391 45.0608 44.2423 42.6087 41.5719C42.6087 41.5719 42.4995 42.9541 43.815 44.3635C45.1306 45.773 48.198 45.0728 48.198 45.0728L47.4312 43.6391Z" fill="#F39568"/>
<path d="M40.6622 39.2167C40.6622 39.2167 39.4619 38.177 38.689 39.1591C37.916 40.1412 39.6468 42.9116 40.8835 41.781C42.1172 40.6474 40.6622 39.2167 40.6622 39.2167Z" fill="#F9B587"/>
<path d="M45.2001 36.719C45.2001 36.719 44.7303 36.1522 44.1483 36.3765C43.2965 36.7039 43.4148 37.4889 43.4148 37.4889C43.4148 37.4889 43.7967 36.031 45.2001 36.719Z" fill="#2C2A40"/>
<path d="M47.292 36.425C47.292 36.425 47.6042 35.4975 48.2832 36.2068C48.2832 36.2068 47.6769 35.8218 47.292 36.425Z" fill="#2C2A40"/>
<path d="M40.1988 35.4459C40.1988 35.4459 41.1202 36.5584 40.3715 37.7193L41.1445 39.5016L40.3443 39.7077L39.6774 38.7196L39.1621 36.1673C39.1621 36.1643 39.7835 34.9973 40.1988 35.4459Z" fill="#2C2A40"/>
<path d="M59.6584 37.207C59.6584 37.207 59.5614 37.692 59.3614 38.4619C58.7097 40.9474 56.9607 46.4004 53.8023 48.1706C53.8023 48.1706 53.0839 47.916 52.223 47.3765C50.8924 46.5429 49.2253 45.0364 49.3768 42.757C49.3768 42.757 52.0867 38.2558 53.2354 35.0883C53.3415 34.8003 53.4325 34.5215 53.5082 34.2578L58.546 36.6736L59.6584 37.207Z" fill="#0029DD"/>
<path d="M59.6583 37.207C59.6583 37.207 59.5613 37.692 59.3613 38.4619C58.1791 37.5465 54.4236 35.6733 53.2354 35.0883C53.3414 34.8003 53.4324 34.5215 53.5082 34.2578L58.5459 36.6736L59.6583 37.207Z" fill="#2C2A40"/>
<path opacity="0.2" d="M59.6584 37.207C59.6584 37.207 58.2338 44.3696 54.8602 47.4037C54.5267 46.7854 54.1842 46.2368 53.8447 45.7518C56.4121 42.6903 57.9852 38.3861 58.546 36.6736L59.6584 37.207Z" fill="#2C2A40"/>
<path d="M40.6322 51.8049C40.5382 52.399 40.423 52.8052 40.423 52.8052L40.1229 56.2183L39.7834 59.504L39.6864 60.4558C39.1136 61.259 37.1736 61.3318 35.3398 61.1984V61.1954C33.4151 61.0559 31.6055 60.6861 31.6055 60.6861C31.6055 60.6861 31.654 60.3163 31.7631 59.6828C32.0238 58.1551 32.6391 55.0877 33.797 51.9413C34.6093 49.7407 35.7702 48.5253 36.7372 47.8614C37.601 47.2643 38.3073 47.1097 38.471 47.0794C38.4952 47.0764 38.5043 47.0764 38.5043 47.0764C40.9959 47.3098 40.8807 50.2257 40.6322 51.8049Z" fill="#0029DD"/>
<path d="M39.7834 59.504L39.6864 60.4558C39.1136 61.259 37.1736 61.3318 35.3398 61.1984V61.1954C33.4151 61.0559 31.6055 60.6861 31.6055 60.6861C31.6055 60.6861 31.654 60.3163 31.7631 59.6828C32.5663 59.895 34.479 60.1708 36.1794 60.1921C38.0921 60.2193 39.2015 59.7647 39.7834 59.504Z" fill="#2C2A40"/>
<path d="M47.458 43.7058C47.458 43.7058 51.3924 43.1056 53.8901 45.3274C56.3907 47.5523 58.8702 52.2172 57.3607 55.0149L57.973 59.0706C57.973 59.0706 62.0862 52.6082 57.6729 46.3459C54.7024 42.1326 50.9044 42.0296 48.9857 42.3145C48.7765 42.9147 48.3067 43.3663 47.6823 43.5815L47.458 43.7058Z" fill="#2C2A40"/>
<path d="M37.9707 47.2219C37.9707 47.2219 39.0983 44.6485 41.1958 44.9455C43.2964 45.2426 49.5829 53.7843 48.2523 60.0648C46.9216 66.3453 41.4868 67.0151 41.4868 67.0151C41.4868 67.0151 40.435 65.4208 41.6172 63.9385C41.6172 63.9385 45.1878 63.0625 46.1517 58.9736C47.1156 54.8846 42.2567 46.5884 40.4714 46.3338C39.8288 46.2428 39.3468 46.9248 39.3468 46.9248C39.3468 46.9248 38.5921 47.1279 37.9707 47.2219Z" fill="#2C2A40"/>
<path opacity="0.2" d="M60.6284 74.0716C60.6284 74.0716 49.8649 77.5756 44.0573 76.0054C43.6238 75.8872 40.0895 75.1749 40.0895 75.1749C40.0895 75.1749 42.087 67.6001 41.5293 62.5715C41.3808 61.2378 41.0655 58.6068 40.1259 56.2183L39.6894 60.4588C39.1165 61.259 37.1766 61.3348 35.3428 61.1984C35.3428 61.1984 38.2708 59.6404 38.5861 56.1394C38.677 55.121 38.874 54.3026 39.1044 53.6509C39.6682 52.0656 40.4411 51.4867 40.4411 51.4867C40.4411 51.4867 40.5139 51.6018 40.6321 51.808C41.2019 52.784 42.8569 55.7909 43.0479 58.2158C43.2843 61.1499 44.2118 67.397 48.7404 71.098C51.2592 73.1562 59.6767 72.8349 59.8131 70.1281C59.8131 70.1008 59.8161 70.0735 59.8191 70.0462C60.2829 72.453 60.6284 74.0716 60.6284 74.0716Z" fill="#2C2A40"/>
</svg>
